<?xml version="1.0" encoding="utf-8" standalone="no"?>
<!DOCTYPE svg PUBLIC "-//W3C//DTD SVG 1.1//EN"
  "http://www.w3.org/Graphics/SVG/1.1/DTD/svg11.dtd">
<svg xmlns:xlink="http://www.w3.org/1999/xlink" width="237.6pt" height="144pt" viewBox="0 0 237.6 144" xmlns="http://www.w3.org/2000/svg" version="1.1">
 <metadata>
  <rdf:RDF xmlns:dc="http://purl.org/dc/elements/1.1/" xmlns:cc="http://creativecommons.org/ns#" xmlns:rdf="http://www.w3.org/1999/02/22-rdf-syntax-ns#">
   <cc:Work>
    <dc:type rdf:resource="http://purl.org/dc/dcmitype/StillImage"/>
    <dc:date>2026-04-03T17:59:49.762482</dc:date>
    <dc:format>image/svg+xml</dc:format>
    <dc:creator>
     <cc:Agent>
      <dc:title>Matplotlib v3.10.8, https://matplotlib.org/</dc:title>
     </cc:Agent>
    </dc:creator>
   </cc:Work>
  </rdf:RDF>
 </metadata>
 <defs>
  <style type="text/css">*{stroke-linejoin: round; stroke-linecap: butt}</style>
 </defs>
 <g id="figure_1">
  <g id="patch_1">
   <path d="M 0 144 
L 237.6 144 
L 237.6 0 
L 0 0 
z
" style="fill: #ffffff"/>
  </g>
  <g id="axes_1">
   <g id="patch_2">
    <path d="M 44.66 103.264 
L 226.8 103.264 
L 226.8 10.8 
L 44.66 10.8 
z
" style="fill: #ffffff"/>
   </g>
   <g id="FillBetweenPolyCollection_1">
    <defs>
     <path id="m4377a23971" d="M 56.394588 -44.938909 
L 54.824943 -44.938909 
L 54.800517 -44.939455 
L 54.776188 -44.94 
L 54.751974 -44.940546 
L 54.727894 -44.941092 
L 54.703963 -44.941638 
L 54.680199 -44.942183 
L 54.656617 -44.942729 
L 54.63323 -44.943275 
L 54.610054 -44.94382 
L 54.587103 -44.944366 
L 54.56439 -44.944912 
L 54.541929 -44.945457 
L 54.519733 -44.946003 
L 54.497814 -44.946549 
L 54.476187 -44.947094 
L 54.454861 -44.94764 
L 54.433848 -44.948186 
L 54.413156 -44.948731 
L 54.392794 -44.949277 
L 54.372765 -44.949823 
L 54.353071 -44.950369 
L 54.333712 -44.950914 
L 54.314681 -44.95146 
L 54.295969 -44.952006 
L 54.277559 -44.952551 
L 54.259432 -44.953097 
L 54.241559 -44.953643 
L 54.223908 -44.954188 
L 54.206438 -44.954734 
L 54.189101 -44.95528 
L 54.171842 -44.955825 
L 54.154601 -44.956371 
L 54.137309 -44.956917 
L 54.119891 -44.957463 
L 54.102266 -44.958008 
L 54.084348 -44.958554 
L 54.066047 -44.9591 
L 54.047271 -44.959645 
L 54.027923 -44.960191 
L 54.007908 -44.960737 
L 53.987131 -44.961282 
L 53.965499 -44.961828 
L 53.942926 -44.962374 
L 53.919329 -44.962919 
L 53.894635 -44.963465 
L 53.868779 -44.964011 
L 53.841712 -44.964556 
L 53.813394 -44.965102 
L 53.783803 -44.965648 
L 53.752933 -44.966194 
L 53.720798 -44.966739 
L 53.687431 -44.967285 
L 53.652885 -44.967831 
L 53.617236 -44.968376 
L 53.580581 -44.968922 
L 53.54304 -44.969468 
L 53.504756 -44.970013 
L 53.465892 -44.970559 
L 53.426634 -44.971105 
L 53.387186 -44.97165 
L 53.347773 -44.972196 
L 53.308635 -44.972742 
L 53.270027 -44.973288 
L 53.232215 -44.973833 
L 53.195477 -44.974379 
L 53.160096 -44.974925 
L 53.126361 -44.97547 
L 53.094559 -44.976016 
L 53.064976 -44.976562 
L 53.037891 -44.977107 
L 53.013576 -44.977653 
L 52.99229 -44.978199 
L 52.974274 -44.978744 
L 52.959754 -44.97929 
L 52.948935 -44.979836 
L 52.941995 -44.980381 
L 52.939091 -44.980927 
L 52.940349 -44.981473 
L 52.945867 -44.982019 
L 52.955713 -44.982564 
L 52.969925 -44.98311 
L 52.988509 -44.983656 
L 53.011437 -44.984201 
L 53.038655 -44.984747 
L 53.070075 -44.985293 
L 53.105582 -44.985838 
L 53.145032 -44.986384 
L 53.188257 -44.98693 
L 53.235062 -44.987475 
L 53.285234 -44.988021 
L 53.338539 -44.988567 
L 53.394727 -44.989113 
L 53.453532 -44.989658 
L 53.514681 -44.990204 
L 53.577888 -44.99075 
L 53.642866 -44.991295 
L 53.709321 -44.991841 
L 53.776962 -44.992387 
L 53.845498 -44.992932 
L 57.374032 -44.992932 
L 57.374032 -44.992932 
L 57.442569 -44.992387 
L 57.51021 -44.991841 
L 57.576665 -44.991295 
L 57.641643 -44.99075 
L 57.70485 -44.990204 
L 57.765999 -44.989658 
L 57.824804 -44.989113 
L 57.880991 -44.988567 
L 57.934296 -44.988021 
L 57.984469 -44.987475 
L 58.031274 -44.98693 
L 58.074499 -44.986384 
L 58.113949 -44.985838 
L 58.149456 -44.985293 
L 58.180876 -44.984747 
L 58.208094 -44.984201 
L 58.231022 -44.983656 
L 58.249605 -44.98311 
L 58.263817 -44.982564 
L 58.273664 -44.982019 
L 58.279182 -44.981473 
L 58.28044 -44.980927 
L 58.277535 -44.980381 
L 58.270596 -44.979836 
L 58.259776 -44.97929 
L 58.245257 -44.978744 
L 58.227241 -44.978199 
L 58.205955 -44.977653 
L 58.18164 -44.977107 
L 58.154555 -44.976562 
L 58.124972 -44.976016 
L 58.09317 -44.97547 
L 58.059434 -44.974925 
L 58.024054 -44.974379 
L 57.987316 -44.973833 
L 57.949504 -44.973288 
L 57.910896 -44.972742 
L 57.871757 -44.972196 
L 57.832344 -44.97165 
L 57.792897 -44.971105 
L 57.753639 -44.970559 
L 57.714775 -44.970013 
L 57.676491 -44.969468 
L 57.63895 -44.968922 
L 57.602295 -44.968376 
L 57.566646 -44.967831 
L 57.5321 -44.967285 
L 57.498732 -44.966739 
L 57.466598 -44.966194 
L 57.435728 -44.965648 
L 57.406137 -44.965102 
L 57.377819 -44.964556 
L 57.350751 -44.964011 
L 57.324896 -44.963465 
L 57.300202 -44.962919 
L 57.276605 -44.962374 
L 57.254031 -44.961828 
L 57.2324 -44.961282 
L 57.211623 -44.960737 
L 57.191608 -44.960191 
L 57.17226 -44.959645 
L 57.153483 -44.9591 
L 57.135183 -44.958554 
L 57.117265 -44.958008 
L 57.09964 -44.957463 
L 57.082222 -44.956917 
L 57.06493 -44.956371 
L 57.047689 -44.955825 
L 57.03043 -44.95528 
L 57.013093 -44.954734 
L 56.995623 -44.954188 
L 56.977972 -44.953643 
L 56.960099 -44.953097 
L 56.941971 -44.952551 
L 56.923562 -44.952006 
L 56.904849 -44.95146 
L 56.885819 -44.950914 
L 56.866459 -44.950369 
L 56.846766 -44.949823 
L 56.826737 -44.949277 
L 56.806374 -44.948731 
L 56.785683 -44.948186 
L 56.76467 -44.94764 
L 56.743344 -44.947094 
L 56.721716 -44.946549 
L 56.699798 -44.946003 
L 56.677602 -44.945457 
L 56.655141 -44.944912 
L 56.632428 -44.944366 
L 56.609476 -44.94382 
L 56.586301 -44.943275 
L 56.562914 -44.942729 
L 56.539332 -44.942183 
L 56.515567 -44.941638 
L 56.491637 -44.941092 
L 56.467556 -44.940546 
L 56.443342 -44.94 
L 56.419013 -44.939455 
L 56.394588 -44.938909 
z
" style="stroke: #6f6f6f; stroke-opacity: 0.5"/>
    </defs>
    <g clip-path="url(#pa72415ccf7)">
     <use xlink:href="#m4377a23971" x="0" y="144" style="fill: #9e9e9e; fill-opacity: 0.5; stroke: #6f6f6f; stroke-opacity: 0.5"/>
    </g>
   </g>
   <g id="FillBetweenPolyCollection_2">
    <defs>
     <path id="mbd66290752" d="M 109.707648 -94.714112 
L 108.338862 -94.714112 
L 108.310431 -94.714732 
L 108.281052 -94.715351 
L 108.250609 -94.715971 
L 108.218983 -94.71659 
L 108.186055 -94.71721 
L 108.151706 -94.717829 
L 108.115824 -94.718449 
L 108.078308 -94.719068 
L 108.039067 -94.719687 
L 107.998025 -94.720307 
L 107.955126 -94.720926 
L 107.910333 -94.721546 
L 107.863635 -94.722165 
L 107.815044 -94.722785 
L 107.7646 -94.723404 
L 107.712368 -94.724024 
L 107.658445 -94.724643 
L 107.602954 -94.725263 
L 107.546043 -94.725882 
L 107.487888 -94.726502 
L 107.428689 -94.727121 
L 107.368666 -94.72774 
L 107.308061 -94.72836 
L 107.247128 -94.728979 
L 107.186138 -94.729599 
L 107.12537 -94.730218 
L 107.065108 -94.730838 
L 107.00564 -94.731457 
L 106.947254 -94.732077 
L 106.890234 -94.732696 
L 106.834859 -94.733316 
L 106.781399 -94.733935 
L 106.730113 -94.734555 
L 106.681247 -94.735174 
L 106.635037 -94.735793 
L 106.5917 -94.736413 
L 106.551441 -94.737032 
L 106.514451 -94.737652 
L 106.480902 -94.738271 
L 106.450954 -94.738891 
L 106.424752 -94.73951 
L 106.402427 -94.74013 
L 106.384096 -94.740749 
L 106.369862 -94.741369 
L 106.359816 -94.741988 
L 106.354034 -94.742608 
L 106.352581 -94.743227 
L 106.355504 -94.743846 
L 106.362839 -94.744466 
L 106.374603 -94.745085 
L 106.390796 -94.745705 
L 106.411399 -94.746324 
L 106.436374 -94.746944 
L 106.465659 -94.747563 
L 106.499167 -94.748183 
L 106.536789 -94.748802 
L 106.578385 -94.749422 
L 106.623791 -94.750041 
L 106.672812 -94.750661 
L 106.725226 -94.75128 
L 106.780782 -94.751899 
L 106.839202 -94.752519 
L 106.900183 -94.753138 
L 106.963398 -94.753758 
L 107.028501 -94.754377 
L 107.095126 -94.754997 
L 107.162896 -94.755616 
L 107.231424 -94.756236 
L 107.300319 -94.756855 
L 107.36919 -94.757475 
L 107.437654 -94.758094 
L 107.505337 -94.758714 
L 107.57188 -94.759333 
L 107.636948 -94.759952 
L 107.70023 -94.760572 
L 107.761444 -94.761191 
L 107.820341 -94.761811 
L 107.87671 -94.76243 
L 107.930377 -94.76305 
L 107.981209 -94.763669 
L 108.029113 -94.764289 
L 108.074038 -94.764908 
L 108.115973 -94.765528 
L 108.154946 -94.766147 
L 108.191021 -94.766767 
L 108.224299 -94.767386 
L 108.254908 -94.768005 
L 108.283007 -94.768625 
L 108.308773 -94.769244 
L 108.332407 -94.769864 
L 108.354121 -94.770483 
L 108.374137 -94.771103 
L 108.392681 -94.771722 
L 108.40998 -94.772342 
L 108.426259 -94.772961 
L 108.441731 -94.773581 
L 108.456602 -94.7742 
L 108.47106 -94.77482 
L 108.485278 -94.775439 
L 109.561232 -94.775439 
L 109.561232 -94.775439 
L 109.57545 -94.77482 
L 109.589909 -94.7742 
L 109.604779 -94.773581 
L 109.620252 -94.772961 
L 109.63653 -94.772342 
L 109.65383 -94.771722 
L 109.672374 -94.771103 
L 109.692389 -94.770483 
L 109.714103 -94.769864 
L 109.737737 -94.769244 
L 109.763504 -94.768625 
L 109.791602 -94.768005 
L 109.822211 -94.767386 
L 109.855489 -94.766767 
L 109.891565 -94.766147 
L 109.930538 -94.765528 
L 109.972473 -94.764908 
L 110.017398 -94.764289 
L 110.065302 -94.763669 
L 110.116133 -94.76305 
L 110.169801 -94.76243 
L 110.226169 -94.761811 
L 110.285067 -94.761191 
L 110.34628 -94.760572 
L 110.409562 -94.759952 
L 110.47463 -94.759333 
L 110.541174 -94.758714 
L 110.608856 -94.758094 
L 110.67732 -94.757475 
L 110.746191 -94.756855 
L 110.815086 -94.756236 
L 110.883614 -94.755616 
L 110.951384 -94.754997 
L 111.018009 -94.754377 
L 111.083112 -94.753758 
L 111.146327 -94.753138 
L 111.207308 -94.752519 
L 111.265729 -94.751899 
L 111.321284 -94.75128 
L 111.373698 -94.750661 
L 111.422719 -94.750041 
L 111.468125 -94.749422 
L 111.509721 -94.748802 
L 111.547343 -94.748183 
L 111.580851 -94.747563 
L 111.610136 -94.746944 
L 111.635111 -94.746324 
L 111.655714 -94.745705 
L 111.671907 -94.745085 
L 111.683671 -94.744466 
L 111.691006 -94.743846 
L 111.69393 -94.743227 
L 111.692476 -94.742608 
L 111.686695 -94.741988 
L 111.676648 -94.741369 
L 111.662415 -94.740749 
L 111.644083 -94.74013 
L 111.621758 -94.73951 
L 111.595556 -94.738891 
L 111.565609 -94.738271 
L 111.53206 -94.737652 
L 111.495069 -94.737032 
L 111.45481 -94.736413 
L 111.411474 -94.735793 
L 111.365263 -94.735174 
L 111.316397 -94.734555 
L 111.265111 -94.733935 
L 111.211651 -94.733316 
L 111.156276 -94.732696 
L 111.099257 -94.732077 
L 111.040871 -94.731457 
L 110.981403 -94.730838 
L 110.92114 -94.730218 
L 110.860372 -94.729599 
L 110.799382 -94.728979 
L 110.73845 -94.72836 
L 110.677844 -94.72774 
L 110.617822 -94.727121 
L 110.558622 -94.726502 
L 110.500468 -94.725882 
L 110.443557 -94.725263 
L 110.388065 -94.724643 
L 110.334142 -94.724024 
L 110.281911 -94.723404 
L 110.231466 -94.722785 
L 110.182875 -94.722165 
L 110.136177 -94.721546 
L 110.091385 -94.720926 
L 110.048485 -94.720307 
L 110.007443 -94.719687 
L 109.968202 -94.719068 
L 109.930686 -94.718449 
L 109.894805 -94.717829 
L 109.860456 -94.71721 
L 109.827527 -94.71659 
L 109.795901 -94.715971 
L 109.765459 -94.715351 
L 109.73608 -94.714732 
L 109.707648 -94.714112 
z
" style="stroke: #6f6f6f; stroke-opacity: 0.5"/>
    </defs>
    <g clip-path="url(#pa72415ccf7)">
     <use xlink:href="#mbd66290752" x="0" y="144" style="fill: #9e9e9e; fill-opacity: 0.5; stroke: #6f6f6f; stroke-opacity: 0.5"/>
    </g>
   </g>
   <g id="FillBetweenPolyCollection_3">
    <defs>
     <path id="m0a607837fb" d="M 163.220864 -123.24422 
L 161.652626 -123.24422 
L 161.613699 -123.244413 
L 161.573139 -123.244606 
L 161.530857 -123.244799 
L 161.486769 -123.244991 
L 161.440803 -123.245184 
L 161.392899 -123.245377 
L 161.34301 -123.24557 
L 161.291113 -123.245763 
L 161.237204 -123.245955 
L 161.181305 -123.246148 
L 161.123466 -123.246341 
L 161.063766 -123.246534 
L 161.002317 -123.246727 
L 160.939262 -123.246919 
L 160.874781 -123.247112 
L 160.809083 -123.247305 
L 160.742416 -123.247498 
L 160.675058 -123.247691 
L 160.607318 -123.247883 
L 160.539533 -123.248076 
L 160.472068 -123.248269 
L 160.40531 -123.248462 
L 160.339663 -123.248655 
L 160.275548 -123.248847 
L 160.213395 -123.24904 
L 160.153638 -123.249233 
L 160.096712 -123.249426 
L 160.043045 -123.249618 
L 159.993057 -123.249811 
L 159.94715 -123.250004 
L 159.905706 -123.250197 
L 159.869079 -123.25039 
L 159.837595 -123.250582 
L 159.811545 -123.250775 
L 159.79118 -123.250968 
L 159.77671 -123.251161 
L 159.7683 -123.251354 
L 159.76607 -123.251546 
L 159.77009 -123.251739 
L 159.78038 -123.251932 
L 159.79691 -123.252125 
L 159.819603 -123.252318 
L 159.84833 -123.25251 
L 159.882916 -123.252703 
L 159.923139 -123.252896 
L 159.968736 -123.253089 
L 160.019401 -123.253282 
L 160.074793 -123.253474 
L 160.134538 -123.253667 
L 160.19823 -123.25386 
L 160.265441 -123.254053 
L 160.335723 -123.254246 
L 160.408609 -123.254438 
L 160.483624 -123.254631 
L 160.560286 -123.254824 
L 160.638112 -123.255017 
L 160.716621 -123.25521 
L 160.795342 -123.255402 
L 160.873815 -123.255595 
L 160.951596 -123.255788 
L 161.02826 -123.255981 
L 161.103409 -123.256174 
L 161.176669 -123.256366 
L 161.247696 -123.256559 
L 161.316177 -123.256752 
L 161.381835 -123.256945 
L 161.444425 -123.257137 
L 161.503742 -123.25733 
L 161.559617 -123.257523 
L 161.611915 -123.257716 
L 161.660544 -123.257909 
L 161.705445 -123.258101 
L 161.746595 -123.258294 
L 161.784009 -123.258487 
L 161.817732 -123.25868 
L 161.847842 -123.258873 
L 161.874446 -123.259065 
L 161.897681 -123.259258 
L 161.917705 -123.259451 
L 161.9347 -123.259644 
L 161.948869 -123.259837 
L 161.960429 -123.260029 
L 161.969613 -123.260222 
L 161.976662 -123.260415 
L 161.981826 -123.260608 
L 161.985361 -123.260801 
L 161.987523 -123.260993 
L 161.988566 -123.261186 
L 161.98874 -123.261379 
L 161.98829 -123.261572 
L 161.987449 -123.261765 
L 161.986441 -123.261957 
L 161.985472 -123.26215 
L 161.984737 -123.262343 
L 161.984409 -123.262536 
L 161.984646 -123.262729 
L 161.985583 -123.262921 
L 161.987336 -123.263114 
L 161.99 -123.263307 
L 162.88349 -123.263307 
L 162.88349 -123.263307 
L 162.886153 -123.263114 
L 162.887906 -123.262921 
L 162.888844 -123.262729 
L 162.88908 -123.262536 
L 162.888753 -123.262343 
L 162.888017 -123.26215 
L 162.887049 -123.261957 
L 162.88604 -123.261765 
L 162.8852 -123.261572 
L 162.88475 -123.261379 
L 162.884924 -123.261186 
L 162.885967 -123.260993 
L 162.888128 -123.260801 
L 162.891663 -123.260608 
L 162.896828 -123.260415 
L 162.903877 -123.260222 
L 162.91306 -123.260029 
L 162.924621 -123.259837 
L 162.938789 -123.259644 
L 162.955785 -123.259451 
L 162.975809 -123.259258 
L 162.999043 -123.259065 
L 163.025648 -123.258873 
L 163.055758 -123.25868 
L 163.089481 -123.258487 
L 163.126894 -123.258294 
L 163.168045 -123.258101 
L 163.212946 -123.257909 
L 163.261574 -123.257716 
L 163.313873 -123.257523 
L 163.369747 -123.25733 
L 163.429064 -123.257137 
L 163.491655 -123.256945 
L 163.557313 -123.256752 
L 163.625794 -123.256559 
L 163.696821 -123.256366 
L 163.77008 -123.256174 
L 163.845229 -123.255981 
L 163.921894 -123.255788 
L 163.999675 -123.255595 
L 164.078147 -123.255402 
L 164.156868 -123.25521 
L 164.235378 -123.255017 
L 164.313204 -123.254824 
L 164.389866 -123.254631 
L 164.464881 -123.254438 
L 164.537767 -123.254246 
L 164.608048 -123.254053 
L 164.67526 -123.25386 
L 164.738952 -123.253667 
L 164.798696 -123.253474 
L 164.854089 -123.253282 
L 164.904754 -123.253089 
L 164.95035 -123.252896 
L 164.990574 -123.252703 
L 165.025159 -123.25251 
L 165.053886 -123.252318 
L 165.076579 -123.252125 
L 165.09311 -123.251932 
L 165.1034 -123.251739 
L 165.107419 -123.251546 
L 165.105189 -123.251354 
L 165.09678 -123.251161 
L 165.08231 -123.250968 
L 165.061945 -123.250775 
L 165.035895 -123.250582 
L 165.004411 -123.25039 
L 164.967784 -123.250197 
L 164.926339 -123.250004 
L 164.880432 -123.249811 
L 164.830444 -123.249618 
L 164.776778 -123.249426 
L 164.719852 -123.249233 
L 164.660095 -123.24904 
L 164.597941 -123.248847 
L 164.533826 -123.248655 
L 164.46818 -123.248462 
L 164.401421 -123.248269 
L 164.333957 -123.248076 
L 164.266172 -123.247883 
L 164.198432 -123.247691 
L 164.131073 -123.247498 
L 164.064406 -123.247305 
L 163.998709 -123.247112 
L 163.934227 -123.246919 
L 163.871173 -123.246727 
L 163.809723 -123.246534 
L 163.750023 -123.246341 
L 163.692184 -123.246148 
L 163.636285 -123.245955 
L 163.582376 -123.245763 
L 163.530479 -123.24557 
L 163.480591 -123.245377 
L 163.432686 -123.245184 
L 163.38672 -123.244991 
L 163.342633 -123.244799 
L 163.300351 -123.244606 
L 163.259791 -123.244413 
L 163.220864 -123.24422 
z
" style="stroke: #6f6f6f; stroke-opacity: 0.5"/>
    </defs>
    <g clip-path="url(#pa72415ccf7)">
     <use xlink:href="#m0a607837fb" x="0" y="144" style="fill: #9e9e9e; fill-opacity: 0.5; stroke: #6f6f6f; stroke-opacity: 0.5"/>
    </g>
   </g>
   <g id="FillBetweenPolyCollection_4">
    <defs>
     <path id="mc69f5cbb58" d="M 190.408395 -127.258216 
L 187.878585 -127.258216 
L 187.852801 -127.258397 
L 187.82764 -127.258579 
L 187.803064 -127.25876 
L 187.779022 -127.258942 
L 187.755457 -127.259123 
L 187.732304 -127.259305 
L 187.709493 -127.259486 
L 187.686946 -127.259668 
L 187.664583 -127.25985 
L 187.642322 -127.260031 
L 187.620076 -127.260213 
L 187.597761 -127.260394 
L 187.575294 -127.260576 
L 187.552592 -127.260757 
L 187.529579 -127.260939 
L 187.506184 -127.26112 
L 187.48234 -127.261302 
L 187.457989 -127.261483 
L 187.433083 -127.261665 
L 187.407582 -127.261847 
L 187.381456 -127.262028 
L 187.354687 -127.26221 
L 187.327266 -127.262391 
L 187.299199 -127.262573 
L 187.2705 -127.262754 
L 187.241198 -127.262936 
L 187.211331 -127.263117 
L 187.180948 -127.263299 
L 187.150109 -127.26348 
L 187.118885 -127.263662 
L 187.087354 -127.263844 
L 187.055604 -127.264025 
L 187.023727 -127.264207 
L 186.991824 -127.264388 
L 186.96 -127.26457 
L 186.928364 -127.264751 
L 186.897026 -127.264933 
L 186.866099 -127.265114 
L 186.835696 -127.265296 
L 186.805928 -127.265477 
L 186.776904 -127.265659 
L 186.748732 -127.265841 
L 186.721513 -127.266022 
L 186.695346 -127.266204 
L 186.670322 -127.266385 
L 186.646526 -127.266567 
L 186.624038 -127.266748 
L 186.602929 -127.26693 
L 186.583263 -127.267111 
L 186.565097 -127.267293 
L 186.548479 -127.267474 
L 186.533449 -127.267656 
L 186.520041 -127.267838 
L 186.50828 -127.268019 
L 186.498184 -127.268201 
L 186.489766 -127.268382 
L 186.483029 -127.268564 
L 186.477974 -127.268745 
L 186.474594 -127.268927 
L 186.472879 -127.269108 
L 186.472815 -127.26929 
L 186.474383 -127.269471 
L 186.477562 -127.269653 
L 186.482329 -127.269835 
L 186.488659 -127.270016 
L 186.496526 -127.270198 
L 186.505903 -127.270379 
L 186.516764 -127.270561 
L 186.529081 -127.270742 
L 186.542831 -127.270924 
L 186.557987 -127.271105 
L 186.574526 -127.271287 
L 186.592427 -127.271468 
L 186.611669 -127.27165 
L 186.632234 -127.271832 
L 186.654104 -127.272013 
L 186.677264 -127.272195 
L 186.701699 -127.272376 
L 186.727398 -127.272558 
L 186.754346 -127.272739 
L 186.782534 -127.272921 
L 186.811949 -127.273102 
L 186.842581 -127.273284 
L 186.874417 -127.273465 
L 186.907445 -127.273647 
L 186.94165 -127.273829 
L 186.977015 -127.27401 
L 187.013521 -127.274192 
L 187.051148 -127.274373 
L 187.089869 -127.274555 
L 187.129656 -127.274736 
L 187.170477 -127.274918 
L 187.212294 -127.275099 
L 187.255066 -127.275281 
L 187.298745 -127.275462 
L 187.343281 -127.275644 
L 187.388615 -127.275826 
L 187.434687 -127.276007 
L 187.48143 -127.276189 
L 190.805549 -127.276189 
L 190.805549 -127.276189 
L 190.852292 -127.276007 
L 190.898364 -127.275826 
L 190.943699 -127.275644 
L 190.988234 -127.275462 
L 191.031914 -127.275281 
L 191.074685 -127.275099 
L 191.116502 -127.274918 
L 191.157323 -127.274736 
L 191.197111 -127.274555 
L 191.235832 -127.274373 
L 191.273458 -127.274192 
L 191.309965 -127.27401 
L 191.34533 -127.273829 
L 191.379534 -127.273647 
L 191.412562 -127.273465 
L 191.444398 -127.273284 
L 191.47503 -127.273102 
L 191.504446 -127.272921 
L 191.532633 -127.272739 
L 191.559582 -127.272558 
L 191.58528 -127.272376 
L 191.609716 -127.272195 
L 191.632875 -127.272013 
L 191.654745 -127.271832 
L 191.67531 -127.27165 
L 191.694552 -127.271468 
L 191.712453 -127.271287 
L 191.728993 -127.271105 
L 191.744149 -127.270924 
L 191.757898 -127.270742 
L 191.770216 -127.270561 
L 191.781077 -127.270379 
L 191.790454 -127.270198 
L 191.79832 -127.270016 
L 191.80465 -127.269835 
L 191.809417 -127.269653 
L 191.812596 -127.269471 
L 191.814164 -127.26929 
L 191.8141 -127.269108 
L 191.812385 -127.268927 
L 191.809006 -127.268745 
L 191.803951 -127.268564 
L 191.797214 -127.268382 
L 191.788795 -127.268201 
L 191.778699 -127.268019 
L 191.766938 -127.267838 
L 191.75353 -127.267656 
L 191.7385 -127.267474 
L 191.721882 -127.267293 
L 191.703716 -127.267111 
L 191.68405 -127.26693 
L 191.662942 -127.266748 
L 191.640453 -127.266567 
L 191.616658 -127.266385 
L 191.591633 -127.266204 
L 191.565466 -127.266022 
L 191.538247 -127.265841 
L 191.510075 -127.265659 
L 191.481052 -127.265477 
L 191.451284 -127.265296 
L 191.42088 -127.265114 
L 191.389953 -127.264933 
L 191.358616 -127.264751 
L 191.326979 -127.26457 
L 191.295155 -127.264388 
L 191.263253 -127.264207 
L 191.231376 -127.264025 
L 191.199625 -127.263844 
L 191.168094 -127.263662 
L 191.13687 -127.26348 
L 191.106032 -127.263299 
L 191.075649 -127.263117 
L 191.045781 -127.262936 
L 191.016479 -127.262754 
L 190.987781 -127.262573 
L 190.959713 -127.262391 
L 190.932293 -127.26221 
L 190.905523 -127.262028 
L 190.879397 -127.261847 
L 190.853896 -127.261665 
L 190.82899 -127.261483 
L 190.80464 -127.261302 
L 190.780796 -127.26112 
L 190.7574 -127.260939 
L 190.734387 -127.260757 
L 190.711686 -127.260576 
L 190.689218 -127.260394 
L 190.666903 -127.260213 
L 190.644658 -127.260031 
L 190.622396 -127.25985 
L 190.600034 -127.259668 
L 190.577487 -127.259486 
L 190.554675 -127.259305 
L 190.531523 -127.259123 
L 190.507958 -127.258942 
L 190.483916 -127.25876 
L 190.459339 -127.258579 
L 190.434179 -127.258397 
L 190.408395 -127.258216 
z
" style="stroke: #6f6f6f; stroke-opacity: 0.5"/>
    </defs>
    <g clip-path="url(#pa72415ccf7)">
     <use xlink:href="#mc69f5cbb58" x="0" y="144" style="fill: #9e9e9e; fill-opacity: 0.5; stroke: #6f6f6f; stroke-opacity: 0.5"/>
    </g>
   </g>
   <g id="FillBetweenPolyCollection_5">
    <defs>
     <path id="m91e76ad152" d="M 216.640511 -128.979527 
L 215.059958 -128.979527 
L 215.037696 -128.979704 
L 215.016073 -128.979882 
L 214.995141 -128.980059 
L 214.974947 -128.980236 
L 214.955533 -128.980414 
L 214.936932 -128.980591 
L 214.919175 -128.980769 
L 214.902281 -128.980946 
L 214.886264 -128.981123 
L 214.87113 -128.981301 
L 214.856875 -128.981478 
L 214.843487 -128.981656 
L 214.830944 -128.981833 
L 214.819215 -128.982011 
L 214.808258 -128.982188 
L 214.798021 -128.982365 
L 214.788442 -128.982543 
L 214.779446 -128.98272 
L 214.77095 -128.982898 
L 214.762858 -128.983075 
L 214.755064 -128.983252 
L 214.747453 -128.98343 
L 214.739898 -128.983607 
L 214.732263 -128.983785 
L 214.724404 -128.983962 
L 214.716168 -128.98414 
L 214.707398 -128.984317 
L 214.697928 -128.984494 
L 214.687591 -128.984672 
L 214.676217 -128.984849 
L 214.663634 -128.985027 
L 214.649674 -128.985204 
L 214.634172 -128.985381 
L 214.616968 -128.985559 
L 214.597912 -128.985736 
L 214.576865 -128.985914 
L 214.5537 -128.986091 
L 214.528307 -128.986269 
L 214.500595 -128.986446 
L 214.470494 -128.986623 
L 214.437957 -128.986801 
L 214.402961 -128.986978 
L 214.365512 -128.987156 
L 214.325646 -128.987333 
L 214.283425 -128.98751 
L 214.238948 -128.987688 
L 214.19234 -128.987865 
L 214.143763 -128.988043 
L 214.093408 -128.98822 
L 214.041496 -128.988398 
L 213.988282 -128.988575 
L 213.934044 -128.988752 
L 213.879089 -128.98893 
L 213.823748 -128.989107 
L 213.768371 -128.989285 
L 213.713325 -128.989462 
L 213.658992 -128.989639 
L 213.60576 -128.989817 
L 213.554025 -128.989994 
L 213.504184 -128.990172 
L 213.456629 -128.990349 
L 213.411742 -128.990527 
L 213.369894 -128.990704 
L 213.331439 -128.990881 
L 213.296709 -128.991059 
L 213.266009 -128.991236 
L 213.239617 -128.991414 
L 213.217778 -128.991591 
L 213.2007 -128.991768 
L 213.188557 -128.991946 
L 213.181479 -128.992123 
L 213.17956 -128.992301 
L 213.18285 -128.992478 
L 213.191359 -128.992655 
L 213.205054 -128.992833 
L 213.223863 -128.99301 
L 213.247678 -128.993188 
L 213.276349 -128.993365 
L 213.309697 -128.993543 
L 213.347509 -128.99372 
L 213.389544 -128.993897 
L 213.435537 -128.994075 
L 213.4852 -128.994252 
L 213.538228 -128.99443 
L 213.594305 -128.994607 
L 213.653101 -128.994784 
L 213.714283 -128.994962 
L 213.777513 -128.995139 
L 213.842456 -128.995317 
L 213.908781 -128.995494 
L 213.976162 -128.995672 
L 214.044286 -128.995849 
L 214.112851 -128.996026 
L 214.181569 -128.996204 
L 214.250169 -128.996381 
L 214.318398 -128.996559 
L 214.38602 -128.996736 
L 214.45282 -128.996913 
L 214.518603 -128.997091 
L 217.181867 -128.997091 
L 217.181867 -128.997091 
L 217.247649 -128.996913 
L 217.314449 -128.996736 
L 217.382071 -128.996559 
L 217.4503 -128.996381 
L 217.5189 -128.996204 
L 217.587618 -128.996026 
L 217.656183 -128.995849 
L 217.724307 -128.995672 
L 217.791688 -128.995494 
L 217.858013 -128.995317 
L 217.922956 -128.995139 
L 217.986186 -128.994962 
L 218.047368 -128.994784 
L 218.106164 -128.994607 
L 218.162241 -128.99443 
L 218.21527 -128.994252 
L 218.264932 -128.994075 
L 218.310925 -128.993897 
L 218.35296 -128.99372 
L 218.390772 -128.993543 
L 218.42412 -128.993365 
L 218.452792 -128.993188 
L 218.476606 -128.99301 
L 218.495416 -128.992833 
L 218.509111 -128.992655 
L 218.517619 -128.992478 
L 218.520909 -128.992301 
L 218.51899 -128.992123 
L 218.511913 -128.991946 
L 218.499769 -128.991768 
L 218.482691 -128.991591 
L 218.460852 -128.991414 
L 218.43446 -128.991236 
L 218.40376 -128.991059 
L 218.36903 -128.990881 
L 218.330575 -128.990704 
L 218.288728 -128.990527 
L 218.243841 -128.990349 
L 218.196285 -128.990172 
L 218.146444 -128.989994 
L 218.094709 -128.989817 
L 218.041478 -128.989639 
L 217.987144 -128.989462 
L 217.932098 -128.989285 
L 217.876721 -128.989107 
L 217.82138 -128.98893 
L 217.766425 -128.988752 
L 217.712188 -128.988575 
L 217.658973 -128.988398 
L 217.607062 -128.98822 
L 217.556706 -128.988043 
L 217.508129 -128.987865 
L 217.461522 -128.987688 
L 217.417044 -128.98751 
L 217.374824 -128.987333 
L 217.334957 -128.987156 
L 217.297508 -128.986978 
L 217.262512 -128.986801 
L 217.229975 -128.986623 
L 217.199874 -128.986446 
L 217.172162 -128.986269 
L 217.146769 -128.986091 
L 217.123604 -128.985914 
L 217.102557 -128.985736 
L 217.083501 -128.985559 
L 217.066297 -128.985381 
L 217.050795 -128.985204 
L 217.036835 -128.985027 
L 217.024253 -128.984849 
L 217.012878 -128.984672 
L 217.002541 -128.984494 
L 216.993072 -128.984317 
L 216.984301 -128.98414 
L 216.976066 -128.983962 
L 216.968206 -128.983785 
L 216.960571 -128.983607 
L 216.953016 -128.98343 
L 216.945405 -128.983252 
L 216.937611 -128.983075 
L 216.929519 -128.982898 
L 216.921023 -128.98272 
L 216.912027 -128.982543 
L 216.902448 -128.982365 
L 216.892211 -128.982188 
L 216.881254 -128.982011 
L 216.869525 -128.981833 
L 216.856982 -128.981656 
L 216.843594 -128.981478 
L 216.829339 -128.981301 
L 216.814205 -128.981123 
L 216.798188 -128.980946 
L 216.781294 -128.980769 
L 216.763537 -128.980591 
L 216.744936 -128.980414 
L 216.725522 -128.980236 
L 216.705328 -128.980059 
L 216.684396 -128.979882 
L 216.662773 -128.979704 
L 216.640511 -128.979527 
z
" style="stroke: #6f6f6f; stroke-opacity: 0.5"/>
    </defs>
    <g clip-path="url(#pa72415ccf7)">
     <use xlink:href="#m91e76ad152" x="0" y="144" style="fill: #9e9e9e; fill-opacity: 0.5; stroke: #6f6f6f; stroke-opacity: 0.5"/>
    </g>
   </g>
   <g id="matplotlib.axis_1">
    <g id="xtick_1">
     <g id="line2d_1">
      <path d="M 55.609765 103.264 
L 55.609765 10.8 
" clip-path="url(#pa72415ccf7)" style="fill: none; stroke: #b0b0b0; stroke-opacity: 0.2; stroke-width: 0.8; stroke-linecap: square"/>
     </g>
     <g id="line2d_2">
      <defs>
       <path id="m3e03002ec4" d="M 0 0 
L 0 3.5 
" style="stroke: #000000; stroke-width: 0.8"/>
      </defs>
      <g>
       <use xlink:href="#m3e03002ec4" x="55.609765" y="103.264" style="stroke: #000000; stroke-width: 0.8"/>
      </g>
     </g>
     <g id="text_1">
      <!-- 0 -->
      <g transform="translate(53.064765 116.34275) scale(0.08 -0.08)">
       <defs>
        <path id="DejaVuSans-30" d="M 2034 4250 
Q 1547 4250 1301 3770 
Q 1056 3291 1056 2328 
Q 1056 1369 1301 889 
Q 1547 409 2034 409 
Q 2525 409 2770 889 
Q 3016 1369 3016 2328 
Q 3016 3291 2770 3770 
Q 2525 4250 2034 4250 
z
M 2034 4750 
Q 2819 4750 3233 4129 
Q 3647 3509 3647 2328 
Q 3647 1150 3233 529 
Q 2819 -91 2034 -91 
Q 1250 -91 836 529 
Q 422 1150 422 2328 
Q 422 3509 836 4129 
Q 1250 4750 2034 4750 
z
" transform="scale(0.015625)"/>
       </defs>
       <use xlink:href="#DejaVuSans-30"/>
      </g>
     </g>
    </g>
    <g id="xtick_2">
     <g id="line2d_3">
      <path d="M 109.023255 103.264 
L 109.023255 10.8 
" clip-path="url(#pa72415ccf7)" style="fill: none; stroke: #b0b0b0; stroke-opacity: 0.2; stroke-width: 0.8; stroke-linecap: square"/>
     </g>
     <g id="line2d_4">
      <g>
       <use xlink:href="#m3e03002ec4" x="109.023255" y="103.264" style="stroke: #000000; stroke-width: 0.8"/>
      </g>
     </g>
     <g id="text_2">
      <!-- 6 -->
      <g transform="translate(106.478255 116.34275) scale(0.08 -0.08)">
       <defs>
        <path id="DejaVuSans-36" d="M 2113 2584 
Q 1688 2584 1439 2293 
Q 1191 2003 1191 1497 
Q 1191 994 1439 701 
Q 1688 409 2113 409 
Q 2538 409 2786 701 
Q 3034 994 3034 1497 
Q 3034 2003 2786 2293 
Q 2538 2584 2113 2584 
z
M 3366 4563 
L 3366 3988 
Q 3128 4100 2886 4159 
Q 2644 4219 2406 4219 
Q 1781 4219 1451 3797 
Q 1122 3375 1075 2522 
Q 1259 2794 1537 2939 
Q 1816 3084 2150 3084 
Q 2853 3084 3261 2657 
Q 3669 2231 3669 1497 
Q 3669 778 3244 343 
Q 2819 -91 2113 -91 
Q 1303 -91 875 529 
Q 447 1150 447 2328 
Q 447 3434 972 4092 
Q 1497 4750 2381 4750 
Q 2619 4750 2861 4703 
Q 3103 4656 3366 4563 
z
" transform="scale(0.015625)"/>
       </defs>
       <use xlink:href="#DejaVuSans-36"/>
      </g>
     </g>
    </g>
    <g id="xtick_3">
     <g id="line2d_5">
      <path d="M 162.436745 103.264 
L 162.436745 10.8 
" clip-path="url(#pa72415ccf7)" style="fill: none; stroke: #b0b0b0; stroke-opacity: 0.2; stroke-width: 0.8; stroke-linecap: square"/>
     </g>
     <g id="line2d_6">
      <g>
       <use xlink:href="#m3e03002ec4" x="162.436745" y="103.264" style="stroke: #000000; stroke-width: 0.8"/>
      </g>
     </g>
     <g id="text_3">
      <!-- 12 -->
      <g transform="translate(157.346745 116.34275) scale(0.08 -0.08)">
       <defs>
        <path id="DejaVuSans-31" d="M 794 531 
L 1825 531 
L 1825 4091 
L 703 3866 
L 703 4441 
L 1819 4666 
L 2450 4666 
L 2450 531 
L 3481 531 
L 3481 0 
L 794 0 
L 794 531 
z
" transform="scale(0.015625)"/>
        <path id="DejaVuSans-32" d="M 1228 531 
L 3431 531 
L 3431 0 
L 469 0 
L 469 531 
Q 828 903 1448 1529 
Q 2069 2156 2228 2338 
Q 2531 2678 2651 2914 
Q 2772 3150 2772 3378 
Q 2772 3750 2511 3984 
Q 2250 4219 1831 4219 
Q 1534 4219 1204 4116 
Q 875 4013 500 3803 
L 500 4441 
Q 881 4594 1212 4672 
Q 1544 4750 1819 4750 
Q 2544 4750 2975 4387 
Q 3406 4025 3406 3419 
Q 3406 3131 3298 2873 
Q 3191 2616 2906 2266 
Q 2828 2175 2409 1742 
Q 1991 1309 1228 531 
z
" transform="scale(0.015625)"/>
       </defs>
       <use xlink:href="#DejaVuSans-31"/>
       <use xlink:href="#DejaVuSans-32" transform="translate(63.623047 0)"/>
      </g>
     </g>
    </g>
    <g id="xtick_4">
     <g id="line2d_7">
      <path d="M 189.14349 103.264 
L 189.14349 10.8 
" clip-path="url(#pa72415ccf7)" style="fill: none; stroke: #b0b0b0; stroke-opacity: 0.2; stroke-width: 0.8; stroke-linecap: square"/>
     </g>
     <g id="line2d_8">
      <g>
       <use xlink:href="#m3e03002ec4" x="189.14349" y="103.264" style="stroke: #000000; stroke-width: 0.8"/>
      </g>
     </g>
     <g id="text_4">
      <!-- 15 -->
      <g transform="translate(184.05349 116.34275) scale(0.08 -0.08)">
       <defs>
        <path id="DejaVuSans-35" d="M 691 4666 
L 3169 4666 
L 3169 4134 
L 1269 4134 
L 1269 2991 
Q 1406 3038 1543 3061 
Q 1681 3084 1819 3084 
Q 2600 3084 3056 2656 
Q 3513 2228 3513 1497 
Q 3513 744 3044 326 
Q 2575 -91 1722 -91 
Q 1428 -91 1123 -41 
Q 819 9 494 109 
L 494 744 
Q 775 591 1075 516 
Q 1375 441 1709 441 
Q 2250 441 2565 725 
Q 2881 1009 2881 1497 
Q 2881 1984 2565 2268 
Q 2250 2553 1709 2553 
Q 1456 2553 1204 2497 
Q 953 2441 691 2322 
L 691 4666 
z
" transform="scale(0.015625)"/>
       </defs>
       <use xlink:href="#DejaVuSans-31"/>
       <use xlink:href="#DejaVuSans-35" transform="translate(63.623047 0)"/>
      </g>
     </g>
    </g>
    <g id="xtick_5">
     <g id="line2d_9">
      <path d="M 215.850235 103.264 
L 215.850235 10.8 
" clip-path="url(#pa72415ccf7)" style="fill: none; stroke: #b0b0b0; stroke-opacity: 0.2; stroke-width: 0.8; stroke-linecap: square"/>
     </g>
     <g id="line2d_10">
      <g>
       <use xlink:href="#m3e03002ec4" x="215.850235" y="103.264" style="stroke: #000000; stroke-width: 0.8"/>
      </g>
     </g>
     <g id="text_5">
      <!-- 18 -->
      <g transform="translate(210.760235 116.34275) scale(0.08 -0.08)">
       <defs>
        <path id="DejaVuSans-38" d="M 2034 2216 
Q 1584 2216 1326 1975 
Q 1069 1734 1069 1313 
Q 1069 891 1326 650 
Q 1584 409 2034 409 
Q 2484 409 2743 651 
Q 3003 894 3003 1313 
Q 3003 1734 2745 1975 
Q 2488 2216 2034 2216 
z
M 1403 2484 
Q 997 2584 770 2862 
Q 544 3141 544 3541 
Q 544 4100 942 4425 
Q 1341 4750 2034 4750 
Q 2731 4750 3128 4425 
Q 3525 4100 3525 3541 
Q 3525 3141 3298 2862 
Q 3072 2584 2669 2484 
Q 3125 2378 3379 2068 
Q 3634 1759 3634 1313 
Q 3634 634 3220 271 
Q 2806 -91 2034 -91 
Q 1263 -91 848 271 
Q 434 634 434 1313 
Q 434 1759 690 2068 
Q 947 2378 1403 2484 
z
M 1172 3481 
Q 1172 3119 1398 2916 
Q 1625 2713 2034 2713 
Q 2441 2713 2670 2916 
Q 2900 3119 2900 3481 
Q 2900 3844 2670 4047 
Q 2441 4250 2034 4250 
Q 1625 4250 1398 4047 
Q 1172 3844 1172 3481 
z
" transform="scale(0.015625)"/>
       </defs>
       <use xlink:href="#DejaVuSans-31"/>
       <use xlink:href="#DejaVuSans-38" transform="translate(63.623047 0)"/>
      </g>
     </g>
    </g>
    <g id="text_6">
     <!-- $\varepsilon_\mathrm{reactiveLJ}$ -->
     <g transform="translate(115.63 128.584625) scale(0.1 -0.1)">
      <defs>
       <path id="DejaVuSans-Oblique-3b5" d="M 1263 1888 
Q 925 1963 778 2166 
Q 669 2309 669 2503 
Q 669 3034 1175 3344 
Q 1575 3588 2188 3588 
Q 2425 3588 2684 3550 
Q 2944 3513 3234 3438 
L 3134 2916 
Q 2847 3006 2606 3047 
Q 2359 3088 2138 3088 
Q 1766 3088 1522 2944 
Q 1228 2772 1228 2522 
Q 1228 2356 1381 2241 
Q 1563 2103 1925 2103 
L 2409 2103 
L 2319 1628 
L 1856 1628 
Q 1425 1628 1172 1469 
Q 828 1253 828 916 
Q 828 703 1013 563 
Q 1244 388 1716 388 
Q 2006 388 2284 444 
Q 2563 503 2806 619 
L 2700 84 
Q 2403 -3 2131 -47 
Q 1859 -91 1609 -91 
Q 866 -91 516 194 
Q 250 413 250 781 
Q 250 1278 600 1584 
Q 859 1813 1263 1888 
z
" transform="scale(0.015625)"/>
       <path id="DejaVuSans-72" d="M 2631 2963 
Q 2534 3019 2420 3045 
Q 2306 3072 2169 3072 
Q 1681 3072 1420 2755 
Q 1159 2438 1159 1844 
L 1159 0 
L 581 0 
L 581 3500 
L 1159 3500 
L 1159 2956 
Q 1341 3275 1631 3429 
Q 1922 3584 2338 3584 
Q 2397 3584 2469 3576 
Q 2541 3569 2628 3553 
L 2631 2963 
z
" transform="scale(0.015625)"/>
       <path id="DejaVuSans-65" d="M 3597 1894 
L 3597 1613 
L 953 1613 
Q 991 1019 1311 708 
Q 1631 397 2203 397 
Q 2534 397 2845 478 
Q 3156 559 3463 722 
L 3463 178 
Q 3153 47 2828 -22 
Q 2503 -91 2169 -91 
Q 1331 -91 842 396 
Q 353 884 353 1716 
Q 353 2575 817 3079 
Q 1281 3584 2069 3584 
Q 2775 3584 3186 3129 
Q 3597 2675 3597 1894 
z
M 3022 2063 
Q 3016 2534 2758 2815 
Q 2500 3097 2075 3097 
Q 1594 3097 1305 2825 
Q 1016 2553 972 2059 
L 3022 2063 
z
" transform="scale(0.015625)"/>
       <path id="DejaVuSans-61" d="M 2194 1759 
Q 1497 1759 1228 1600 
Q 959 1441 959 1056 
Q 959 750 1161 570 
Q 1363 391 1709 391 
Q 2188 391 2477 730 
Q 2766 1069 2766 1631 
L 2766 1759 
L 2194 1759 
z
M 3341 1997 
L 3341 0 
L 2766 0 
L 2766 531 
Q 2569 213 2275 61 
Q 1981 -91 1556 -91 
Q 1019 -91 701 211 
Q 384 513 384 1019 
Q 384 1609 779 1909 
Q 1175 2209 1959 2209 
L 2766 2209 
L 2766 2266 
Q 2766 2663 2505 2880 
Q 2244 3097 1772 3097 
Q 1472 3097 1187 3025 
Q 903 2953 641 2809 
L 641 3341 
Q 956 3463 1253 3523 
Q 1550 3584 1831 3584 
Q 2591 3584 2966 3190 
Q 3341 2797 3341 1997 
z
" transform="scale(0.015625)"/>
       <path id="DejaVuSans-63" d="M 3122 3366 
L 3122 2828 
Q 2878 2963 2633 3030 
Q 2388 3097 2138 3097 
Q 1578 3097 1268 2742 
Q 959 2388 959 1747 
Q 959 1106 1268 751 
Q 1578 397 2138 397 
Q 2388 397 2633 464 
Q 2878 531 3122 666 
L 3122 134 
Q 2881 22 2623 -34 
Q 2366 -91 2075 -91 
Q 1284 -91 818 406 
Q 353 903 353 1747 
Q 353 2603 823 3093 
Q 1294 3584 2113 3584 
Q 2378 3584 2631 3529 
Q 2884 3475 3122 3366 
z
" transform="scale(0.015625)"/>
       <path id="DejaVuSans-74" d="M 1172 4494 
L 1172 3500 
L 2356 3500 
L 2356 3053 
L 1172 3053 
L 1172 1153 
Q 1172 725 1289 603 
Q 1406 481 1766 481 
L 2356 481 
L 2356 0 
L 1766 0 
Q 1100 0 847 248 
Q 594 497 594 1153 
L 594 3053 
L 172 3053 
L 172 3500 
L 594 3500 
L 594 4494 
L 1172 4494 
z
" transform="scale(0.015625)"/>
       <path id="DejaVuSans-69" d="M 603 3500 
L 1178 3500 
L 1178 0 
L 603 0 
L 603 3500 
z
M 603 4863 
L 1178 4863 
L 1178 4134 
L 603 4134 
L 603 4863 
z
" transform="scale(0.015625)"/>
       <path id="DejaVuSans-76" d="M 191 3500 
L 800 3500 
L 1894 563 
L 2988 3500 
L 3597 3500 
L 2284 0 
L 1503 0 
L 191 3500 
z
" transform="scale(0.015625)"/>
       <path id="DejaVuSans-4c" d="M 628 4666 
L 1259 4666 
L 1259 531 
L 3531 531 
L 3531 0 
L 628 0 
L 628 4666 
z
" transform="scale(0.015625)"/>
       <path id="DejaVuSans-4a" d="M 628 4666 
L 1259 4666 
L 1259 325 
Q 1259 -519 939 -900 
Q 619 -1281 -91 -1281 
L -331 -1281 
L -331 -750 
L -134 -750 
Q 284 -750 456 -515 
Q 628 -281 628 325 
L 628 4666 
z
" transform="scale(0.015625)"/>
      </defs>
      <use xlink:href="#DejaVuSans-Oblique-3b5" transform="translate(0 0.9375)"/>
      <use xlink:href="#DejaVuSans-72" transform="translate(54.052734 -15.46875) scale(0.7)"/>
      <use xlink:href="#DejaVuSans-65" transform="translate(82.832031 -15.46875) scale(0.7)"/>
      <use xlink:href="#DejaVuSans-61" transform="translate(125.898438 -15.46875) scale(0.7)"/>
      <use xlink:href="#DejaVuSans-63" transform="translate(168.793945 -15.46875) scale(0.7)"/>
      <use xlink:href="#DejaVuSans-74" transform="translate(207.280273 -15.46875) scale(0.7)"/>
      <use xlink:href="#DejaVuSans-69" transform="translate(234.726562 -15.46875) scale(0.7)"/>
      <use xlink:href="#DejaVuSans-76" transform="translate(254.174805 -15.46875) scale(0.7)"/>
      <use xlink:href="#DejaVuSans-65" transform="translate(295.600586 -15.46875) scale(0.7)"/>
      <use xlink:href="#DejaVuSans-4c" transform="translate(338.666992 -15.46875) scale(0.7)"/>
      <use xlink:href="#DejaVuSans-4a" transform="translate(377.666016 -15.46875) scale(0.7)"/>
     </g>
    </g>
   </g>
   <g id="matplotlib.axis_2">
    <g id="ytick_1">
     <g id="line2d_11">
      <path d="M 44.66 81.067472 
L 226.8 81.067472 
" clip-path="url(#pa72415ccf7)" style="fill: none; stroke: #b0b0b0; stroke-opacity: 0.2; stroke-width: 0.8; stroke-linecap: square"/>
     </g>
     <g id="line2d_12">
      <defs>
       <path id="m13cbdba447" d="M 0 0 
L -3.5 0 
" style="stroke: #000000; stroke-width: 0.8"/>
      </defs>
      <g>
       <use xlink:href="#m13cbdba447" x="44.66" y="81.067472" style="stroke: #000000; stroke-width: 0.8"/>
      </g>
     </g>
     <g id="text_7">
      <!-- 0.5 -->
      <g transform="translate(24.9375 84.106847) scale(0.08 -0.08)">
       <defs>
        <path id="DejaVuSans-2e" d="M 684 794 
L 1344 794 
L 1344 0 
L 684 0 
L 684 794 
z
" transform="scale(0.015625)"/>
       </defs>
       <use xlink:href="#DejaVuSans-30"/>
       <use xlink:href="#DejaVuSans-2e" transform="translate(63.623047 0)"/>
       <use xlink:href="#DejaVuSans-35" transform="translate(95.410156 0)"/>
      </g>
     </g>
    </g>
    <g id="ytick_2">
     <g id="line2d_13">
      <path d="M 44.66 58.599497 
L 226.8 58.599497 
" clip-path="url(#pa72415ccf7)" style="fill: none; stroke: #b0b0b0; stroke-opacity: 0.2; stroke-width: 0.8; stroke-linecap: square"/>
     </g>
     <g id="line2d_14">
      <g>
       <use xlink:href="#m13cbdba447" x="44.66" y="58.599497" style="stroke: #000000; stroke-width: 0.8"/>
      </g>
     </g>
     <g id="text_8">
      <!-- 1.0 -->
      <g transform="translate(24.9375 61.638872) scale(0.08 -0.08)">
       <use xlink:href="#DejaVuSans-31"/>
       <use xlink:href="#DejaVuSans-2e" transform="translate(63.623047 0)"/>
       <use xlink:href="#DejaVuSans-30" transform="translate(95.410156 0)"/>
      </g>
     </g>
    </g>
    <g id="ytick_3">
     <g id="line2d_15">
      <path d="M 44.66 36.131523 
L 226.8 36.131523 
" clip-path="url(#pa72415ccf7)" style="fill: none; stroke: #b0b0b0; stroke-opacity: 0.2; stroke-width: 0.8; stroke-linecap: square"/>
     </g>
     <g id="line2d_16">
      <g>
       <use xlink:href="#m13cbdba447" x="44.66" y="36.131523" style="stroke: #000000; stroke-width: 0.8"/>
      </g>
     </g>
     <g id="text_9">
      <!-- 1.5 -->
      <g transform="translate(24.9375 39.170898) scale(0.08 -0.08)">
       <use xlink:href="#DejaVuSans-31"/>
       <use xlink:href="#DejaVuSans-2e" transform="translate(63.623047 0)"/>
       <use xlink:href="#DejaVuSans-35" transform="translate(95.410156 0)"/>
      </g>
     </g>
    </g>
    <g id="ytick_4">
     <g id="line2d_17">
      <path d="M 44.66 13.663548 
L 226.8 13.663548 
" clip-path="url(#pa72415ccf7)" style="fill: none; stroke: #b0b0b0; stroke-opacity: 0.2; stroke-width: 0.8; stroke-linecap: square"/>
     </g>
     <g id="line2d_18">
      <g>
       <use xlink:href="#m13cbdba447" x="44.66" y="13.663548" style="stroke: #000000; stroke-width: 0.8"/>
      </g>
     </g>
     <g id="text_10">
      <!-- 2.0 -->
      <g transform="translate(24.9375 16.702923) scale(0.08 -0.08)">
       <use xlink:href="#DejaVuSans-32"/>
       <use xlink:href="#DejaVuSans-2e" transform="translate(63.623047 0)"/>
       <use xlink:href="#DejaVuSans-30" transform="translate(95.410156 0)"/>
      </g>
     </g>
    </g>
    <g id="text_11">
     <!-- gelation epsilon -->
     <g transform="translate(18.857813 96.764031) rotate(-90) scale(0.1 -0.1)">
      <defs>
       <path id="DejaVuSans-67" d="M 2906 1791 
Q 2906 2416 2648 2759 
Q 2391 3103 1925 3103 
Q 1463 3103 1205 2759 
Q 947 2416 947 1791 
Q 947 1169 1205 825 
Q 1463 481 1925 481 
Q 2391 481 2648 825 
Q 2906 1169 2906 1791 
z
M 3481 434 
Q 3481 -459 3084 -895 
Q 2688 -1331 1869 -1331 
Q 1566 -1331 1297 -1286 
Q 1028 -1241 775 -1147 
L 775 -588 
Q 1028 -725 1275 -790 
Q 1522 -856 1778 -856 
Q 2344 -856 2625 -561 
Q 2906 -266 2906 331 
L 2906 616 
Q 2728 306 2450 153 
Q 2172 0 1784 0 
Q 1141 0 747 490 
Q 353 981 353 1791 
Q 353 2603 747 3093 
Q 1141 3584 1784 3584 
Q 2172 3584 2450 3431 
Q 2728 3278 2906 2969 
L 2906 3500 
L 3481 3500 
L 3481 434 
z
" transform="scale(0.015625)"/>
       <path id="DejaVuSans-6c" d="M 603 4863 
L 1178 4863 
L 1178 0 
L 603 0 
L 603 4863 
z
" transform="scale(0.015625)"/>
       <path id="DejaVuSans-6f" d="M 1959 3097 
Q 1497 3097 1228 2736 
Q 959 2375 959 1747 
Q 959 1119 1226 758 
Q 1494 397 1959 397 
Q 2419 397 2687 759 
Q 2956 1122 2956 1747 
Q 2956 2369 2687 2733 
Q 2419 3097 1959 3097 
z
M 1959 3584 
Q 2709 3584 3137 3096 
Q 3566 2609 3566 1747 
Q 3566 888 3137 398 
Q 2709 -91 1959 -91 
Q 1206 -91 779 398 
Q 353 888 353 1747 
Q 353 2609 779 3096 
Q 1206 3584 1959 3584 
z
" transform="scale(0.015625)"/>
       <path id="DejaVuSans-6e" d="M 3513 2113 
L 3513 0 
L 2938 0 
L 2938 2094 
Q 2938 2591 2744 2837 
Q 2550 3084 2163 3084 
Q 1697 3084 1428 2787 
Q 1159 2491 1159 1978 
L 1159 0 
L 581 0 
L 581 3500 
L 1159 3500 
L 1159 2956 
Q 1366 3272 1645 3428 
Q 1925 3584 2291 3584 
Q 2894 3584 3203 3211 
Q 3513 2838 3513 2113 
z
" transform="scale(0.015625)"/>
       <path id="DejaVuSans-20" transform="scale(0.015625)"/>
       <path id="DejaVuSans-70" d="M 1159 525 
L 1159 -1331 
L 581 -1331 
L 581 3500 
L 1159 3500 
L 1159 2969 
Q 1341 3281 1617 3432 
Q 1894 3584 2278 3584 
Q 2916 3584 3314 3078 
Q 3713 2572 3713 1747 
Q 3713 922 3314 415 
Q 2916 -91 2278 -91 
Q 1894 -91 1617 61 
Q 1341 213 1159 525 
z
M 3116 1747 
Q 3116 2381 2855 2742 
Q 2594 3103 2138 3103 
Q 1681 3103 1420 2742 
Q 1159 2381 1159 1747 
Q 1159 1113 1420 752 
Q 1681 391 2138 391 
Q 2594 391 2855 752 
Q 3116 1113 3116 1747 
z
" transform="scale(0.015625)"/>
       <path id="DejaVuSans-73" d="M 2834 3397 
L 2834 2853 
Q 2591 2978 2328 3040 
Q 2066 3103 1784 3103 
Q 1356 3103 1142 2972 
Q 928 2841 928 2578 
Q 928 2378 1081 2264 
Q 1234 2150 1697 2047 
L 1894 2003 
Q 2506 1872 2764 1633 
Q 3022 1394 3022 966 
Q 3022 478 2636 193 
Q 2250 -91 1575 -91 
Q 1294 -91 989 -36 
Q 684 19 347 128 
L 347 722 
Q 666 556 975 473 
Q 1284 391 1588 391 
Q 1994 391 2212 530 
Q 2431 669 2431 922 
Q 2431 1156 2273 1281 
Q 2116 1406 1581 1522 
L 1381 1569 
Q 847 1681 609 1914 
Q 372 2147 372 2553 
Q 372 3047 722 3315 
Q 1072 3584 1716 3584 
Q 2034 3584 2315 3537 
Q 2597 3491 2834 3397 
z
" transform="scale(0.015625)"/>
      </defs>
      <use xlink:href="#DejaVuSans-67"/>
      <use xlink:href="#DejaVuSans-65" transform="translate(63.476562 0)"/>
      <use xlink:href="#DejaVuSans-6c" transform="translate(125 0)"/>
      <use xlink:href="#DejaVuSans-61" transform="translate(152.783203 0)"/>
      <use xlink:href="#DejaVuSans-74" transform="translate(214.0625 0)"/>
      <use xlink:href="#DejaVuSans-69" transform="translate(253.271484 0)"/>
      <use xlink:href="#DejaVuSans-6f" transform="translate(281.054688 0)"/>
      <use xlink:href="#DejaVuSans-6e" transform="translate(342.236328 0)"/>
      <use xlink:href="#DejaVuSans-20" transform="translate(405.615234 0)"/>
      <use xlink:href="#DejaVuSans-65" transform="translate(437.402344 0)"/>
      <use xlink:href="#DejaVuSans-70" transform="translate(498.925781 0)"/>
      <use xlink:href="#DejaVuSans-73" transform="translate(562.402344 0)"/>
      <use xlink:href="#DejaVuSans-69" transform="translate(614.501953 0)"/>
      <use xlink:href="#DejaVuSans-6c" transform="translate(642.285156 0)"/>
      <use xlink:href="#DejaVuSans-6f" transform="translate(670.068359 0)"/>
      <use xlink:href="#DejaVuSans-6e" transform="translate(731.25 0)"/>
     </g>
    </g>
   </g>
   <g id="LineCollection_1">
    <path d="M 55.609765 99.039994 
L 55.609765 99.018124 
" clip-path="url(#pa72415ccf7)" style="fill: none; stroke: #2b2b2b; stroke-width: 2"/>
   </g>
   <g id="LineCollection_2">
    <path d="M 109.023255 49.263776 
L 109.023255 49.249098 
" clip-path="url(#pa72415ccf7)" style="fill: none; stroke: #2b2b2b; stroke-width: 2"/>
   </g>
   <g id="LineCollection_3">
    <path d="M 162.436745 20.750115 
L 162.436745 20.746996 
" clip-path="url(#pa72415ccf7)" style="fill: none; stroke: #2b2b2b; stroke-width: 2"/>
   </g>
   <g id="LineCollection_4">
    <path d="M 189.14349 16.735044 
L 189.14349 16.728119 
" clip-path="url(#pa72415ccf7)" style="fill: none; stroke: #2b2b2b; stroke-width: 2"/>
   </g>
   <g id="LineCollection_5">
    <path d="M 215.850235 15.013243 
L 215.850235 15.007206 
" clip-path="url(#pa72415ccf7)" style="fill: none; stroke: #2b2b2b; stroke-width: 2"/>
   </g>
   <g id="line2d_19">
    <path d="M 55.609765 99.02038 
L 109.023255 49.25668 
L 162.436745 20.748259 
L 189.14349 16.731941 
L 215.850235 15.008221 
" clip-path="url(#pa72415ccf7)" style="fill: none; stroke: #2b2b2b; stroke-opacity: 0.9; stroke-width: 1.8; stroke-linecap: square"/>
   </g>
   <g id="patch_3">
    <path d="M 44.66 103.264 
L 44.66 10.8 
" style="fill: none; stroke: #000000; stroke-width: 0.8; stroke-linejoin: miter; stroke-linecap: square"/>
   </g>
   <g id="patch_4">
    <path d="M 226.8 103.264 
L 226.8 10.8 
" style="fill: none; stroke: #000000; stroke-width: 0.8; stroke-linejoin: miter; stroke-linecap: square"/>
   </g>
   <g id="patch_5">
    <path d="M 44.66 103.264 
L 226.8 103.264 
" style="fill: none; stroke: #000000; stroke-width: 0.8; stroke-linejoin: miter; stroke-linecap: square"/>
   </g>
   <g id="patch_6">
    <path d="M 44.66 10.8 
L 226.8 10.8 
" style="fill: none; stroke: #000000; stroke-width: 0.8; stroke-linejoin: miter; stroke-linecap: square"/>
   </g>
   <g id="PathCollection_1">
    <defs>
     <path id="md5eb058bd8" d="M 0 2.12132 
C 0.562581 2.12132 1.102195 1.897805 1.5 1.5 
C 1.897805 1.102195 2.12132 0.562581 2.12132 0 
C 2.12132 -0.562581 1.897805 -1.102195 1.5 -1.5 
C 1.102195 -1.897805 0.562581 -2.12132 0 -2.12132 
C -0.562581 -2.12132 -1.102195 -1.897805 -1.5 -1.5 
C -1.897805 -1.102195 -2.12132 -0.562581 -2.12132 0 
C -2.12132 0.562581 -1.897805 1.102195 -1.5 1.5 
C -1.102195 1.897805 -0.562581 2.12132 0 2.12132 
z
" style="stroke: #2b2b2b"/>
    </defs>
    <g clip-path="url(#pa72415ccf7)">
     <use xlink:href="#md5eb058bd8" x="55.609765" y="99.02038" style="fill: #2b2b2b; stroke: #2b2b2b"/>
    </g>
   </g>
   <g id="PathCollection_2">
    <g clip-path="url(#pa72415ccf7)">
     <use xlink:href="#md5eb058bd8" x="109.023255" y="49.25668" style="fill: #2b2b2b; stroke: #2b2b2b"/>
    </g>
   </g>
   <g id="PathCollection_3">
    <g clip-path="url(#pa72415ccf7)">
     <use xlink:href="#md5eb058bd8" x="162.436745" y="20.748259" style="fill: #2b2b2b; stroke: #2b2b2b"/>
    </g>
   </g>
   <g id="PathCollection_4">
    <g clip-path="url(#pa72415ccf7)">
     <use xlink:href="#md5eb058bd8" x="189.14349" y="16.731941" style="fill: #2b2b2b; stroke: #2b2b2b"/>
    </g>
   </g>
   <g id="PathCollection_5">
    <g clip-path="url(#pa72415ccf7)">
     <use xlink:href="#md5eb058bd8" x="215.850235" y="15.008221" style="fill: #2b2b2b; stroke: #2b2b2b"/>
    </g>
   </g>
  </g>
 </g>
 <defs>
  <clipPath id="pa72415ccf7">
   <rect x="44.66" y="10.8" width="182.14" height="92.464"/>
  </clipPath>
 </defs>
</svg>
