<?xml version="1.0" encoding="utf-8" standalone="no"?>
<!DOCTYPE svg PUBLIC "-//W3C//DTD SVG 1.1//EN"
  "http://www.w3.org/Graphics/SVG/1.1/DTD/svg11.dtd">
<svg xmlns:xlink="http://www.w3.org/1999/xlink" width="237.6pt" height="144pt" viewBox="0 0 237.6 144" xmlns="http://www.w3.org/2000/svg" version="1.1">
 <metadata>
  <rdf:RDF xmlns:dc="http://purl.org/dc/elements/1.1/" xmlns:cc="http://creativecommons.org/ns#" xmlns:rdf="http://www.w3.org/1999/02/22-rdf-syntax-ns#">
   <cc:Work>
    <dc:type rdf:resource="http://purl.org/dc/dcmitype/StillImage"/>
    <dc:date>2026-04-21T00:55:04.475595</dc:date>
    <dc:format>image/svg+xml</dc:format>
    <dc:creator>
     <cc:Agent>
      <dc:title>Matplotlib v3.10.8, https://matplotlib.org/</dc:title>
     </cc:Agent>
    </dc:creator>
   </cc:Work>
  </rdf:RDF>
 </metadata>
 <defs>
  <style type="text/css">*{stroke-linejoin: round; stroke-linecap: butt}</style>
 </defs>
 <g id="figure_1">
  <g id="patch_1">
   <path d="M 0 144 
L 237.6 144 
L 237.6 0 
L 0 0 
z
" style="fill: #ffffff"/>
  </g>
  <g id="axes_1">
   <g id="patch_2">
    <path d="M 44.66 103.264 
L 226.8 103.264 
L 226.8 10.8 
L 44.66 10.8 
z
" style="fill: #ffffff"/>
   </g>
   <g id="FillBetweenPolyCollection_1">
    <defs>
     <path id="m4418631b2e" d="M 57.565659 -44.938909 
L 53.653872 -44.938909 
L 53.601182 -44.93911 
L 53.550025 -44.939311 
L 53.500526 -44.939512 
L 53.452804 -44.939712 
L 53.406966 -44.939913 
L 53.363107 -44.940114 
L 53.321313 -44.940315 
L 53.281655 -44.940516 
L 53.244193 -44.940716 
L 53.208974 -44.940917 
L 53.176033 -44.941118 
L 53.14539 -44.941319 
L 53.117055 -44.94152 
L 53.091021 -44.94172 
L 53.067272 -44.941921 
L 53.045778 -44.942122 
L 53.026498 -44.942323 
L 53.009379 -44.942524 
L 52.994359 -44.942724 
L 52.981365 -44.942925 
L 52.970313 -44.943126 
L 52.961116 -44.943327 
L 52.953676 -44.943528 
L 52.94789 -44.943728 
L 52.943651 -44.943929 
L 52.940847 -44.94413 
L 52.939365 -44.944331 
L 52.939091 -44.944532 
L 52.93991 -44.944732 
L 52.94171 -44.944933 
L 52.94438 -44.945134 
L 52.947815 -44.945335 
L 52.951915 -44.945536 
L 52.956585 -44.945736 
L 52.961738 -44.945937 
L 52.967297 -44.946138 
L 52.973194 -44.946339 
L 52.97937 -44.94654 
L 52.985777 -44.946741 
L 52.99238 -44.946941 
L 52.999154 -44.947142 
L 53.006088 -44.947343 
L 53.013179 -44.947544 
L 53.02044 -44.947745 
L 53.027892 -44.947945 
L 53.035569 -44.948146 
L 53.043514 -44.948347 
L 53.05178 -44.948548 
L 53.060427 -44.948749 
L 53.069524 -44.948949 
L 53.079144 -44.94915 
L 53.089365 -44.949351 
L 53.100271 -44.949552 
L 53.111943 -44.949753 
L 53.124465 -44.949953 
L 53.13792 -44.950154 
L 53.152386 -44.950355 
L 53.167941 -44.950556 
L 53.184652 -44.950757 
L 53.202584 -44.950957 
L 53.221792 -44.951158 
L 53.242321 -44.951359 
L 53.264209 -44.95156 
L 53.287481 -44.951761 
L 53.312154 -44.951961 
L 53.33823 -44.952162 
L 53.365703 -44.952363 
L 53.394554 -44.952564 
L 53.424753 -44.952765 
L 53.456261 -44.952965 
L 53.489027 -44.953166 
L 53.522991 -44.953367 
L 53.558085 -44.953568 
L 53.594234 -44.953769 
L 53.631356 -44.95397 
L 53.669364 -44.95417 
L 53.708166 -44.954371 
L 53.747669 -44.954572 
L 53.787776 -44.954773 
L 53.828391 -44.954974 
L 53.869419 -44.955174 
L 53.910766 -44.955375 
L 53.95234 -44.955576 
L 53.994054 -44.955777 
L 54.035824 -44.955978 
L 54.077573 -44.956178 
L 54.119227 -44.956379 
L 54.160719 -44.95658 
L 54.201989 -44.956781 
L 54.242981 -44.956982 
L 54.283647 -44.957182 
L 54.323945 -44.957383 
L 54.363838 -44.957584 
L 54.403294 -44.957785 
L 54.442288 -44.957986 
L 54.480798 -44.958186 
L 54.518805 -44.958387 
L 54.556297 -44.958588 
L 54.59326 -44.958789 
L 56.626271 -44.958789 
L 56.626271 -44.958789 
L 56.663234 -44.958588 
L 56.700725 -44.958387 
L 56.738733 -44.958186 
L 56.777243 -44.957986 
L 56.816237 -44.957785 
L 56.855693 -44.957584 
L 56.895586 -44.957383 
L 56.935884 -44.957182 
L 56.97655 -44.956982 
L 57.017542 -44.956781 
L 57.058812 -44.95658 
L 57.100304 -44.956379 
L 57.141958 -44.956178 
L 57.183707 -44.955978 
L 57.225477 -44.955777 
L 57.267191 -44.955576 
L 57.308765 -44.955375 
L 57.350112 -44.955174 
L 57.39114 -44.954974 
L 57.431755 -44.954773 
L 57.471862 -44.954572 
L 57.511365 -44.954371 
L 57.550167 -44.95417 
L 57.588175 -44.95397 
L 57.625297 -44.953769 
L 57.661446 -44.953568 
L 57.69654 -44.953367 
L 57.730504 -44.953166 
L 57.76327 -44.952965 
L 57.794777 -44.952765 
L 57.824977 -44.952564 
L 57.853828 -44.952363 
L 57.881301 -44.952162 
L 57.907377 -44.951961 
L 57.932049 -44.951761 
L 57.955322 -44.95156 
L 57.97721 -44.951359 
L 57.997739 -44.951158 
L 58.016947 -44.950957 
L 58.034878 -44.950757 
L 58.05159 -44.950556 
L 58.067144 -44.950355 
L 58.081611 -44.950154 
L 58.095066 -44.949953 
L 58.107588 -44.949753 
L 58.11926 -44.949552 
L 58.130165 -44.949351 
L 58.140387 -44.94915 
L 58.150007 -44.948949 
L 58.159104 -44.948749 
L 58.167751 -44.948548 
L 58.176017 -44.948347 
L 58.183962 -44.948146 
L 58.191639 -44.947945 
L 58.199091 -44.947745 
L 58.206352 -44.947544 
L 58.213443 -44.947343 
L 58.220376 -44.947142 
L 58.227151 -44.946941 
L 58.233754 -44.946741 
L 58.240161 -44.94654 
L 58.246337 -44.946339 
L 58.252233 -44.946138 
L 58.257793 -44.945937 
L 58.262946 -44.945736 
L 58.267616 -44.945536 
L 58.271715 -44.945335 
L 58.275151 -44.945134 
L 58.277821 -44.944933 
L 58.279621 -44.944732 
L 58.28044 -44.944532 
L 58.280166 -44.944331 
L 58.278684 -44.94413 
L 58.27588 -44.943929 
L 58.271641 -44.943728 
L 58.265855 -44.943528 
L 58.258415 -44.943327 
L 58.249217 -44.943126 
L 58.238166 -44.942925 
L 58.225172 -44.942724 
L 58.210151 -44.942524 
L 58.193033 -44.942323 
L 58.173753 -44.942122 
L 58.152259 -44.941921 
L 58.12851 -44.94172 
L 58.102476 -44.94152 
L 58.07414 -44.941319 
L 58.043498 -44.941118 
L 58.010557 -44.940917 
L 57.975338 -44.940716 
L 57.937876 -44.940516 
L 57.898218 -44.940315 
L 57.856424 -44.940114 
L 57.812565 -44.939913 
L 57.766727 -44.939712 
L 57.719005 -44.939512 
L 57.669506 -44.939311 
L 57.618349 -44.93911 
L 57.565659 -44.938909 
z
" style="stroke: #6f6f6f; stroke-opacity: 0.5"/>
    </defs>
    <g clip-path="url(#p212864feee)">
     <use xlink:href="#m4418631b2e" x="0" y="144" style="fill: #9e9e9e; fill-opacity: 0.5; stroke: #6f6f6f; stroke-opacity: 0.5"/>
    </g>
   </g>
   <g id="FillBetweenPolyCollection_2">
    <defs>
     <path id="m3c4470fd9c" d="M 109.843816 -94.723319 
L 108.202695 -94.723319 
L 108.173402 -94.723447 
L 108.143514 -94.723574 
L 108.112973 -94.723702 
L 108.08172 -94.723829 
L 108.049694 -94.723957 
L 108.016838 -94.724084 
L 107.983095 -94.724212 
L 107.948413 -94.724339 
L 107.912747 -94.724467 
L 107.87606 -94.724594 
L 107.83832 -94.724722 
L 107.79951 -94.724849 
L 107.759621 -94.724977 
L 107.71866 -94.725104 
L 107.676644 -94.725232 
L 107.633606 -94.725359 
L 107.589593 -94.725487 
L 107.544668 -94.725614 
L 107.498907 -94.725742 
L 107.452402 -94.725869 
L 107.405258 -94.725997 
L 107.357592 -94.726124 
L 107.309536 -94.726252 
L 107.261229 -94.726379 
L 107.212823 -94.726507 
L 107.164474 -94.726634 
L 107.116346 -94.726762 
L 107.068606 -94.726889 
L 107.021424 -94.727017 
L 106.974968 -94.727144 
L 106.929406 -94.727272 
L 106.884899 -94.727399 
L 106.841603 -94.727527 
L 106.799669 -94.727654 
L 106.759232 -94.727782 
L 106.720422 -94.727909 
L 106.683351 -94.728037 
L 106.64812 -94.728165 
L 106.614814 -94.728292 
L 106.583503 -94.72842 
L 106.55424 -94.728547 
L 106.527063 -94.728675 
L 106.501991 -94.728802 
L 106.47903 -94.72893 
L 106.45817 -94.729057 
L 106.439386 -94.729185 
L 106.42264 -94.729312 
L 106.407882 -94.72944 
L 106.395052 -94.729567 
L 106.38408 -94.729695 
L 106.374892 -94.729822 
L 106.367406 -94.72995 
L 106.361538 -94.730077 
L 106.357203 -94.730205 
L 106.354319 -94.730332 
L 106.352803 -94.73046 
L 106.352581 -94.730587 
L 106.353582 -94.730715 
L 106.355745 -94.730842 
L 106.359019 -94.73097 
L 106.363362 -94.731097 
L 106.368745 -94.731225 
L 106.375148 -94.731352 
L 106.382568 -94.73148 
L 106.391011 -94.731607 
L 106.400496 -94.731735 
L 106.411053 -94.731862 
L 106.422724 -94.73199 
L 106.43556 -94.732117 
L 106.449621 -94.732245 
L 106.464972 -94.732372 
L 106.481686 -94.7325 
L 106.499837 -94.732627 
L 106.519502 -94.732755 
L 106.540757 -94.732882 
L 106.563675 -94.73301 
L 106.588327 -94.733137 
L 106.614774 -94.733265 
L 106.643073 -94.733392 
L 106.673269 -94.73352 
L 106.705397 -94.733648 
L 106.739478 -94.733775 
L 106.775521 -94.733903 
L 106.813522 -94.73403 
L 106.853461 -94.734158 
L 106.895302 -94.734285 
L 106.938996 -94.734413 
L 106.984478 -94.73454 
L 107.031667 -94.734668 
L 107.080471 -94.734795 
L 107.130784 -94.734923 
L 107.182486 -94.73505 
L 107.235448 -94.735178 
L 107.289531 -94.735305 
L 107.344588 -94.735433 
L 107.400463 -94.73556 
L 107.456997 -94.735688 
L 107.514027 -94.735815 
L 107.571386 -94.735943 
L 110.475124 -94.735943 
L 110.475124 -94.735943 
L 110.532483 -94.735815 
L 110.589513 -94.735688 
L 110.646047 -94.73556 
L 110.701923 -94.735433 
L 110.756979 -94.735305 
L 110.811062 -94.735178 
L 110.864024 -94.73505 
L 110.915726 -94.734923 
L 110.966039 -94.734795 
L 111.014843 -94.734668 
L 111.062033 -94.73454 
L 111.107514 -94.734413 
L 111.151208 -94.734285 
L 111.193049 -94.734158 
L 111.232988 -94.73403 
L 111.270989 -94.733903 
L 111.307033 -94.733775 
L 111.341114 -94.733648 
L 111.373241 -94.73352 
L 111.403437 -94.733392 
L 111.431736 -94.733265 
L 111.458184 -94.733137 
L 111.482835 -94.73301 
L 111.505754 -94.732882 
L 111.527009 -94.732755 
L 111.546673 -94.732627 
L 111.564825 -94.7325 
L 111.581538 -94.732372 
L 111.59689 -94.732245 
L 111.61095 -94.732117 
L 111.623786 -94.73199 
L 111.635457 -94.731862 
L 111.646015 -94.731735 
L 111.655499 -94.731607 
L 111.663942 -94.73148 
L 111.671362 -94.731352 
L 111.677766 -94.731225 
L 111.683148 -94.731097 
L 111.687491 -94.73097 
L 111.690765 -94.730842 
L 111.692929 -94.730715 
L 111.69393 -94.730587 
L 111.693707 -94.73046 
L 111.692191 -94.730332 
L 111.689307 -94.730205 
L 111.684972 -94.730077 
L 111.679105 -94.72995 
L 111.671618 -94.729822 
L 111.66243 -94.729695 
L 111.651459 -94.729567 
L 111.638629 -94.72944 
L 111.623871 -94.729312 
L 111.607124 -94.729185 
L 111.58834 -94.729057 
L 111.56748 -94.72893 
L 111.544519 -94.728802 
L 111.519448 -94.728675 
L 111.49227 -94.728547 
L 111.463007 -94.72842 
L 111.431696 -94.728292 
L 111.39839 -94.728165 
L 111.36316 -94.728037 
L 111.326089 -94.727909 
L 111.287278 -94.727782 
L 111.246842 -94.727654 
L 111.204907 -94.727527 
L 111.161612 -94.727399 
L 111.117105 -94.727272 
L 111.071542 -94.727144 
L 111.025086 -94.727017 
L 110.977904 -94.726889 
L 110.930164 -94.726762 
L 110.882036 -94.726634 
L 110.833687 -94.726507 
L 110.785281 -94.726379 
L 110.736974 -94.726252 
L 110.688918 -94.726124 
L 110.641253 -94.725997 
L 110.594108 -94.725869 
L 110.547603 -94.725742 
L 110.501843 -94.725614 
L 110.456917 -94.725487 
L 110.412905 -94.725359 
L 110.369867 -94.725232 
L 110.32785 -94.725104 
L 110.286889 -94.724977 
L 110.247 -94.724849 
L 110.20819 -94.724722 
L 110.170451 -94.724594 
L 110.133763 -94.724467 
L 110.098097 -94.724339 
L 110.063416 -94.724212 
L 110.029672 -94.724084 
L 109.996816 -94.723957 
L 109.96479 -94.723829 
L 109.933537 -94.723702 
L 109.902996 -94.723574 
L 109.873108 -94.723447 
L 109.843816 -94.723319 
z
" style="stroke: #6f6f6f; stroke-opacity: 0.5"/>
    </defs>
    <g clip-path="url(#p212864feee)">
     <use xlink:href="#m3c4470fd9c" x="0" y="144" style="fill: #9e9e9e; fill-opacity: 0.5; stroke: #6f6f6f; stroke-opacity: 0.5"/>
    </g>
   </g>
   <g id="FillBetweenPolyCollection_3">
    <defs>
     <path id="m646970744c" d="M 163.840798 -123.246517 
L 161.032692 -123.246517 
L 160.987736 -123.24661 
L 160.942915 -123.246703 
L 160.89829 -123.246796 
L 160.853924 -123.24689 
L 160.809874 -123.246983 
L 160.766198 -123.247076 
L 160.722951 -123.247169 
L 160.680186 -123.247262 
L 160.637954 -123.247355 
L 160.596305 -123.247448 
L 160.555284 -123.247541 
L 160.514938 -123.247635 
L 160.475309 -123.247728 
L 160.436438 -123.247821 
L 160.398366 -123.247914 
L 160.361129 -123.248007 
L 160.324765 -123.2481 
L 160.289308 -123.248193 
L 160.254791 -123.248286 
L 160.221247 -123.24838 
L 160.188707 -123.248473 
L 160.1572 -123.248566 
L 160.126754 -123.248659 
L 160.097398 -123.248752 
L 160.069158 -123.248845 
L 160.042059 -123.248938 
L 160.016125 -123.249032 
L 159.99138 -123.249125 
L 159.967846 -123.249218 
L 159.945544 -123.249311 
L 159.924492 -123.249404 
L 159.904709 -123.249497 
L 159.88621 -123.24959 
L 159.869012 -123.249683 
L 159.853125 -123.249777 
L 159.838562 -123.24987 
L 159.825329 -123.249963 
L 159.813432 -123.250056 
L 159.802876 -123.250149 
L 159.79366 -123.250242 
L 159.785782 -123.250335 
L 159.779236 -123.250428 
L 159.774014 -123.250522 
L 159.770104 -123.250615 
L 159.767489 -123.250708 
L 159.766152 -123.250801 
L 159.76607 -123.250894 
L 159.767218 -123.250987 
L 159.769566 -123.25108 
L 159.773083 -123.251173 
L 159.777734 -123.251267 
L 159.78348 -123.25136 
L 159.790281 -123.251453 
L 159.798095 -123.251546 
L 159.806878 -123.251639 
L 159.816583 -123.251732 
L 159.827163 -123.251825 
L 159.838571 -123.251919 
L 159.850759 -123.252012 
L 159.86368 -123.252105 
L 159.877288 -123.252198 
L 159.891538 -123.252291 
L 159.906388 -123.252384 
L 159.921798 -123.252477 
L 159.937732 -123.25257 
L 159.954155 -123.252664 
L 159.971041 -123.252757 
L 159.988363 -123.25285 
L 160.006104 -123.252943 
L 160.024248 -123.253036 
L 160.042787 -123.253129 
L 160.061719 -123.253222 
L 160.081045 -123.253315 
L 160.100775 -123.253409 
L 160.120921 -123.253502 
L 160.141504 -123.253595 
L 160.162547 -123.253688 
L 160.184081 -123.253781 
L 160.206137 -123.253874 
L 160.228752 -123.253967 
L 160.251968 -123.25406 
L 160.275826 -123.254154 
L 160.30037 -123.254247 
L 160.325645 -123.25434 
L 160.351695 -123.254433 
L 160.378564 -123.254526 
L 160.406294 -123.254619 
L 160.434923 -123.254712 
L 160.464488 -123.254806 
L 160.495019 -123.254899 
L 160.526542 -123.254992 
L 160.559077 -123.255085 
L 160.592638 -123.255178 
L 160.62723 -123.255271 
L 160.662852 -123.255364 
L 160.699494 -123.255457 
L 160.737138 -123.255551 
L 160.775757 -123.255644 
L 160.815316 -123.255737 
L 164.058174 -123.255737 
L 164.058174 -123.255737 
L 164.097733 -123.255644 
L 164.136352 -123.255551 
L 164.173996 -123.255457 
L 164.210638 -123.255364 
L 164.24626 -123.255271 
L 164.280852 -123.255178 
L 164.314412 -123.255085 
L 164.346948 -123.254992 
L 164.378471 -123.254899 
L 164.409002 -123.254806 
L 164.438567 -123.254712 
L 164.467196 -123.254619 
L 164.494926 -123.254526 
L 164.521795 -123.254433 
L 164.547845 -123.25434 
L 164.57312 -123.254247 
L 164.597664 -123.254154 
L 164.621521 -123.25406 
L 164.644737 -123.253967 
L 164.667353 -123.253874 
L 164.689409 -123.253781 
L 164.710942 -123.253688 
L 164.731986 -123.253595 
L 164.752568 -123.253502 
L 164.772715 -123.253409 
L 164.792444 -123.253315 
L 164.811771 -123.253222 
L 164.830702 -123.253129 
L 164.849242 -123.253036 
L 164.867386 -123.252943 
L 164.885126 -123.25285 
L 164.902449 -123.252757 
L 164.919334 -123.252664 
L 164.935758 -123.25257 
L 164.951691 -123.252477 
L 164.967102 -123.252384 
L 164.981952 -123.252291 
L 164.996202 -123.252198 
L 165.00981 -123.252105 
L 165.022731 -123.252012 
L 165.034919 -123.251919 
L 165.046327 -123.251825 
L 165.056907 -123.251732 
L 165.066612 -123.251639 
L 165.075394 -123.251546 
L 165.083209 -123.251453 
L 165.09001 -123.25136 
L 165.095756 -123.251267 
L 165.100407 -123.251173 
L 165.103924 -123.25108 
L 165.106272 -123.250987 
L 165.107419 -123.250894 
L 165.107337 -123.250801 
L 165.106 -123.250708 
L 165.103386 -123.250615 
L 165.099475 -123.250522 
L 165.094253 -123.250428 
L 165.087708 -123.250335 
L 165.07983 -123.250242 
L 165.070614 -123.250149 
L 165.060057 -123.250056 
L 165.048161 -123.249963 
L 165.034928 -123.24987 
L 165.020364 -123.249777 
L 165.004478 -123.249683 
L 164.987279 -123.24959 
L 164.968781 -123.249497 
L 164.948998 -123.249404 
L 164.927946 -123.249311 
L 164.905643 -123.249218 
L 164.882109 -123.249125 
L 164.857364 -123.249032 
L 164.831431 -123.248938 
L 164.804332 -123.248845 
L 164.776092 -123.248752 
L 164.746735 -123.248659 
L 164.71629 -123.248566 
L 164.684783 -123.248473 
L 164.652242 -123.24838 
L 164.618698 -123.248286 
L 164.584182 -123.248193 
L 164.548725 -123.2481 
L 164.512361 -123.248007 
L 164.475124 -123.247914 
L 164.437052 -123.247821 
L 164.398181 -123.247728 
L 164.358552 -123.247635 
L 164.318206 -123.247541 
L 164.277185 -123.247448 
L 164.235535 -123.247355 
L 164.193303 -123.247262 
L 164.150539 -123.247169 
L 164.107292 -123.247076 
L 164.063616 -123.246983 
L 164.019566 -123.24689 
L 163.975199 -123.246796 
L 163.930575 -123.246703 
L 163.885754 -123.24661 
L 163.840798 -123.246517 
z
" style="stroke: #6f6f6f; stroke-opacity: 0.5"/>
    </defs>
    <g clip-path="url(#p212864feee)">
     <use xlink:href="#m646970744c" x="0" y="144" style="fill: #9e9e9e; fill-opacity: 0.5; stroke: #6f6f6f; stroke-opacity: 0.5"/>
    </g>
   </g>
   <g id="FillBetweenPolyCollection_4">
    <defs>
     <path id="md91d1a96ea" d="M 190.523065 -127.262843 
L 187.763914 -127.262843 
L 187.710012 -127.262952 
L 187.655869 -127.263061 
L 187.601583 -127.26317 
L 187.547253 -127.263279 
L 187.49298 -127.263388 
L 187.438868 -127.263497 
L 187.385025 -127.263606 
L 187.331561 -127.263715 
L 187.278587 -127.263824 
L 187.226219 -127.263933 
L 187.174576 -127.264042 
L 187.123778 -127.264151 
L 187.073949 -127.26426 
L 187.025214 -127.264369 
L 186.977701 -127.264478 
L 186.931541 -127.264587 
L 186.886865 -127.264696 
L 186.843805 -127.264805 
L 186.802494 -127.264914 
L 186.763064 -127.265023 
L 186.725647 -127.265131 
L 186.690371 -127.26524 
L 186.657361 -127.265349 
L 186.626739 -127.265458 
L 186.59862 -127.265567 
L 186.573114 -127.265676 
L 186.550319 -127.265785 
L 186.530329 -127.265894 
L 186.513222 -127.266003 
L 186.499066 -127.266112 
L 186.487916 -127.266221 
L 186.479811 -127.26633 
L 186.474775 -127.266439 
L 186.472815 -127.266548 
L 186.473921 -127.266657 
L 186.478062 -127.266766 
L 186.485192 -127.266875 
L 186.495244 -127.266984 
L 186.508131 -127.267093 
L 186.52375 -127.267202 
L 186.541978 -127.267311 
L 186.562675 -127.26742 
L 186.585684 -127.267529 
L 186.610833 -127.267638 
L 186.637939 -127.267747 
L 186.666804 -127.267856 
L 186.697221 -127.267965 
L 186.728978 -127.268074 
L 186.761853 -127.268183 
L 186.795625 -127.268292 
L 186.830071 -127.268401 
L 186.86497 -127.268509 
L 186.900107 -127.268618 
L 186.935273 -127.268727 
L 186.970268 -127.268836 
L 187.004905 -127.268945 
L 187.03901 -127.269054 
L 187.072427 -127.269163 
L 187.105014 -127.269272 
L 187.136651 -127.269381 
L 187.167236 -127.26949 
L 187.196689 -127.269599 
L 187.224952 -127.269708 
L 187.251988 -127.269817 
L 187.27778 -127.269926 
L 187.302336 -127.270035 
L 187.32568 -127.270144 
L 187.34786 -127.270253 
L 187.368938 -127.270362 
L 187.388995 -127.270471 
L 187.408127 -127.27058 
L 187.426443 -127.270689 
L 187.444063 -127.270798 
L 187.461116 -127.270907 
L 187.477736 -127.271016 
L 187.494066 -127.271125 
L 187.510247 -127.271234 
L 187.526422 -127.271343 
L 187.542732 -127.271452 
L 187.559315 -127.271561 
L 187.576302 -127.27167 
L 187.593816 -127.271779 
L 187.611972 -127.271887 
L 187.630876 -127.271996 
L 187.650619 -127.272105 
L 187.671282 -127.272214 
L 187.692933 -127.272323 
L 187.715623 -127.272432 
L 187.739394 -127.272541 
L 187.76427 -127.27265 
L 187.790262 -127.272759 
L 187.817366 -127.272868 
L 187.845568 -127.272977 
L 187.874837 -127.273086 
L 187.905133 -127.273195 
L 187.936402 -127.273304 
L 187.968582 -127.273413 
L 188.001601 -127.273522 
L 188.035377 -127.273631 
L 190.251602 -127.273631 
L 190.251602 -127.273631 
L 190.285379 -127.273522 
L 190.318397 -127.273413 
L 190.350578 -127.273304 
L 190.381847 -127.273195 
L 190.412142 -127.273086 
L 190.441412 -127.272977 
L 190.469613 -127.272868 
L 190.496718 -127.272759 
L 190.522709 -127.27265 
L 190.547585 -127.272541 
L 190.571356 -127.272432 
L 190.594047 -127.272323 
L 190.615697 -127.272214 
L 190.636361 -127.272105 
L 190.656104 -127.271996 
L 190.675007 -127.271887 
L 190.693164 -127.271779 
L 190.710678 -127.27167 
L 190.727665 -127.271561 
L 190.744247 -127.271452 
L 190.760558 -127.271343 
L 190.776733 -127.271234 
L 190.792914 -127.271125 
L 190.809243 -127.271016 
L 190.825864 -127.270907 
L 190.842916 -127.270798 
L 190.860536 -127.270689 
L 190.878852 -127.27058 
L 190.897984 -127.270471 
L 190.918042 -127.270362 
L 190.93912 -127.270253 
L 190.961299 -127.270144 
L 190.984644 -127.270035 
L 191.009199 -127.269926 
L 191.034992 -127.269817 
L 191.062027 -127.269708 
L 191.09029 -127.269599 
L 191.119743 -127.26949 
L 191.150329 -127.269381 
L 191.181965 -127.269272 
L 191.214552 -127.269163 
L 191.247969 -127.269054 
L 191.282075 -127.268945 
L 191.316712 -127.268836 
L 191.351707 -127.268727 
L 191.386872 -127.268618 
L 191.422009 -127.268509 
L 191.456909 -127.268401 
L 191.491355 -127.268292 
L 191.525127 -127.268183 
L 191.558002 -127.268074 
L 191.589758 -127.267965 
L 191.620176 -127.267856 
L 191.64904 -127.267747 
L 191.676146 -127.267638 
L 191.701296 -127.267529 
L 191.724305 -127.26742 
L 191.745001 -127.267311 
L 191.763229 -127.267202 
L 191.778848 -127.267093 
L 191.791736 -127.266984 
L 191.801787 -127.266875 
L 191.808917 -127.266766 
L 191.813059 -127.266657 
L 191.814164 -127.266548 
L 191.812204 -127.266439 
L 191.807169 -127.26633 
L 191.799064 -127.266221 
L 191.787914 -127.266112 
L 191.773758 -127.266003 
L 191.756651 -127.265894 
L 191.73666 -127.265785 
L 191.713866 -127.265676 
L 191.688359 -127.265567 
L 191.660241 -127.265458 
L 191.629619 -127.265349 
L 191.596609 -127.26524 
L 191.561332 -127.265131 
L 191.523915 -127.265023 
L 191.484485 -127.264914 
L 191.443174 -127.264805 
L 191.400115 -127.264696 
L 191.355438 -127.264587 
L 191.309278 -127.264478 
L 191.261766 -127.264369 
L 191.213031 -127.26426 
L 191.163201 -127.264151 
L 191.112403 -127.264042 
L 191.06076 -127.263933 
L 191.008393 -127.263824 
L 190.955419 -127.263715 
L 190.901954 -127.263606 
L 190.848111 -127.263497 
L 190.794 -127.263388 
L 190.739727 -127.263279 
L 190.685396 -127.26317 
L 190.63111 -127.263061 
L 190.576968 -127.262952 
L 190.523065 -127.262843 
z
" style="stroke: #6f6f6f; stroke-opacity: 0.5"/>
    </defs>
    <g clip-path="url(#p212864feee)">
     <use xlink:href="#md91d1a96ea" x="0" y="144" style="fill: #9e9e9e; fill-opacity: 0.5; stroke: #6f6f6f; stroke-opacity: 0.5"/>
    </g>
   </g>
   <g id="FillBetweenPolyCollection_5">
    <defs>
     <path id="md65d770536" d="M 216.698078 -128.983084 
L 215.002392 -128.983084 
L 214.973599 -128.983225 
L 214.944777 -128.983367 
L 214.91593 -128.983508 
L 214.887059 -128.98365 
L 214.858164 -128.983791 
L 214.82924 -128.983933 
L 214.800282 -128.984074 
L 214.771282 -128.984216 
L 214.742233 -128.984357 
L 214.713126 -128.984499 
L 214.683952 -128.98464 
L 214.654703 -128.984782 
L 214.625371 -128.984923 
L 214.595951 -128.985065 
L 214.566436 -128.985206 
L 214.536823 -128.985348 
L 214.507109 -128.985489 
L 214.477293 -128.985631 
L 214.447373 -128.985772 
L 214.417352 -128.985914 
L 214.387229 -128.986055 
L 214.357007 -128.986197 
L 214.326687 -128.986338 
L 214.296271 -128.98648 
L 214.265757 -128.986621 
L 214.235147 -128.986763 
L 214.204438 -128.986904 
L 214.173627 -128.987046 
L 214.14271 -128.987187 
L 214.111679 -128.987329 
L 214.080528 -128.98747 
L 214.049248 -128.987611 
L 214.01783 -128.987753 
L 213.986265 -128.987894 
L 213.954545 -128.988036 
L 213.922662 -128.988177 
L 213.890613 -128.988319 
L 213.858398 -128.98846 
L 213.826022 -128.988602 
L 213.793494 -128.988743 
L 213.760833 -128.988885 
L 213.728066 -128.989026 
L 213.69523 -128.989168 
L 213.662371 -128.989309 
L 213.629549 -128.989451 
L 213.596837 -128.989592 
L 213.564319 -128.989734 
L 213.532096 -128.989875 
L 213.500279 -128.990017 
L 213.468997 -128.990158 
L 213.438388 -128.9903 
L 213.408607 -128.990441 
L 213.379818 -128.990583 
L 213.352195 -128.990724 
L 213.325922 -128.990866 
L 213.301189 -128.991007 
L 213.27819 -128.991149 
L 213.257122 -128.99129 
L 213.238183 -128.991432 
L 213.221566 -128.991573 
L 213.207459 -128.991715 
L 213.196043 -128.991856 
L 213.187487 -128.991997 
L 213.181946 -128.992139 
L 213.17956 -128.99228 
L 213.180452 -128.992422 
L 213.184721 -128.992563 
L 213.19245 -128.992705 
L 213.203692 -128.992846 
L 213.218482 -128.992988 
L 213.236826 -128.993129 
L 213.258706 -128.993271 
L 213.284079 -128.993412 
L 213.312877 -128.993554 
L 213.345008 -128.993695 
L 213.380358 -128.993837 
L 213.418791 -128.993978 
L 213.460152 -128.99412 
L 213.50427 -128.994261 
L 213.550955 -128.994403 
L 213.600009 -128.994544 
L 213.651219 -128.994686 
L 213.704368 -128.994827 
L 213.759232 -128.994969 
L 213.815584 -128.99511 
L 213.873196 -128.995252 
L 213.931845 -128.995393 
L 213.991307 -128.995535 
L 214.051369 -128.995676 
L 214.111821 -128.995818 
L 214.172465 -128.995959 
L 214.233112 -128.996101 
L 214.293585 -128.996242 
L 214.353716 -128.996383 
L 214.413354 -128.996525 
L 214.472357 -128.996666 
L 214.530598 -128.996808 
L 214.587959 -128.996949 
L 214.644338 -128.997091 
L 217.056131 -128.997091 
L 217.056131 -128.997091 
L 217.11251 -128.996949 
L 217.169872 -128.996808 
L 217.228112 -128.996666 
L 217.287115 -128.996525 
L 217.346753 -128.996383 
L 217.406885 -128.996242 
L 217.467357 -128.996101 
L 217.528004 -128.995959 
L 217.588648 -128.995818 
L 217.6491 -128.995676 
L 217.709162 -128.995535 
L 217.768625 -128.995393 
L 217.827273 -128.995252 
L 217.884886 -128.99511 
L 217.941237 -128.994969 
L 217.996101 -128.994827 
L 218.04925 -128.994686 
L 218.100461 -128.994544 
L 218.149514 -128.994403 
L 218.196199 -128.994261 
L 218.240317 -128.99412 
L 218.281678 -128.993978 
L 218.320111 -128.993837 
L 218.355461 -128.993695 
L 218.387593 -128.993554 
L 218.41639 -128.993412 
L 218.441763 -128.993271 
L 218.463643 -128.993129 
L 218.481987 -128.992988 
L 218.496777 -128.992846 
L 218.50802 -128.992705 
L 218.515748 -128.992563 
L 218.520018 -128.992422 
L 218.520909 -128.99228 
L 218.518523 -128.992139 
L 218.512983 -128.991997 
L 218.504426 -128.991856 
L 218.49301 -128.991715 
L 218.478903 -128.991573 
L 218.462286 -128.991432 
L 218.443347 -128.99129 
L 218.422279 -128.991149 
L 218.399281 -128.991007 
L 218.374547 -128.990866 
L 218.348274 -128.990724 
L 218.320651 -128.990583 
L 218.291862 -128.990441 
L 218.262081 -128.9903 
L 218.231473 -128.990158 
L 218.20019 -128.990017 
L 218.168374 -128.989875 
L 218.13615 -128.989734 
L 218.103632 -128.989592 
L 218.07092 -128.989451 
L 218.038098 -128.989309 
L 218.00524 -128.989168 
L 217.972403 -128.989026 
L 217.939636 -128.988885 
L 217.906975 -128.988743 
L 217.874447 -128.988602 
L 217.842071 -128.98846 
L 217.809856 -128.988319 
L 217.777807 -128.988177 
L 217.745925 -128.988036 
L 217.714204 -128.987894 
L 217.682639 -128.987753 
L 217.651221 -128.987611 
L 217.619941 -128.98747 
L 217.58879 -128.987329 
L 217.557759 -128.987187 
L 217.526842 -128.987046 
L 217.496031 -128.986904 
L 217.465322 -128.986763 
L 217.434712 -128.986621 
L 217.404199 -128.98648 
L 217.373782 -128.986338 
L 217.343462 -128.986197 
L 217.31324 -128.986055 
L 217.283117 -128.985914 
L 217.253096 -128.985772 
L 217.223177 -128.985631 
L 217.19336 -128.985489 
L 217.163646 -128.985348 
L 217.134033 -128.985206 
L 217.104518 -128.985065 
L 217.075098 -128.984923 
L 217.045767 -128.984782 
L 217.016517 -128.98464 
L 216.987343 -128.984499 
L 216.958236 -128.984357 
L 216.929187 -128.984216 
L 216.900187 -128.984074 
L 216.871229 -128.983933 
L 216.842305 -128.983791 
L 216.81341 -128.98365 
L 216.78454 -128.983508 
L 216.755693 -128.983367 
L 216.72687 -128.983225 
L 216.698078 -128.983084 
z
" style="stroke: #6f6f6f; stroke-opacity: 0.5"/>
    </defs>
    <g clip-path="url(#p212864feee)">
     <use xlink:href="#md65d770536" x="0" y="144" style="fill: #9e9e9e; fill-opacity: 0.5; stroke: #6f6f6f; stroke-opacity: 0.5"/>
    </g>
   </g>
   <g id="matplotlib.axis_1">
    <g id="xtick_1">
     <g id="line2d_1">
      <path d="M 55.609765 103.264 
L 55.609765 10.8 
" clip-path="url(#p212864feee)" style="fill: none; stroke: #b0b0b0; stroke-opacity: 0.2; stroke-width: 0.8; stroke-linecap: square"/>
     </g>
     <g id="line2d_2">
      <defs>
       <path id="me89655f49b" d="M 0 0 
L 0 3.5 
" style="stroke: #000000; stroke-width: 0.8"/>
      </defs>
      <g>
       <use xlink:href="#me89655f49b" x="55.609765" y="103.264" style="stroke: #000000; stroke-width: 0.8"/>
      </g>
     </g>
     <g id="text_1">
      <!-- 0 -->
      <g transform="translate(53.064765 116.34275) scale(0.08 -0.08)">
       <defs>
        <path id="DejaVuSans-30" d="M 2034 4250 
Q 1547 4250 1301 3770 
Q 1056 3291 1056 2328 
Q 1056 1369 1301 889 
Q 1547 409 2034 409 
Q 2525 409 2770 889 
Q 3016 1369 3016 2328 
Q 3016 3291 2770 3770 
Q 2525 4250 2034 4250 
z
M 2034 4750 
Q 2819 4750 3233 4129 
Q 3647 3509 3647 2328 
Q 3647 1150 3233 529 
Q 2819 -91 2034 -91 
Q 1250 -91 836 529 
Q 422 1150 422 2328 
Q 422 3509 836 4129 
Q 1250 4750 2034 4750 
z
" transform="scale(0.015625)"/>
       </defs>
       <use xlink:href="#DejaVuSans-30"/>
      </g>
     </g>
    </g>
    <g id="xtick_2">
     <g id="line2d_3">
      <path d="M 109.023255 103.264 
L 109.023255 10.8 
" clip-path="url(#p212864feee)" style="fill: none; stroke: #b0b0b0; stroke-opacity: 0.2; stroke-width: 0.8; stroke-linecap: square"/>
     </g>
     <g id="line2d_4">
      <g>
       <use xlink:href="#me89655f49b" x="109.023255" y="103.264" style="stroke: #000000; stroke-width: 0.8"/>
      </g>
     </g>
     <g id="text_2">
      <!-- 6 -->
      <g transform="translate(106.478255 116.34275) scale(0.08 -0.08)">
       <defs>
        <path id="DejaVuSans-36" d="M 2113 2584 
Q 1688 2584 1439 2293 
Q 1191 2003 1191 1497 
Q 1191 994 1439 701 
Q 1688 409 2113 409 
Q 2538 409 2786 701 
Q 3034 994 3034 1497 
Q 3034 2003 2786 2293 
Q 2538 2584 2113 2584 
z
M 3366 4563 
L 3366 3988 
Q 3128 4100 2886 4159 
Q 2644 4219 2406 4219 
Q 1781 4219 1451 3797 
Q 1122 3375 1075 2522 
Q 1259 2794 1537 2939 
Q 1816 3084 2150 3084 
Q 2853 3084 3261 2657 
Q 3669 2231 3669 1497 
Q 3669 778 3244 343 
Q 2819 -91 2113 -91 
Q 1303 -91 875 529 
Q 447 1150 447 2328 
Q 447 3434 972 4092 
Q 1497 4750 2381 4750 
Q 2619 4750 2861 4703 
Q 3103 4656 3366 4563 
z
" transform="scale(0.015625)"/>
       </defs>
       <use xlink:href="#DejaVuSans-36"/>
      </g>
     </g>
    </g>
    <g id="xtick_3">
     <g id="line2d_5">
      <path d="M 162.436745 103.264 
L 162.436745 10.8 
" clip-path="url(#p212864feee)" style="fill: none; stroke: #b0b0b0; stroke-opacity: 0.2; stroke-width: 0.8; stroke-linecap: square"/>
     </g>
     <g id="line2d_6">
      <g>
       <use xlink:href="#me89655f49b" x="162.436745" y="103.264" style="stroke: #000000; stroke-width: 0.8"/>
      </g>
     </g>
     <g id="text_3">
      <!-- 12 -->
      <g transform="translate(157.346745 116.34275) scale(0.08 -0.08)">
       <defs>
        <path id="DejaVuSans-31" d="M 794 531 
L 1825 531 
L 1825 4091 
L 703 3866 
L 703 4441 
L 1819 4666 
L 2450 4666 
L 2450 531 
L 3481 531 
L 3481 0 
L 794 0 
L 794 531 
z
" transform="scale(0.015625)"/>
        <path id="DejaVuSans-32" d="M 1228 531 
L 3431 531 
L 3431 0 
L 469 0 
L 469 531 
Q 828 903 1448 1529 
Q 2069 2156 2228 2338 
Q 2531 2678 2651 2914 
Q 2772 3150 2772 3378 
Q 2772 3750 2511 3984 
Q 2250 4219 1831 4219 
Q 1534 4219 1204 4116 
Q 875 4013 500 3803 
L 500 4441 
Q 881 4594 1212 4672 
Q 1544 4750 1819 4750 
Q 2544 4750 2975 4387 
Q 3406 4025 3406 3419 
Q 3406 3131 3298 2873 
Q 3191 2616 2906 2266 
Q 2828 2175 2409 1742 
Q 1991 1309 1228 531 
z
" transform="scale(0.015625)"/>
       </defs>
       <use xlink:href="#DejaVuSans-31"/>
       <use xlink:href="#DejaVuSans-32" transform="translate(63.623047 0)"/>
      </g>
     </g>
    </g>
    <g id="xtick_4">
     <g id="line2d_7">
      <path d="M 189.14349 103.264 
L 189.14349 10.8 
" clip-path="url(#p212864feee)" style="fill: none; stroke: #b0b0b0; stroke-opacity: 0.2; stroke-width: 0.8; stroke-linecap: square"/>
     </g>
     <g id="line2d_8">
      <g>
       <use xlink:href="#me89655f49b" x="189.14349" y="103.264" style="stroke: #000000; stroke-width: 0.8"/>
      </g>
     </g>
     <g id="text_4">
      <!-- 15 -->
      <g transform="translate(184.05349 116.34275) scale(0.08 -0.08)">
       <defs>
        <path id="DejaVuSans-35" d="M 691 4666 
L 3169 4666 
L 3169 4134 
L 1269 4134 
L 1269 2991 
Q 1406 3038 1543 3061 
Q 1681 3084 1819 3084 
Q 2600 3084 3056 2656 
Q 3513 2228 3513 1497 
Q 3513 744 3044 326 
Q 2575 -91 1722 -91 
Q 1428 -91 1123 -41 
Q 819 9 494 109 
L 494 744 
Q 775 591 1075 516 
Q 1375 441 1709 441 
Q 2250 441 2565 725 
Q 2881 1009 2881 1497 
Q 2881 1984 2565 2268 
Q 2250 2553 1709 2553 
Q 1456 2553 1204 2497 
Q 953 2441 691 2322 
L 691 4666 
z
" transform="scale(0.015625)"/>
       </defs>
       <use xlink:href="#DejaVuSans-31"/>
       <use xlink:href="#DejaVuSans-35" transform="translate(63.623047 0)"/>
      </g>
     </g>
    </g>
    <g id="xtick_5">
     <g id="line2d_9">
      <path d="M 215.850235 103.264 
L 215.850235 10.8 
" clip-path="url(#p212864feee)" style="fill: none; stroke: #b0b0b0; stroke-opacity: 0.2; stroke-width: 0.8; stroke-linecap: square"/>
     </g>
     <g id="line2d_10">
      <g>
       <use xlink:href="#me89655f49b" x="215.850235" y="103.264" style="stroke: #000000; stroke-width: 0.8"/>
      </g>
     </g>
     <g id="text_5">
      <!-- 18 -->
      <g transform="translate(210.760235 116.34275) scale(0.08 -0.08)">
       <defs>
        <path id="DejaVuSans-38" d="M 2034 2216 
Q 1584 2216 1326 1975 
Q 1069 1734 1069 1313 
Q 1069 891 1326 650 
Q 1584 409 2034 409 
Q 2484 409 2743 651 
Q 3003 894 3003 1313 
Q 3003 1734 2745 1975 
Q 2488 2216 2034 2216 
z
M 1403 2484 
Q 997 2584 770 2862 
Q 544 3141 544 3541 
Q 544 4100 942 4425 
Q 1341 4750 2034 4750 
Q 2731 4750 3128 4425 
Q 3525 4100 3525 3541 
Q 3525 3141 3298 2862 
Q 3072 2584 2669 2484 
Q 3125 2378 3379 2068 
Q 3634 1759 3634 1313 
Q 3634 634 3220 271 
Q 2806 -91 2034 -91 
Q 1263 -91 848 271 
Q 434 634 434 1313 
Q 434 1759 690 2068 
Q 947 2378 1403 2484 
z
M 1172 3481 
Q 1172 3119 1398 2916 
Q 1625 2713 2034 2713 
Q 2441 2713 2670 2916 
Q 2900 3119 2900 3481 
Q 2900 3844 2670 4047 
Q 2441 4250 2034 4250 
Q 1625 4250 1398 4047 
Q 1172 3844 1172 3481 
z
" transform="scale(0.015625)"/>
       </defs>
       <use xlink:href="#DejaVuSans-31"/>
       <use xlink:href="#DejaVuSans-38" transform="translate(63.623047 0)"/>
      </g>
     </g>
    </g>
    <g id="text_6">
     <!-- $\varepsilon_\mathrm{reactiveLJ}$ -->
     <g transform="translate(115.63 128.584625) scale(0.1 -0.1)">
      <defs>
       <path id="DejaVuSans-Oblique-3b5" d="M 1263 1888 
Q 925 1963 778 2166 
Q 669 2309 669 2503 
Q 669 3034 1175 3344 
Q 1575 3588 2188 3588 
Q 2425 3588 2684 3550 
Q 2944 3513 3234 3438 
L 3134 2916 
Q 2847 3006 2606 3047 
Q 2359 3088 2138 3088 
Q 1766 3088 1522 2944 
Q 1228 2772 1228 2522 
Q 1228 2356 1381 2241 
Q 1563 2103 1925 2103 
L 2409 2103 
L 2319 1628 
L 1856 1628 
Q 1425 1628 1172 1469 
Q 828 1253 828 916 
Q 828 703 1013 563 
Q 1244 388 1716 388 
Q 2006 388 2284 444 
Q 2563 503 2806 619 
L 2700 84 
Q 2403 -3 2131 -47 
Q 1859 -91 1609 -91 
Q 866 -91 516 194 
Q 250 413 250 781 
Q 250 1278 600 1584 
Q 859 1813 1263 1888 
z
" transform="scale(0.015625)"/>
       <path id="DejaVuSans-72" d="M 2631 2963 
Q 2534 3019 2420 3045 
Q 2306 3072 2169 3072 
Q 1681 3072 1420 2755 
Q 1159 2438 1159 1844 
L 1159 0 
L 581 0 
L 581 3500 
L 1159 3500 
L 1159 2956 
Q 1341 3275 1631 3429 
Q 1922 3584 2338 3584 
Q 2397 3584 2469 3576 
Q 2541 3569 2628 3553 
L 2631 2963 
z
" transform="scale(0.015625)"/>
       <path id="DejaVuSans-65" d="M 3597 1894 
L 3597 1613 
L 953 1613 
Q 991 1019 1311 708 
Q 1631 397 2203 397 
Q 2534 397 2845 478 
Q 3156 559 3463 722 
L 3463 178 
Q 3153 47 2828 -22 
Q 2503 -91 2169 -91 
Q 1331 -91 842 396 
Q 353 884 353 1716 
Q 353 2575 817 3079 
Q 1281 3584 2069 3584 
Q 2775 3584 3186 3129 
Q 3597 2675 3597 1894 
z
M 3022 2063 
Q 3016 2534 2758 2815 
Q 2500 3097 2075 3097 
Q 1594 3097 1305 2825 
Q 1016 2553 972 2059 
L 3022 2063 
z
" transform="scale(0.015625)"/>
       <path id="DejaVuSans-61" d="M 2194 1759 
Q 1497 1759 1228 1600 
Q 959 1441 959 1056 
Q 959 750 1161 570 
Q 1363 391 1709 391 
Q 2188 391 2477 730 
Q 2766 1069 2766 1631 
L 2766 1759 
L 2194 1759 
z
M 3341 1997 
L 3341 0 
L 2766 0 
L 2766 531 
Q 2569 213 2275 61 
Q 1981 -91 1556 -91 
Q 1019 -91 701 211 
Q 384 513 384 1019 
Q 384 1609 779 1909 
Q 1175 2209 1959 2209 
L 2766 2209 
L 2766 2266 
Q 2766 2663 2505 2880 
Q 2244 3097 1772 3097 
Q 1472 3097 1187 3025 
Q 903 2953 641 2809 
L 641 3341 
Q 956 3463 1253 3523 
Q 1550 3584 1831 3584 
Q 2591 3584 2966 3190 
Q 3341 2797 3341 1997 
z
" transform="scale(0.015625)"/>
       <path id="DejaVuSans-63" d="M 3122 3366 
L 3122 2828 
Q 2878 2963 2633 3030 
Q 2388 3097 2138 3097 
Q 1578 3097 1268 2742 
Q 959 2388 959 1747 
Q 959 1106 1268 751 
Q 1578 397 2138 397 
Q 2388 397 2633 464 
Q 2878 531 3122 666 
L 3122 134 
Q 2881 22 2623 -34 
Q 2366 -91 2075 -91 
Q 1284 -91 818 406 
Q 353 903 353 1747 
Q 353 2603 823 3093 
Q 1294 3584 2113 3584 
Q 2378 3584 2631 3529 
Q 2884 3475 3122 3366 
z
" transform="scale(0.015625)"/>
       <path id="DejaVuSans-74" d="M 1172 4494 
L 1172 3500 
L 2356 3500 
L 2356 3053 
L 1172 3053 
L 1172 1153 
Q 1172 725 1289 603 
Q 1406 481 1766 481 
L 2356 481 
L 2356 0 
L 1766 0 
Q 1100 0 847 248 
Q 594 497 594 1153 
L 594 3053 
L 172 3053 
L 172 3500 
L 594 3500 
L 594 4494 
L 1172 4494 
z
" transform="scale(0.015625)"/>
       <path id="DejaVuSans-69" d="M 603 3500 
L 1178 3500 
L 1178 0 
L 603 0 
L 603 3500 
z
M 603 4863 
L 1178 4863 
L 1178 4134 
L 603 4134 
L 603 4863 
z
" transform="scale(0.015625)"/>
       <path id="DejaVuSans-76" d="M 191 3500 
L 800 3500 
L 1894 563 
L 2988 3500 
L 3597 3500 
L 2284 0 
L 1503 0 
L 191 3500 
z
" transform="scale(0.015625)"/>
       <path id="DejaVuSans-4c" d="M 628 4666 
L 1259 4666 
L 1259 531 
L 3531 531 
L 3531 0 
L 628 0 
L 628 4666 
z
" transform="scale(0.015625)"/>
       <path id="DejaVuSans-4a" d="M 628 4666 
L 1259 4666 
L 1259 325 
Q 1259 -519 939 -900 
Q 619 -1281 -91 -1281 
L -331 -1281 
L -331 -750 
L -134 -750 
Q 284 -750 456 -515 
Q 628 -281 628 325 
L 628 4666 
z
" transform="scale(0.015625)"/>
      </defs>
      <use xlink:href="#DejaVuSans-Oblique-3b5" transform="translate(0 0.9375)"/>
      <use xlink:href="#DejaVuSans-72" transform="translate(54.052734 -15.46875) scale(0.7)"/>
      <use xlink:href="#DejaVuSans-65" transform="translate(82.832031 -15.46875) scale(0.7)"/>
      <use xlink:href="#DejaVuSans-61" transform="translate(125.898438 -15.46875) scale(0.7)"/>
      <use xlink:href="#DejaVuSans-63" transform="translate(168.793945 -15.46875) scale(0.7)"/>
      <use xlink:href="#DejaVuSans-74" transform="translate(207.280273 -15.46875) scale(0.7)"/>
      <use xlink:href="#DejaVuSans-69" transform="translate(234.726562 -15.46875) scale(0.7)"/>
      <use xlink:href="#DejaVuSans-76" transform="translate(254.174805 -15.46875) scale(0.7)"/>
      <use xlink:href="#DejaVuSans-65" transform="translate(295.600586 -15.46875) scale(0.7)"/>
      <use xlink:href="#DejaVuSans-4c" transform="translate(338.666992 -15.46875) scale(0.7)"/>
      <use xlink:href="#DejaVuSans-4a" transform="translate(377.666016 -15.46875) scale(0.7)"/>
     </g>
    </g>
   </g>
   <g id="matplotlib.axis_2">
    <g id="ytick_1">
     <g id="line2d_11">
      <path d="M 44.66 81.083475 
L 226.8 81.083475 
" clip-path="url(#p212864feee)" style="fill: none; stroke: #b0b0b0; stroke-opacity: 0.2; stroke-width: 0.8; stroke-linecap: square"/>
     </g>
     <g id="line2d_12">
      <defs>
       <path id="m47942c232e" d="M 0 0 
L -3.5 0 
" style="stroke: #000000; stroke-width: 0.8"/>
      </defs>
      <g>
       <use xlink:href="#m47942c232e" x="44.66" y="81.083475" style="stroke: #000000; stroke-width: 0.8"/>
      </g>
     </g>
     <g id="text_7">
      <!-- 0.5 -->
      <g transform="translate(24.9375 84.12285) scale(0.08 -0.08)">
       <defs>
        <path id="DejaVuSans-2e" d="M 684 794 
L 1344 794 
L 1344 0 
L 684 0 
L 684 794 
z
" transform="scale(0.015625)"/>
       </defs>
       <use xlink:href="#DejaVuSans-30"/>
       <use xlink:href="#DejaVuSans-2e" transform="translate(63.623047 0)"/>
       <use xlink:href="#DejaVuSans-35" transform="translate(95.410156 0)"/>
      </g>
     </g>
    </g>
    <g id="ytick_2">
     <g id="line2d_13">
      <path d="M 44.66 58.610318 
L 226.8 58.610318 
" clip-path="url(#p212864feee)" style="fill: none; stroke: #b0b0b0; stroke-opacity: 0.2; stroke-width: 0.8; stroke-linecap: square"/>
     </g>
     <g id="line2d_14">
      <g>
       <use xlink:href="#m47942c232e" x="44.66" y="58.610318" style="stroke: #000000; stroke-width: 0.8"/>
      </g>
     </g>
     <g id="text_8">
      <!-- 1.0 -->
      <g transform="translate(24.9375 61.649693) scale(0.08 -0.08)">
       <use xlink:href="#DejaVuSans-31"/>
       <use xlink:href="#DejaVuSans-2e" transform="translate(63.623047 0)"/>
       <use xlink:href="#DejaVuSans-30" transform="translate(95.410156 0)"/>
      </g>
     </g>
    </g>
    <g id="ytick_3">
     <g id="line2d_15">
      <path d="M 44.66 36.137161 
L 226.8 36.137161 
" clip-path="url(#p212864feee)" style="fill: none; stroke: #b0b0b0; stroke-opacity: 0.2; stroke-width: 0.8; stroke-linecap: square"/>
     </g>
     <g id="line2d_16">
      <g>
       <use xlink:href="#m47942c232e" x="44.66" y="36.137161" style="stroke: #000000; stroke-width: 0.8"/>
      </g>
     </g>
     <g id="text_9">
      <!-- 1.5 -->
      <g transform="translate(24.9375 39.176536) scale(0.08 -0.08)">
       <use xlink:href="#DejaVuSans-31"/>
       <use xlink:href="#DejaVuSans-2e" transform="translate(63.623047 0)"/>
       <use xlink:href="#DejaVuSans-35" transform="translate(95.410156 0)"/>
      </g>
     </g>
    </g>
    <g id="ytick_4">
     <g id="line2d_17">
      <path d="M 44.66 13.664003 
L 226.8 13.664003 
" clip-path="url(#p212864feee)" style="fill: none; stroke: #b0b0b0; stroke-opacity: 0.2; stroke-width: 0.8; stroke-linecap: square"/>
     </g>
     <g id="line2d_18">
      <g>
       <use xlink:href="#m47942c232e" x="44.66" y="13.664003" style="stroke: #000000; stroke-width: 0.8"/>
      </g>
     </g>
     <g id="text_10">
      <!-- 2.0 -->
      <g transform="translate(24.9375 16.703378) scale(0.08 -0.08)">
       <use xlink:href="#DejaVuSans-32"/>
       <use xlink:href="#DejaVuSans-2e" transform="translate(63.623047 0)"/>
       <use xlink:href="#DejaVuSans-30" transform="translate(95.410156 0)"/>
      </g>
     </g>
    </g>
    <g id="text_11">
     <!-- gelation epsilon -->
     <g transform="translate(18.857813 96.764031) rotate(-90) scale(0.1 -0.1)">
      <defs>
       <path id="DejaVuSans-67" d="M 2906 1791 
Q 2906 2416 2648 2759 
Q 2391 3103 1925 3103 
Q 1463 3103 1205 2759 
Q 947 2416 947 1791 
Q 947 1169 1205 825 
Q 1463 481 1925 481 
Q 2391 481 2648 825 
Q 2906 1169 2906 1791 
z
M 3481 434 
Q 3481 -459 3084 -895 
Q 2688 -1331 1869 -1331 
Q 1566 -1331 1297 -1286 
Q 1028 -1241 775 -1147 
L 775 -588 
Q 1028 -725 1275 -790 
Q 1522 -856 1778 -856 
Q 2344 -856 2625 -561 
Q 2906 -266 2906 331 
L 2906 616 
Q 2728 306 2450 153 
Q 2172 0 1784 0 
Q 1141 0 747 490 
Q 353 981 353 1791 
Q 353 2603 747 3093 
Q 1141 3584 1784 3584 
Q 2172 3584 2450 3431 
Q 2728 3278 2906 2969 
L 2906 3500 
L 3481 3500 
L 3481 434 
z
" transform="scale(0.015625)"/>
       <path id="DejaVuSans-6c" d="M 603 4863 
L 1178 4863 
L 1178 0 
L 603 0 
L 603 4863 
z
" transform="scale(0.015625)"/>
       <path id="DejaVuSans-6f" d="M 1959 3097 
Q 1497 3097 1228 2736 
Q 959 2375 959 1747 
Q 959 1119 1226 758 
Q 1494 397 1959 397 
Q 2419 397 2687 759 
Q 2956 1122 2956 1747 
Q 2956 2369 2687 2733 
Q 2419 3097 1959 3097 
z
M 1959 3584 
Q 2709 3584 3137 3096 
Q 3566 2609 3566 1747 
Q 3566 888 3137 398 
Q 2709 -91 1959 -91 
Q 1206 -91 779 398 
Q 353 888 353 1747 
Q 353 2609 779 3096 
Q 1206 3584 1959 3584 
z
" transform="scale(0.015625)"/>
       <path id="DejaVuSans-6e" d="M 3513 2113 
L 3513 0 
L 2938 0 
L 2938 2094 
Q 2938 2591 2744 2837 
Q 2550 3084 2163 3084 
Q 1697 3084 1428 2787 
Q 1159 2491 1159 1978 
L 1159 0 
L 581 0 
L 581 3500 
L 1159 3500 
L 1159 2956 
Q 1366 3272 1645 3428 
Q 1925 3584 2291 3584 
Q 2894 3584 3203 3211 
Q 3513 2838 3513 2113 
z
" transform="scale(0.015625)"/>
       <path id="DejaVuSans-20" transform="scale(0.015625)"/>
       <path id="DejaVuSans-70" d="M 1159 525 
L 1159 -1331 
L 581 -1331 
L 581 3500 
L 1159 3500 
L 1159 2969 
Q 1341 3281 1617 3432 
Q 1894 3584 2278 3584 
Q 2916 3584 3314 3078 
Q 3713 2572 3713 1747 
Q 3713 922 3314 415 
Q 2916 -91 2278 -91 
Q 1894 -91 1617 61 
Q 1341 213 1159 525 
z
M 3116 1747 
Q 3116 2381 2855 2742 
Q 2594 3103 2138 3103 
Q 1681 3103 1420 2742 
Q 1159 2381 1159 1747 
Q 1159 1113 1420 752 
Q 1681 391 2138 391 
Q 2594 391 2855 752 
Q 3116 1113 3116 1747 
z
" transform="scale(0.015625)"/>
       <path id="DejaVuSans-73" d="M 2834 3397 
L 2834 2853 
Q 2591 2978 2328 3040 
Q 2066 3103 1784 3103 
Q 1356 3103 1142 2972 
Q 928 2841 928 2578 
Q 928 2378 1081 2264 
Q 1234 2150 1697 2047 
L 1894 2003 
Q 2506 1872 2764 1633 
Q 3022 1394 3022 966 
Q 3022 478 2636 193 
Q 2250 -91 1575 -91 
Q 1294 -91 989 -36 
Q 684 19 347 128 
L 347 722 
Q 666 556 975 473 
Q 1284 391 1588 391 
Q 1994 391 2212 530 
Q 2431 669 2431 922 
Q 2431 1156 2273 1281 
Q 2116 1406 1581 1522 
L 1381 1569 
Q 847 1681 609 1914 
Q 372 2147 372 2553 
Q 372 3047 722 3315 
Q 1072 3584 1716 3584 
Q 2034 3584 2315 3537 
Q 2597 3491 2834 3397 
z
" transform="scale(0.015625)"/>
      </defs>
      <use xlink:href="#DejaVuSans-67"/>
      <use xlink:href="#DejaVuSans-65" transform="translate(63.476562 0)"/>
      <use xlink:href="#DejaVuSans-6c" transform="translate(125 0)"/>
      <use xlink:href="#DejaVuSans-61" transform="translate(152.783203 0)"/>
      <use xlink:href="#DejaVuSans-74" transform="translate(214.0625 0)"/>
      <use xlink:href="#DejaVuSans-69" transform="translate(253.271484 0)"/>
      <use xlink:href="#DejaVuSans-6f" transform="translate(281.054688 0)"/>
      <use xlink:href="#DejaVuSans-6e" transform="translate(342.236328 0)"/>
      <use xlink:href="#DejaVuSans-20" transform="translate(405.615234 0)"/>
      <use xlink:href="#DejaVuSans-65" transform="translate(437.402344 0)"/>
      <use xlink:href="#DejaVuSans-70" transform="translate(498.925781 0)"/>
      <use xlink:href="#DejaVuSans-73" transform="translate(562.402344 0)"/>
      <use xlink:href="#DejaVuSans-69" transform="translate(614.501953 0)"/>
      <use xlink:href="#DejaVuSans-6c" transform="translate(642.285156 0)"/>
      <use xlink:href="#DejaVuSans-6f" transform="translate(670.068359 0)"/>
      <use xlink:href="#DejaVuSans-6e" transform="translate(731.25 0)"/>
     </g>
    </g>
   </g>
   <g id="LineCollection_1">
    <path d="M 55.609765 99.057222 
L 55.609765 99.048398 
" clip-path="url(#p212864feee)" style="fill: none; stroke: #2b2b2b; stroke-width: 2"/>
   </g>
   <g id="LineCollection_2">
    <path d="M 109.023255 49.271978 
L 109.023255 49.266663 
" clip-path="url(#p212864feee)" style="fill: none; stroke: #2b2b2b; stroke-width: 2"/>
   </g>
   <g id="LineCollection_3">
    <path d="M 162.436745 20.750723 
L 162.436745 20.746567 
" clip-path="url(#p212864feee)" style="fill: none; stroke: #2b2b2b; stroke-width: 2"/>
   </g>
   <g id="LineCollection_4">
    <path d="M 189.14349 16.734428 
L 189.14349 16.729516 
" clip-path="url(#p212864feee)" style="fill: none; stroke: #2b2b2b; stroke-width: 2"/>
   </g>
   <g id="LineCollection_5">
    <path d="M 215.850235 15.011648 
L 215.850235 15.006428 
" clip-path="url(#p212864feee)" style="fill: none; stroke: #2b2b2b; stroke-width: 2"/>
   </g>
   <g id="line2d_19">
    <path d="M 55.609765 99.053354 
L 109.023255 49.269825 
L 162.436745 20.748594 
L 189.14349 16.732715 
L 215.850235 15.008148 
" clip-path="url(#p212864feee)" style="fill: none; stroke: #2b2b2b; stroke-opacity: 0.9; stroke-width: 1.8; stroke-linecap: square"/>
   </g>
   <g id="patch_3">
    <path d="M 44.66 103.264 
L 44.66 10.8 
" style="fill: none; stroke: #000000; stroke-width: 0.8; stroke-linejoin: miter; stroke-linecap: square"/>
   </g>
   <g id="patch_4">
    <path d="M 226.8 103.264 
L 226.8 10.8 
" style="fill: none; stroke: #000000; stroke-width: 0.8; stroke-linejoin: miter; stroke-linecap: square"/>
   </g>
   <g id="patch_5">
    <path d="M 44.66 103.264 
L 226.8 103.264 
" style="fill: none; stroke: #000000; stroke-width: 0.8; stroke-linejoin: miter; stroke-linecap: square"/>
   </g>
   <g id="patch_6">
    <path d="M 44.66 10.8 
L 226.8 10.8 
" style="fill: none; stroke: #000000; stroke-width: 0.8; stroke-linejoin: miter; stroke-linecap: square"/>
   </g>
   <g id="PathCollection_1">
    <defs>
     <path id="m8081352968" d="M 0 2.12132 
C 0.562581 2.12132 1.102195 1.897805 1.5 1.5 
C 1.897805 1.102195 2.12132 0.562581 2.12132 0 
C 2.12132 -0.562581 1.897805 -1.102195 1.5 -1.5 
C 1.102195 -1.897805 0.562581 -2.12132 0 -2.12132 
C -0.562581 -2.12132 -1.102195 -1.897805 -1.5 -1.5 
C -1.897805 -1.102195 -2.12132 -0.562581 -2.12132 0 
C -2.12132 0.562581 -1.897805 1.102195 -1.5 1.5 
C -1.102195 1.897805 -0.562581 2.12132 0 2.12132 
z
" style="stroke: #2b2b2b"/>
    </defs>
    <g clip-path="url(#p212864feee)">
     <use xlink:href="#m8081352968" x="55.609765" y="99.053354" style="fill: #2b2b2b; stroke: #2b2b2b"/>
    </g>
   </g>
   <g id="PathCollection_2">
    <g clip-path="url(#p212864feee)">
     <use xlink:href="#m8081352968" x="109.023255" y="49.269825" style="fill: #2b2b2b; stroke: #2b2b2b"/>
    </g>
   </g>
   <g id="PathCollection_3">
    <g clip-path="url(#p212864feee)">
     <use xlink:href="#m8081352968" x="162.436745" y="20.748594" style="fill: #2b2b2b; stroke: #2b2b2b"/>
    </g>
   </g>
   <g id="PathCollection_4">
    <g clip-path="url(#p212864feee)">
     <use xlink:href="#m8081352968" x="189.14349" y="16.732715" style="fill: #2b2b2b; stroke: #2b2b2b"/>
    </g>
   </g>
   <g id="PathCollection_5">
    <g clip-path="url(#p212864feee)">
     <use xlink:href="#m8081352968" x="215.850235" y="15.008148" style="fill: #2b2b2b; stroke: #2b2b2b"/>
    </g>
   </g>
  </g>
 </g>
 <defs>
  <clipPath id="p212864feee">
   <rect x="44.66" y="10.8" width="182.14" height="92.464"/>
  </clipPath>
 </defs>
</svg>
