<?xml version="1.0" encoding="utf-8" standalone="no"?>
<!DOCTYPE svg PUBLIC "-//W3C//DTD SVG 1.1//EN"
  "http://www.w3.org/Graphics/SVG/1.1/DTD/svg11.dtd">
<svg xmlns:xlink="http://www.w3.org/1999/xlink" width="237.6pt" height="144pt" viewBox="0 0 237.6 144" xmlns="http://www.w3.org/2000/svg" version="1.1">
 <metadata>
  <rdf:RDF xmlns:dc="http://purl.org/dc/elements/1.1/" xmlns:cc="http://creativecommons.org/ns#" xmlns:rdf="http://www.w3.org/1999/02/22-rdf-syntax-ns#">
   <cc:Work>
    <dc:type rdf:resource="http://purl.org/dc/dcmitype/StillImage"/>
    <dc:date>2026-05-20T15:59:18.720058</dc:date>
    <dc:format>image/svg+xml</dc:format>
    <dc:creator>
     <cc:Agent>
      <dc:title>Matplotlib v3.10.8, https://matplotlib.org/</dc:title>
     </cc:Agent>
    </dc:creator>
   </cc:Work>
  </rdf:RDF>
 </metadata>
 <defs>
  <style type="text/css">*{stroke-linejoin: round; stroke-linecap: butt}</style>
 </defs>
 <g id="figure_1">
  <g id="patch_1">
   <path d="M 0 144 
L 237.6 144 
L 237.6 0 
L 0 0 
z
" style="fill: #ffffff"/>
  </g>
  <g id="axes_1">
   <g id="patch_2">
    <path d="M 44.66 103.264 
L 226.8 103.264 
L 226.8 10.8 
L 44.66 10.8 
z
" style="fill: #ffffff"/>
   </g>
   <g id="FillBetweenPolyCollection_1">
    <defs>
     <path id="m8db4212116" d="M 57.567027 -44.938909 
L 53.652504 -44.938909 
L 53.599578 -44.939111 
L 53.548197 -44.939313 
L 53.498489 -44.939515 
L 53.450574 -44.939717 
L 53.404561 -44.939919 
L 53.360547 -44.940121 
L 53.31862 -44.940323 
L 53.278852 -44.940525 
L 53.241305 -44.940727 
L 53.206026 -44.940929 
L 53.173052 -44.941131 
L 53.142402 -44.941333 
L 53.114087 -44.941535 
L 53.088101 -44.941737 
L 53.064426 -44.941939 
L 53.043032 -44.942141 
L 53.023878 -44.942344 
L 53.00691 -44.942546 
L 52.992063 -44.942748 
L 52.979263 -44.94295 
L 52.968427 -44.943152 
L 52.959463 -44.943354 
L 52.952273 -44.943556 
L 52.946752 -44.943758 
L 52.94279 -44.94396 
L 52.940275 -44.944162 
L 52.939091 -44.944364 
L 52.939122 -44.944566 
L 52.940253 -44.944768 
L 52.94237 -44.94497 
L 52.945361 -44.945172 
L 52.94912 -44.945374 
L 52.953546 -44.945576 
L 52.958546 -44.945778 
L 52.964031 -44.94598 
L 52.969927 -44.946182 
L 52.976163 -44.946384 
L 52.982685 -44.946586 
L 52.989445 -44.946788 
L 52.99641 -44.94699 
L 53.003558 -44.947192 
L 53.010877 -44.947394 
L 53.018371 -44.947596 
L 53.026052 -44.947798 
L 53.033945 -44.948 
L 53.042087 -44.948202 
L 53.050523 -44.948404 
L 53.059307 -44.948606 
L 53.068504 -44.948808 
L 53.078182 -44.94901 
L 53.088418 -44.949212 
L 53.09929 -44.949414 
L 53.110881 -44.949616 
L 53.123274 -44.949818 
L 53.136553 -44.95002 
L 53.150798 -44.950222 
L 53.166088 -44.950424 
L 53.182495 -44.950627 
L 53.200086 -44.950829 
L 53.218922 -44.951031 
L 53.239052 -44.951233 
L 53.260519 -44.951435 
L 53.283354 -44.951637 
L 53.307578 -44.951839 
L 53.333199 -44.952041 
L 53.360216 -44.952243 
L 53.388615 -44.952445 
L 53.41837 -44.952647 
L 53.449445 -44.952849 
L 53.481793 -44.953051 
L 53.515358 -44.953253 
L 53.550072 -44.953455 
L 53.585863 -44.953657 
L 53.622648 -44.953859 
L 53.660342 -44.954061 
L 53.698851 -44.954263 
L 53.73808 -44.954465 
L 53.777933 -44.954667 
L 53.81831 -44.954869 
L 53.859112 -44.955071 
L 53.900245 -44.955273 
L 53.941611 -44.955475 
L 53.983122 -44.955677 
L 54.02469 -44.955879 
L 54.066233 -44.956081 
L 54.107676 -44.956283 
L 54.148949 -44.956485 
L 54.189988 -44.956687 
L 54.230737 -44.956889 
L 54.271146 -44.957091 
L 54.311171 -44.957293 
L 54.350774 -44.957495 
L 54.389926 -44.957697 
L 54.428601 -44.957899 
L 54.466777 -44.958101 
L 54.50444 -44.958303 
L 54.541578 -44.958505 
L 54.578182 -44.958708 
L 54.614246 -44.95891 
L 56.605285 -44.95891 
L 56.605285 -44.95891 
L 56.641349 -44.958708 
L 56.677953 -44.958505 
L 56.715091 -44.958303 
L 56.752754 -44.958101 
L 56.79093 -44.957899 
L 56.829605 -44.957697 
L 56.868756 -44.957495 
L 56.90836 -44.957293 
L 56.948385 -44.957091 
L 56.988793 -44.956889 
L 57.029542 -44.956687 
L 57.070582 -44.956485 
L 57.111854 -44.956283 
L 57.153297 -44.956081 
L 57.194841 -44.955879 
L 57.236409 -44.955677 
L 57.277919 -44.955475 
L 57.319286 -44.955273 
L 57.360418 -44.955071 
L 57.401221 -44.954869 
L 57.441598 -44.954667 
L 57.481451 -44.954465 
L 57.52068 -44.954263 
L 57.559189 -44.954061 
L 57.596882 -44.953859 
L 57.633668 -44.953657 
L 57.669459 -44.953455 
L 57.704173 -44.953253 
L 57.737738 -44.953051 
L 57.770086 -44.952849 
L 57.801161 -44.952647 
L 57.830916 -44.952445 
L 57.859315 -44.952243 
L 57.886332 -44.952041 
L 57.911953 -44.951839 
L 57.936177 -44.951637 
L 57.959012 -44.951435 
L 57.980479 -44.951233 
L 58.000609 -44.951031 
L 58.019444 -44.950829 
L 58.037036 -44.950627 
L 58.053443 -44.950424 
L 58.068732 -44.950222 
L 58.082978 -44.95002 
L 58.096256 -44.949818 
L 58.10865 -44.949616 
L 58.120241 -44.949414 
L 58.131113 -44.949212 
L 58.141348 -44.94901 
L 58.151027 -44.948808 
L 58.160223 -44.948606 
L 58.169008 -44.948404 
L 58.177444 -44.948202 
L 58.185586 -44.948 
L 58.193479 -44.947798 
L 58.20116 -44.947596 
L 58.208654 -44.947394 
L 58.215973 -44.947192 
L 58.22312 -44.94699 
L 58.230085 -44.946788 
L 58.236846 -44.946586 
L 58.243367 -44.946384 
L 58.249604 -44.946182 
L 58.255499 -44.94598 
L 58.260985 -44.945778 
L 58.265984 -44.945576 
L 58.270411 -44.945374 
L 58.27417 -44.945172 
L 58.277161 -44.94497 
L 58.279278 -44.944768 
L 58.280408 -44.944566 
L 58.28044 -44.944364 
L 58.279256 -44.944162 
L 58.276741 -44.94396 
L 58.272779 -44.943758 
L 58.267258 -44.943556 
L 58.260067 -44.943354 
L 58.251104 -44.943152 
L 58.240268 -44.94295 
L 58.227468 -44.942748 
L 58.212621 -44.942546 
L 58.195653 -44.942344 
L 58.176498 -44.942141 
L 58.155105 -44.941939 
L 58.13143 -44.941737 
L 58.105444 -44.941535 
L 58.077128 -44.941333 
L 58.046479 -44.941131 
L 58.013505 -44.940929 
L 57.978226 -44.940727 
L 57.940679 -44.940525 
L 57.900911 -44.940323 
L 57.858983 -44.940121 
L 57.81497 -44.939919 
L 57.768957 -44.939717 
L 57.721042 -44.939515 
L 57.671334 -44.939313 
L 57.619952 -44.939111 
L 57.567027 -44.938909 
z
" style="stroke: #6f6f6f; stroke-opacity: 0.5"/>
    </defs>
    <g clip-path="url(#p4b6b94a23c)">
     <use xlink:href="#m8db4212116" x="0" y="144" style="fill: #9e9e9e; fill-opacity: 0.5; stroke: #6f6f6f; stroke-opacity: 0.5"/>
    </g>
   </g>
   <g id="FillBetweenPolyCollection_2">
    <defs>
     <path id="mc0b4e7a41c" d="M 110.146242 -94.717213 
L 107.900268 -94.717213 
L 107.860273 -94.71733 
L 107.820057 -94.717446 
L 107.779654 -94.717563 
L 107.739096 -94.717679 
L 107.698415 -94.717796 
L 107.657642 -94.717912 
L 107.616808 -94.718029 
L 107.575944 -94.718145 
L 107.535081 -94.718262 
L 107.494251 -94.718378 
L 107.453485 -94.718495 
L 107.412818 -94.718611 
L 107.372282 -94.718728 
L 107.331913 -94.718844 
L 107.291749 -94.718961 
L 107.251829 -94.719077 
L 107.212192 -94.719194 
L 107.172882 -94.71931 
L 107.133942 -94.719427 
L 107.09542 -94.719543 
L 107.057365 -94.71966 
L 107.019826 -94.719776 
L 106.982855 -94.719893 
L 106.946507 -94.720009 
L 106.910837 -94.720126 
L 106.8759 -94.720242 
L 106.841753 -94.720359 
L 106.808453 -94.720475 
L 106.776057 -94.720592 
L 106.74462 -94.720708 
L 106.714197 -94.720825 
L 106.68484 -94.720941 
L 106.6566 -94.721058 
L 106.629523 -94.721174 
L 106.603653 -94.721291 
L 106.579028 -94.721407 
L 106.555683 -94.721524 
L 106.533645 -94.72164 
L 106.512936 -94.721757 
L 106.493574 -94.721874 
L 106.475566 -94.72199 
L 106.458914 -94.722107 
L 106.443614 -94.722223 
L 106.429651 -94.72234 
L 106.417007 -94.722456 
L 106.405652 -94.722573 
L 106.395554 -94.722689 
L 106.386672 -94.722806 
L 106.378959 -94.722922 
L 106.372364 -94.723039 
L 106.366831 -94.723155 
L 106.362302 -94.723272 
L 106.358717 -94.723388 
L 106.356012 -94.723505 
L 106.354127 -94.723621 
L 106.353002 -94.723738 
L 106.352581 -94.723854 
L 106.352809 -94.723971 
L 106.353642 -94.724087 
L 106.355037 -94.724204 
L 106.356962 -94.72432 
L 106.359395 -94.724437 
L 106.362321 -94.724553 
L 106.365736 -94.72467 
L 106.36965 -94.724786 
L 106.37408 -94.724903 
L 106.379059 -94.725019 
L 106.384628 -94.725136 
L 106.390841 -94.725252 
L 106.397764 -94.725369 
L 106.405469 -94.725485 
L 106.414041 -94.725602 
L 106.423572 -94.725718 
L 106.434158 -94.725835 
L 106.445903 -94.725951 
L 106.458914 -94.726068 
L 106.473298 -94.726184 
L 106.489164 -94.726301 
L 106.506616 -94.726417 
L 106.525758 -94.726534 
L 106.546686 -94.72665 
L 106.569489 -94.726767 
L 106.594247 -94.726883 
L 106.621027 -94.727 
L 106.649888 -94.727116 
L 106.680872 -94.727233 
L 106.714008 -94.72735 
L 106.749309 -94.727466 
L 106.786771 -94.727583 
L 106.826376 -94.727699 
L 106.868085 -94.727816 
L 106.911845 -94.727932 
L 106.957587 -94.728049 
L 107.005224 -94.728165 
L 107.054655 -94.728282 
L 107.105762 -94.728398 
L 107.158418 -94.728515 
L 107.212479 -94.728631 
L 107.267794 -94.728748 
L 110.778716 -94.728748 
L 110.778716 -94.728748 
L 110.834031 -94.728631 
L 110.888092 -94.728515 
L 110.940748 -94.728398 
L 110.991856 -94.728282 
L 111.041286 -94.728165 
L 111.088923 -94.728049 
L 111.134665 -94.727932 
L 111.178426 -94.727816 
L 111.220135 -94.727699 
L 111.259739 -94.727583 
L 111.297201 -94.727466 
L 111.332502 -94.72735 
L 111.365638 -94.727233 
L 111.396622 -94.727116 
L 111.425483 -94.727 
L 111.452264 -94.726883 
L 111.477021 -94.726767 
L 111.499824 -94.72665 
L 111.520752 -94.726534 
L 111.539894 -94.726417 
L 111.557347 -94.726301 
L 111.573212 -94.726184 
L 111.587596 -94.726068 
L 111.600607 -94.725951 
L 111.612352 -94.725835 
L 111.622938 -94.725718 
L 111.632469 -94.725602 
L 111.641041 -94.725485 
L 111.648747 -94.725369 
L 111.655669 -94.725252 
L 111.661882 -94.725136 
L 111.667452 -94.725019 
L 111.67243 -94.724903 
L 111.676861 -94.724786 
L 111.680774 -94.72467 
L 111.68419 -94.724553 
L 111.687115 -94.724437 
L 111.689548 -94.72432 
L 111.691473 -94.724204 
L 111.692869 -94.724087 
L 111.693701 -94.723971 
L 111.69393 -94.723854 
L 111.693508 -94.723738 
L 111.692383 -94.723621 
L 111.690498 -94.723505 
L 111.687794 -94.723388 
L 111.684208 -94.723272 
L 111.679679 -94.723155 
L 111.674146 -94.723039 
L 111.667551 -94.722922 
L 111.659838 -94.722806 
L 111.650956 -94.722689 
L 111.640858 -94.722573 
L 111.629504 -94.722456 
L 111.616859 -94.72234 
L 111.602896 -94.722223 
L 111.587596 -94.722107 
L 111.570944 -94.72199 
L 111.552936 -94.721874 
L 111.533574 -94.721757 
L 111.512866 -94.72164 
L 111.490828 -94.721524 
L 111.467482 -94.721407 
L 111.442857 -94.721291 
L 111.416987 -94.721174 
L 111.38991 -94.721058 
L 111.36167 -94.720941 
L 111.332313 -94.720825 
L 111.30189 -94.720708 
L 111.270453 -94.720592 
L 111.238057 -94.720475 
L 111.204757 -94.720359 
L 111.17061 -94.720242 
L 111.135673 -94.720126 
L 111.100003 -94.720009 
L 111.063655 -94.719893 
L 111.026685 -94.719776 
L 110.989146 -94.71966 
L 110.95109 -94.719543 
L 110.912568 -94.719427 
L 110.873629 -94.71931 
L 110.834318 -94.719194 
L 110.794682 -94.719077 
L 110.754761 -94.718961 
L 110.714597 -94.718844 
L 110.674229 -94.718728 
L 110.633693 -94.718611 
L 110.593025 -94.718495 
L 110.552259 -94.718378 
L 110.511429 -94.718262 
L 110.470566 -94.718145 
L 110.429702 -94.718029 
L 110.388868 -94.717912 
L 110.348095 -94.717796 
L 110.307414 -94.717679 
L 110.266856 -94.717563 
L 110.226453 -94.717446 
L 110.186237 -94.71733 
L 110.146242 -94.717213 
z
" style="stroke: #6f6f6f; stroke-opacity: 0.5"/>
    </defs>
    <g clip-path="url(#p4b6b94a23c)">
     <use xlink:href="#mc0b4e7a41c" x="0" y="144" style="fill: #9e9e9e; fill-opacity: 0.5; stroke: #6f6f6f; stroke-opacity: 0.5"/>
    </g>
   </g>
   <g id="FillBetweenPolyCollection_3">
    <defs>
     <path id="ma4fe94ba6a" d="M 164.45651 -123.236219 
L 160.41698 -123.236219 
L 160.368735 -123.23629 
L 160.321693 -123.23636 
L 160.27597 -123.236431 
L 160.231679 -123.236502 
L 160.188929 -123.236572 
L 160.147826 -123.236643 
L 160.108468 -123.236713 
L 160.070948 -123.236784 
L 160.035353 -123.236855 
L 160.001763 -123.236925 
L 159.970248 -123.236996 
L 159.940874 -123.237066 
L 159.913695 -123.237137 
L 159.888759 -123.237208 
L 159.866101 -123.237278 
L 159.845751 -123.237349 
L 159.827727 -123.23742 
L 159.812036 -123.23749 
L 159.798676 -123.237561 
L 159.787636 -123.237631 
L 159.778893 -123.237702 
L 159.772414 -123.237773 
L 159.768157 -123.237843 
L 159.76607 -123.237914 
L 159.76609 -123.237984 
L 159.768146 -123.238055 
L 159.772155 -123.238126 
L 159.778029 -123.238196 
L 159.78567 -123.238267 
L 159.79497 -123.238338 
L 159.805818 -123.238408 
L 159.818092 -123.238479 
L 159.831665 -123.238549 
L 159.846407 -123.23862 
L 159.862181 -123.238691 
L 159.878845 -123.238761 
L 159.896257 -123.238832 
L 159.914269 -123.238902 
L 159.932733 -123.238973 
L 159.951502 -123.239044 
L 159.970427 -123.239114 
L 159.98936 -123.239185 
L 160.008157 -123.239256 
L 160.026675 -123.239326 
L 160.044775 -123.239397 
L 160.062323 -123.239467 
L 160.079192 -123.239538 
L 160.095259 -123.239609 
L 160.110409 -123.239679 
L 160.124536 -123.23975 
L 160.137543 -123.23982 
L 160.14934 -123.239891 
L 160.159851 -123.239962 
L 160.169006 -123.240032 
L 160.176751 -123.240103 
L 160.18304 -123.240174 
L 160.187842 -123.240244 
L 160.191138 -123.240315 
L 160.192919 -123.240385 
L 160.193192 -123.240456 
L 160.191976 -123.240527 
L 160.189303 -123.240597 
L 160.185217 -123.240668 
L 160.179776 -123.240738 
L 160.173049 -123.240809 
L 160.165117 -123.24088 
L 160.156074 -123.24095 
L 160.146024 -123.241021 
L 160.135081 -123.241092 
L 160.123368 -123.241162 
L 160.111019 -123.241233 
L 160.098172 -123.241303 
L 160.084977 -123.241374 
L 160.071584 -123.241445 
L 160.058154 -123.241515 
L 160.044847 -123.241586 
L 160.031827 -123.241656 
L 160.019261 -123.241727 
L 160.007315 -123.241798 
L 159.996153 -123.241868 
L 159.985939 -123.241939 
L 159.976832 -123.24201 
L 159.968987 -123.24208 
L 159.962555 -123.242151 
L 159.957679 -123.242221 
L 159.954493 -123.242292 
L 159.953125 -123.242363 
L 159.953692 -123.242433 
L 159.956301 -123.242504 
L 159.961047 -123.242574 
L 159.968014 -123.242645 
L 159.977274 -123.242716 
L 159.988885 -123.242786 
L 160.002893 -123.242857 
L 160.01933 -123.242928 
L 160.038214 -123.242998 
L 160.059549 -123.243069 
L 160.083326 -123.243139 
L 160.109524 -123.24321 
L 164.763966 -123.24321 
L 164.763966 -123.24321 
L 164.790163 -123.243139 
L 164.813941 -123.243069 
L 164.835276 -123.242998 
L 164.85416 -123.242928 
L 164.870596 -123.242857 
L 164.884604 -123.242786 
L 164.896216 -123.242716 
L 164.905476 -123.242645 
L 164.912443 -123.242574 
L 164.917189 -123.242504 
L 164.919798 -123.242433 
L 164.920364 -123.242363 
L 164.918997 -123.242292 
L 164.915811 -123.242221 
L 164.910934 -123.242151 
L 164.904503 -123.24208 
L 164.896658 -123.24201 
L 164.887551 -123.241939 
L 164.877337 -123.241868 
L 164.866175 -123.241798 
L 164.854228 -123.241727 
L 164.841662 -123.241656 
L 164.828643 -123.241586 
L 164.815336 -123.241515 
L 164.801905 -123.241445 
L 164.788513 -123.241374 
L 164.775317 -123.241303 
L 164.762471 -123.241233 
L 164.750122 -123.241162 
L 164.738409 -123.241092 
L 164.727466 -123.241021 
L 164.717415 -123.24095 
L 164.708373 -123.24088 
L 164.700441 -123.240809 
L 164.693714 -123.240738 
L 164.688273 -123.240668 
L 164.684187 -123.240597 
L 164.681513 -123.240527 
L 164.680298 -123.240456 
L 164.680571 -123.240385 
L 164.682352 -123.240315 
L 164.685647 -123.240244 
L 164.690449 -123.240174 
L 164.696739 -123.240103 
L 164.704484 -123.240032 
L 164.713639 -123.239962 
L 164.724149 -123.239891 
L 164.735947 -123.23982 
L 164.748953 -123.23975 
L 164.763081 -123.239679 
L 164.778231 -123.239609 
L 164.794298 -123.239538 
L 164.811167 -123.239467 
L 164.828715 -123.239397 
L 164.846815 -123.239326 
L 164.865333 -123.239256 
L 164.884129 -123.239185 
L 164.903063 -123.239114 
L 164.921987 -123.239044 
L 164.940756 -123.238973 
L 164.959221 -123.238902 
L 164.977233 -123.238832 
L 164.994644 -123.238761 
L 165.011309 -123.238691 
L 165.027082 -123.23862 
L 165.041824 -123.238549 
L 165.055398 -123.238479 
L 165.067672 -123.238408 
L 165.078519 -123.238338 
L 165.08782 -123.238267 
L 165.09546 -123.238196 
L 165.101334 -123.238126 
L 165.105344 -123.238055 
L 165.107399 -123.237984 
L 165.107419 -123.237914 
L 165.105332 -123.237843 
L 165.101076 -123.237773 
L 165.094597 -123.237702 
L 165.085854 -123.237631 
L 165.074814 -123.237561 
L 165.061454 -123.23749 
L 165.045763 -123.23742 
L 165.027738 -123.237349 
L 165.007388 -123.237278 
L 164.984731 -123.237208 
L 164.959794 -123.237137 
L 164.932616 -123.237066 
L 164.903241 -123.236996 
L 164.871727 -123.236925 
L 164.838136 -123.236855 
L 164.802542 -123.236784 
L 164.765022 -123.236713 
L 164.725664 -123.236643 
L 164.68456 -123.236572 
L 164.641811 -123.236502 
L 164.59752 -123.236431 
L 164.551797 -123.23636 
L 164.504754 -123.23629 
L 164.45651 -123.236219 
z
" style="stroke: #6f6f6f; stroke-opacity: 0.5"/>
    </defs>
    <g clip-path="url(#p4b6b94a23c)">
     <use xlink:href="#ma4fe94ba6a" x="0" y="144" style="fill: #9e9e9e; fill-opacity: 0.5; stroke: #6f6f6f; stroke-opacity: 0.5"/>
    </g>
   </g>
   <g id="FillBetweenPolyCollection_4">
    <defs>
     <path id="m84cadacef5" d="M 190.418674 -127.251527 
L 187.868305 -127.251527 
L 187.812042 -127.251607 
L 187.754934 -127.251687 
L 187.697096 -127.251766 
L 187.638652 -127.251846 
L 187.579737 -127.251926 
L 187.520498 -127.252005 
L 187.46109 -127.252085 
L 187.401681 -127.252165 
L 187.342447 -127.252244 
L 187.283572 -127.252324 
L 187.22525 -127.252404 
L 187.16768 -127.252483 
L 187.111066 -127.252563 
L 187.055618 -127.252642 
L 187.001547 -127.252722 
L 186.949064 -127.252802 
L 186.898382 -127.252881 
L 186.849709 -127.252961 
L 186.803248 -127.253041 
L 186.759197 -127.25312 
L 186.717745 -127.2532 
L 186.67907 -127.25328 
L 186.64334 -127.253359 
L 186.610707 -127.253439 
L 186.581307 -127.253519 
L 186.555261 -127.253598 
L 186.53267 -127.253678 
L 186.513617 -127.253758 
L 186.498163 -127.253837 
L 186.486348 -127.253917 
L 186.478191 -127.253997 
L 186.473689 -127.254076 
L 186.472815 -127.254156 
L 186.475523 -127.254236 
L 186.481743 -127.254315 
L 186.491385 -127.254395 
L 186.504339 -127.254474 
L 186.520477 -127.254554 
L 186.539653 -127.254634 
L 186.561705 -127.254713 
L 186.586454 -127.254793 
L 186.613712 -127.254873 
L 186.643277 -127.254952 
L 186.674941 -127.255032 
L 186.708484 -127.255112 
L 186.743686 -127.255191 
L 186.780319 -127.255271 
L 186.818157 -127.255351 
L 186.856973 -127.25543 
L 186.896543 -127.25551 
L 186.936645 -127.25559 
L 186.977065 -127.255669 
L 187.017594 -127.255749 
L 187.058035 -127.255829 
L 187.098197 -127.255908 
L 187.137903 -127.255988 
L 187.176985 -127.256067 
L 187.21529 -127.256147 
L 187.252679 -127.256227 
L 187.289025 -127.256306 
L 187.324218 -127.256386 
L 187.358163 -127.256466 
L 187.390778 -127.256545 
L 187.421998 -127.256625 
L 187.451774 -127.256705 
L 187.480072 -127.256784 
L 187.506871 -127.256864 
L 187.532168 -127.256944 
L 187.555973 -127.257023 
L 187.578309 -127.257103 
L 187.599215 -127.257183 
L 187.618739 -127.257262 
L 187.636946 -127.257342 
L 187.653909 -127.257422 
L 187.669711 -127.257501 
L 187.684447 -127.257581 
L 187.69822 -127.257661 
L 187.71114 -127.25774 
L 187.723323 -127.25782 
L 187.734893 -127.257899 
L 187.745974 -127.257979 
L 187.756698 -127.258059 
L 187.767194 -127.258138 
L 187.777595 -127.258218 
L 187.788033 -127.258298 
L 187.798635 -127.258377 
L 187.809528 -127.258457 
L 187.820833 -127.258537 
L 187.832664 -127.258616 
L 187.845132 -127.258696 
L 187.858335 -127.258776 
L 187.872366 -127.258855 
L 187.887306 -127.258935 
L 187.903226 -127.259015 
L 187.920185 -127.259094 
L 187.93823 -127.259174 
L 187.957398 -127.259254 
L 187.977708 -127.259333 
L 187.999172 -127.259413 
L 190.287807 -127.259413 
L 190.287807 -127.259413 
L 190.309271 -127.259333 
L 190.329582 -127.259254 
L 190.348749 -127.259174 
L 190.366795 -127.259094 
L 190.383754 -127.259015 
L 190.399673 -127.258935 
L 190.414613 -127.258855 
L 190.428644 -127.258776 
L 190.441848 -127.258696 
L 190.454315 -127.258616 
L 190.466147 -127.258537 
L 190.477451 -127.258457 
L 190.488344 -127.258377 
L 190.498947 -127.258298 
L 190.509384 -127.258218 
L 190.519785 -127.258138 
L 190.530282 -127.258059 
L 190.541005 -127.257979 
L 190.552087 -127.257899 
L 190.563656 -127.25782 
L 190.57584 -127.25774 
L 190.588759 -127.257661 
L 190.602532 -127.257581 
L 190.617269 -127.257501 
L 190.633071 -127.257422 
L 190.650033 -127.257342 
L 190.66824 -127.257262 
L 190.687765 -127.257183 
L 190.70867 -127.257103 
L 190.731007 -127.257023 
L 190.754811 -127.256944 
L 190.780108 -127.256864 
L 190.806908 -127.256784 
L 190.835205 -127.256705 
L 190.864981 -127.256625 
L 190.896201 -127.256545 
L 190.928817 -127.256466 
L 190.962761 -127.256386 
L 190.997954 -127.256306 
L 191.034301 -127.256227 
L 191.07169 -127.256147 
L 191.109995 -127.256067 
L 191.149077 -127.255988 
L 191.188782 -127.255908 
L 191.228944 -127.255829 
L 191.269385 -127.255749 
L 191.309915 -127.255669 
L 191.350335 -127.25559 
L 191.390437 -127.25551 
L 191.430006 -127.25543 
L 191.468822 -127.255351 
L 191.50666 -127.255271 
L 191.543294 -127.255191 
L 191.578495 -127.255112 
L 191.612039 -127.255032 
L 191.643702 -127.254952 
L 191.673268 -127.254873 
L 191.700526 -127.254793 
L 191.725275 -127.254713 
L 191.747326 -127.254634 
L 191.766502 -127.254554 
L 191.78264 -127.254474 
L 191.795595 -127.254395 
L 191.805237 -127.254315 
L 191.811457 -127.254236 
L 191.814164 -127.254156 
L 191.813291 -127.254076 
L 191.808788 -127.253997 
L 191.800631 -127.253917 
L 191.788817 -127.253837 
L 191.773363 -127.253758 
L 191.754309 -127.253678 
L 191.731719 -127.253598 
L 191.705673 -127.253519 
L 191.676273 -127.253439 
L 191.643639 -127.253359 
L 191.607909 -127.25328 
L 191.569235 -127.2532 
L 191.527783 -127.25312 
L 191.483732 -127.253041 
L 191.437271 -127.252961 
L 191.388597 -127.252881 
L 191.337915 -127.252802 
L 191.285433 -127.252722 
L 191.231361 -127.252642 
L 191.175913 -127.252563 
L 191.1193 -127.252483 
L 191.061729 -127.252404 
L 191.003407 -127.252324 
L 190.944533 -127.252244 
L 190.885298 -127.252165 
L 190.825889 -127.252085 
L 190.766482 -127.252005 
L 190.707242 -127.251926 
L 190.648327 -127.251846 
L 190.589883 -127.251766 
L 190.532045 -127.251687 
L 190.474938 -127.251607 
L 190.418674 -127.251527 
z
" style="stroke: #6f6f6f; stroke-opacity: 0.5"/>
    </defs>
    <g clip-path="url(#p4b6b94a23c)">
     <use xlink:href="#m84cadacef5" x="0" y="144" style="fill: #9e9e9e; fill-opacity: 0.5; stroke: #6f6f6f; stroke-opacity: 0.5"/>
    </g>
   </g>
   <g id="FillBetweenPolyCollection_5">
    <defs>
     <path id="m2357e12be2" d="M 216.853933 -128.895076 
L 214.846536 -128.895076 
L 214.839621 -128.896106 
L 214.834873 -128.897137 
L 214.832313 -128.898167 
L 214.831946 -128.899198 
L 214.833762 -128.900228 
L 214.837731 -128.901259 
L 214.843812 -128.902289 
L 214.851942 -128.903319 
L 214.862047 -128.90435 
L 214.874033 -128.90538 
L 214.887796 -128.906411 
L 214.903214 -128.907441 
L 214.920153 -128.908472 
L 214.938467 -128.909502 
L 214.957999 -128.910533 
L 214.978581 -128.911563 
L 215.000036 -128.912594 
L 215.022181 -128.913624 
L 215.044824 -128.914654 
L 215.06777 -128.915685 
L 215.090817 -128.916715 
L 215.113764 -128.917746 
L 215.136405 -128.918776 
L 215.158534 -128.919807 
L 215.179948 -128.920837 
L 215.200444 -128.921868 
L 215.21982 -128.922898 
L 215.237881 -128.923929 
L 215.254435 -128.924959 
L 215.269294 -128.925989 
L 215.282279 -128.92702 
L 215.293217 -128.92805 
L 215.301942 -128.929081 
L 215.308297 -128.930111 
L 215.312134 -128.931142 
L 215.313317 -128.932172 
L 215.311716 -128.933203 
L 215.307217 -128.934233 
L 215.299715 -128.935264 
L 215.289117 -128.936294 
L 215.275345 -128.937324 
L 215.258334 -128.938355 
L 215.238032 -128.939385 
L 215.214405 -128.940416 
L 215.187432 -128.941446 
L 215.15711 -128.942477 
L 215.123452 -128.943507 
L 215.086488 -128.944538 
L 215.046269 -128.945568 
L 215.00286 -128.946599 
L 214.95635 -128.947629 
L 214.906844 -128.948659 
L 214.854468 -128.94969 
L 214.799367 -128.95072 
L 214.741707 -128.951751 
L 214.681671 -128.952781 
L 214.619465 -128.953812 
L 214.555311 -128.954842 
L 214.489451 -128.955873 
L 214.422141 -128.956903 
L 214.353659 -128.957934 
L 214.284292 -128.958964 
L 214.214345 -128.959995 
L 214.144134 -128.961025 
L 214.073983 -128.962055 
L 214.004227 -128.963086 
L 213.935207 -128.964116 
L 213.867266 -128.965147 
L 213.80075 -128.966177 
L 213.736004 -128.967208 
L 213.673369 -128.968238 
L 213.613181 -128.969269 
L 213.555766 -128.970299 
L 213.50144 -128.97133 
L 213.450503 -128.97236 
L 213.403242 -128.97339 
L 213.359923 -128.974421 
L 213.320792 -128.975451 
L 213.286072 -128.976482 
L 213.255961 -128.977512 
L 213.230631 -128.978543 
L 213.210226 -128.979573 
L 213.194861 -128.980604 
L 213.184621 -128.981634 
L 213.17956 -128.982665 
L 213.179703 -128.983695 
L 213.185042 -128.984725 
L 213.19554 -128.985756 
L 213.211129 -128.986786 
L 213.231711 -128.987817 
L 213.257163 -128.988847 
L 213.287331 -128.989878 
L 213.322039 -128.990908 
L 213.361087 -128.991939 
L 213.40425 -128.992969 
L 213.451289 -128.994 
L 213.501943 -128.99503 
L 213.55594 -128.99606 
L 213.612993 -128.997091 
L 218.087476 -128.997091 
L 218.087476 -128.997091 
L 218.144529 -128.99606 
L 218.198526 -128.99503 
L 218.249181 -128.994 
L 218.296219 -128.992969 
L 218.339383 -128.991939 
L 218.37843 -128.990908 
L 218.413138 -128.989878 
L 218.443306 -128.988847 
L 218.468758 -128.987817 
L 218.489341 -128.986786 
L 218.504929 -128.985756 
L 218.515427 -128.984725 
L 218.520766 -128.983695 
L 218.520909 -128.982665 
L 218.515848 -128.981634 
L 218.505608 -128.980604 
L 218.490243 -128.979573 
L 218.469838 -128.978543 
L 218.444508 -128.977512 
L 218.414397 -128.976482 
L 218.379677 -128.975451 
L 218.340546 -128.974421 
L 218.297227 -128.97339 
L 218.249966 -128.97236 
L 218.199029 -128.97133 
L 218.144703 -128.970299 
L 218.087288 -128.969269 
L 218.0271 -128.968238 
L 217.964465 -128.967208 
L 217.899719 -128.966177 
L 217.833203 -128.965147 
L 217.765262 -128.964116 
L 217.696242 -128.963086 
L 217.626486 -128.962055 
L 217.556335 -128.961025 
L 217.486124 -128.959995 
L 217.416177 -128.958964 
L 217.34681 -128.957934 
L 217.278328 -128.956903 
L 217.211019 -128.955873 
L 217.145158 -128.954842 
L 217.081004 -128.953812 
L 217.018798 -128.952781 
L 216.958762 -128.951751 
L 216.901102 -128.95072 
L 216.846001 -128.94969 
L 216.793625 -128.948659 
L 216.744119 -128.947629 
L 216.697609 -128.946599 
L 216.654201 -128.945568 
L 216.613981 -128.944538 
L 216.577017 -128.943507 
L 216.543359 -128.942477 
L 216.513037 -128.941446 
L 216.486064 -128.940416 
L 216.462437 -128.939385 
L 216.442136 -128.938355 
L 216.425124 -128.937324 
L 216.411352 -128.936294 
L 216.400755 -128.935264 
L 216.393252 -128.934233 
L 216.388753 -128.933203 
L 216.387152 -128.932172 
L 216.388335 -128.931142 
L 216.392172 -128.930111 
L 216.398527 -128.929081 
L 216.407252 -128.92805 
L 216.41819 -128.92702 
L 216.431175 -128.925989 
L 216.446035 -128.924959 
L 216.462588 -128.923929 
L 216.480649 -128.922898 
L 216.500025 -128.921868 
L 216.520521 -128.920837 
L 216.541935 -128.919807 
L 216.564064 -128.918776 
L 216.586705 -128.917746 
L 216.609652 -128.916715 
L 216.632699 -128.915685 
L 216.655645 -128.914654 
L 216.678288 -128.913624 
L 216.700433 -128.912594 
L 216.721889 -128.911563 
L 216.742471 -128.910533 
L 216.762002 -128.909502 
L 216.780316 -128.908472 
L 216.797255 -128.907441 
L 216.812673 -128.906411 
L 216.826436 -128.90538 
L 216.838423 -128.90435 
L 216.848527 -128.903319 
L 216.856658 -128.902289 
L 216.862738 -128.901259 
L 216.866708 -128.900228 
L 216.868523 -128.899198 
L 216.868156 -128.898167 
L 216.865596 -128.897137 
L 216.860848 -128.896106 
L 216.853933 -128.895076 
z
" style="stroke: #6f6f6f; stroke-opacity: 0.5"/>
    </defs>
    <g clip-path="url(#p4b6b94a23c)">
     <use xlink:href="#m2357e12be2" x="0" y="144" style="fill: #9e9e9e; fill-opacity: 0.5; stroke: #6f6f6f; stroke-opacity: 0.5"/>
    </g>
   </g>
   <g id="matplotlib.axis_1">
    <g id="xtick_1">
     <g id="line2d_1">
      <path d="M 55.609765 103.264 
L 55.609765 10.8 
" clip-path="url(#p4b6b94a23c)" style="fill: none; stroke: #b0b0b0; stroke-opacity: 0.2; stroke-width: 0.8; stroke-linecap: square"/>
     </g>
     <g id="line2d_2">
      <defs>
       <path id="m7b4234d347" d="M 0 0 
L 0 3.5 
" style="stroke: #000000; stroke-width: 0.8"/>
      </defs>
      <g>
       <use xlink:href="#m7b4234d347" x="55.609765" y="103.264" style="stroke: #000000; stroke-width: 0.8"/>
      </g>
     </g>
     <g id="text_1">
      <!-- 0 -->
      <g transform="translate(53.064765 116.34275) scale(0.08 -0.08)">
       <defs>
        <path id="DejaVuSans-30" d="M 2034 4250 
Q 1547 4250 1301 3770 
Q 1056 3291 1056 2328 
Q 1056 1369 1301 889 
Q 1547 409 2034 409 
Q 2525 409 2770 889 
Q 3016 1369 3016 2328 
Q 3016 3291 2770 3770 
Q 2525 4250 2034 4250 
z
M 2034 4750 
Q 2819 4750 3233 4129 
Q 3647 3509 3647 2328 
Q 3647 1150 3233 529 
Q 2819 -91 2034 -91 
Q 1250 -91 836 529 
Q 422 1150 422 2328 
Q 422 3509 836 4129 
Q 1250 4750 2034 4750 
z
" transform="scale(0.015625)"/>
       </defs>
       <use xlink:href="#DejaVuSans-30"/>
      </g>
     </g>
    </g>
    <g id="xtick_2">
     <g id="line2d_3">
      <path d="M 109.023255 103.264 
L 109.023255 10.8 
" clip-path="url(#p4b6b94a23c)" style="fill: none; stroke: #b0b0b0; stroke-opacity: 0.2; stroke-width: 0.8; stroke-linecap: square"/>
     </g>
     <g id="line2d_4">
      <g>
       <use xlink:href="#m7b4234d347" x="109.023255" y="103.264" style="stroke: #000000; stroke-width: 0.8"/>
      </g>
     </g>
     <g id="text_2">
      <!-- 6 -->
      <g transform="translate(106.478255 116.34275) scale(0.08 -0.08)">
       <defs>
        <path id="DejaVuSans-36" d="M 2113 2584 
Q 1688 2584 1439 2293 
Q 1191 2003 1191 1497 
Q 1191 994 1439 701 
Q 1688 409 2113 409 
Q 2538 409 2786 701 
Q 3034 994 3034 1497 
Q 3034 2003 2786 2293 
Q 2538 2584 2113 2584 
z
M 3366 4563 
L 3366 3988 
Q 3128 4100 2886 4159 
Q 2644 4219 2406 4219 
Q 1781 4219 1451 3797 
Q 1122 3375 1075 2522 
Q 1259 2794 1537 2939 
Q 1816 3084 2150 3084 
Q 2853 3084 3261 2657 
Q 3669 2231 3669 1497 
Q 3669 778 3244 343 
Q 2819 -91 2113 -91 
Q 1303 -91 875 529 
Q 447 1150 447 2328 
Q 447 3434 972 4092 
Q 1497 4750 2381 4750 
Q 2619 4750 2861 4703 
Q 3103 4656 3366 4563 
z
" transform="scale(0.015625)"/>
       </defs>
       <use xlink:href="#DejaVuSans-36"/>
      </g>
     </g>
    </g>
    <g id="xtick_3">
     <g id="line2d_5">
      <path d="M 162.436745 103.264 
L 162.436745 10.8 
" clip-path="url(#p4b6b94a23c)" style="fill: none; stroke: #b0b0b0; stroke-opacity: 0.2; stroke-width: 0.8; stroke-linecap: square"/>
     </g>
     <g id="line2d_6">
      <g>
       <use xlink:href="#m7b4234d347" x="162.436745" y="103.264" style="stroke: #000000; stroke-width: 0.8"/>
      </g>
     </g>
     <g id="text_3">
      <!-- 12 -->
      <g transform="translate(157.346745 116.34275) scale(0.08 -0.08)">
       <defs>
        <path id="DejaVuSans-31" d="M 794 531 
L 1825 531 
L 1825 4091 
L 703 3866 
L 703 4441 
L 1819 4666 
L 2450 4666 
L 2450 531 
L 3481 531 
L 3481 0 
L 794 0 
L 794 531 
z
" transform="scale(0.015625)"/>
        <path id="DejaVuSans-32" d="M 1228 531 
L 3431 531 
L 3431 0 
L 469 0 
L 469 531 
Q 828 903 1448 1529 
Q 2069 2156 2228 2338 
Q 2531 2678 2651 2914 
Q 2772 3150 2772 3378 
Q 2772 3750 2511 3984 
Q 2250 4219 1831 4219 
Q 1534 4219 1204 4116 
Q 875 4013 500 3803 
L 500 4441 
Q 881 4594 1212 4672 
Q 1544 4750 1819 4750 
Q 2544 4750 2975 4387 
Q 3406 4025 3406 3419 
Q 3406 3131 3298 2873 
Q 3191 2616 2906 2266 
Q 2828 2175 2409 1742 
Q 1991 1309 1228 531 
z
" transform="scale(0.015625)"/>
       </defs>
       <use xlink:href="#DejaVuSans-31"/>
       <use xlink:href="#DejaVuSans-32" transform="translate(63.623047 0)"/>
      </g>
     </g>
    </g>
    <g id="xtick_4">
     <g id="line2d_7">
      <path d="M 189.14349 103.264 
L 189.14349 10.8 
" clip-path="url(#p4b6b94a23c)" style="fill: none; stroke: #b0b0b0; stroke-opacity: 0.2; stroke-width: 0.8; stroke-linecap: square"/>
     </g>
     <g id="line2d_8">
      <g>
       <use xlink:href="#m7b4234d347" x="189.14349" y="103.264" style="stroke: #000000; stroke-width: 0.8"/>
      </g>
     </g>
     <g id="text_4">
      <!-- 15 -->
      <g transform="translate(184.05349 116.34275) scale(0.08 -0.08)">
       <defs>
        <path id="DejaVuSans-35" d="M 691 4666 
L 3169 4666 
L 3169 4134 
L 1269 4134 
L 1269 2991 
Q 1406 3038 1543 3061 
Q 1681 3084 1819 3084 
Q 2600 3084 3056 2656 
Q 3513 2228 3513 1497 
Q 3513 744 3044 326 
Q 2575 -91 1722 -91 
Q 1428 -91 1123 -41 
Q 819 9 494 109 
L 494 744 
Q 775 591 1075 516 
Q 1375 441 1709 441 
Q 2250 441 2565 725 
Q 2881 1009 2881 1497 
Q 2881 1984 2565 2268 
Q 2250 2553 1709 2553 
Q 1456 2553 1204 2497 
Q 953 2441 691 2322 
L 691 4666 
z
" transform="scale(0.015625)"/>
       </defs>
       <use xlink:href="#DejaVuSans-31"/>
       <use xlink:href="#DejaVuSans-35" transform="translate(63.623047 0)"/>
      </g>
     </g>
    </g>
    <g id="xtick_5">
     <g id="line2d_9">
      <path d="M 215.850235 103.264 
L 215.850235 10.8 
" clip-path="url(#p4b6b94a23c)" style="fill: none; stroke: #b0b0b0; stroke-opacity: 0.2; stroke-width: 0.8; stroke-linecap: square"/>
     </g>
     <g id="line2d_10">
      <g>
       <use xlink:href="#m7b4234d347" x="215.850235" y="103.264" style="stroke: #000000; stroke-width: 0.8"/>
      </g>
     </g>
     <g id="text_5">
      <!-- 18 -->
      <g transform="translate(210.760235 116.34275) scale(0.08 -0.08)">
       <defs>
        <path id="DejaVuSans-38" d="M 2034 2216 
Q 1584 2216 1326 1975 
Q 1069 1734 1069 1313 
Q 1069 891 1326 650 
Q 1584 409 2034 409 
Q 2484 409 2743 651 
Q 3003 894 3003 1313 
Q 3003 1734 2745 1975 
Q 2488 2216 2034 2216 
z
M 1403 2484 
Q 997 2584 770 2862 
Q 544 3141 544 3541 
Q 544 4100 942 4425 
Q 1341 4750 2034 4750 
Q 2731 4750 3128 4425 
Q 3525 4100 3525 3541 
Q 3525 3141 3298 2862 
Q 3072 2584 2669 2484 
Q 3125 2378 3379 2068 
Q 3634 1759 3634 1313 
Q 3634 634 3220 271 
Q 2806 -91 2034 -91 
Q 1263 -91 848 271 
Q 434 634 434 1313 
Q 434 1759 690 2068 
Q 947 2378 1403 2484 
z
M 1172 3481 
Q 1172 3119 1398 2916 
Q 1625 2713 2034 2713 
Q 2441 2713 2670 2916 
Q 2900 3119 2900 3481 
Q 2900 3844 2670 4047 
Q 2441 4250 2034 4250 
Q 1625 4250 1398 4047 
Q 1172 3844 1172 3481 
z
" transform="scale(0.015625)"/>
       </defs>
       <use xlink:href="#DejaVuSans-31"/>
       <use xlink:href="#DejaVuSans-38" transform="translate(63.623047 0)"/>
      </g>
     </g>
    </g>
    <g id="text_6">
     <!-- $\varepsilon_\mathrm{reactiveLJ}$ -->
     <g transform="translate(115.63 128.584625) scale(0.1 -0.1)">
      <defs>
       <path id="DejaVuSans-Oblique-3b5" d="M 1263 1888 
Q 925 1963 778 2166 
Q 669 2309 669 2503 
Q 669 3034 1175 3344 
Q 1575 3588 2188 3588 
Q 2425 3588 2684 3550 
Q 2944 3513 3234 3438 
L 3134 2916 
Q 2847 3006 2606 3047 
Q 2359 3088 2138 3088 
Q 1766 3088 1522 2944 
Q 1228 2772 1228 2522 
Q 1228 2356 1381 2241 
Q 1563 2103 1925 2103 
L 2409 2103 
L 2319 1628 
L 1856 1628 
Q 1425 1628 1172 1469 
Q 828 1253 828 916 
Q 828 703 1013 563 
Q 1244 388 1716 388 
Q 2006 388 2284 444 
Q 2563 503 2806 619 
L 2700 84 
Q 2403 -3 2131 -47 
Q 1859 -91 1609 -91 
Q 866 -91 516 194 
Q 250 413 250 781 
Q 250 1278 600 1584 
Q 859 1813 1263 1888 
z
" transform="scale(0.015625)"/>
       <path id="DejaVuSans-72" d="M 2631 2963 
Q 2534 3019 2420 3045 
Q 2306 3072 2169 3072 
Q 1681 3072 1420 2755 
Q 1159 2438 1159 1844 
L 1159 0 
L 581 0 
L 581 3500 
L 1159 3500 
L 1159 2956 
Q 1341 3275 1631 3429 
Q 1922 3584 2338 3584 
Q 2397 3584 2469 3576 
Q 2541 3569 2628 3553 
L 2631 2963 
z
" transform="scale(0.015625)"/>
       <path id="DejaVuSans-65" d="M 3597 1894 
L 3597 1613 
L 953 1613 
Q 991 1019 1311 708 
Q 1631 397 2203 397 
Q 2534 397 2845 478 
Q 3156 559 3463 722 
L 3463 178 
Q 3153 47 2828 -22 
Q 2503 -91 2169 -91 
Q 1331 -91 842 396 
Q 353 884 353 1716 
Q 353 2575 817 3079 
Q 1281 3584 2069 3584 
Q 2775 3584 3186 3129 
Q 3597 2675 3597 1894 
z
M 3022 2063 
Q 3016 2534 2758 2815 
Q 2500 3097 2075 3097 
Q 1594 3097 1305 2825 
Q 1016 2553 972 2059 
L 3022 2063 
z
" transform="scale(0.015625)"/>
       <path id="DejaVuSans-61" d="M 2194 1759 
Q 1497 1759 1228 1600 
Q 959 1441 959 1056 
Q 959 750 1161 570 
Q 1363 391 1709 391 
Q 2188 391 2477 730 
Q 2766 1069 2766 1631 
L 2766 1759 
L 2194 1759 
z
M 3341 1997 
L 3341 0 
L 2766 0 
L 2766 531 
Q 2569 213 2275 61 
Q 1981 -91 1556 -91 
Q 1019 -91 701 211 
Q 384 513 384 1019 
Q 384 1609 779 1909 
Q 1175 2209 1959 2209 
L 2766 2209 
L 2766 2266 
Q 2766 2663 2505 2880 
Q 2244 3097 1772 3097 
Q 1472 3097 1187 3025 
Q 903 2953 641 2809 
L 641 3341 
Q 956 3463 1253 3523 
Q 1550 3584 1831 3584 
Q 2591 3584 2966 3190 
Q 3341 2797 3341 1997 
z
" transform="scale(0.015625)"/>
       <path id="DejaVuSans-63" d="M 3122 3366 
L 3122 2828 
Q 2878 2963 2633 3030 
Q 2388 3097 2138 3097 
Q 1578 3097 1268 2742 
Q 959 2388 959 1747 
Q 959 1106 1268 751 
Q 1578 397 2138 397 
Q 2388 397 2633 464 
Q 2878 531 3122 666 
L 3122 134 
Q 2881 22 2623 -34 
Q 2366 -91 2075 -91 
Q 1284 -91 818 406 
Q 353 903 353 1747 
Q 353 2603 823 3093 
Q 1294 3584 2113 3584 
Q 2378 3584 2631 3529 
Q 2884 3475 3122 3366 
z
" transform="scale(0.015625)"/>
       <path id="DejaVuSans-74" d="M 1172 4494 
L 1172 3500 
L 2356 3500 
L 2356 3053 
L 1172 3053 
L 1172 1153 
Q 1172 725 1289 603 
Q 1406 481 1766 481 
L 2356 481 
L 2356 0 
L 1766 0 
Q 1100 0 847 248 
Q 594 497 594 1153 
L 594 3053 
L 172 3053 
L 172 3500 
L 594 3500 
L 594 4494 
L 1172 4494 
z
" transform="scale(0.015625)"/>
       <path id="DejaVuSans-69" d="M 603 3500 
L 1178 3500 
L 1178 0 
L 603 0 
L 603 3500 
z
M 603 4863 
L 1178 4863 
L 1178 4134 
L 603 4134 
L 603 4863 
z
" transform="scale(0.015625)"/>
       <path id="DejaVuSans-76" d="M 191 3500 
L 800 3500 
L 1894 563 
L 2988 3500 
L 3597 3500 
L 2284 0 
L 1503 0 
L 191 3500 
z
" transform="scale(0.015625)"/>
       <path id="DejaVuSans-4c" d="M 628 4666 
L 1259 4666 
L 1259 531 
L 3531 531 
L 3531 0 
L 628 0 
L 628 4666 
z
" transform="scale(0.015625)"/>
       <path id="DejaVuSans-4a" d="M 628 4666 
L 1259 4666 
L 1259 325 
Q 1259 -519 939 -900 
Q 619 -1281 -91 -1281 
L -331 -1281 
L -331 -750 
L -134 -750 
Q 284 -750 456 -515 
Q 628 -281 628 325 
L 628 4666 
z
" transform="scale(0.015625)"/>
      </defs>
      <use xlink:href="#DejaVuSans-Oblique-3b5" transform="translate(0 0.9375)"/>
      <use xlink:href="#DejaVuSans-72" transform="translate(54.052734 -15.46875) scale(0.7)"/>
      <use xlink:href="#DejaVuSans-65" transform="translate(82.832031 -15.46875) scale(0.7)"/>
      <use xlink:href="#DejaVuSans-61" transform="translate(125.898438 -15.46875) scale(0.7)"/>
      <use xlink:href="#DejaVuSans-63" transform="translate(168.793945 -15.46875) scale(0.7)"/>
      <use xlink:href="#DejaVuSans-74" transform="translate(207.280273 -15.46875) scale(0.7)"/>
      <use xlink:href="#DejaVuSans-69" transform="translate(234.726562 -15.46875) scale(0.7)"/>
      <use xlink:href="#DejaVuSans-76" transform="translate(254.174805 -15.46875) scale(0.7)"/>
      <use xlink:href="#DejaVuSans-65" transform="translate(295.600586 -15.46875) scale(0.7)"/>
      <use xlink:href="#DejaVuSans-4c" transform="translate(338.666992 -15.46875) scale(0.7)"/>
      <use xlink:href="#DejaVuSans-4a" transform="translate(377.666016 -15.46875) scale(0.7)"/>
     </g>
    </g>
   </g>
   <g id="matplotlib.axis_2">
    <g id="ytick_1">
     <g id="line2d_11">
      <path d="M 44.66 81.085996 
L 226.8 81.085996 
" clip-path="url(#p4b6b94a23c)" style="fill: none; stroke: #b0b0b0; stroke-opacity: 0.2; stroke-width: 0.8; stroke-linecap: square"/>
     </g>
     <g id="line2d_12">
      <defs>
       <path id="ma7d574cf43" d="M 0 0 
L -3.5 0 
" style="stroke: #000000; stroke-width: 0.8"/>
      </defs>
      <g>
       <use xlink:href="#ma7d574cf43" x="44.66" y="81.085996" style="stroke: #000000; stroke-width: 0.8"/>
      </g>
     </g>
     <g id="text_7">
      <!-- 0.5 -->
      <g transform="translate(24.9375 84.125371) scale(0.08 -0.08)">
       <defs>
        <path id="DejaVuSans-2e" d="M 684 794 
L 1344 794 
L 1344 0 
L 684 0 
L 684 794 
z
" transform="scale(0.015625)"/>
       </defs>
       <use xlink:href="#DejaVuSans-30"/>
       <use xlink:href="#DejaVuSans-2e" transform="translate(63.623047 0)"/>
       <use xlink:href="#DejaVuSans-35" transform="translate(95.410156 0)"/>
      </g>
     </g>
    </g>
    <g id="ytick_2">
     <g id="line2d_13">
      <path d="M 44.66 58.61599 
L 226.8 58.61599 
" clip-path="url(#p4b6b94a23c)" style="fill: none; stroke: #b0b0b0; stroke-opacity: 0.2; stroke-width: 0.8; stroke-linecap: square"/>
     </g>
     <g id="line2d_14">
      <g>
       <use xlink:href="#ma7d574cf43" x="44.66" y="58.61599" style="stroke: #000000; stroke-width: 0.8"/>
      </g>
     </g>
     <g id="text_8">
      <!-- 1.0 -->
      <g transform="translate(24.9375 61.655365) scale(0.08 -0.08)">
       <use xlink:href="#DejaVuSans-31"/>
       <use xlink:href="#DejaVuSans-2e" transform="translate(63.623047 0)"/>
       <use xlink:href="#DejaVuSans-30" transform="translate(95.410156 0)"/>
      </g>
     </g>
    </g>
    <g id="ytick_3">
     <g id="line2d_15">
      <path d="M 44.66 36.145985 
L 226.8 36.145985 
" clip-path="url(#p4b6b94a23c)" style="fill: none; stroke: #b0b0b0; stroke-opacity: 0.2; stroke-width: 0.8; stroke-linecap: square"/>
     </g>
     <g id="line2d_16">
      <g>
       <use xlink:href="#ma7d574cf43" x="44.66" y="36.145985" style="stroke: #000000; stroke-width: 0.8"/>
      </g>
     </g>
     <g id="text_9">
      <!-- 1.5 -->
      <g transform="translate(24.9375 39.18536) scale(0.08 -0.08)">
       <use xlink:href="#DejaVuSans-31"/>
       <use xlink:href="#DejaVuSans-2e" transform="translate(63.623047 0)"/>
       <use xlink:href="#DejaVuSans-35" transform="translate(95.410156 0)"/>
      </g>
     </g>
    </g>
    <g id="ytick_4">
     <g id="line2d_17">
      <path d="M 44.66 13.675979 
L 226.8 13.675979 
" clip-path="url(#p4b6b94a23c)" style="fill: none; stroke: #b0b0b0; stroke-opacity: 0.2; stroke-width: 0.8; stroke-linecap: square"/>
     </g>
     <g id="line2d_18">
      <g>
       <use xlink:href="#ma7d574cf43" x="44.66" y="13.675979" style="stroke: #000000; stroke-width: 0.8"/>
      </g>
     </g>
     <g id="text_10">
      <!-- 2.0 -->
      <g transform="translate(24.9375 16.715354) scale(0.08 -0.08)">
       <use xlink:href="#DejaVuSans-32"/>
       <use xlink:href="#DejaVuSans-2e" transform="translate(63.623047 0)"/>
       <use xlink:href="#DejaVuSans-30" transform="translate(95.410156 0)"/>
      </g>
     </g>
    </g>
    <g id="text_11">
     <!-- gelation epsilon -->
     <g transform="translate(18.857813 96.764031) rotate(-90) scale(0.1 -0.1)">
      <defs>
       <path id="DejaVuSans-67" d="M 2906 1791 
Q 2906 2416 2648 2759 
Q 2391 3103 1925 3103 
Q 1463 3103 1205 2759 
Q 947 2416 947 1791 
Q 947 1169 1205 825 
Q 1463 481 1925 481 
Q 2391 481 2648 825 
Q 2906 1169 2906 1791 
z
M 3481 434 
Q 3481 -459 3084 -895 
Q 2688 -1331 1869 -1331 
Q 1566 -1331 1297 -1286 
Q 1028 -1241 775 -1147 
L 775 -588 
Q 1028 -725 1275 -790 
Q 1522 -856 1778 -856 
Q 2344 -856 2625 -561 
Q 2906 -266 2906 331 
L 2906 616 
Q 2728 306 2450 153 
Q 2172 0 1784 0 
Q 1141 0 747 490 
Q 353 981 353 1791 
Q 353 2603 747 3093 
Q 1141 3584 1784 3584 
Q 2172 3584 2450 3431 
Q 2728 3278 2906 2969 
L 2906 3500 
L 3481 3500 
L 3481 434 
z
" transform="scale(0.015625)"/>
       <path id="DejaVuSans-6c" d="M 603 4863 
L 1178 4863 
L 1178 0 
L 603 0 
L 603 4863 
z
" transform="scale(0.015625)"/>
       <path id="DejaVuSans-6f" d="M 1959 3097 
Q 1497 3097 1228 2736 
Q 959 2375 959 1747 
Q 959 1119 1226 758 
Q 1494 397 1959 397 
Q 2419 397 2687 759 
Q 2956 1122 2956 1747 
Q 2956 2369 2687 2733 
Q 2419 3097 1959 3097 
z
M 1959 3584 
Q 2709 3584 3137 3096 
Q 3566 2609 3566 1747 
Q 3566 888 3137 398 
Q 2709 -91 1959 -91 
Q 1206 -91 779 398 
Q 353 888 353 1747 
Q 353 2609 779 3096 
Q 1206 3584 1959 3584 
z
" transform="scale(0.015625)"/>
       <path id="DejaVuSans-6e" d="M 3513 2113 
L 3513 0 
L 2938 0 
L 2938 2094 
Q 2938 2591 2744 2837 
Q 2550 3084 2163 3084 
Q 1697 3084 1428 2787 
Q 1159 2491 1159 1978 
L 1159 0 
L 581 0 
L 581 3500 
L 1159 3500 
L 1159 2956 
Q 1366 3272 1645 3428 
Q 1925 3584 2291 3584 
Q 2894 3584 3203 3211 
Q 3513 2838 3513 2113 
z
" transform="scale(0.015625)"/>
       <path id="DejaVuSans-20" transform="scale(0.015625)"/>
       <path id="DejaVuSans-70" d="M 1159 525 
L 1159 -1331 
L 581 -1331 
L 581 3500 
L 1159 3500 
L 1159 2969 
Q 1341 3281 1617 3432 
Q 1894 3584 2278 3584 
Q 2916 3584 3314 3078 
Q 3713 2572 3713 1747 
Q 3713 922 3314 415 
Q 2916 -91 2278 -91 
Q 1894 -91 1617 61 
Q 1341 213 1159 525 
z
M 3116 1747 
Q 3116 2381 2855 2742 
Q 2594 3103 2138 3103 
Q 1681 3103 1420 2742 
Q 1159 2381 1159 1747 
Q 1159 1113 1420 752 
Q 1681 391 2138 391 
Q 2594 391 2855 752 
Q 3116 1113 3116 1747 
z
" transform="scale(0.015625)"/>
       <path id="DejaVuSans-73" d="M 2834 3397 
L 2834 2853 
Q 2591 2978 2328 3040 
Q 2066 3103 1784 3103 
Q 1356 3103 1142 2972 
Q 928 2841 928 2578 
Q 928 2378 1081 2264 
Q 1234 2150 1697 2047 
L 1894 2003 
Q 2506 1872 2764 1633 
Q 3022 1394 3022 966 
Q 3022 478 2636 193 
Q 2250 -91 1575 -91 
Q 1294 -91 989 -36 
Q 684 19 347 128 
L 347 722 
Q 666 556 975 473 
Q 1284 391 1588 391 
Q 1994 391 2212 530 
Q 2431 669 2431 922 
Q 2431 1156 2273 1281 
Q 2116 1406 1581 1522 
L 1381 1569 
Q 847 1681 609 1914 
Q 372 2147 372 2553 
Q 372 3047 722 3315 
Q 1072 3584 1716 3584 
Q 2034 3584 2315 3537 
Q 2597 3491 2834 3397 
z
" transform="scale(0.015625)"/>
      </defs>
      <use xlink:href="#DejaVuSans-67"/>
      <use xlink:href="#DejaVuSans-65" transform="translate(63.476562 0)"/>
      <use xlink:href="#DejaVuSans-6c" transform="translate(125 0)"/>
      <use xlink:href="#DejaVuSans-61" transform="translate(152.783203 0)"/>
      <use xlink:href="#DejaVuSans-74" transform="translate(214.0625 0)"/>
      <use xlink:href="#DejaVuSans-69" transform="translate(253.271484 0)"/>
      <use xlink:href="#DejaVuSans-6f" transform="translate(281.054688 0)"/>
      <use xlink:href="#DejaVuSans-6e" transform="translate(342.236328 0)"/>
      <use xlink:href="#DejaVuSans-20" transform="translate(405.615234 0)"/>
      <use xlink:href="#DejaVuSans-65" transform="translate(437.402344 0)"/>
      <use xlink:href="#DejaVuSans-70" transform="translate(498.925781 0)"/>
      <use xlink:href="#DejaVuSans-73" transform="translate(562.402344 0)"/>
      <use xlink:href="#DejaVuSans-69" transform="translate(614.501953 0)"/>
      <use xlink:href="#DejaVuSans-6c" transform="translate(642.285156 0)"/>
      <use xlink:href="#DejaVuSans-6f" transform="translate(670.068359 0)"/>
      <use xlink:href="#DejaVuSans-6e" transform="translate(731.25 0)"/>
     </g>
    </g>
   </g>
   <g id="LineCollection_1">
    <path d="M 55.609765 99.057223 
L 55.609765 99.048399 
" clip-path="url(#p4b6b94a23c)" style="fill: none; stroke: #2b2b2b; stroke-width: 2"/>
   </g>
   <g id="LineCollection_2">
    <path d="M 109.023255 49.278945 
L 109.023255 49.273414 
" clip-path="url(#p4b6b94a23c)" style="fill: none; stroke: #2b2b2b; stroke-width: 2"/>
   </g>
   <g id="LineCollection_3">
    <path d="M 162.436745 20.762603 
L 162.436745 20.757178 
" clip-path="url(#p4b6b94a23c)" style="fill: none; stroke: #2b2b2b; stroke-width: 2"/>
   </g>
   <g id="LineCollection_4">
    <path d="M 189.14349 16.746297 
L 189.14349 16.74316 
" clip-path="url(#p4b6b94a23c)" style="fill: none; stroke: #2b2b2b; stroke-width: 2"/>
   </g>
   <g id="LineCollection_5">
    <path d="M 215.850235 15.062903 
L 215.850235 15.016798 
" clip-path="url(#p4b6b94a23c)" style="fill: none; stroke: #2b2b2b; stroke-width: 2"/>
   </g>
   <g id="line2d_19">
    <path d="M 55.609765 99.053378 
L 109.023255 49.276694 
L 162.436745 20.760689 
L 189.14349 16.74557 
L 215.850235 15.022064 
" clip-path="url(#p4b6b94a23c)" style="fill: none; stroke: #2b2b2b; stroke-opacity: 0.9; stroke-width: 1.8; stroke-linecap: square"/>
   </g>
   <g id="patch_3">
    <path d="M 44.66 103.264 
L 44.66 10.8 
" style="fill: none; stroke: #000000; stroke-width: 0.8; stroke-linejoin: miter; stroke-linecap: square"/>
   </g>
   <g id="patch_4">
    <path d="M 226.8 103.264 
L 226.8 10.8 
" style="fill: none; stroke: #000000; stroke-width: 0.8; stroke-linejoin: miter; stroke-linecap: square"/>
   </g>
   <g id="patch_5">
    <path d="M 44.66 103.264 
L 226.8 103.264 
" style="fill: none; stroke: #000000; stroke-width: 0.8; stroke-linejoin: miter; stroke-linecap: square"/>
   </g>
   <g id="patch_6">
    <path d="M 44.66 10.8 
L 226.8 10.8 
" style="fill: none; stroke: #000000; stroke-width: 0.8; stroke-linejoin: miter; stroke-linecap: square"/>
   </g>
   <g id="PathCollection_1">
    <defs>
     <path id="ma5f2511a63" d="M 0 2.12132 
C 0.562581 2.12132 1.102195 1.897805 1.5 1.5 
C 1.897805 1.102195 2.12132 0.562581 2.12132 0 
C 2.12132 -0.562581 1.897805 -1.102195 1.5 -1.5 
C 1.102195 -1.897805 0.562581 -2.12132 0 -2.12132 
C -0.562581 -2.12132 -1.102195 -1.897805 -1.5 -1.5 
C -1.897805 -1.102195 -2.12132 -0.562581 -2.12132 0 
C -2.12132 0.562581 -1.897805 1.102195 -1.5 1.5 
C -1.102195 1.897805 -0.562581 2.12132 0 2.12132 
z
" style="stroke: #2b2b2b"/>
    </defs>
    <g clip-path="url(#p4b6b94a23c)">
     <use xlink:href="#ma5f2511a63" x="55.609765" y="99.053378" style="fill: #2b2b2b; stroke: #2b2b2b"/>
    </g>
   </g>
   <g id="PathCollection_2">
    <g clip-path="url(#p4b6b94a23c)">
     <use xlink:href="#ma5f2511a63" x="109.023255" y="49.276694" style="fill: #2b2b2b; stroke: #2b2b2b"/>
    </g>
   </g>
   <g id="PathCollection_3">
    <g clip-path="url(#p4b6b94a23c)">
     <use xlink:href="#ma5f2511a63" x="162.436745" y="20.760689" style="fill: #2b2b2b; stroke: #2b2b2b"/>
    </g>
   </g>
   <g id="PathCollection_4">
    <g clip-path="url(#p4b6b94a23c)">
     <use xlink:href="#ma5f2511a63" x="189.14349" y="16.74557" style="fill: #2b2b2b; stroke: #2b2b2b"/>
    </g>
   </g>
   <g id="PathCollection_5">
    <g clip-path="url(#p4b6b94a23c)">
     <use xlink:href="#ma5f2511a63" x="215.850235" y="15.022064" style="fill: #2b2b2b; stroke: #2b2b2b"/>
    </g>
   </g>
  </g>
 </g>
 <defs>
  <clipPath id="p4b6b94a23c">
   <rect x="44.66" y="10.8" width="182.14" height="92.464"/>
  </clipPath>
 </defs>
</svg>
