<?xml version="1.0" encoding="utf-8" standalone="no"?>
<!DOCTYPE svg PUBLIC "-//W3C//DTD SVG 1.1//EN"
  "http://www.w3.org/Graphics/SVG/1.1/DTD/svg11.dtd">
<svg xmlns:xlink="http://www.w3.org/1999/xlink" width="237.6pt" height="118.8pt" viewBox="0 0 237.6 118.8" xmlns="http://www.w3.org/2000/svg" version="1.1">
 <metadata>
  <rdf:RDF xmlns:dc="http://purl.org/dc/elements/1.1/" xmlns:cc="http://creativecommons.org/ns#" xmlns:rdf="http://www.w3.org/1999/02/22-rdf-syntax-ns#">
   <cc:Work>
    <dc:type rdf:resource="http://purl.org/dc/dcmitype/StillImage"/>
    <dc:date>2026-05-20T15:59:18.818409</dc:date>
    <dc:format>image/svg+xml</dc:format>
    <dc:creator>
     <cc:Agent>
      <dc:title>Matplotlib v3.10.8, https://matplotlib.org/</dc:title>
     </cc:Agent>
    </dc:creator>
   </cc:Work>
  </rdf:RDF>
 </metadata>
 <defs>
  <style type="text/css">*{stroke-linejoin: round; stroke-linecap: butt}</style>
 </defs>
 <g id="figure_1">
  <g id="patch_1">
   <path d="M 0 118.8 
L 237.6 118.8 
L 237.6 0 
L 0 0 
z
" style="fill: #ffffff"/>
  </g>
  <g id="axes_1">
   <g id="patch_2">
    <path d="M 55.64 79.72 
L 226.8 79.72 
L 226.8 10.8 
L 55.64 10.8 
z
" style="fill: #ffffff"/>
   </g>
   <g id="FillBetweenPolyCollection_1">
    <defs>
     <path id="m2eadd49f0d" d="M 66.995497 -42.212727 
L 64.863858 -42.212727 
L 64.823022 -42.227462 
L 64.782143 -42.242197 
L 64.741298 -42.256931 
L 64.700564 -42.271666 
L 64.660021 -42.286401 
L 64.619747 -42.301135 
L 64.579817 -42.31587 
L 64.540308 -42.330605 
L 64.501294 -42.345339 
L 64.462845 -42.360074 
L 64.425029 -42.374809 
L 64.387911 -42.389543 
L 64.351549 -42.404278 
L 64.315997 -42.419013 
L 64.281304 -42.433747 
L 64.247511 -42.448482 
L 64.214651 -42.463217 
L 64.182751 -42.477951 
L 64.151828 -42.492686 
L 64.121892 -42.507421 
L 64.092943 -42.522155 
L 64.06497 -42.53689 
L 64.037957 -42.551625 
L 64.011876 -42.56636 
L 63.98669 -42.581094 
L 63.962358 -42.595829 
L 63.938826 -42.610564 
L 63.91604 -42.625298 
L 63.893936 -42.640033 
L 63.872448 -42.654768 
L 63.851508 -42.669502 
L 63.831046 -42.684237 
L 63.810993 -42.698972 
L 63.791282 -42.713706 
L 63.771851 -42.728441 
L 63.752645 -42.743176 
L 63.733613 -42.75791 
L 63.714716 -42.772645 
L 63.695925 -42.78738 
L 63.677224 -42.802114 
L 63.658609 -42.816849 
L 63.64009 -42.831584 
L 63.621694 -42.846318 
L 63.603462 -42.861053 
L 63.585451 -42.875788 
L 63.567734 -42.890522 
L 63.5504 -42.905257 
L 63.533551 -42.919992 
L 63.517304 -42.934726 
L 63.501787 -42.949461 
L 63.48714 -42.964196 
L 63.473511 -42.97893 
L 63.461056 -42.993665 
L 63.449936 -43.0084 
L 63.440313 -43.023135 
L 63.43235 -43.037869 
L 63.426208 -43.052604 
L 63.422042 -43.067339 
L 63.42 -43.082073 
L 63.420221 -43.096808 
L 63.422832 -43.111543 
L 63.427945 -43.126277 
L 63.435656 -43.141012 
L 63.446043 -43.155747 
L 63.459167 -43.170481 
L 63.475067 -43.185216 
L 63.493761 -43.199951 
L 63.515247 -43.214685 
L 63.539501 -43.22942 
L 63.566478 -43.244155 
L 63.596111 -43.258889 
L 63.628316 -43.273624 
L 63.662988 -43.288359 
L 63.700005 -43.303093 
L 63.739232 -43.317828 
L 63.780517 -43.332563 
L 63.823698 -43.347297 
L 63.868605 -43.362032 
L 63.915058 -43.376767 
L 63.962873 -43.391501 
L 64.011865 -43.406236 
L 64.061846 -43.420971 
L 64.112631 -43.435705 
L 64.164039 -43.45044 
L 64.215892 -43.465175 
L 64.268022 -43.47991 
L 64.320266 -43.494644 
L 64.372474 -43.509379 
L 64.424504 -43.524114 
L 64.476227 -43.538848 
L 64.527524 -43.553583 
L 64.578288 -43.568318 
L 64.628426 -43.583052 
L 64.677855 -43.597787 
L 64.726502 -43.612522 
L 64.774307 -43.627256 
L 64.82122 -43.641991 
L 64.867197 -43.656726 
L 64.912207 -43.67146 
L 66.947148 -43.67146 
L 66.947148 -43.67146 
L 66.992157 -43.656726 
L 67.038135 -43.641991 
L 67.085048 -43.627256 
L 67.132853 -43.612522 
L 67.1815 -43.597787 
L 67.230929 -43.583052 
L 67.281067 -43.568318 
L 67.331831 -43.553583 
L 67.383128 -43.538848 
L 67.434851 -43.524114 
L 67.486881 -43.509379 
L 67.539089 -43.494644 
L 67.591333 -43.47991 
L 67.643463 -43.465175 
L 67.695316 -43.45044 
L 67.746723 -43.435705 
L 67.797509 -43.420971 
L 67.84749 -43.406236 
L 67.896482 -43.391501 
L 67.944297 -43.376767 
L 67.99075 -43.362032 
L 68.035657 -43.347297 
L 68.078838 -43.332563 
L 68.120123 -43.317828 
L 68.159349 -43.303093 
L 68.196367 -43.288359 
L 68.231039 -43.273624 
L 68.263243 -43.258889 
L 68.292877 -43.244155 
L 68.319854 -43.22942 
L 68.344108 -43.214685 
L 68.365594 -43.199951 
L 68.384288 -43.185216 
L 68.400188 -43.170481 
L 68.413312 -43.155747 
L 68.423699 -43.141012 
L 68.43141 -43.126277 
L 68.436523 -43.111543 
L 68.439133 -43.096808 
L 68.439355 -43.082073 
L 68.437313 -43.067339 
L 68.433147 -43.052604 
L 68.427005 -43.037869 
L 68.419042 -43.023135 
L 68.409419 -43.0084 
L 68.398298 -42.993665 
L 68.385844 -42.97893 
L 68.372215 -42.964196 
L 68.357568 -42.949461 
L 68.342051 -42.934726 
L 68.325804 -42.919992 
L 68.308955 -42.905257 
L 68.291621 -42.890522 
L 68.273904 -42.875788 
L 68.255893 -42.861053 
L 68.237661 -42.846318 
L 68.219265 -42.831584 
L 68.200746 -42.816849 
L 68.182131 -42.802114 
L 68.16343 -42.78738 
L 68.144639 -42.772645 
L 68.125742 -42.75791 
L 68.10671 -42.743176 
L 68.087503 -42.728441 
L 68.068073 -42.713706 
L 68.048362 -42.698972 
L 68.028309 -42.684237 
L 68.007847 -42.669502 
L 67.986907 -42.654768 
L 67.965419 -42.640033 
L 67.943315 -42.625298 
L 67.920528 -42.610564 
L 67.896997 -42.595829 
L 67.872665 -42.581094 
L 67.847479 -42.56636 
L 67.821398 -42.551625 
L 67.794384 -42.53689 
L 67.766412 -42.522155 
L 67.737462 -42.507421 
L 67.707526 -42.492686 
L 67.676604 -42.477951 
L 67.644704 -42.463217 
L 67.611844 -42.448482 
L 67.578051 -42.433747 
L 67.543358 -42.419013 
L 67.507806 -42.404278 
L 67.471444 -42.389543 
L 67.434325 -42.374809 
L 67.39651 -42.360074 
L 67.358061 -42.345339 
L 67.319047 -42.330605 
L 67.279538 -42.31587 
L 67.239608 -42.301135 
L 67.199333 -42.286401 
L 67.15879 -42.271666 
L 67.118057 -42.256931 
L 67.077212 -42.242197 
L 67.036332 -42.227462 
L 66.995497 -42.212727 
z
" style="stroke: #6f6f6f; stroke-opacity: 0.5"/>
    </defs>
    <g clip-path="url(#p19930e5f02)">
     <use xlink:href="#m2eadd49f0d" x="0" y="118.8" style="fill: #9e9e9e; fill-opacity: 0.5; stroke: #6f6f6f; stroke-opacity: 0.5"/>
    </g>
   </g>
   <g id="FillBetweenPolyCollection_2">
    <defs>
     <path id="m7b201c3556" d="M 116.638796 -58.925304 
L 115.607656 -58.925304 
L 115.597036 -58.935533 
L 115.586773 -58.945763 
L 115.576832 -58.955992 
L 115.567167 -58.966221 
L 115.557729 -58.97645 
L 115.548461 -58.98668 
L 115.539301 -58.996909 
L 115.530181 -59.007138 
L 115.521032 -59.017367 
L 115.511778 -59.027597 
L 115.502342 -59.037826 
L 115.492645 -59.048055 
L 115.482608 -59.058284 
L 115.47215 -59.068514 
L 115.461192 -59.078743 
L 115.449655 -59.088972 
L 115.437462 -59.099201 
L 115.424538 -59.109431 
L 115.410811 -59.11966 
L 115.396212 -59.129889 
L 115.380675 -59.140118 
L 115.364138 -59.150348 
L 115.346542 -59.160577 
L 115.327835 -59.170806 
L 115.307966 -59.181035 
L 115.28689 -59.191265 
L 115.264568 -59.201494 
L 115.240964 -59.211723 
L 115.216047 -59.221952 
L 115.189793 -59.232181 
L 115.162182 -59.242411 
L 115.133199 -59.25264 
L 115.102838 -59.262869 
L 115.071095 -59.273098 
L 115.037977 -59.283328 
L 115.003493 -59.293557 
L 114.967665 -59.303786 
L 114.930517 -59.314015 
L 114.892085 -59.324245 
L 114.852412 -59.334474 
L 114.811549 -59.344703 
L 114.769556 -59.354932 
L 114.726504 -59.365162 
L 114.682472 -59.375391 
L 114.63755 -59.38562 
L 114.591836 -59.395849 
L 114.545438 -59.406079 
L 114.498476 -59.416308 
L 114.451076 -59.426537 
L 114.403376 -59.436766 
L 114.355522 -59.446996 
L 114.307667 -59.457225 
L 114.259973 -59.467454 
L 114.21261 -59.477683 
L 114.165752 -59.487913 
L 114.11958 -59.498142 
L 114.074278 -59.508371 
L 114.030034 -59.5186 
L 113.98704 -59.52883 
L 113.945486 -59.539059 
L 113.905562 -59.549288 
L 113.86746 -59.559517 
L 113.831366 -59.569746 
L 113.797462 -59.579976 
L 113.765926 -59.590205 
L 113.73693 -59.600434 
L 113.710635 -59.610663 
L 113.687196 -59.620893 
L 113.666757 -59.631122 
L 113.649448 -59.641351 
L 113.635389 -59.65158 
L 113.624686 -59.66181 
L 113.61743 -59.672039 
L 113.613698 -59.682268 
L 113.613548 -59.692497 
L 113.617026 -59.702727 
L 113.624156 -59.712956 
L 113.634949 -59.723185 
L 113.649395 -59.733414 
L 113.667469 -59.743644 
L 113.689127 -59.753873 
L 113.714308 -59.764102 
L 113.742934 -59.774331 
L 113.77491 -59.784561 
L 113.810126 -59.79479 
L 113.848455 -59.805019 
L 113.889758 -59.815248 
L 113.933879 -59.825478 
L 113.980654 -59.835707 
L 114.029904 -59.845936 
L 114.081441 -59.856165 
L 114.135068 -59.866394 
L 114.190583 -59.876624 
L 114.247773 -59.886853 
L 114.306425 -59.897082 
L 114.366319 -59.907311 
L 114.427237 -59.917541 
L 114.488957 -59.92777 
L 114.55126 -59.937999 
L 117.695192 -59.937999 
L 117.695192 -59.937999 
L 117.757495 -59.92777 
L 117.819215 -59.917541 
L 117.880133 -59.907311 
L 117.940027 -59.897082 
L 117.998679 -59.886853 
L 118.055869 -59.876624 
L 118.111383 -59.866394 
L 118.165011 -59.856165 
L 118.216548 -59.845936 
L 118.265798 -59.835707 
L 118.312572 -59.825478 
L 118.356694 -59.815248 
L 118.397996 -59.805019 
L 118.436326 -59.79479 
L 118.471541 -59.784561 
L 118.503517 -59.774331 
L 118.532143 -59.764102 
L 118.557324 -59.753873 
L 118.578982 -59.743644 
L 118.597056 -59.733414 
L 118.611503 -59.723185 
L 118.622296 -59.712956 
L 118.629426 -59.702727 
L 118.632903 -59.692497 
L 118.632754 -59.682268 
L 118.629021 -59.672039 
L 118.621766 -59.66181 
L 118.611063 -59.65158 
L 118.597004 -59.641351 
L 118.579695 -59.631122 
L 118.559255 -59.620893 
L 118.535816 -59.610663 
L 118.509522 -59.600434 
L 118.480525 -59.590205 
L 118.44899 -59.579976 
L 118.415086 -59.569746 
L 118.378991 -59.559517 
L 118.340889 -59.549288 
L 118.300966 -59.539059 
L 118.259412 -59.52883 
L 118.216417 -59.5186 
L 118.172174 -59.508371 
L 118.126872 -59.498142 
L 118.0807 -59.487913 
L 118.033842 -59.477683 
L 117.986478 -59.467454 
L 117.938785 -59.457225 
L 117.89093 -59.446996 
L 117.843076 -59.436766 
L 117.795376 -59.426537 
L 117.747976 -59.416308 
L 117.701013 -59.406079 
L 117.654616 -59.395849 
L 117.608902 -59.38562 
L 117.563979 -59.375391 
L 117.519948 -59.365162 
L 117.476896 -59.354932 
L 117.434903 -59.344703 
L 117.39404 -59.334474 
L 117.354366 -59.324245 
L 117.315934 -59.314015 
L 117.278787 -59.303786 
L 117.242958 -59.293557 
L 117.208475 -59.283328 
L 117.175356 -59.273098 
L 117.143614 -59.262869 
L 117.113252 -59.25264 
L 117.08427 -59.242411 
L 117.056659 -59.232181 
L 117.030404 -59.221952 
L 117.005488 -59.211723 
L 116.981883 -59.201494 
L 116.959561 -59.191265 
L 116.938486 -59.181035 
L 116.918617 -59.170806 
L 116.899909 -59.160577 
L 116.882314 -59.150348 
L 116.865777 -59.140118 
L 116.850239 -59.129889 
L 116.83564 -59.11966 
L 116.821913 -59.109431 
L 116.808989 -59.099201 
L 116.796796 -59.088972 
L 116.785259 -59.078743 
L 116.774301 -59.068514 
L 116.763844 -59.058284 
L 116.753807 -59.048055 
L 116.74411 -59.037826 
L 116.734674 -59.027597 
L 116.72542 -59.017367 
L 116.71627 -59.007138 
L 116.707151 -58.996909 
L 116.697991 -58.98668 
L 116.688723 -58.97645 
L 116.679285 -58.966221 
L 116.66962 -58.955992 
L 116.659678 -58.945763 
L 116.649416 -58.935533 
L 116.638796 -58.925304 
z
" style="stroke: #6f6f6f; stroke-opacity: 0.5"/>
    </defs>
    <g clip-path="url(#p19930e5f02)">
     <use xlink:href="#m7b201c3556" x="0" y="118.8" style="fill: #9e9e9e; fill-opacity: 0.5; stroke: #6f6f6f; stroke-opacity: 0.5"/>
    </g>
   </g>
   <g id="FillBetweenPolyCollection_3">
    <defs>
     <path id="m180708a4c9" d="M 166.882257 -59.658328 
L 165.751292 -59.658328 
L 165.740059 -59.700079 
L 165.728974 -59.741829 
L 165.717945 -59.783579 
L 165.706866 -59.82533 
L 165.695623 -59.86708 
L 165.684095 -59.90883 
L 165.672152 -59.950581 
L 165.659658 -59.992331 
L 165.646474 -60.034081 
L 165.63246 -60.075832 
L 165.617475 -60.117582 
L 165.601381 -60.159333 
L 165.584044 -60.201083 
L 165.565337 -60.242833 
L 165.545139 -60.284584 
L 165.523342 -60.326334 
L 165.499849 -60.368084 
L 165.474575 -60.409835 
L 165.447454 -60.451585 
L 165.418432 -60.493335 
L 165.387475 -60.535086 
L 165.354568 -60.576836 
L 165.319715 -60.618587 
L 165.282936 -60.660337 
L 165.244274 -60.702087 
L 165.203791 -60.743838 
L 165.161566 -60.785588 
L 165.117697 -60.827338 
L 165.072299 -60.869089 
L 165.025504 -60.910839 
L 164.977457 -60.952589 
L 164.928318 -60.99434 
L 164.878258 -61.03609 
L 164.827456 -61.077841 
L 164.776102 -61.119591 
L 164.724391 -61.161341 
L 164.67252 -61.203092 
L 164.620691 -61.244842 
L 164.569105 -61.286592 
L 164.517963 -61.328343 
L 164.467461 -61.370093 
L 164.417791 -61.411844 
L 164.36914 -61.453594 
L 164.321685 -61.495344 
L 164.275596 -61.537095 
L 164.231034 -61.578845 
L 164.188148 -61.620595 
L 164.147077 -61.662346 
L 164.10795 -61.704096 
L 164.07088 -61.745846 
L 164.035974 -61.787597 
L 164.003324 -61.829347 
L 163.97301 -61.871098 
L 163.945103 -61.912848 
L 163.919663 -61.954598 
L 163.89674 -61.996349 
L 163.876374 -62.038099 
L 163.858596 -62.079849 
L 163.843429 -62.1216 
L 163.83089 -62.16335 
L 163.820987 -62.2051 
L 163.813723 -62.246851 
L 163.809096 -62.288601 
L 163.807097 -62.330352 
L 163.807713 -62.372102 
L 163.810928 -62.413852 
L 163.81672 -62.455603 
L 163.825065 -62.497353 
L 163.835934 -62.539103 
L 163.849294 -62.580854 
L 163.865111 -62.622604 
L 163.883344 -62.664354 
L 163.90395 -62.706105 
L 163.926883 -62.747855 
L 163.952091 -62.789606 
L 163.979519 -62.831356 
L 164.009107 -62.873106 
L 164.040793 -62.914857 
L 164.074505 -62.956607 
L 164.110172 -62.998357 
L 164.147715 -63.040108 
L 164.18705 -63.081858 
L 164.228089 -63.123609 
L 164.27074 -63.165359 
L 164.314905 -63.207109 
L 164.360481 -63.24886 
L 164.407363 -63.29061 
L 164.455441 -63.33236 
L 164.5046 -63.374111 
L 164.554725 -63.415861 
L 164.605695 -63.457611 
L 164.657389 -63.499362 
L 164.709683 -63.541112 
L 164.762453 -63.582863 
L 164.815573 -63.624613 
L 164.868919 -63.666363 
L 164.922365 -63.708114 
L 164.975788 -63.749864 
L 165.029065 -63.791614 
L 167.604483 -63.791614 
L 167.604483 -63.791614 
L 167.657761 -63.749864 
L 167.711184 -63.708114 
L 167.76463 -63.666363 
L 167.817975 -63.624613 
L 167.871096 -63.582863 
L 167.923865 -63.541112 
L 167.976159 -63.499362 
L 168.027853 -63.457611 
L 168.078823 -63.415861 
L 168.128948 -63.374111 
L 168.178107 -63.33236 
L 168.226185 -63.29061 
L 168.273067 -63.24886 
L 168.318644 -63.207109 
L 168.362808 -63.165359 
L 168.405459 -63.123609 
L 168.446499 -63.081858 
L 168.485834 -63.040108 
L 168.523376 -62.998357 
L 168.559043 -62.956607 
L 168.592756 -62.914857 
L 168.624441 -62.873106 
L 168.65403 -62.831356 
L 168.681458 -62.789606 
L 168.706666 -62.747855 
L 168.729599 -62.706105 
L 168.750205 -62.664354 
L 168.768438 -62.622604 
L 168.784254 -62.580854 
L 168.797614 -62.539103 
L 168.808483 -62.497353 
L 168.816828 -62.455603 
L 168.82262 -62.413852 
L 168.825835 -62.372102 
L 168.826452 -62.330352 
L 168.824453 -62.288601 
L 168.819825 -62.246851 
L 168.812561 -62.2051 
L 168.802659 -62.16335 
L 168.790119 -62.1216 
L 168.774953 -62.079849 
L 168.757175 -62.038099 
L 168.736808 -61.996349 
L 168.713885 -61.954598 
L 168.688445 -61.912848 
L 168.660539 -61.871098 
L 168.630225 -61.829347 
L 168.597574 -61.787597 
L 168.562668 -61.745846 
L 168.525599 -61.704096 
L 168.486471 -61.662346 
L 168.4454 -61.620595 
L 168.402515 -61.578845 
L 168.357952 -61.537095 
L 168.311864 -61.495344 
L 168.264409 -61.453594 
L 168.215757 -61.411844 
L 168.166087 -61.370093 
L 168.115585 -61.328343 
L 168.064443 -61.286592 
L 168.012857 -61.244842 
L 167.961029 -61.203092 
L 167.909158 -61.161341 
L 167.857446 -61.119591 
L 167.806092 -61.077841 
L 167.755291 -61.03609 
L 167.70523 -60.99434 
L 167.656091 -60.952589 
L 167.608045 -60.910839 
L 167.561249 -60.869089 
L 167.515852 -60.827338 
L 167.471983 -60.785588 
L 167.429757 -60.743838 
L 167.389274 -60.702087 
L 167.350612 -60.660337 
L 167.313834 -60.618587 
L 167.27898 -60.576836 
L 167.246073 -60.535086 
L 167.215117 -60.493335 
L 167.186095 -60.451585 
L 167.158973 -60.409835 
L 167.133699 -60.368084 
L 167.110206 -60.326334 
L 167.088409 -60.284584 
L 167.068211 -60.242833 
L 167.049504 -60.201083 
L 167.032167 -60.159333 
L 167.016073 -60.117582 
L 167.001089 -60.075832 
L 166.987075 -60.034081 
L 166.973891 -59.992331 
L 166.961397 -59.950581 
L 166.949453 -59.90883 
L 166.937925 -59.86708 
L 166.926683 -59.82533 
L 166.915604 -59.783579 
L 166.904574 -59.741829 
L 166.89349 -59.700079 
L 166.882257 -59.658328 
z
" style="stroke: #6f6f6f; stroke-opacity: 0.5"/>
    </defs>
    <g clip-path="url(#p19930e5f02)">
     <use xlink:href="#m180708a4c9" x="0" y="118.8" style="fill: #9e9e9e; fill-opacity: 0.5; stroke: #6f6f6f; stroke-opacity: 0.5"/>
    </g>
   </g>
   <g id="FillBetweenPolyCollection_4">
    <defs>
     <path id="m5271507cd5" d="M 191.882023 -58.675524 
L 190.945074 -58.675524 
L 190.937359 -58.776084 
L 190.929984 -58.876643 
L 190.922871 -58.977202 
L 190.915928 -59.077761 
L 190.909057 -59.17832 
L 190.90215 -59.27888 
L 190.895091 -59.379439 
L 190.887759 -59.479998 
L 190.88003 -59.580557 
L 190.871776 -59.681116 
L 190.862872 -59.781676 
L 190.853191 -59.882235 
L 190.842612 -59.982794 
L 190.831018 -60.083353 
L 190.818302 -60.183912 
L 190.804362 -60.284471 
L 190.789108 -60.385031 
L 190.772461 -60.48559 
L 190.754356 -60.586149 
L 190.734738 -60.686708 
L 190.713568 -60.787267 
L 190.690821 -60.887827 
L 190.666485 -60.988386 
L 190.640562 -61.088945 
L 190.613068 -61.189504 
L 190.584029 -61.290063 
L 190.553485 -61.390623 
L 190.521486 -61.491182 
L 190.488088 -61.591741 
L 190.45336 -61.6923 
L 190.417372 -61.792859 
L 190.380203 -61.893419 
L 190.341931 -61.993978 
L 190.30264 -62.094537 
L 190.262412 -62.195096 
L 190.22133 -62.295655 
L 190.179475 -62.396215 
L 190.136925 -62.496774 
L 190.093758 -62.597333 
L 190.050046 -62.697892 
L 190.00586 -62.798451 
L 189.96127 -62.899011 
L 189.916339 -62.99957 
L 189.871134 -63.100129 
L 189.825718 -63.200688 
L 189.780156 -63.301247 
L 189.734514 -63.401807 
L 189.688863 -63.502366 
L 189.643276 -63.602925 
L 189.597834 -63.703484 
L 189.552624 -63.804043 
L 189.50774 -63.904603 
L 189.463288 -64.005162 
L 189.419383 -64.105721 
L 189.376148 -64.20628 
L 189.333722 -64.306839 
L 189.29225 -64.407399 
L 189.25189 -64.507958 
L 189.212809 -64.608517 
L 189.175185 -64.709076 
L 189.1392 -64.809635 
L 189.105044 -64.910194 
L 189.072911 -65.010754 
L 189.042998 -65.111313 
L 189.0155 -65.211872 
L 188.99061 -65.312431 
L 188.968516 -65.41299 
L 188.949397 -65.51355 
L 188.933423 -65.614109 
L 188.92075 -65.714668 
L 188.911521 -65.815227 
L 188.90586 -65.915786 
L 188.903871 -66.016346 
L 188.905639 -66.116905 
L 188.911225 -66.217464 
L 188.920667 -66.318023 
L 188.933981 -66.418582 
L 188.951156 -66.519142 
L 188.972157 -66.619701 
L 188.996925 -66.72026 
L 189.025378 -66.820819 
L 189.057411 -66.921378 
L 189.092898 -67.021938 
L 189.131693 -67.122497 
L 189.17363 -67.223056 
L 189.218529 -67.323615 
L 189.266194 -67.424174 
L 189.316418 -67.524734 
L 189.368983 -67.625293 
L 189.423661 -67.725852 
L 189.480221 -67.826411 
L 189.538425 -67.92697 
L 189.598037 -68.02753 
L 189.658816 -68.128089 
L 189.720526 -68.228648 
L 189.782933 -68.329207 
L 189.845808 -68.429766 
L 189.908929 -68.530326 
L 189.972079 -68.630885 
L 192.855017 -68.630885 
L 192.855017 -68.630885 
L 192.918168 -68.530326 
L 192.981288 -68.429766 
L 193.044164 -68.329207 
L 193.106571 -68.228648 
L 193.168281 -68.128089 
L 193.22906 -68.02753 
L 193.288671 -67.92697 
L 193.346876 -67.826411 
L 193.403436 -67.725852 
L 193.458114 -67.625293 
L 193.510678 -67.524734 
L 193.560902 -67.424174 
L 193.608568 -67.323615 
L 193.653467 -67.223056 
L 193.695404 -67.122497 
L 193.734198 -67.021938 
L 193.769685 -66.921378 
L 193.801719 -66.820819 
L 193.830172 -66.72026 
L 193.85494 -66.619701 
L 193.875941 -66.519142 
L 193.893116 -66.418582 
L 193.906429 -66.318023 
L 193.915872 -66.217464 
L 193.921458 -66.116905 
L 193.923226 -66.016346 
L 193.921237 -65.915786 
L 193.915576 -65.815227 
L 193.906347 -65.714668 
L 193.893674 -65.614109 
L 193.8777 -65.51355 
L 193.858581 -65.41299 
L 193.836487 -65.312431 
L 193.811596 -65.211872 
L 193.784098 -65.111313 
L 193.754185 -65.010754 
L 193.722053 -64.910194 
L 193.687897 -64.809635 
L 193.651912 -64.709076 
L 193.614287 -64.608517 
L 193.575207 -64.507958 
L 193.534847 -64.407399 
L 193.493375 -64.306839 
L 193.450948 -64.20628 
L 193.407714 -64.105721 
L 193.363809 -64.005162 
L 193.319357 -63.904603 
L 193.274473 -63.804043 
L 193.229263 -63.703484 
L 193.183821 -63.602925 
L 193.138234 -63.502366 
L 193.092583 -63.401807 
L 193.046941 -63.301247 
L 193.001379 -63.200688 
L 192.955963 -63.100129 
L 192.910758 -62.99957 
L 192.865827 -62.899011 
L 192.821236 -62.798451 
L 192.777051 -62.697892 
L 192.733339 -62.597333 
L 192.690172 -62.496774 
L 192.647622 -62.396215 
L 192.605767 -62.295655 
L 192.564685 -62.195096 
L 192.524457 -62.094537 
L 192.485166 -61.993978 
L 192.446894 -61.893419 
L 192.409724 -61.792859 
L 192.373737 -61.6923 
L 192.339008 -61.591741 
L 192.305611 -61.491182 
L 192.273612 -61.390623 
L 192.243068 -61.290063 
L 192.214029 -61.189504 
L 192.186534 -61.088945 
L 192.160611 -60.988386 
L 192.136276 -60.887827 
L 192.113529 -60.787267 
L 192.092359 -60.686708 
L 192.072741 -60.586149 
L 192.054636 -60.48559 
L 192.037989 -60.385031 
L 192.022735 -60.284471 
L 192.008795 -60.183912 
L 191.996078 -60.083353 
L 191.984485 -59.982794 
L 191.973906 -59.882235 
L 191.964225 -59.781676 
L 191.955321 -59.681116 
L 191.947067 -59.580557 
L 191.939338 -59.479998 
L 191.932006 -59.379439 
L 191.924947 -59.27888 
L 191.91804 -59.17832 
L 191.911169 -59.077761 
L 191.904226 -58.977202 
L 191.897112 -58.876643 
L 191.889738 -58.776084 
L 191.882023 -58.675524 
z
" style="stroke: #6f6f6f; stroke-opacity: 0.5"/>
    </defs>
    <g clip-path="url(#p19930e5f02)">
     <use xlink:href="#m5271507cd5" x="0" y="118.8" style="fill: #9e9e9e; fill-opacity: 0.5; stroke: #6f6f6f; stroke-opacity: 0.5"/>
    </g>
   </g>
   <g id="FillBetweenPolyCollection_5">
    <defs>
     <path id="m0188db6eea" d="M 217.552783 -64.206779 
L 215.467862 -64.206779 
L 215.403713 -64.617491 
L 215.338755 -65.028203 
L 215.273232 -65.438916 
L 215.207397 -65.849628 
L 215.141509 -66.26034 
L 215.075828 -66.671052 
L 215.010615 -67.081764 
L 214.946127 -67.492476 
L 214.882616 -67.903188 
L 214.820326 -68.3139 
L 214.759485 -68.724612 
L 214.700309 -69.135324 
L 214.642997 -69.546036 
L 214.587727 -69.956748 
L 214.534656 -70.36746 
L 214.483917 -70.778172 
L 214.435621 -71.188884 
L 214.389853 -71.599596 
L 214.346675 -72.010308 
L 214.306125 -72.42102 
L 214.26822 -72.831733 
L 214.232958 -73.242445 
L 214.200321 -73.653157 
L 214.170277 -74.063869 
L 214.142787 -74.474581 
L 214.117805 -74.885293 
L 214.095286 -75.296005 
L 214.075187 -75.706717 
L 214.057476 -76.117429 
L 214.042129 -76.528141 
L 214.02914 -76.938853 
L 214.01852 -77.349565 
L 214.0103 -77.760277 
L 214.00453 -78.170989 
L 214.001282 -78.581701 
L 214.000645 -78.992413 
L 214.002726 -79.403125 
L 214.007646 -79.813837 
L 214.015531 -80.224549 
L 214.026514 -80.635262 
L 214.040724 -81.045974 
L 214.058282 -81.456686 
L 214.079294 -81.867398 
L 214.103844 -82.27811 
L 214.131986 -82.688822 
L 214.163745 -83.099534 
L 214.199104 -83.510246 
L 214.238005 -83.920958 
L 214.280344 -84.33167 
L 214.325974 -84.742382 
L 214.374698 -85.153094 
L 214.426277 -85.563806 
L 214.48043 -85.974518 
L 214.536836 -86.38523 
L 214.595145 -86.795942 
L 214.654979 -87.206654 
L 214.715943 -87.617366 
L 214.77763 -88.028079 
L 214.839629 -88.438791 
L 214.901536 -88.849503 
L 214.96296 -89.260215 
L 215.023528 -89.670927 
L 215.082896 -90.081639 
L 215.140751 -90.492351 
L 215.196817 -90.903063 
L 215.250859 -91.313775 
L 215.302686 -91.724487 
L 215.352149 -92.135199 
L 215.399143 -92.545911 
L 215.443606 -92.956623 
L 215.485518 -93.367335 
L 215.524895 -93.778047 
L 215.561787 -94.188759 
L 215.596274 -94.599471 
L 215.628461 -95.010183 
L 215.658476 -95.420895 
L 215.68646 -95.831608 
L 215.71257 -96.24232 
L 215.736966 -96.653032 
L 215.759816 -97.063744 
L 215.781287 -97.474456 
L 215.801545 -97.885168 
L 215.82075 -98.29588 
L 215.839058 -98.706592 
L 215.856615 -99.117304 
L 215.873561 -99.528016 
L 215.890022 -99.938728 
L 215.906119 -100.34944 
L 215.92196 -100.760152 
L 215.937642 -101.170864 
L 215.953254 -101.581576 
L 215.968872 -101.992288 
L 215.984562 -102.403 
L 216.000379 -102.813712 
L 216.01637 -103.224425 
L 216.032567 -103.635137 
L 216.048994 -104.045849 
L 216.065664 -104.456561 
L 216.082577 -104.867273 
L 216.938068 -104.867273 
L 216.938068 -104.867273 
L 216.954981 -104.456561 
L 216.971651 -104.045849 
L 216.988078 -103.635137 
L 217.004275 -103.224425 
L 217.020266 -102.813712 
L 217.036084 -102.403 
L 217.051774 -101.992288 
L 217.067391 -101.581576 
L 217.083003 -101.170864 
L 217.098685 -100.760152 
L 217.114526 -100.34944 
L 217.130623 -99.938728 
L 217.147085 -99.528016 
L 217.16403 -99.117304 
L 217.181587 -98.706592 
L 217.199895 -98.29588 
L 217.2191 -97.885168 
L 217.239358 -97.474456 
L 217.260829 -97.063744 
L 217.283679 -96.653032 
L 217.308076 -96.24232 
L 217.334185 -95.831608 
L 217.362169 -95.420895 
L 217.392184 -95.010183 
L 217.424372 -94.599471 
L 217.458858 -94.188759 
L 217.49575 -93.778047 
L 217.535127 -93.367335 
L 217.577039 -92.956623 
L 217.621503 -92.545911 
L 217.668497 -92.135199 
L 217.717959 -91.724487 
L 217.769786 -91.313775 
L 217.823829 -90.903063 
L 217.879895 -90.492351 
L 217.937749 -90.081639 
L 217.997117 -89.670927 
L 218.057685 -89.260215 
L 218.119109 -88.849503 
L 218.181016 -88.438791 
L 218.243015 -88.028079 
L 218.304702 -87.617366 
L 218.365666 -87.206654 
L 218.4255 -86.795942 
L 218.483809 -86.38523 
L 218.540215 -85.974518 
L 218.594368 -85.563806 
L 218.645947 -85.153094 
L 218.694671 -84.742382 
L 218.740301 -84.33167 
L 218.782641 -83.920958 
L 218.821541 -83.510246 
L 218.8569 -83.099534 
L 218.888659 -82.688822 
L 218.916802 -82.27811 
L 218.941351 -81.867398 
L 218.962363 -81.456686 
L 218.979921 -81.045974 
L 218.994132 -80.635262 
L 219.005115 -80.224549 
L 219.013 -79.813837 
L 219.017919 -79.403125 
L 219.02 -78.992413 
L 219.019363 -78.581701 
L 219.016115 -78.170989 
L 219.010345 -77.760277 
L 219.002125 -77.349565 
L 218.991505 -76.938853 
L 218.978516 -76.528141 
L 218.96317 -76.117429 
L 218.945458 -75.706717 
L 218.925359 -75.296005 
L 218.90284 -74.885293 
L 218.877858 -74.474581 
L 218.850368 -74.063869 
L 218.820324 -73.653157 
L 218.787687 -73.242445 
L 218.752426 -72.831733 
L 218.714521 -72.42102 
L 218.67397 -72.010308 
L 218.630792 -71.599596 
L 218.585024 -71.188884 
L 218.536728 -70.778172 
L 218.485989 -70.36746 
L 218.432918 -69.956748 
L 218.377648 -69.546036 
L 218.320336 -69.135324 
L 218.261161 -68.724612 
L 218.20032 -68.3139 
L 218.138029 -67.903188 
L 218.074518 -67.492476 
L 218.010031 -67.081764 
L 217.944817 -66.671052 
L 217.879136 -66.26034 
L 217.813248 -65.849628 
L 217.747413 -65.438916 
L 217.681891 -65.028203 
L 217.616932 -64.617491 
L 217.552783 -64.206779 
z
" style="stroke: #6f6f6f; stroke-opacity: 0.5"/>
    </defs>
    <g clip-path="url(#p19930e5f02)">
     <use xlink:href="#m0188db6eea" x="0" y="118.8" style="fill: #9e9e9e; fill-opacity: 0.5; stroke: #6f6f6f; stroke-opacity: 0.5"/>
    </g>
   </g>
   <g id="matplotlib.axis_1">
    <g id="xtick_1">
     <g id="line2d_1">
      <path d="M 65.929677 79.72 
L 65.929677 10.8 
" clip-path="url(#p19930e5f02)" style="fill: none; stroke: #b0b0b0; stroke-opacity: 0.2; stroke-width: 0.8; stroke-linecap: square"/>
     </g>
     <g id="line2d_2">
      <defs>
       <path id="m10b31bcca8" d="M 0 0 
L 0 3.5 
" style="stroke: #000000; stroke-width: 0.8"/>
      </defs>
      <g>
       <use xlink:href="#m10b31bcca8" x="65.929677" y="79.72" style="stroke: #000000; stroke-width: 0.8"/>
      </g>
     </g>
     <g id="text_1">
      <!-- 0 -->
      <g transform="translate(63.384677 92.79875) scale(0.08 -0.08)">
       <defs>
        <path id="DejaVuSans-30" d="M 2034 4250 
Q 1547 4250 1301 3770 
Q 1056 3291 1056 2328 
Q 1056 1369 1301 889 
Q 1547 409 2034 409 
Q 2525 409 2770 889 
Q 3016 1369 3016 2328 
Q 3016 3291 2770 3770 
Q 2525 4250 2034 4250 
z
M 2034 4750 
Q 2819 4750 3233 4129 
Q 3647 3509 3647 2328 
Q 3647 1150 3233 529 
Q 2819 -91 2034 -91 
Q 1250 -91 836 529 
Q 422 1150 422 2328 
Q 422 3509 836 4129 
Q 1250 4750 2034 4750 
z
" transform="scale(0.015625)"/>
       </defs>
       <use xlink:href="#DejaVuSans-30"/>
      </g>
     </g>
    </g>
    <g id="xtick_2">
     <g id="line2d_3">
      <path d="M 116.123226 79.72 
L 116.123226 10.8 
" clip-path="url(#p19930e5f02)" style="fill: none; stroke: #b0b0b0; stroke-opacity: 0.2; stroke-width: 0.8; stroke-linecap: square"/>
     </g>
     <g id="line2d_4">
      <g>
       <use xlink:href="#m10b31bcca8" x="116.123226" y="79.72" style="stroke: #000000; stroke-width: 0.8"/>
      </g>
     </g>
     <g id="text_2">
      <!-- 6 -->
      <g transform="translate(113.578226 92.79875) scale(0.08 -0.08)">
       <defs>
        <path id="DejaVuSans-36" d="M 2113 2584 
Q 1688 2584 1439 2293 
Q 1191 2003 1191 1497 
Q 1191 994 1439 701 
Q 1688 409 2113 409 
Q 2538 409 2786 701 
Q 3034 994 3034 1497 
Q 3034 2003 2786 2293 
Q 2538 2584 2113 2584 
z
M 3366 4563 
L 3366 3988 
Q 3128 4100 2886 4159 
Q 2644 4219 2406 4219 
Q 1781 4219 1451 3797 
Q 1122 3375 1075 2522 
Q 1259 2794 1537 2939 
Q 1816 3084 2150 3084 
Q 2853 3084 3261 2657 
Q 3669 2231 3669 1497 
Q 3669 778 3244 343 
Q 2819 -91 2113 -91 
Q 1303 -91 875 529 
Q 447 1150 447 2328 
Q 447 3434 972 4092 
Q 1497 4750 2381 4750 
Q 2619 4750 2861 4703 
Q 3103 4656 3366 4563 
z
" transform="scale(0.015625)"/>
       </defs>
       <use xlink:href="#DejaVuSans-36"/>
      </g>
     </g>
    </g>
    <g id="xtick_3">
     <g id="line2d_5">
      <path d="M 166.316774 79.72 
L 166.316774 10.8 
" clip-path="url(#p19930e5f02)" style="fill: none; stroke: #b0b0b0; stroke-opacity: 0.2; stroke-width: 0.8; stroke-linecap: square"/>
     </g>
     <g id="line2d_6">
      <g>
       <use xlink:href="#m10b31bcca8" x="166.316774" y="79.72" style="stroke: #000000; stroke-width: 0.8"/>
      </g>
     </g>
     <g id="text_3">
      <!-- 12 -->
      <g transform="translate(161.226774 92.79875) scale(0.08 -0.08)">
       <defs>
        <path id="DejaVuSans-31" d="M 794 531 
L 1825 531 
L 1825 4091 
L 703 3866 
L 703 4441 
L 1819 4666 
L 2450 4666 
L 2450 531 
L 3481 531 
L 3481 0 
L 794 0 
L 794 531 
z
" transform="scale(0.015625)"/>
        <path id="DejaVuSans-32" d="M 1228 531 
L 3431 531 
L 3431 0 
L 469 0 
L 469 531 
Q 828 903 1448 1529 
Q 2069 2156 2228 2338 
Q 2531 2678 2651 2914 
Q 2772 3150 2772 3378 
Q 2772 3750 2511 3984 
Q 2250 4219 1831 4219 
Q 1534 4219 1204 4116 
Q 875 4013 500 3803 
L 500 4441 
Q 881 4594 1212 4672 
Q 1544 4750 1819 4750 
Q 2544 4750 2975 4387 
Q 3406 4025 3406 3419 
Q 3406 3131 3298 2873 
Q 3191 2616 2906 2266 
Q 2828 2175 2409 1742 
Q 1991 1309 1228 531 
z
" transform="scale(0.015625)"/>
       </defs>
       <use xlink:href="#DejaVuSans-31"/>
       <use xlink:href="#DejaVuSans-32" transform="translate(63.623047 0)"/>
      </g>
     </g>
    </g>
    <g id="xtick_4">
     <g id="line2d_7">
      <path d="M 191.413548 79.72 
L 191.413548 10.8 
" clip-path="url(#p19930e5f02)" style="fill: none; stroke: #b0b0b0; stroke-opacity: 0.2; stroke-width: 0.8; stroke-linecap: square"/>
     </g>
     <g id="line2d_8">
      <g>
       <use xlink:href="#m10b31bcca8" x="191.413548" y="79.72" style="stroke: #000000; stroke-width: 0.8"/>
      </g>
     </g>
     <g id="text_4">
      <!-- 15 -->
      <g transform="translate(186.323548 92.79875) scale(0.08 -0.08)">
       <defs>
        <path id="DejaVuSans-35" d="M 691 4666 
L 3169 4666 
L 3169 4134 
L 1269 4134 
L 1269 2991 
Q 1406 3038 1543 3061 
Q 1681 3084 1819 3084 
Q 2600 3084 3056 2656 
Q 3513 2228 3513 1497 
Q 3513 744 3044 326 
Q 2575 -91 1722 -91 
Q 1428 -91 1123 -41 
Q 819 9 494 109 
L 494 744 
Q 775 591 1075 516 
Q 1375 441 1709 441 
Q 2250 441 2565 725 
Q 2881 1009 2881 1497 
Q 2881 1984 2565 2268 
Q 2250 2553 1709 2553 
Q 1456 2553 1204 2497 
Q 953 2441 691 2322 
L 691 4666 
z
" transform="scale(0.015625)"/>
       </defs>
       <use xlink:href="#DejaVuSans-31"/>
       <use xlink:href="#DejaVuSans-35" transform="translate(63.623047 0)"/>
      </g>
     </g>
    </g>
    <g id="xtick_5">
     <g id="line2d_9">
      <path d="M 216.510323 79.72 
L 216.510323 10.8 
" clip-path="url(#p19930e5f02)" style="fill: none; stroke: #b0b0b0; stroke-opacity: 0.2; stroke-width: 0.8; stroke-linecap: square"/>
     </g>
     <g id="line2d_10">
      <g>
       <use xlink:href="#m10b31bcca8" x="216.510323" y="79.72" style="stroke: #000000; stroke-width: 0.8"/>
      </g>
     </g>
     <g id="text_5">
      <!-- 18 -->
      <g transform="translate(211.420323 92.79875) scale(0.08 -0.08)">
       <defs>
        <path id="DejaVuSans-38" d="M 2034 2216 
Q 1584 2216 1326 1975 
Q 1069 1734 1069 1313 
Q 1069 891 1326 650 
Q 1584 409 2034 409 
Q 2484 409 2743 651 
Q 3003 894 3003 1313 
Q 3003 1734 2745 1975 
Q 2488 2216 2034 2216 
z
M 1403 2484 
Q 997 2584 770 2862 
Q 544 3141 544 3541 
Q 544 4100 942 4425 
Q 1341 4750 2034 4750 
Q 2731 4750 3128 4425 
Q 3525 4100 3525 3541 
Q 3525 3141 3298 2862 
Q 3072 2584 2669 2484 
Q 3125 2378 3379 2068 
Q 3634 1759 3634 1313 
Q 3634 634 3220 271 
Q 2806 -91 2034 -91 
Q 1263 -91 848 271 
Q 434 634 434 1313 
Q 434 1759 690 2068 
Q 947 2378 1403 2484 
z
M 1172 3481 
Q 1172 3119 1398 2916 
Q 1625 2713 2034 2713 
Q 2441 2713 2670 2916 
Q 2900 3119 2900 3481 
Q 2900 3844 2670 4047 
Q 2441 4250 2034 4250 
Q 1625 4250 1398 4047 
Q 1172 3844 1172 3481 
z
" transform="scale(0.015625)"/>
       </defs>
       <use xlink:href="#DejaVuSans-31"/>
       <use xlink:href="#DejaVuSans-38" transform="translate(63.623047 0)"/>
      </g>
     </g>
    </g>
    <g id="text_6">
     <!-- $\varepsilon$ -->
     <g transform="translate(138.47 106.060937) scale(0.1 -0.1)">
      <defs>
       <path id="DejaVuSans-Oblique-3b5" d="M 1263 1888 
Q 925 1963 778 2166 
Q 669 2309 669 2503 
Q 669 3034 1175 3344 
Q 1575 3588 2188 3588 
Q 2425 3588 2684 3550 
Q 2944 3513 3234 3438 
L 3134 2916 
Q 2847 3006 2606 3047 
Q 2359 3088 2138 3088 
Q 1766 3088 1522 2944 
Q 1228 2772 1228 2522 
Q 1228 2356 1381 2241 
Q 1563 2103 1925 2103 
L 2409 2103 
L 2319 1628 
L 1856 1628 
Q 1425 1628 1172 1469 
Q 828 1253 828 916 
Q 828 703 1013 563 
Q 1244 388 1716 388 
Q 2006 388 2284 444 
Q 2563 503 2806 619 
L 2700 84 
Q 2403 -3 2131 -47 
Q 1859 -91 1609 -91 
Q 866 -91 516 194 
Q 250 413 250 781 
Q 250 1278 600 1584 
Q 859 1813 1263 1888 
z
" transform="scale(0.015625)"/>
      </defs>
      <use xlink:href="#DejaVuSans-Oblique-3b5" transform="translate(0 0.9375)"/>
     </g>
    </g>
   </g>
   <g id="matplotlib.axis_2">
    <g id="ytick_1">
     <g id="line2d_11">
      <path d="M 55.64 70.799177 
L 226.8 70.799177 
" clip-path="url(#p19930e5f02)" style="fill: none; stroke: #b0b0b0; stroke-opacity: 0.2; stroke-width: 0.8; stroke-linecap: square"/>
     </g>
     <g id="line2d_12">
      <defs>
       <path id="m1af0c7c0d8" d="M 0 0 
L -3.5 0 
" style="stroke: #000000; stroke-width: 0.8"/>
      </defs>
      <g>
       <use xlink:href="#m1af0c7c0d8" x="55.64" y="70.799177" style="stroke: #000000; stroke-width: 0.8"/>
      </g>
     </g>
     <g id="text_7">
      <!-- 0.046 -->
      <g transform="translate(25.7375 73.838552) scale(0.08 -0.08)">
       <defs>
        <path id="DejaVuSans-2e" d="M 684 794 
L 1344 794 
L 1344 0 
L 684 0 
L 684 794 
z
" transform="scale(0.015625)"/>
        <path id="DejaVuSans-34" d="M 2419 4116 
L 825 1625 
L 2419 1625 
L 2419 4116 
z
M 2253 4666 
L 3047 4666 
L 3047 1625 
L 3713 1625 
L 3713 1100 
L 3047 1100 
L 3047 0 
L 2419 0 
L 2419 1100 
L 313 1100 
L 313 1709 
L 2253 4666 
z
" transform="scale(0.015625)"/>
       </defs>
       <use xlink:href="#DejaVuSans-30"/>
       <use xlink:href="#DejaVuSans-2e" transform="translate(63.623047 0)"/>
       <use xlink:href="#DejaVuSans-30" transform="translate(95.410156 0)"/>
       <use xlink:href="#DejaVuSans-34" transform="translate(159.033203 0)"/>
       <use xlink:href="#DejaVuSans-36" transform="translate(222.65625 0)"/>
      </g>
     </g>
    </g>
    <g id="ytick_2">
     <g id="line2d_13">
      <path d="M 55.64 47.732097 
L 226.8 47.732097 
" clip-path="url(#p19930e5f02)" style="fill: none; stroke: #b0b0b0; stroke-opacity: 0.2; stroke-width: 0.8; stroke-linecap: square"/>
     </g>
     <g id="line2d_14">
      <g>
       <use xlink:href="#m1af0c7c0d8" x="55.64" y="47.732097" style="stroke: #000000; stroke-width: 0.8"/>
      </g>
     </g>
     <g id="text_8">
      <!-- 0.048 -->
      <g transform="translate(25.7375 50.771472) scale(0.08 -0.08)">
       <use xlink:href="#DejaVuSans-30"/>
       <use xlink:href="#DejaVuSans-2e" transform="translate(63.623047 0)"/>
       <use xlink:href="#DejaVuSans-30" transform="translate(95.410156 0)"/>
       <use xlink:href="#DejaVuSans-34" transform="translate(159.033203 0)"/>
       <use xlink:href="#DejaVuSans-38" transform="translate(222.65625 0)"/>
      </g>
     </g>
    </g>
    <g id="ytick_3">
     <g id="line2d_15">
      <path d="M 55.64 24.665016 
L 226.8 24.665016 
" clip-path="url(#p19930e5f02)" style="fill: none; stroke: #b0b0b0; stroke-opacity: 0.2; stroke-width: 0.8; stroke-linecap: square"/>
     </g>
     <g id="line2d_16">
      <g>
       <use xlink:href="#m1af0c7c0d8" x="55.64" y="24.665016" style="stroke: #000000; stroke-width: 0.8"/>
      </g>
     </g>
     <g id="text_9">
      <!-- 0.050 -->
      <g transform="translate(25.7375 27.704391) scale(0.08 -0.08)">
       <use xlink:href="#DejaVuSans-30"/>
       <use xlink:href="#DejaVuSans-2e" transform="translate(63.623047 0)"/>
       <use xlink:href="#DejaVuSans-30" transform="translate(95.410156 0)"/>
       <use xlink:href="#DejaVuSans-35" transform="translate(159.033203 0)"/>
       <use xlink:href="#DejaVuSans-30" transform="translate(222.65625 0)"/>
      </g>
     </g>
    </g>
    <g id="text_10">
     <!-- $\psi$ -->
     <g transform="translate(19.6375 48.56) rotate(-90) scale(0.1 -0.1)">
      <defs>
       <path id="DejaVuSans-Oblique-3c8" d="M 1591 -78 
Q 891 38 616 341 
Q 278 713 425 1472 
L 819 3500 
L 1400 3500 
L 1009 1494 
Q 900 922 1119 684 
Q 1313 478 1691 434 
L 2284 3500 
L 2856 3500 
L 2263 438 
Q 2681 481 2928 688 
Q 3247 950 3353 1497 
L 3741 3500 
L 4322 3500 
L 3928 1475 
Q 3775 688 3300 344 
Q 2872 34 2163 -75 
L 1919 -1331 
L 1347 -1331 
L 1591 -78 
z
" transform="scale(0.015625)"/>
      </defs>
      <use xlink:href="#DejaVuSans-Oblique-3c8" transform="translate(0 0.3125)"/>
     </g>
    </g>
   </g>
   <g id="LineCollection_1">
    <path d="M 65.929677 76.170663 
L 65.929677 75.563258 
" clip-path="url(#p19930e5f02)" style="fill: none; stroke: #2b2b2b; stroke-width: 2"/>
   </g>
   <g id="LineCollection_2">
    <path d="M 116.123226 59.320185 
L 116.123226 59.056308 
" clip-path="url(#p19930e5f02)" style="fill: none; stroke: #2b2b2b; stroke-width: 2"/>
   </g>
   <g id="LineCollection_3">
    <path d="M 166.316774 57.073083 
L 166.316774 55.782993 
" clip-path="url(#p19930e5f02)" style="fill: none; stroke: #2b2b2b; stroke-width: 2"/>
   </g>
   <g id="LineCollection_4">
    <path d="M 191.413548 55.304015 
L 191.413548 52.380117 
" clip-path="url(#p19930e5f02)" style="fill: none; stroke: #2b2b2b; stroke-width: 2"/>
   </g>
   <g id="LineCollection_5">
    <path d="M 216.510323 45.424701 
L 216.510323 33.553329 
" clip-path="url(#p19930e5f02)" style="fill: none; stroke: #2b2b2b; stroke-width: 2"/>
   </g>
   <g id="line2d_17">
    <path d="M 65.929677 75.793035 
L 116.123226 59.150032 
L 166.316774 56.513004 
L 191.413548 52.888946 
L 216.510323 38.679531 
" clip-path="url(#p19930e5f02)" style="fill: none; stroke: #2b2b2b; stroke-opacity: 0.9; stroke-width: 1.8; stroke-linecap: square"/>
   </g>
   <g id="patch_3">
    <path d="M 55.64 79.72 
L 55.64 10.8 
" style="fill: none; stroke: #000000; stroke-width: 0.8; stroke-linejoin: miter; stroke-linecap: square"/>
   </g>
   <g id="patch_4">
    <path d="M 226.8 79.72 
L 226.8 10.8 
" style="fill: none; stroke: #000000; stroke-width: 0.8; stroke-linejoin: miter; stroke-linecap: square"/>
   </g>
   <g id="patch_5">
    <path d="M 55.64 79.72 
L 226.8 79.72 
" style="fill: none; stroke: #000000; stroke-width: 0.8; stroke-linejoin: miter; stroke-linecap: square"/>
   </g>
   <g id="patch_6">
    <path d="M 55.64 10.8 
L 226.8 10.8 
" style="fill: none; stroke: #000000; stroke-width: 0.8; stroke-linejoin: miter; stroke-linecap: square"/>
   </g>
   <g id="PathCollection_1">
    <defs>
     <path id="m565ecfb3f0" d="M 0 2.12132 
C 0.562581 2.12132 1.102195 1.897805 1.5 1.5 
C 1.897805 1.102195 2.12132 0.562581 2.12132 0 
C 2.12132 -0.562581 1.897805 -1.102195 1.5 -1.5 
C 1.102195 -1.897805 0.562581 -2.12132 0 -2.12132 
C -0.562581 -2.12132 -1.102195 -1.897805 -1.5 -1.5 
C -1.897805 -1.102195 -2.12132 -0.562581 -2.12132 0 
C -2.12132 0.562581 -1.897805 1.102195 -1.5 1.5 
C -1.102195 1.897805 -0.562581 2.12132 0 2.12132 
z
" style="stroke: #2b2b2b"/>
    </defs>
    <g clip-path="url(#p19930e5f02)">
     <use xlink:href="#m565ecfb3f0" x="65.929677" y="75.793035" style="fill: #2b2b2b; stroke: #2b2b2b"/>
    </g>
   </g>
   <g id="PathCollection_2">
    <g clip-path="url(#p19930e5f02)">
     <use xlink:href="#m565ecfb3f0" x="116.123226" y="59.150032" style="fill: #2b2b2b; stroke: #2b2b2b"/>
    </g>
   </g>
   <g id="PathCollection_3">
    <g clip-path="url(#p19930e5f02)">
     <use xlink:href="#m565ecfb3f0" x="166.316774" y="56.513004" style="fill: #2b2b2b; stroke: #2b2b2b"/>
    </g>
   </g>
   <g id="PathCollection_4">
    <g clip-path="url(#p19930e5f02)">
     <use xlink:href="#m565ecfb3f0" x="191.413548" y="52.888946" style="fill: #2b2b2b; stroke: #2b2b2b"/>
    </g>
   </g>
   <g id="PathCollection_5">
    <g clip-path="url(#p19930e5f02)">
     <use xlink:href="#m565ecfb3f0" x="216.510323" y="38.679531" style="fill: #2b2b2b; stroke: #2b2b2b"/>
    </g>
   </g>
  </g>
 </g>
 <defs>
  <clipPath id="p19930e5f02">
   <rect x="55.64" y="10.8" width="171.16" height="68.92"/>
  </clipPath>
 </defs>
</svg>
