<svg xmlns="http://www.w3.org/2000/svg" width="1920" height="1080" viewBox="0 0 1920 1080">
<rect width="1920" height="1080" fill="#f6f2ea"/>
<rect x="0" y="0" width="1920" height="104" fill="#1f2a44"/>
<text x="84" y="66" font-size="40" font-weight="bold" fill="#ffffff" font-family="DejaVu Sans">
ReactiveLJ bond swapping: implicit crowding penalty, no explicit swap barrier
</text>
<text x="84" y="120" font-size="28" fill="#6d655b" font-family="DejaVu Sans">
Methods §2.4 “ReactiveLJ Potential for Associative Bonds” and subsections, interpreted at the equation level
</text>
<rect x="82" y="150" width="820" height="520" rx="28" fill="#ffffff" stroke="#d9d2c7" stroke-width="2"/>
<text x="118" y="170" font-size="34" font-weight="bold" fill="#1f2a44" font-family="DejaVu Sans">Core definition (Eq. 8, without smoothing):</text>
<text x="118" y="212" font-size="30" font-weight="normal" fill="#2d2925" font-family="DejaVu Sans">U_ij^(0)(r) = max(U_LJ, 0) + W_ij min(U_LJ, 0)</text>
<text x="118" y="254" font-size="30" font-weight="normal" fill="#2d2925" font-family="DejaVu Sans">W_ij = (1 + C_ij^exc)^(-p)</text>
<text x="118" y="320" font-size="34" font-weight="bold" fill="#1f2a44" font-family="DejaVu Sans">What the math means:</text>
<text x="118" y="362" font-size="29" font-weight="normal" fill="#2d2925" font-family="DejaVu Sans">1. The positive LJ core is unchanged.</text>
<text x="118" y="404" font-size="29" font-weight="normal" fill="#2d2925" font-family="DejaVu Sans">2. Crowding only shrinks the negative well depth.</text>
<text x="118" y="446" font-size="29" font-weight="normal" fill="#2d2925" font-family="DejaVu Sans">3. Eqs. 9-13 only smooth the elbow near U_LJ = 0.</text>
<text x="118" y="512" font-size="34" font-weight="bold" fill="#1f2a44" font-family="DejaVu Sans">Associative swap implication:</text>
<text x="118" y="554" font-size="29" font-weight="normal" fill="#2d2925" font-family="DejaVu Sans">If a third bead fully enters the crowding shell, C_ij^exc ≈ 1,</text>
<text x="118" y="596" font-size="29" font-weight="normal" fill="#2d2925" font-family="DejaVu Sans">so each affected attraction becomes W_ij = 2^(-p).</text>
<text x="118" y="638" font-size="29" font-weight="bold" fill="#d46a3d" font-family="DejaVu Sans">For p = 4, each bond is 16x weaker in the crowded state.</text>
<rect x="1030" y="170" width="760" height="470" rx="24" fill="#ffffff" stroke="#d9d2c7" stroke-width="2"/>
<line x1="1030" y1="606.3" x2="1790" y2="606.3" stroke="#ebe5dc" stroke-width="2"/>
<text x="1012" y="613.3" text-anchor="end" font-size="24" fill="#6d655b" font-family="DejaVu Sans">-0.6</text>
<line x1="1030" y1="514.5" x2="1790" y2="514.5" stroke="#ebe5dc" stroke-width="2"/>
<text x="1012" y="521.5" text-anchor="end" font-size="24" fill="#6d655b" font-family="DejaVu Sans">0.0</text>
<line x1="1030" y1="422.6" x2="1790" y2="422.6" stroke="#ebe5dc" stroke-width="2"/>
<text x="1012" y="429.6" text-anchor="end" font-size="24" fill="#6d655b" font-family="DejaVu Sans">0.6</text>
<line x1="1030" y1="330.7" x2="1790" y2="330.7" stroke="#ebe5dc" stroke-width="2"/>
<text x="1012" y="337.7" text-anchor="end" font-size="24" fill="#6d655b" font-family="DejaVu Sans">1.2</text>
<line x1="1030" y1="238.9" x2="1790" y2="238.9" stroke="#ebe5dc" stroke-width="2"/>
<text x="1012" y="245.9" text-anchor="end" font-size="24" fill="#6d655b" font-family="DejaVu Sans">1.8</text>
<line x1="1134.8" y1="170" x2="1134.8" y2="640" stroke="#f0ebe3" stroke-width="2"/>
<text x="1134.8" y="680" text-anchor="middle" font-size="24" fill="#6d655b" font-family="DejaVu Sans">1.0</text>
<line x1="1265.9" y1="170" x2="1265.9" y2="640" stroke="#f0ebe3" stroke-width="2"/>
<text x="1265.9" y="680" text-anchor="middle" font-size="24" fill="#6d655b" font-family="DejaVu Sans">1.1</text>
<line x1="1396.9" y1="170" x2="1396.9" y2="640" stroke="#f0ebe3" stroke-width="2"/>
<text x="1396.9" y="680" text-anchor="middle" font-size="24" fill="#6d655b" font-family="DejaVu Sans">1.2</text>
<line x1="1527.9" y1="170" x2="1527.9" y2="640" stroke="#f0ebe3" stroke-width="2"/>
<text x="1527.9" y="680" text-anchor="middle" font-size="24" fill="#6d655b" font-family="DejaVu Sans">1.3</text>
<line x1="1659.0" y1="170" x2="1659.0" y2="640" stroke="#f0ebe3" stroke-width="2"/>
<text x="1659.0" y="680" text-anchor="middle" font-size="24" fill="#6d655b" font-family="DejaVu Sans">1.4</text>
<line x1="1790.0" y1="170" x2="1790.0" y2="640" stroke="#f0ebe3" stroke-width="2"/>
<text x="1790.0" y="680" text-anchor="middle" font-size="24" fill="#6d655b" font-family="DejaVu Sans">1.5</text>
<line x1="1030" y1="514.5" x2="1790" y2="514.5" stroke="#8a8176" stroke-width="3"/>
<line x1="1030" y1="170" x2="1030" y2="640" stroke="#8a8176" stroke-width="3"/>
<text x="1410.0" y="722" text-anchor="middle" font-size="30" fill="#3a342d" font-family="DejaVu Sans">pair distance r / σ</text>
<text x="938" y="405.0" transform="rotate(-90 938,405.0)" text-anchor="middle" font-size="30" fill="#3a342d" font-family="DejaVu Sans">U(r) / ε_reactiveLJ</text>
<polyline fill="none" stroke="#1f2a44" stroke-width="5" stroke-linecap="round" stroke-linejoin="round" points="1030.00,-190.23 1031.38,-174.38 1032.77,-158.81 1034.15,-143.51 1035.54,-128.49 1036.92,-113.74 1038.31,-99.25 1039.69,-85.02 1041.07,-71.04 1042.46,-57.32 1043.84,-43.83 1045.23,-30.59 1046.61,-17.59 1048.00,-4.81 1049.38,7.73 1050.77,20.05 1052.15,32.15 1053.53,44.03 1054.92,55.70 1056.30,67.15 1057.69,78.40 1059.07,89.45 1060.46,100.30 1061.84,110.95 1063.22,121.42 1064.61,131.69 1065.99,141.77 1067.38,151.68 1068.76,161.40 1070.15,170.95 1071.53,180.32 1072.91,189.52 1074.30,198.56 1075.68,207.43 1077.07,216.14 1078.45,224.68 1079.84,233.08 1081.22,241.32 1082.60,249.40 1083.99,257.34 1085.37,265.13 1086.76,272.78 1088.14,280.29 1089.53,287.66 1090.91,294.89 1092.30,301.99 1093.68,308.96 1095.06,315.79 1096.45,322.50 1097.83,329.09 1099.22,335.55 1100.60,341.89 1101.99,348.11 1103.37,354.21 1104.75,360.20 1106.14,366.08 1107.52,371.84 1108.91,377.50 1110.29,383.04 1111.68,388.49 1113.06,393.83 1114.44,399.06 1115.83,404.20 1117.21,409.24 1118.60,414.18 1119.98,419.02 1121.37,423.78 1122.75,428.44 1124.13,433.01 1125.52,437.49 1126.90,441.88 1128.29,446.19 1129.67,450.41 1131.06,454.55 1132.44,458.61 1133.83,462.59 1135.21,466.49 1136.59,470.31 1137.98,474.06 1139.36,477.73 1140.75,481.32 1142.13,484.85 1143.52,488.30 1144.90,491.68 1146.28,495.00 1147.67,498.25 1149.05,501.43 1150.44,504.54 1151.82,507.59 1153.21,510.58 1154.59,513.51 1155.97,516.37 1157.36,519.18 1158.74,521.92 1160.13,524.61 1161.51,527.24 1162.90,529.81 1164.28,532.33 1165.66,534.80 1167.05,537.21 1168.43,539.57 1169.82,541.88 1171.20,544.14 1172.59,546.35 1173.97,548.51 1175.36,550.62 1176.74,552.69 1178.12,554.71 1179.51,556.68 1180.89,558.61 1182.28,560.49 1183.66,562.34 1185.05,564.13 1186.43,565.89 1187.81,567.61 1189.20,569.28 1190.58,570.92 1191.97,572.52 1193.35,574.08 1194.74,575.60 1196.12,577.08 1197.50,578.53 1198.89,579.94 1200.27,581.32 1201.66,582.66 1203.04,583.97 1204.43,585.25 1205.81,586.49 1207.19,587.70 1208.58,588.88 1209.96,590.03 1211.35,591.15 1212.73,592.24 1214.12,593.30 1215.50,594.33 1216.89,595.33 1218.27,596.30 1219.65,597.25 1221.04,598.17 1222.42,599.06 1223.81,599.93 1225.19,600.77 1226.58,601.58 1227.96,602.38 1229.34,603.14 1230.73,603.89 1232.11,604.61 1233.50,605.30 1234.88,605.98 1236.27,606.63 1237.65,607.26 1239.03,607.87 1240.42,608.46 1241.80,609.03 1243.19,609.58 1244.57,610.10 1245.96,610.61 1247.34,611.10 1248.72,611.57 1250.11,612.03 1251.49,612.46 1252.88,612.88 1254.26,613.27 1255.65,613.66 1257.03,614.02 1258.42,614.37 1259.80,614.70 1261.18,615.02 1262.57,615.32 1263.95,615.60 1265.34,615.87 1266.72,616.13 1268.11,616.37 1269.49,616.59 1270.87,616.81 1272.26,617.00 1273.64,617.19 1275.03,617.36 1276.41,617.52 1277.80,617.67 1279.18,617.80 1280.56,617.92 1281.95,618.03 1283.33,618.13 1284.72,618.22 1286.10,618.29 1287.49,618.35 1288.87,618.41 1290.26,618.45 1291.64,618.48 1293.02,618.50 1294.41,618.51 1295.79,618.51 1297.18,618.51 1298.56,618.49 1299.95,618.46 1301.33,618.42 1302.71,618.38 1304.10,618.33 1305.48,618.26 1306.87,618.19 1308.25,618.11 1309.64,618.03 1311.02,617.93 1312.40,617.83 1313.79,617.72 1315.17,617.60 1316.56,617.47 1317.94,617.34 1319.33,617.20 1320.71,617.05 1322.09,616.90 1323.48,616.74 1324.86,616.58 1326.25,616.40 1327.63,616.22 1329.02,616.04 1330.40,615.85 1331.79,615.65 1333.17,615.45 1334.55,615.24 1335.94,615.03 1337.32,614.81 1338.71,614.59 1340.09,614.36 1341.48,614.13 1342.86,613.89 1344.24,613.65 1345.63,613.40 1347.01,613.15 1348.40,612.89 1349.78,612.63 1351.17,612.36 1352.55,612.10 1353.93,611.82 1355.32,611.55 1356.70,611.26 1358.09,610.98 1359.47,610.69 1360.86,610.40 1362.24,610.11 1363.62,609.81 1365.01,609.51 1366.39,609.20 1367.78,608.89 1369.16,608.58 1370.55,608.27 1371.93,607.95 1373.32,607.63 1374.70,607.31 1376.08,606.98 1377.47,606.66 1378.85,606.33 1380.24,605.99 1381.62,605.66 1383.01,605.32 1384.39,604.98 1385.77,604.64 1387.16,604.30 1388.54,603.95 1389.93,603.60 1391.31,603.25 1392.70,602.90 1394.08,602.55 1395.46,602.19 1396.85,601.83 1398.23,601.48 1399.62,601.12 1401.00,600.75 1402.39,600.39 1403.77,600.03 1405.15,599.66 1406.54,599.29 1407.92,598.93 1409.31,598.56 1410.69,598.19 1412.08,597.81 1413.46,597.44 1414.85,597.07 1416.23,596.69 1417.61,596.32 1419.00,595.94 1420.38,595.56 1421.77,595.18 1423.15,594.80 1424.54,594.42 1425.92,594.04 1427.30,593.66 1428.69,593.28 1430.07,592.90 1431.46,592.51 1432.84,592.13 1434.23,591.75 1435.61,591.36 1436.99,590.98 1438.38,590.59 1439.76,590.20 1441.15,589.82 1442.53,589.43 1443.92,589.05 1445.30,588.66 1446.68,588.27 1448.07,587.88 1449.45,587.50 1450.84,587.11 1452.22,586.72 1453.61,586.33 1454.99,585.95 1456.38,585.56 1457.76,585.17 1459.14,584.78 1460.53,584.40 1461.91,584.01 1463.30,583.62 1464.68,583.24 1466.07,582.85 1467.45,582.46 1468.83,582.08 1470.22,581.69 1471.60,581.30 1472.99,580.92 1474.37,580.53 1475.76,580.15 1477.14,579.76 1478.52,579.38 1479.91,578.99 1481.29,578.61 1482.68,578.23 1484.06,577.84 1485.45,577.46 1486.83,577.08 1488.21,576.70 1489.60,576.32 1490.98,575.93 1492.37,575.55 1493.75,575.18 1495.14,574.80 1496.52,574.42 1497.91,574.04 1499.29,573.66 1500.67,573.29 1502.06,572.91 1503.44,572.53 1504.83,572.16 1506.21,571.78 1507.60,571.41 1508.98,571.04 1510.36,570.67 1511.75,570.29 1513.13,569.92 1514.52,569.55 1515.90,569.18 1517.29,568.82 1518.67,568.45 1520.05,568.08 1521.44,567.71 1522.82,567.35 1524.21,566.98 1525.59,566.62 1526.98,566.26 1528.36,565.89 1529.74,565.53 1531.13,565.17 1532.51,564.81 1533.90,564.45 1535.28,564.09 1536.67,563.74 1538.05,563.38 1539.44,563.02 1540.82,562.67 1542.20,562.32 1543.59,561.96 1544.97,561.61 1546.36,561.26 1547.74,560.91 1549.13,560.56 1550.51,560.21 1551.89,559.86 1553.28,559.52 1554.66,559.17 1556.05,558.83 1557.43,558.48 1558.82,558.14 1560.20,557.80 1561.58,557.45 1562.97,557.11 1564.35,556.78 1565.74,556.44 1567.12,556.10 1568.51,555.76 1569.89,555.43 1571.28,555.09 1572.66,554.76 1574.04,554.43 1575.43,554.10 1576.81,553.77 1578.20,553.44 1579.58,553.11 1580.97,552.78 1582.35,552.45 1583.73,552.13 1585.12,551.80 1586.50,551.48 1587.89,551.16 1589.27,550.84 1590.66,550.51 1592.04,550.20 1593.42,549.88 1594.81,549.56 1596.19,549.24 1597.58,548.93 1598.96,548.61 1600.35,548.30 1601.73,547.99 1603.11,547.67 1604.50,547.36 1605.88,547.05 1607.27,546.75 1608.65,546.44 1610.04,546.13 1611.42,545.83 1612.81,545.52 1614.19,545.22 1615.57,544.92 1616.96,544.62 1618.34,544.31 1619.73,544.02 1621.11,543.72 1622.50,543.42 1623.88,543.12 1625.26,542.83 1626.65,542.53 1628.03,542.24 1629.42,541.95 1630.80,541.66 1632.19,541.37 1633.57,541.08 1634.95,540.79 1636.34,540.50 1637.72,540.22 1639.11,539.93 1640.49,539.65 1641.88,539.36 1643.26,539.08 1644.64,538.80 1646.03,538.52 1647.41,538.24 1648.80,537.96 1650.18,537.69 1651.57,537.41 1652.95,537.13 1654.34,536.86 1655.72,536.59 1657.10,536.31 1658.49,536.04 1659.87,535.77 1661.26,535.50 1662.64,535.23 1664.03,534.97 1665.41,534.70 1666.79,534.44 1668.18,534.17 1669.56,533.91 1670.95,533.65 1672.33,533.38 1673.72,533.12 1675.10,532.86 1676.48,532.61 1677.87,532.35 1679.25,532.09 1680.64,531.84 1682.02,531.58 1683.41,531.33 1684.79,531.07 1686.17,530.82 1687.56,530.57 1688.94,530.32 1690.33,530.07 1691.71,529.82 1693.10,529.58 1694.48,529.33 1695.87,529.09 1697.25,528.84 1698.63,528.60 1700.02,528.36 1701.40,528.11 1702.79,527.87 1704.17,527.63 1705.56,527.39 1706.94,527.16 1708.32,526.92 1709.71,526.68 1711.09,526.45 1712.48,526.21 1713.86,525.98 1715.25,525.75 1716.63,525.52 1718.01,525.29 1719.40,525.06 1720.78,524.83 1722.17,524.60 1723.55,524.37 1724.94,524.15 1726.32,523.92 1727.70,523.70 1729.09,523.47 1730.47,523.25 1731.86,523.03 1733.24,522.81 1734.63,522.59 1736.01,522.37 1737.40,522.15 1738.78,521.93 1740.16,521.72 1741.55,521.50 1742.93,521.28 1744.32,521.07 1745.70,520.86 1747.09,520.64 1748.47,520.43 1749.85,520.22 1751.24,520.01 1752.62,519.80 1754.01,519.60 1755.39,519.39 1756.78,519.18 1758.16,518.98 1759.54,518.77 1760.93,518.57 1762.31,518.36 1763.70,518.16 1765.08,517.96 1766.47,517.76 1767.85,517.56 1769.23,517.36 1770.62,517.16 1772.00,516.96 1773.39,516.77 1774.77,516.57 1776.16,516.37 1777.54,516.18 1778.93,515.99 1780.31,515.79 1781.69,515.60 1783.08,515.41 1784.46,515.22 1785.85,515.03 1787.23,514.84 1788.62,514.65 1790.00,514.46"/>
<polyline fill="none" stroke="#d46a3d" stroke-width="5" stroke-linecap="round" stroke-linejoin="round" stroke-dasharray="10 8" points="1030.00,-190.23 1031.38,-174.38 1032.77,-158.81 1034.15,-143.51 1035.54,-128.49 1036.92,-113.74 1038.31,-99.25 1039.69,-85.02 1041.07,-71.04 1042.46,-57.32 1043.84,-43.83 1045.23,-30.59 1046.61,-17.59 1048.00,-4.81 1049.38,7.73 1050.77,20.05 1052.15,32.15 1053.53,44.03 1054.92,55.70 1056.30,67.15 1057.69,78.40 1059.07,89.45 1060.46,100.30 1061.84,110.95 1063.22,121.42 1064.61,131.69 1065.99,141.77 1067.38,151.68 1068.76,161.40 1070.15,170.95 1071.53,180.32 1072.91,189.52 1074.30,198.56 1075.68,207.43 1077.07,216.14 1078.45,224.68 1079.84,233.08 1081.22,241.32 1082.60,249.40 1083.99,257.34 1085.37,265.13 1086.76,272.78 1088.14,280.29 1089.53,287.66 1090.91,294.89 1092.30,301.99 1093.68,308.96 1095.06,315.79 1096.45,322.50 1097.83,329.09 1099.22,335.55 1100.60,341.89 1101.99,348.11 1103.37,354.20 1104.75,360.16 1106.14,365.98 1107.52,371.66 1108.91,377.21 1110.29,382.62 1111.68,387.89 1113.06,393.04 1114.44,398.05 1115.83,402.94 1117.21,407.70 1118.60,412.34 1119.98,416.86 1121.37,421.25 1122.75,425.53 1124.13,429.68 1125.52,433.72 1126.90,437.65 1128.29,441.47 1129.67,445.17 1131.06,448.77 1132.44,452.25 1133.83,455.64 1135.21,458.92 1136.59,462.09 1137.98,465.17 1139.36,468.15 1140.75,471.03 1142.13,473.81 1143.52,476.51 1144.90,479.11 1146.28,481.62 1147.67,484.04 1149.05,486.37 1150.44,488.62 1151.82,490.79 1153.21,492.88 1154.59,494.88 1155.97,496.81 1157.36,498.66 1158.74,500.44 1160.13,502.14 1161.51,503.78 1162.90,505.34 1164.28,506.83 1165.66,508.26 1167.05,509.63 1168.43,510.93 1169.82,512.17 1171.20,513.35 1172.59,514.48 1173.97,515.55 1175.36,516.56 1176.74,517.53 1178.12,518.44 1179.51,519.30 1180.89,520.12 1182.28,520.89 1183.66,521.61 1185.05,522.30 1186.43,522.94 1187.81,523.55 1189.20,524.12 1190.58,524.65 1191.97,525.15 1193.35,525.62 1194.74,526.06 1196.12,526.47 1197.50,526.85 1198.89,527.21 1200.27,527.54 1201.66,527.86 1203.04,528.15 1204.43,528.43 1205.81,528.68 1207.19,528.93 1208.58,529.16 1209.96,529.39 1211.35,529.61 1212.73,529.83 1214.12,530.03 1215.50,530.24 1216.89,530.44 1218.27,530.63 1219.65,530.82 1221.04,531.00 1222.42,531.17 1223.81,531.34 1225.19,531.51 1226.58,531.67 1227.96,531.83 1229.34,531.98 1230.73,532.13 1232.11,532.27 1233.50,532.41 1234.88,532.54 1236.27,532.67 1237.65,532.79 1239.03,532.91 1240.42,533.03 1241.80,533.14 1243.19,533.25 1244.57,533.35 1245.96,533.46 1247.34,533.55 1248.72,533.64 1250.11,533.73 1251.49,533.82 1252.88,533.90 1254.26,533.98 1255.65,534.06 1257.03,534.13 1258.42,534.20 1259.80,534.26 1261.18,534.32 1262.57,534.38 1263.95,534.44 1265.34,534.49 1266.72,534.54 1268.11,534.59 1269.49,534.64 1270.87,534.68 1272.26,534.72 1273.64,534.75 1275.03,534.79 1276.41,534.82 1277.80,534.85 1279.18,534.87 1280.56,534.90 1281.95,534.92 1283.33,534.94 1284.72,534.96 1286.10,534.97 1287.49,534.98 1288.87,534.99 1290.26,535.00 1291.64,535.01 1293.02,535.01 1294.41,535.02 1295.79,535.02 1297.18,535.01 1298.56,535.01 1299.95,535.01 1301.33,535.00 1302.71,534.99 1304.10,534.98 1305.48,534.97 1306.87,534.95 1308.25,534.94 1309.64,534.92 1311.02,534.90 1312.40,534.88 1313.79,534.86 1315.17,534.84 1316.56,534.81 1317.94,534.78 1319.33,534.76 1320.71,534.73 1322.09,534.70 1323.48,534.67 1324.86,534.63 1326.25,534.60 1327.63,534.56 1329.02,534.53 1330.40,534.49 1331.79,534.45 1333.17,534.41 1334.55,534.37 1335.94,534.33 1337.32,534.28 1338.71,534.24 1340.09,534.20 1341.48,534.15 1342.86,534.10 1344.24,534.05 1345.63,534.01 1347.01,533.96 1348.40,533.91 1349.78,533.85 1351.17,533.80 1352.55,533.75 1353.93,533.69 1355.32,533.64 1356.70,533.58 1358.09,533.53 1359.47,533.47 1360.86,533.41 1362.24,533.35 1363.62,533.30 1365.01,533.24 1366.39,533.18 1367.78,533.12 1369.16,533.05 1370.55,532.99 1371.93,532.93 1373.32,532.87 1374.70,532.80 1376.08,532.74 1377.47,532.67 1378.85,532.61 1380.24,532.54 1381.62,532.48 1383.01,532.41 1384.39,532.34 1385.77,532.28 1387.16,532.21 1388.54,532.14 1389.93,532.07 1391.31,532.00 1392.70,531.93 1394.08,531.86 1395.46,531.79 1396.85,531.72 1398.23,531.65 1399.62,531.58 1401.00,531.51 1402.39,531.44 1403.77,531.36 1405.15,531.29 1406.54,531.22 1407.92,531.15 1409.31,531.07 1410.69,531.00 1412.08,530.93 1413.46,530.85 1414.85,530.78 1416.23,530.71 1417.61,530.63 1419.00,530.56 1420.38,530.48 1421.77,530.41 1423.15,530.33 1424.54,530.26 1425.92,530.18 1427.30,530.11 1428.69,530.03 1430.07,529.96 1431.46,529.88 1432.84,529.80 1434.23,529.73 1435.61,529.65 1436.99,529.58 1438.38,529.50 1439.76,529.42 1441.15,529.35 1442.53,529.27 1443.92,529.20 1445.30,529.12 1446.68,529.04 1448.07,528.97 1449.45,528.89 1450.84,528.81 1452.22,528.74 1453.61,528.66 1454.99,528.58 1456.38,528.51 1457.76,528.43 1459.14,528.35 1460.53,528.28 1461.91,528.20 1463.30,528.12 1464.68,528.05 1466.07,527.97 1467.45,527.89 1468.83,527.82 1470.22,527.74 1471.60,527.67 1472.99,527.59 1474.37,527.51 1475.76,527.44 1477.14,527.36 1478.52,527.29 1479.91,527.21 1481.29,527.13 1482.68,527.06 1484.06,526.98 1485.45,526.91 1486.83,526.83 1488.21,526.76 1489.60,526.68 1490.98,526.61 1492.37,526.53 1493.75,526.46 1495.14,526.38 1496.52,526.31 1497.91,526.23 1499.29,526.16 1500.67,526.08 1502.06,526.01 1503.44,525.93 1504.83,525.86 1506.21,525.79 1507.60,525.71 1508.98,525.64 1510.36,525.56 1511.75,525.49 1513.13,525.42 1514.52,525.34 1515.90,525.27 1517.29,525.20 1518.67,525.13 1520.05,525.05 1521.44,524.98 1522.82,524.91 1524.21,524.84 1525.59,524.77 1526.98,524.69 1528.36,524.62 1529.74,524.55 1531.13,524.48 1532.51,524.41 1533.90,524.34 1535.28,524.27 1536.67,524.20 1538.05,524.13 1539.44,524.06 1540.82,523.98 1542.20,523.91 1543.59,523.85 1544.97,523.78 1546.36,523.71 1547.74,523.64 1549.13,523.57 1550.51,523.50 1551.89,523.43 1553.28,523.36 1554.66,523.29 1556.05,523.23 1557.43,523.16 1558.82,523.09 1560.20,523.02 1561.58,522.95 1562.97,522.89 1564.35,522.82 1565.74,522.75 1567.12,522.69 1568.51,522.62 1569.89,522.55 1571.28,522.49 1572.66,522.42 1574.04,522.36 1575.43,522.29 1576.81,522.23 1578.20,522.16 1579.58,522.10 1580.97,522.03 1582.35,521.97 1583.73,521.90 1585.12,521.84 1586.50,521.77 1587.89,521.71 1589.27,521.65 1590.66,521.58 1592.04,521.52 1593.42,521.46 1594.81,521.40 1596.19,521.33 1597.58,521.27 1598.96,521.21 1600.35,521.15 1601.73,521.08 1603.11,521.02 1604.50,520.96 1605.88,520.90 1607.27,520.84 1608.65,520.78 1610.04,520.72 1611.42,520.66 1612.81,520.60 1614.19,520.54 1615.57,520.48 1616.96,520.42 1618.34,520.36 1619.73,520.30 1621.11,520.24 1622.50,520.18 1623.88,520.12 1625.26,520.07 1626.65,520.01 1628.03,519.95 1629.42,519.89 1630.80,519.83 1632.19,519.78 1633.57,519.72 1634.95,519.66 1636.34,519.61 1637.72,519.55 1639.11,519.49 1640.49,519.44 1641.88,519.38 1643.26,519.33 1644.64,519.27 1646.03,519.21 1647.41,519.16 1648.80,519.10 1650.18,519.05 1651.57,519.00 1652.95,518.94 1654.34,518.89 1655.72,518.83 1657.10,518.78 1658.49,518.73 1659.87,518.67 1661.26,518.62 1662.64,518.57 1664.03,518.51 1665.41,518.46 1666.79,518.41 1668.18,518.36 1669.56,518.30 1670.95,518.25 1672.33,518.20 1673.72,518.15 1675.10,518.10 1676.48,518.05 1677.87,518.00 1679.25,517.94 1680.64,517.89 1682.02,517.84 1683.41,517.79 1684.79,517.74 1686.17,517.69 1687.56,517.64 1688.94,517.60 1690.33,517.55 1691.71,517.50 1693.10,517.45 1694.48,517.40 1695.87,517.35 1697.25,517.30 1698.63,517.25 1700.02,517.21 1701.40,517.16 1702.79,517.11 1704.17,517.06 1705.56,517.02 1706.94,516.97 1708.32,516.92 1709.71,516.88 1711.09,516.83 1712.48,516.78 1713.86,516.74 1715.25,516.69 1716.63,516.65 1718.01,516.60 1719.40,516.56 1720.78,516.51 1722.17,516.46 1723.55,516.42 1724.94,516.38 1726.32,516.33 1727.70,516.29 1729.09,516.24 1730.47,516.20 1731.86,516.15 1733.24,516.11 1734.63,516.07 1736.01,516.02 1737.40,515.98 1738.78,515.94 1740.16,515.90 1741.55,515.85 1742.93,515.81 1744.32,515.77 1745.70,515.73 1747.09,515.68 1748.47,515.64 1749.85,515.60 1751.24,515.56 1752.62,515.52 1754.01,515.48 1755.39,515.44 1756.78,515.39 1758.16,515.35 1759.54,515.31 1760.93,515.27 1762.31,515.23 1763.70,515.19 1765.08,515.15 1766.47,515.11 1767.85,515.07 1769.23,515.03 1770.62,515.00 1772.00,514.96 1773.39,514.92 1774.77,514.88 1776.16,514.84 1777.54,514.80 1778.93,514.76 1780.31,514.73 1781.69,514.69 1783.08,514.65 1784.46,514.61 1785.85,514.57 1787.23,514.54 1788.62,514.50 1790.00,514.46"/>
<polyline fill="none" stroke="#1f8a8a" stroke-width="5" stroke-linecap="round" stroke-linejoin="round" stroke-dasharray="4 7" points="1030.00,-190.23 1031.38,-174.38 1032.77,-158.81 1034.15,-143.51 1035.54,-128.49 1036.92,-113.74 1038.31,-99.25 1039.69,-85.02 1041.07,-71.04 1042.46,-57.32 1043.84,-43.83 1045.23,-30.59 1046.61,-17.59 1048.00,-4.81 1049.38,7.73 1050.77,20.05 1052.15,32.15 1053.53,44.03 1054.92,55.70 1056.30,67.15 1057.69,78.40 1059.07,89.45 1060.46,100.30 1061.84,110.95 1063.22,121.42 1064.61,131.69 1065.99,141.77 1067.38,151.68 1068.76,161.40 1070.15,170.95 1071.53,180.32 1072.91,189.52 1074.30,198.56 1075.68,207.43 1077.07,216.14 1078.45,224.68 1079.84,233.08 1081.22,241.32 1082.60,249.40 1083.99,257.34 1085.37,265.13 1086.76,272.78 1088.14,280.29 1089.53,287.66 1090.91,294.89 1092.30,301.99 1093.68,308.96 1095.06,315.78 1096.45,322.45 1097.83,328.98 1099.22,335.36 1100.60,341.59 1101.99,347.68 1103.37,353.63 1104.75,359.44 1106.14,365.11 1107.52,370.64 1108.91,376.04 1110.29,381.30 1111.68,386.43 1113.06,391.43 1114.44,396.31 1115.83,401.05 1117.21,405.68 1118.60,410.18 1119.98,414.55 1121.37,418.81 1122.75,422.95 1124.13,426.97 1125.52,430.88 1126.90,434.67 1128.29,438.36 1129.67,441.93 1131.06,445.39 1132.44,448.75 1133.83,452.01 1135.21,455.16 1136.59,458.21 1137.98,461.16 1139.36,464.01 1140.75,466.77 1142.13,469.43 1143.52,472.00 1144.90,474.47 1146.28,476.86 1147.67,479.16 1149.05,481.37 1150.44,483.50 1151.82,485.55 1153.21,487.51 1154.59,489.40 1155.97,491.21 1157.36,492.94 1158.74,494.60 1160.13,496.19 1161.51,497.70 1162.90,499.15 1164.28,500.52 1165.66,501.83 1167.05,503.08 1168.43,504.27 1169.82,505.39 1171.20,506.46 1172.59,507.47 1173.97,508.42 1175.36,509.32 1176.74,510.16 1178.12,510.96 1179.51,511.70 1180.89,512.40 1182.28,513.06 1183.66,513.67 1185.05,514.23 1186.43,514.76 1187.81,515.25 1189.20,515.70 1190.58,516.11 1191.97,516.50 1193.35,516.84 1194.74,517.16 1196.12,517.45 1197.50,517.72 1198.89,517.96 1200.27,518.17 1201.66,518.36 1203.04,518.54 1204.43,518.69 1205.81,518.83 1207.19,518.95 1208.58,519.06 1209.96,519.15 1211.35,519.24 1212.73,519.32 1214.12,519.39 1215.50,519.45 1216.89,519.52 1218.27,519.58 1219.65,519.64 1221.04,519.69 1222.42,519.75 1223.81,519.80 1225.19,519.86 1226.58,519.91 1227.96,519.96 1229.34,520.01 1230.73,520.05 1232.11,520.10 1233.50,520.14 1234.88,520.18 1236.27,520.22 1237.65,520.26 1239.03,520.30 1240.42,520.34 1241.80,520.37 1243.19,520.41 1244.57,520.44 1245.96,520.47 1247.34,520.50 1248.72,520.53 1250.11,520.56 1251.49,520.59 1252.88,520.61 1254.26,520.64 1255.65,520.66 1257.03,520.68 1258.42,520.71 1259.80,520.73 1261.18,520.75 1262.57,520.77 1263.95,520.78 1265.34,520.80 1266.72,520.82 1268.11,520.83 1269.49,520.85 1270.87,520.86 1272.26,520.87 1273.64,520.88 1275.03,520.89 1276.41,520.90 1277.80,520.91 1279.18,520.92 1280.56,520.93 1281.95,520.94 1283.33,520.94 1284.72,520.95 1286.10,520.95 1287.49,520.96 1288.87,520.96 1290.26,520.96 1291.64,520.96 1293.02,520.97 1294.41,520.97 1295.79,520.97 1297.18,520.97 1298.56,520.96 1299.95,520.96 1301.33,520.96 1302.71,520.96 1304.10,520.95 1305.48,520.95 1306.87,520.95 1308.25,520.94 1309.64,520.94 1311.02,520.93 1312.40,520.92 1313.79,520.92 1315.17,520.91 1316.56,520.90 1317.94,520.89 1319.33,520.88 1320.71,520.87 1322.09,520.86 1323.48,520.85 1324.86,520.84 1326.25,520.83 1327.63,520.82 1329.02,520.81 1330.40,520.80 1331.79,520.79 1333.17,520.77 1334.55,520.76 1335.94,520.75 1337.32,520.73 1338.71,520.72 1340.09,520.71 1341.48,520.69 1342.86,520.68 1344.24,520.66 1345.63,520.65 1347.01,520.63 1348.40,520.61 1349.78,520.60 1351.17,520.58 1352.55,520.56 1353.93,520.55 1355.32,520.53 1356.70,520.51 1358.09,520.49 1359.47,520.48 1360.86,520.46 1362.24,520.44 1363.62,520.42 1365.01,520.40 1366.39,520.38 1367.78,520.36 1369.16,520.34 1370.55,520.33 1371.93,520.31 1373.32,520.29 1374.70,520.27 1376.08,520.25 1377.47,520.22 1378.85,520.20 1380.24,520.18 1381.62,520.16 1383.01,520.14 1384.39,520.12 1385.77,520.10 1387.16,520.08 1388.54,520.06 1389.93,520.03 1391.31,520.01 1392.70,519.99 1394.08,519.97 1395.46,519.95 1396.85,519.92 1398.23,519.90 1399.62,519.88 1401.00,519.86 1402.39,519.83 1403.77,519.81 1405.15,519.79 1406.54,519.76 1407.92,519.74 1409.31,519.72 1410.69,519.70 1412.08,519.67 1413.46,519.65 1414.85,519.63 1416.23,519.60 1417.61,519.58 1419.00,519.55 1420.38,519.53 1421.77,519.51 1423.15,519.48 1424.54,519.46 1425.92,519.44 1427.30,519.41 1428.69,519.39 1430.07,519.36 1431.46,519.34 1432.84,519.32 1434.23,519.29 1435.61,519.27 1436.99,519.24 1438.38,519.22 1439.76,519.20 1441.15,519.17 1442.53,519.15 1443.92,519.12 1445.30,519.10 1446.68,519.08 1448.07,519.05 1449.45,519.03 1450.84,519.00 1452.22,518.98 1453.61,518.95 1454.99,518.93 1456.38,518.91 1457.76,518.88 1459.14,518.86 1460.53,518.83 1461.91,518.81 1463.30,518.79 1464.68,518.76 1466.07,518.74 1467.45,518.71 1468.83,518.69 1470.22,518.66 1471.60,518.64 1472.99,518.62 1474.37,518.59 1475.76,518.57 1477.14,518.54 1478.52,518.52 1479.91,518.50 1481.29,518.47 1482.68,518.45 1484.06,518.42 1485.45,518.40 1486.83,518.38 1488.21,518.35 1489.60,518.33 1490.98,518.30 1492.37,518.28 1493.75,518.26 1495.14,518.23 1496.52,518.21 1497.91,518.19 1499.29,518.16 1500.67,518.14 1502.06,518.12 1503.44,518.09 1504.83,518.07 1506.21,518.05 1507.60,518.02 1508.98,518.00 1510.36,517.98 1511.75,517.95 1513.13,517.93 1514.52,517.91 1515.90,517.88 1517.29,517.86 1518.67,517.84 1520.05,517.81 1521.44,517.79 1522.82,517.77 1524.21,517.75 1525.59,517.72 1526.98,517.70 1528.36,517.68 1529.74,517.65 1531.13,517.63 1532.51,517.61 1533.90,517.59 1535.28,517.56 1536.67,517.54 1538.05,517.52 1539.44,517.50 1540.82,517.48 1542.20,517.45 1543.59,517.43 1544.97,517.41 1546.36,517.39 1547.74,517.37 1549.13,517.34 1550.51,517.32 1551.89,517.30 1553.28,517.28 1554.66,517.26 1556.05,517.24 1557.43,517.21 1558.82,517.19 1560.20,517.17 1561.58,517.15 1562.97,517.13 1564.35,517.11 1565.74,517.09 1567.12,517.06 1568.51,517.04 1569.89,517.02 1571.28,517.00 1572.66,516.98 1574.04,516.96 1575.43,516.94 1576.81,516.92 1578.20,516.90 1579.58,516.88 1580.97,516.86 1582.35,516.84 1583.73,516.82 1585.12,516.80 1586.50,516.78 1587.89,516.76 1589.27,516.74 1590.66,516.72 1592.04,516.70 1593.42,516.68 1594.81,516.66 1596.19,516.64 1597.58,516.62 1598.96,516.60 1600.35,516.58 1601.73,516.56 1603.11,516.54 1604.50,516.52 1605.88,516.50 1607.27,516.48 1608.65,516.46 1610.04,516.44 1611.42,516.42 1612.81,516.40 1614.19,516.38 1615.57,516.37 1616.96,516.35 1618.34,516.33 1619.73,516.31 1621.11,516.29 1622.50,516.27 1623.88,516.25 1625.26,516.24 1626.65,516.22 1628.03,516.20 1629.42,516.18 1630.80,516.16 1632.19,516.14 1633.57,516.13 1634.95,516.11 1636.34,516.09 1637.72,516.07 1639.11,516.05 1640.49,516.04 1641.88,516.02 1643.26,516.00 1644.64,515.98 1646.03,515.97 1647.41,515.95 1648.80,515.93 1650.18,515.91 1651.57,515.90 1652.95,515.88 1654.34,515.86 1655.72,515.85 1657.10,515.83 1658.49,515.81 1659.87,515.79 1661.26,515.78 1662.64,515.76 1664.03,515.74 1665.41,515.73 1666.79,515.71 1668.18,515.69 1669.56,515.68 1670.95,515.66 1672.33,515.65 1673.72,515.63 1675.10,515.61 1676.48,515.60 1677.87,515.58 1679.25,515.56 1680.64,515.55 1682.02,515.53 1683.41,515.52 1684.79,515.50 1686.17,515.49 1687.56,515.47 1688.94,515.45 1690.33,515.44 1691.71,515.42 1693.10,515.41 1694.48,515.39 1695.87,515.38 1697.25,515.36 1698.63,515.35 1700.02,515.33 1701.40,515.32 1702.79,515.30 1704.17,515.29 1705.56,515.27 1706.94,515.26 1708.32,515.24 1709.71,515.23 1711.09,515.21 1712.48,515.20 1713.86,515.18 1715.25,515.17 1716.63,515.15 1718.01,515.14 1719.40,515.12 1720.78,515.11 1722.17,515.10 1723.55,515.08 1724.94,515.07 1726.32,515.05 1727.70,515.04 1729.09,515.03 1730.47,515.01 1731.86,515.00 1733.24,514.98 1734.63,514.97 1736.01,514.96 1737.40,514.94 1738.78,514.93 1740.16,514.92 1741.55,514.90 1742.93,514.89 1744.32,514.88 1745.70,514.86 1747.09,514.85 1748.47,514.84 1749.85,514.82 1751.24,514.81 1752.62,514.80 1754.01,514.78 1755.39,514.77 1756.78,514.76 1758.16,514.74 1759.54,514.73 1760.93,514.72 1762.31,514.71 1763.70,514.69 1765.08,514.68 1766.47,514.67 1767.85,514.66 1769.23,514.64 1770.62,514.63 1772.00,514.62 1773.39,514.61 1774.77,514.59 1776.16,514.58 1777.54,514.57 1778.93,514.56 1780.31,514.55 1781.69,514.53 1783.08,514.52 1784.46,514.51 1785.85,514.50 1787.23,514.49 1788.62,514.47 1790.00,514.46"/>
<line x1="1052" y1="196" x2="1110" y2="196" stroke="#1f2a44" stroke-width="6"/>
<text x="1128" y="205" font-size="25" fill="#3a342d" font-family="DejaVu Sans">No third bead nearby</text>
<line x1="1052" y1="238" x2="1110" y2="238" stroke="#d46a3d" stroke-width="6" stroke-dasharray="10 8"/>
<text x="1128" y="247" font-size="25" fill="#3a342d" font-family="DejaVu Sans">Third bead approaching (r = 1.40σ)</text>
<line x1="1052" y1="280" x2="1110" y2="280" stroke="#1f8a8a" stroke-width="6" stroke-dasharray="4 7"/>
<text x="1128" y="289" font-size="25" fill="#3a342d" font-family="DejaVu Sans">Third bead inside r_in (r ≤ 1.30σ)</text>
<line x1="1527.9" y1="182" x2="1527.9" y2="628" stroke="#bfb5a8" stroke-width="3" stroke-dasharray="10 10"/>
<text x="1541.9" y="470" font-size="24" fill="#6d655b" font-family="DejaVu Sans">full crowding starts</text>
<text x="1772" y="588" text-anchor="end" font-size="24" fill="#6d655b" font-family="DejaVu Sans">same LJ core, shallower well</text>
<text x="1772" y="620" text-anchor="end" font-size="24" fill="#6d655b" font-family="DejaVu Sans">no added radial hump</text>
<rect x="88" y="720" width="1738" height="248" rx="30" fill="#fff6ec" stroke="#e1b78e" stroke-width="3"/>
<text x="118" y="775" font-size="38" font-weight="bold" fill="#8e3f18" font-family="DejaVu Sans">Bottom line</text>
<text x="118" y="790" font-size="30" fill="#352f2a" font-family="DejaVu Sans">Answer:</text>
<text x="118" y="826" font-size="30" fill="#352f2a" font-family="DejaVu Sans">No explicit swap-barrier term is added to U_ij(r).</text>
<text x="118" y="862" font-size="30" fill="#352f2a" font-family="DejaVu Sans">But swapping is not barrierless:</text>
<text x="118" y="898" font-size="30" fill="#352f2a" font-family="DejaVu Sans">crowding weakens both attractive bonds in the 3-body intermediate,</text>
<text x="118" y="934" font-size="30" fill="#352f2a" font-family="DejaVu Sans">so associative exchange pays an implicit energy penalty.</text>
<rect x="1095" y="678" width="650" height="208" rx="24" fill="#eef7f7" stroke="#9fcfcf" stroke-width="3"/>
<text x="1128" y="726" font-size="30" font-weight="bold" fill="#1f2a44" font-family="DejaVu Sans">Simple 3-bead estimate from the equations</text>
<text x="1128" y="772" font-size="28" fill="#2d2925" font-family="DejaVu Sans Mono">E_single = U_min</text>
<text x="1128" y="810" font-size="28" fill="#2d2925" font-family="DejaVu Sans Mono">E_crowded ≈ 2^(1-p) U_min</text>
<text x="1128" y="848" font-size="28" fill="#2d2925" font-family="DejaVu Sans Mono">ΔE_assoc ≈ (1 - 2^(1-p)) |U_min| ≈ 0.595 ε</text>
<text x="1128" y="886" font-size="24" fill="#6d655b" font-family="DejaVu Sans">using p = 4 and r_cut = 1.5σ from Methods §2.4.3</text>
<text x="1826" y="1036" text-anchor="end" font-size="22" fill="#8b8277" font-family="DejaVu Sans">
From Eqs. 2-13 and default parameters in Eq. 20 paragraph
</text>
</svg>
