<?xml version="1.0" encoding="utf-8" standalone="no"?>
<!DOCTYPE svg PUBLIC "-//W3C//DTD SVG 1.1//EN"
  "http://www.w3.org/Graphics/SVG/1.1/DTD/svg11.dtd">
<svg xmlns:xlink="http://www.w3.org/1999/xlink" width="237.6pt" height="144pt" viewBox="0 0 237.6 144" xmlns="http://www.w3.org/2000/svg" version="1.1">
 <metadata>
  <rdf:RDF xmlns:dc="http://purl.org/dc/elements/1.1/" xmlns:cc="http://creativecommons.org/ns#" xmlns:rdf="http://www.w3.org/1999/02/22-rdf-syntax-ns#">
   <cc:Work>
    <dc:type rdf:resource="http://purl.org/dc/dcmitype/StillImage"/>
    <dc:date>2026-06-17T17:00:51.005894</dc:date>
    <dc:format>image/svg+xml</dc:format>
    <dc:creator>
     <cc:Agent>
      <dc:title>Matplotlib v3.10.8, https://matplotlib.org/</dc:title>
     </cc:Agent>
    </dc:creator>
   </cc:Work>
  </rdf:RDF>
 </metadata>
 <defs>
  <style type="text/css">*{stroke-linejoin: round; stroke-linecap: butt}</style>
 </defs>
 <g id="figure_1">
  <g id="patch_1">
   <path d="M 0 144 
L 237.6 144 
L 237.6 0 
L 0 0 
z
" style="fill: #ffffff"/>
  </g>
  <g id="axes_1">
   <g id="patch_2">
    <path d="M 35.369779 116.34 
L 233.1 116.34 
L 233.1 7.44 
L 35.369779 7.44 
z
" style="fill: #ffffff"/>
   </g>
   <g id="matplotlib.axis_1">
    <g id="xtick_1">
     <g id="text_1">
      <!-- None -->
      <g transform="translate(45.583426 124.1725) scale(0.08 -0.08)">
       <defs>
        <path id="TeXGyreHeros-Regular-4e" d="M 4134 0 
L 3462 0 
L 1050 3782 
L 1050 0 
L 486 0 
L 486 4666 
L 1133 4666 
L 3571 851 
L 3571 4666 
L 4134 4666 
L 4134 0 
z
" transform="scale(0.015625)"/>
        <path id="TeXGyreHeros-Regular-6f" d="M 3264 1651 
Q 3264 826 2861 365 
Q 2458 -96 1747 -96 
Q 1030 -96 630 368 
Q 230 832 230 1677 
Q 230 2515 630 2982 
Q 1030 3450 1741 3450 
Q 2470 3450 2867 2982 
Q 3264 2515 3264 1651 
z
M 2707 1658 
Q 2707 2278 2454 2617 
Q 2202 2957 1747 2957 
Q 1299 2957 1043 2617 
Q 787 2278 787 1677 
Q 787 1069 1043 733 
Q 1299 397 1747 397 
Q 2189 397 2448 733 
Q 2707 1069 2707 1658 
z
" transform="scale(0.015625)"/>
        <path id="TeXGyreHeros-Regular-6e" d="M 3117 0 
L 2586 0 
L 2586 2323 
Q 2586 2624 2400 2803 
Q 2214 2982 1894 2982 
Q 1485 2982 1232 2672 
Q 979 2362 979 1850 
L 979 0 
L 448 0 
L 448 3354 
L 941 3354 
L 941 2790 
Q 1165 3142 1424 3296 
Q 1683 3450 2054 3450 
Q 2541 3450 2829 3200 
Q 3117 2950 3117 2534 
L 3117 0 
z
" transform="scale(0.015625)"/>
        <path id="TeXGyreHeros-Regular-65" d="M 3283 1523 
L 813 1523 
Q 819 966 1091 681 
Q 1363 397 1798 397 
Q 2470 397 2675 1018 
L 3213 1018 
Q 3110 506 2729 205 
Q 2349 -96 1779 -96 
Q 1069 -96 662 368 
Q 256 832 256 1657 
Q 256 2483 672 2966 
Q 1088 3450 1792 3450 
Q 2266 3450 2627 3213 
Q 2989 2976 3149 2566 
Q 3283 2214 3283 1523 
z
M 2714 1997 
Q 2714 2394 2445 2675 
Q 2176 2957 1786 2957 
Q 1382 2957 1120 2681 
Q 858 2406 826 1958 
L 2707 1958 
L 2714 1997 
z
" transform="scale(0.015625)"/>
       </defs>
       <use xlink:href="#TeXGyreHeros-Regular-4e"/>
       <use xlink:href="#TeXGyreHeros-Regular-6f" transform="translate(72.199982 0)"/>
       <use xlink:href="#TeXGyreHeros-Regular-6e" transform="translate(127.799973 0)"/>
       <use xlink:href="#TeXGyreHeros-Regular-65" transform="translate(183.399963 0)"/>
      </g>
     </g>
    </g>
    <g id="xtick_2">
     <g id="text_2">
      <!-- 6 -->
      <g transform="translate(92.465095 124.1725) scale(0.08 -0.08)">
       <defs>
        <path id="TeXGyreHeros-Regular-36" d="M 3283 1408 
Q 3283 742 2867 323 
Q 2451 -96 1798 -96 
Q 275 -96 275 2067 
Q 275 3258 694 3898 
Q 1114 4538 1901 4538 
Q 2419 4538 2761 4224 
Q 3104 3910 3187 3354 
L 2624 3354 
Q 2554 3680 2355 3859 
Q 2157 4038 1862 4038 
Q 1376 4038 1117 3593 
Q 858 3149 851 2317 
Q 1222 2822 1894 2822 
Q 2509 2822 2896 2432 
Q 3283 2042 3283 1408 
z
M 2707 1363 
Q 2707 1818 2470 2070 
Q 2234 2323 1824 2323 
Q 1402 2323 1142 2070 
Q 883 1818 883 1395 
Q 883 960 1145 681 
Q 1408 403 1805 403 
Q 2195 403 2451 672 
Q 2707 941 2707 1363 
z
" transform="scale(0.015625)"/>
       </defs>
       <use xlink:href="#TeXGyreHeros-Regular-36"/>
      </g>
     </g>
    </g>
    <g id="xtick_3">
     <g id="text_3">
      <!-- 12 -->
      <g transform="translate(129.78739 124.1725) scale(0.08 -0.08)">
       <defs>
        <path id="TeXGyreHeros-Regular-31" d="M 2221 0 
L 1658 0 
L 1658 3232 
L 653 3232 
L 653 3635 
Q 1306 3718 1504 3865 
Q 1702 4013 1850 4538 
L 2221 4538 
L 2221 0 
z
" transform="scale(0.015625)"/>
        <path id="TeXGyreHeros-Regular-32" d="M 3270 3206 
Q 3270 2349 2310 1837 
L 1670 1491 
Q 1254 1248 1075 1043 
Q 896 838 851 557 
L 3238 557 
L 3238 0 
L 218 0 
Q 256 749 518 1155 
Q 781 1562 1491 1965 
L 2080 2298 
Q 2694 2650 2694 3194 
Q 2694 3558 2438 3801 
Q 2182 4045 1798 4045 
Q 1370 4045 1142 3785 
Q 915 3526 883 2963 
L 320 2963 
Q 365 4538 1818 4538 
Q 2458 4538 2864 4160 
Q 3270 3782 3270 3206 
z
" transform="scale(0.015625)"/>
       </defs>
       <use xlink:href="#TeXGyreHeros-Regular-31"/>
       <use xlink:href="#TeXGyreHeros-Regular-32" transform="translate(55.599991 0)"/>
      </g>
     </g>
    </g>
    <g id="xtick_4">
     <g id="text_4">
      <!-- 15 -->
      <g transform="translate(169.333434 124.1725) scale(0.08 -0.08)">
       <defs>
        <path id="TeXGyreHeros-Regular-35" d="M 3283 1504 
Q 3283 787 2851 345 
Q 2419 -96 1728 -96 
Q 1107 -96 732 205 
Q 358 506 224 1165 
L 787 1165 
Q 986 403 1715 403 
Q 2182 403 2444 672 
Q 2707 941 2707 1427 
Q 2707 1926 2441 2208 
Q 2176 2490 1715 2490 
Q 1453 2490 1267 2397 
Q 1082 2304 883 2067 
L 365 2067 
L 704 4442 
L 3046 4442 
L 3046 3885 
L 1158 3885 
L 979 2714 
Q 1357 2989 1818 2989 
Q 2470 2989 2876 2582 
Q 3283 2176 3283 1504 
z
" transform="scale(0.015625)"/>
       </defs>
       <use xlink:href="#TeXGyreHeros-Regular-31"/>
       <use xlink:href="#TeXGyreHeros-Regular-35" transform="translate(55.599991 0)"/>
      </g>
     </g>
    </g>
    <g id="xtick_5">
     <g id="text_5">
      <!-- 18 -->
      <g transform="translate(208.879478 124.1725) scale(0.08 -0.08)">
       <defs>
        <path id="TeXGyreHeros-Regular-38" d="M 3283 1280 
Q 3283 666 2857 285 
Q 2432 -96 1760 -96 
Q 1082 -96 659 285 
Q 237 666 237 1286 
Q 237 2016 1011 2387 
Q 666 2605 531 2809 
Q 397 3014 397 3328 
Q 397 3859 777 4198 
Q 1158 4538 1760 4538 
Q 2362 4538 2742 4198 
Q 3123 3859 3123 3328 
Q 3123 3008 2988 2803 
Q 2854 2598 2502 2387 
Q 3283 2016 3283 1280 
z
M 2547 3315 
Q 2547 3648 2332 3843 
Q 2118 4038 1760 4038 
Q 1402 4038 1187 3843 
Q 973 3648 973 3322 
Q 973 3002 1187 2806 
Q 1402 2611 1760 2611 
Q 2112 2611 2329 2803 
Q 2547 2995 2547 3315 
z
M 2707 1274 
Q 2707 1670 2448 1904 
Q 2189 2138 1760 2138 
Q 1331 2138 1072 1904 
Q 813 1670 813 1273 
Q 813 877 1072 640 
Q 1331 403 1747 403 
Q 2182 403 2444 636 
Q 2707 870 2707 1274 
z
" transform="scale(0.015625)"/>
       </defs>
       <use xlink:href="#TeXGyreHeros-Regular-31"/>
       <use xlink:href="#TeXGyreHeros-Regular-38" transform="translate(55.599991 0)"/>
      </g>
     </g>
    </g>
    <g id="text_6">
     <!--   -->
     <g transform="translate(132.845046 137.206875) scale(0.1 -0.1)">
      <defs>
       <path id="TeXGyreHeros-Regular-20" transform="scale(0.015625)"/>
      </defs>
      <use xlink:href="#TeXGyreHeros-Regular-20"/>
     </g>
    </g>
   </g>
   <g id="matplotlib.axis_2">
    <g id="ytick_1">
     <g id="line2d_1">
      <defs>
       <path id="mc34901742a" d="M 0 0 
L 4 0 
" style="stroke: #000000; stroke-width: 0.6"/>
      </defs>
      <g>
       <use xlink:href="#mc34901742a" x="35.369779" y="116.34" style="stroke: #000000; stroke-width: 0.6"/>
      </g>
     </g>
     <g id="line2d_2">
      <defs>
       <path id="mbdae6f4697" d="M 0 0 
L -4 0 
" style="stroke: #000000; stroke-width: 0.6"/>
      </defs>
      <g>
       <use xlink:href="#mbdae6f4697" x="233.1" y="116.34" style="stroke: #000000; stroke-width: 0.6"/>
      </g>
     </g>
     <g id="text_7">
      <!-- 0.01 -->
      <g transform="translate(17.803529 119.25625) scale(0.08 -0.08)">
       <defs>
        <path id="TeXGyreHeros-Regular-30" d="M 3245 2182 
Q 3245 1069 2864 486 
Q 2483 -96 1760 -96 
Q 1030 -96 652 489 
Q 275 1075 275 2220 
Q 275 3366 649 3952 
Q 1024 4538 1760 4538 
Q 3245 4538 3245 2182 
z
M 2669 2234 
Q 2669 4038 1760 4038 
Q 851 4038 851 2214 
Q 851 371 1747 371 
Q 2221 371 2445 822 
Q 2669 1274 2669 2234 
z
" transform="scale(0.015625)"/>
        <path id="TeXGyreHeros-Regular-2e" d="M 1222 0 
L 557 0 
L 557 666 
L 1222 666 
L 1222 0 
z
" transform="scale(0.015625)"/>
       </defs>
       <use xlink:href="#TeXGyreHeros-Regular-30"/>
       <use xlink:href="#TeXGyreHeros-Regular-2e" transform="translate(55.599991 0)"/>
       <use xlink:href="#TeXGyreHeros-Regular-30" transform="translate(83.399979 0)"/>
       <use xlink:href="#TeXGyreHeros-Regular-31" transform="translate(138.999969 0)"/>
      </g>
     </g>
    </g>
    <g id="ytick_2">
     <g id="line2d_3">
      <g>
       <use xlink:href="#mc34901742a" x="35.369779" y="71.825841" style="stroke: #000000; stroke-width: 0.6"/>
      </g>
     </g>
     <g id="line2d_4">
      <g>
       <use xlink:href="#mbdae6f4697" x="233.1" y="71.825841" style="stroke: #000000; stroke-width: 0.6"/>
      </g>
     </g>
     <g id="text_8">
      <!-- 0.1 -->
      <g transform="translate(22.251029 74.742091) scale(0.08 -0.08)">
       <use xlink:href="#TeXGyreHeros-Regular-30"/>
       <use xlink:href="#TeXGyreHeros-Regular-2e" transform="translate(55.599991 0)"/>
       <use xlink:href="#TeXGyreHeros-Regular-31" transform="translate(83.399979 0)"/>
      </g>
     </g>
    </g>
    <g id="ytick_3">
     <g id="line2d_5">
      <g>
       <use xlink:href="#mc34901742a" x="35.369779" y="27.311683" style="stroke: #000000; stroke-width: 0.6"/>
      </g>
     </g>
     <g id="line2d_6">
      <g>
       <use xlink:href="#mbdae6f4697" x="233.1" y="27.311683" style="stroke: #000000; stroke-width: 0.6"/>
      </g>
     </g>
     <g id="text_9">
      <!-- 1 -->
      <g transform="translate(28.922279 30.227933) scale(0.08 -0.08)">
       <use xlink:href="#TeXGyreHeros-Regular-31"/>
      </g>
     </g>
    </g>
    <g id="ytick_4">
     <g id="line2d_7">
      <defs>
       <path id="ma0ad840aad" d="M 0 0 
L 2 0 
" style="stroke: #000000; stroke-width: 0.48"/>
      </defs>
      <g>
       <use xlink:href="#ma0ad840aad" x="35.369779" y="102.939903" style="stroke: #000000; stroke-width: 0.48"/>
      </g>
     </g>
     <g id="line2d_8">
      <defs>
       <path id="m5cb8beb79b" d="M 0 0 
L -2 0 
" style="stroke: #000000; stroke-width: 0.48"/>
      </defs>
      <g>
       <use xlink:href="#m5cb8beb79b" x="233.1" y="102.939903" style="stroke: #000000; stroke-width: 0.48"/>
      </g>
     </g>
    </g>
    <g id="ytick_5">
     <g id="line2d_9">
      <g>
       <use xlink:href="#ma0ad840aad" x="35.369779" y="95.101349" style="stroke: #000000; stroke-width: 0.48"/>
      </g>
     </g>
     <g id="line2d_10">
      <g>
       <use xlink:href="#m5cb8beb79b" x="233.1" y="95.101349" style="stroke: #000000; stroke-width: 0.48"/>
      </g>
     </g>
    </g>
    <g id="ytick_6">
     <g id="line2d_11">
      <g>
       <use xlink:href="#ma0ad840aad" x="35.369779" y="89.539806" style="stroke: #000000; stroke-width: 0.48"/>
      </g>
     </g>
     <g id="line2d_12">
      <g>
       <use xlink:href="#m5cb8beb79b" x="233.1" y="89.539806" style="stroke: #000000; stroke-width: 0.48"/>
      </g>
     </g>
    </g>
    <g id="ytick_7">
     <g id="line2d_13">
      <g>
       <use xlink:href="#ma0ad840aad" x="35.369779" y="85.225938" style="stroke: #000000; stroke-width: 0.48"/>
      </g>
     </g>
     <g id="line2d_14">
      <g>
       <use xlink:href="#m5cb8beb79b" x="233.1" y="85.225938" style="stroke: #000000; stroke-width: 0.48"/>
      </g>
     </g>
    </g>
    <g id="ytick_8">
     <g id="line2d_15">
      <g>
       <use xlink:href="#ma0ad840aad" x="35.369779" y="81.701252" style="stroke: #000000; stroke-width: 0.48"/>
      </g>
     </g>
     <g id="line2d_16">
      <g>
       <use xlink:href="#m5cb8beb79b" x="233.1" y="81.701252" style="stroke: #000000; stroke-width: 0.48"/>
      </g>
     </g>
    </g>
    <g id="ytick_9">
     <g id="line2d_17">
      <g>
       <use xlink:href="#ma0ad840aad" x="35.369779" y="78.721172" style="stroke: #000000; stroke-width: 0.48"/>
      </g>
     </g>
     <g id="line2d_18">
      <g>
       <use xlink:href="#m5cb8beb79b" x="233.1" y="78.721172" style="stroke: #000000; stroke-width: 0.48"/>
      </g>
     </g>
    </g>
    <g id="ytick_10">
     <g id="line2d_19">
      <g>
       <use xlink:href="#ma0ad840aad" x="35.369779" y="76.139709" style="stroke: #000000; stroke-width: 0.48"/>
      </g>
     </g>
     <g id="line2d_20">
      <g>
       <use xlink:href="#m5cb8beb79b" x="233.1" y="76.139709" style="stroke: #000000; stroke-width: 0.48"/>
      </g>
     </g>
    </g>
    <g id="ytick_11">
     <g id="line2d_21">
      <g>
       <use xlink:href="#ma0ad840aad" x="35.369779" y="73.862698" style="stroke: #000000; stroke-width: 0.48"/>
      </g>
     </g>
     <g id="line2d_22">
      <g>
       <use xlink:href="#m5cb8beb79b" x="233.1" y="73.862698" style="stroke: #000000; stroke-width: 0.48"/>
      </g>
     </g>
    </g>
    <g id="ytick_12">
     <g id="line2d_23">
      <g>
       <use xlink:href="#ma0ad840aad" x="35.369779" y="58.425744" style="stroke: #000000; stroke-width: 0.48"/>
      </g>
     </g>
     <g id="line2d_24">
      <g>
       <use xlink:href="#m5cb8beb79b" x="233.1" y="58.425744" style="stroke: #000000; stroke-width: 0.48"/>
      </g>
     </g>
    </g>
    <g id="ytick_13">
     <g id="line2d_25">
      <g>
       <use xlink:href="#ma0ad840aad" x="35.369779" y="50.58719" style="stroke: #000000; stroke-width: 0.48"/>
      </g>
     </g>
     <g id="line2d_26">
      <g>
       <use xlink:href="#m5cb8beb79b" x="233.1" y="50.58719" style="stroke: #000000; stroke-width: 0.48"/>
      </g>
     </g>
    </g>
    <g id="ytick_14">
     <g id="line2d_27">
      <g>
       <use xlink:href="#ma0ad840aad" x="35.369779" y="45.025648" style="stroke: #000000; stroke-width: 0.48"/>
      </g>
     </g>
     <g id="line2d_28">
      <g>
       <use xlink:href="#m5cb8beb79b" x="233.1" y="45.025648" style="stroke: #000000; stroke-width: 0.48"/>
      </g>
     </g>
    </g>
    <g id="ytick_15">
     <g id="line2d_29">
      <g>
       <use xlink:href="#ma0ad840aad" x="35.369779" y="40.71178" style="stroke: #000000; stroke-width: 0.48"/>
      </g>
     </g>
     <g id="line2d_30">
      <g>
       <use xlink:href="#m5cb8beb79b" x="233.1" y="40.71178" style="stroke: #000000; stroke-width: 0.48"/>
      </g>
     </g>
    </g>
    <g id="ytick_16">
     <g id="line2d_31">
      <g>
       <use xlink:href="#ma0ad840aad" x="35.369779" y="37.187093" style="stroke: #000000; stroke-width: 0.48"/>
      </g>
     </g>
     <g id="line2d_32">
      <g>
       <use xlink:href="#m5cb8beb79b" x="233.1" y="37.187093" style="stroke: #000000; stroke-width: 0.48"/>
      </g>
     </g>
    </g>
    <g id="ytick_17">
     <g id="line2d_33">
      <g>
       <use xlink:href="#ma0ad840aad" x="35.369779" y="34.207013" style="stroke: #000000; stroke-width: 0.48"/>
      </g>
     </g>
     <g id="line2d_34">
      <g>
       <use xlink:href="#m5cb8beb79b" x="233.1" y="34.207013" style="stroke: #000000; stroke-width: 0.48"/>
      </g>
     </g>
    </g>
    <g id="ytick_18">
     <g id="line2d_35">
      <g>
       <use xlink:href="#ma0ad840aad" x="35.369779" y="31.625551" style="stroke: #000000; stroke-width: 0.48"/>
      </g>
     </g>
     <g id="line2d_36">
      <g>
       <use xlink:href="#m5cb8beb79b" x="233.1" y="31.625551" style="stroke: #000000; stroke-width: 0.48"/>
      </g>
     </g>
    </g>
    <g id="ytick_19">
     <g id="line2d_37">
      <g>
       <use xlink:href="#ma0ad840aad" x="35.369779" y="29.348539" style="stroke: #000000; stroke-width: 0.48"/>
      </g>
     </g>
     <g id="line2d_38">
      <g>
       <use xlink:href="#m5cb8beb79b" x="233.1" y="29.348539" style="stroke: #000000; stroke-width: 0.48"/>
      </g>
     </g>
    </g>
    <g id="ytick_20">
     <g id="line2d_39">
      <g>
       <use xlink:href="#ma0ad840aad" x="35.369779" y="13.911586" style="stroke: #000000; stroke-width: 0.48"/>
      </g>
     </g>
     <g id="line2d_40">
      <g>
       <use xlink:href="#m5cb8beb79b" x="233.1" y="13.911586" style="stroke: #000000; stroke-width: 0.48"/>
      </g>
     </g>
    </g>
    <g id="text_10">
     <!--   -->
     <g transform="translate(11.623842 63.279844) rotate(-90) scale(0.1 -0.1)">
      <use xlink:href="#TeXGyreHeros-Regular-20"/>
     </g>
    </g>
   </g>
   <g id="patch_3">
    <path d="M 35.369779 116.34 
L 35.369779 7.44 
" style="fill: none; stroke: #000000; stroke-width: 0.6; stroke-linejoin: miter; stroke-linecap: square"/>
   </g>
   <g id="patch_4">
    <path d="M 233.1 116.34 
L 233.1 7.44 
" style="fill: none; stroke: #000000; stroke-width: 0.6; stroke-linejoin: miter; stroke-linecap: square"/>
   </g>
   <g id="patch_5">
    <path d="M 35.369779 116.34 
L 233.1 116.34 
" style="fill: none; stroke: #000000; stroke-width: 0.6; stroke-linejoin: miter; stroke-linecap: square"/>
   </g>
   <g id="patch_6">
    <path d="M 35.369779 7.44 
L 233.1 7.44 
" style="fill: none; stroke: #000000; stroke-width: 0.6; stroke-linejoin: miter; stroke-linecap: square"/>
   </g>
   <g id="patch_7">
    <path d="M 40.906225 116.34 
L 55.142801 116.34 
L 55.142801 87.022918 
L 40.906225 87.022918 
z
" clip-path="url(#pd0e81763a3)" style="fill: #e77500; stroke: #000000; stroke-width: 0.5; stroke-linejoin: miter"/>
   </g>
   <g id="patch_8">
    <path d="M 80.452269 116.34 
L 94.688845 116.34 
L 94.688845 86.420726 
L 80.452269 86.420726 
z
" clip-path="url(#pd0e81763a3)" style="fill: #e77500; stroke: #000000; stroke-width: 0.5; stroke-linejoin: miter"/>
   </g>
   <g id="patch_9">
    <path d="M 119.998314 116.34 
L 134.23489 116.34 
L 134.23489 86.330466 
L 119.998314 86.330466 
z
" clip-path="url(#pd0e81763a3)" style="fill: #e77500; stroke: #000000; stroke-width: 0.5; stroke-linejoin: miter"/>
   </g>
   <g id="patch_10">
    <path d="M 159.544358 116.34 
L 173.780934 116.34 
L 173.780934 86.228651 
L 159.544358 86.228651 
z
" clip-path="url(#pd0e81763a3)" style="fill: #e77500; stroke: #000000; stroke-width: 0.5; stroke-linejoin: miter"/>
   </g>
   <g id="patch_11">
    <path d="M 199.090402 116.34 
L 213.326978 116.34 
L 213.326978 85.697724 
L 199.090402 85.697724 
z
" clip-path="url(#pd0e81763a3)" style="fill: #e77500; stroke: #000000; stroke-width: 0.5; stroke-linejoin: miter"/>
   </g>
   <g id="patch_12">
    <path d="M 55.142801 116.34 
L 69.379377 116.34 
L 69.379377 16.510465 
L 55.142801 16.510465 
z
" clip-path="url(#pd0e81763a3)" style="fill: #121212; stroke: #000000; stroke-width: 0.5; stroke-linejoin: miter"/>
   </g>
   <g id="patch_13">
    <path d="M 94.688845 116.34 
L 108.925421 116.34 
L 108.925421 16.441725 
L 94.688845 16.441725 
z
" clip-path="url(#pd0e81763a3)" style="fill: #121212; stroke: #000000; stroke-width: 0.5; stroke-linejoin: miter"/>
   </g>
   <g id="patch_14">
    <path d="M 134.23489 116.34 
L 148.471465 116.34 
L 148.471465 16.076997 
L 134.23489 16.076997 
z
" clip-path="url(#pd0e81763a3)" style="fill: #121212; stroke: #000000; stroke-width: 0.5; stroke-linejoin: miter"/>
   </g>
   <g id="patch_15">
    <path d="M 173.780934 116.34 
L 188.01751 116.34 
L 188.01751 14.696672 
L 173.780934 14.696672 
z
" clip-path="url(#pd0e81763a3)" style="fill: #121212; stroke: #000000; stroke-width: 0.5; stroke-linejoin: miter"/>
   </g>
   <g id="patch_16">
    <path d="M 213.326978 116.34 
L 227.563554 116.34 
L 227.563554 12.512092 
L 213.326978 12.512092 
z
" clip-path="url(#pd0e81763a3)" style="fill: #121212; stroke: #000000; stroke-width: 0.5; stroke-linejoin: miter"/>
   </g>
   <g id="legend_1">
    <g id="patch_17">
     <path d="M 124.64625 65.018125 
L 140.64625 65.018125 
L 140.64625 57.858125 
L 124.64625 57.858125 
z
" style="fill: #e77500; stroke: #000000; stroke-width: 0.5; stroke-linejoin: miter"/>
    </g>
    <g id="text_11">
     <!-- Melt -->
     <g transform="translate(144.64625 64.178125) scale(0.08 -0.08)">
      <defs>
       <path id="TeXGyreHeros-Regular-4d" d="M 4870 0 
L 4307 0 
L 4307 3910 
L 2995 0 
L 2368 0 
L 1043 3910 
L 1043 0 
L 480 0 
L 480 4666 
L 1306 4666 
L 2688 602 
L 4045 4666 
L 4870 4666 
L 4870 0 
z
" transform="scale(0.015625)"/>
       <path id="TeXGyreHeros-Regular-6c" d="M 966 0 
L 435 0 
L 435 4666 
L 966 4666 
L 966 0 
z
" transform="scale(0.015625)"/>
       <path id="TeXGyreHeros-Regular-74" d="M 1626 0 
Q 1376 -45 1190 -45 
Q 877 -45 710 92 
Q 544 230 544 486 
L 544 2918 
L 90 2918 
L 90 3354 
L 544 3354 
L 544 4275 
L 1075 4275 
L 1075 3354 
L 1626 3354 
L 1626 2918 
L 1075 2918 
L 1075 723 
Q 1075 544 1136 483 
Q 1197 422 1370 422 
Q 1530 422 1626 448 
L 1626 0 
z
" transform="scale(0.015625)"/>
      </defs>
      <use xlink:href="#TeXGyreHeros-Regular-4d"/>
      <use xlink:href="#TeXGyreHeros-Regular-65" transform="translate(83.299988 0)"/>
      <use xlink:href="#TeXGyreHeros-Regular-6c" transform="translate(138.899979 0)"/>
      <use xlink:href="#TeXGyreHeros-Regular-74" transform="translate(161.099976 0)"/>
     </g>
    </g>
    <g id="patch_18">
     <path d="M 171.7575 65.018125 
L 187.7575 65.018125 
L 187.7575 57.858125 
L 171.7575 57.858125 
z
" style="fill: #121212; stroke: #000000; stroke-width: 0.5; stroke-linejoin: miter"/>
    </g>
    <g id="text_12">
     <!-- Semidilute -->
     <g transform="translate(191.7575 64.178125) scale(0.08 -0.08)">
      <defs>
       <path id="TeXGyreHeros-Regular-53" d="M 3974 1280 
Q 3974 640 3497 262 
Q 3021 -115 2150 -115 
Q 1299 -115 803 301 
Q 307 717 307 1517 
L 870 1517 
Q 870 1005 1206 707 
Q 1542 410 2189 410 
Q 3379 410 3379 1222 
Q 3379 1754 2522 1978 
L 1363 2285 
Q 448 2522 448 3373 
Q 448 4013 896 4397 
Q 1344 4781 2106 4781 
Q 2912 4781 3363 4400 
Q 3814 4019 3814 3334 
L 3251 3334 
Q 3251 3789 2947 4035 
Q 2643 4282 2086 4282 
Q 1619 4282 1331 4048 
Q 1043 3814 1043 3456 
Q 1043 3187 1216 3030 
Q 1389 2874 1811 2765 
L 2982 2451 
Q 3456 2323 3715 2016 
Q 3974 1709 3974 1280 
z
" transform="scale(0.015625)"/>
       <path id="TeXGyreHeros-Regular-6d" d="M 4864 0 
L 4333 0 
L 4333 2310 
Q 4333 2630 4173 2806 
Q 4013 2982 3718 2982 
Q 3392 2982 3158 2726 
Q 2925 2470 2925 2106 
L 2925 0 
L 2394 0 
L 2394 2310 
Q 2394 2630 2230 2806 
Q 2067 2982 1773 2982 
Q 1446 2982 1216 2726 
Q 986 2470 986 2106 
L 986 0 
L 454 0 
L 454 3354 
L 941 3354 
L 941 2880 
Q 1158 3181 1398 3315 
Q 1638 3450 1971 3450 
Q 2592 3450 2874 2938 
Q 3110 3219 3340 3334 
Q 3571 3450 3904 3450 
Q 4371 3450 4617 3210 
Q 4864 2970 4864 2515 
L 4864 0 
z
" transform="scale(0.015625)"/>
       <path id="TeXGyreHeros-Regular-69" d="M 979 0 
L 448 0 
L 448 3354 
L 979 3354 
L 979 0 
z
M 1050 3859 
L 384 3859 
L 384 4525 
L 1050 4525 
L 1050 3859 
z
" transform="scale(0.015625)"/>
       <path id="TeXGyreHeros-Regular-64" d="M 3168 0 
L 2694 0 
L 2694 493 
Q 2477 179 2224 41 
Q 1971 -96 1626 -96 
Q 947 -96 556 384 
Q 166 864 166 1709 
Q 166 2509 560 2979 
Q 954 3450 1606 3450 
Q 2298 3450 2637 2931 
L 2637 4666 
L 3168 4666 
L 3168 0 
z
M 2637 1664 
Q 2637 2246 2381 2598 
Q 2125 2950 1696 2950 
Q 1254 2950 988 2604 
Q 723 2259 723 1676 
Q 723 1094 992 748 
Q 1261 403 1702 403 
Q 2125 403 2381 745 
Q 2637 1088 2637 1664 
z
" transform="scale(0.015625)"/>
       <path id="TeXGyreHeros-Regular-75" d="M 3085 0 
L 2605 0 
L 2605 518 
Q 2368 186 2112 45 
Q 1856 -96 1485 -96 
Q 998 -96 707 153 
Q 416 403 416 819 
L 416 3354 
L 947 3354 
L 947 1030 
Q 947 730 1132 550 
Q 1318 371 1638 371 
Q 2054 371 2304 681 
Q 2554 992 2554 1504 
L 2554 3354 
L 3085 3354 
L 3085 0 
z
" transform="scale(0.015625)"/>
      </defs>
      <use xlink:href="#TeXGyreHeros-Regular-53"/>
      <use xlink:href="#TeXGyreHeros-Regular-65" transform="translate(66.699997 0)"/>
      <use xlink:href="#TeXGyreHeros-Regular-6d" transform="translate(122.299988 0)"/>
      <use xlink:href="#TeXGyreHeros-Regular-69" transform="translate(205.599976 0)"/>
      <use xlink:href="#TeXGyreHeros-Regular-64" transform="translate(227.799973 0)"/>
      <use xlink:href="#TeXGyreHeros-Regular-69" transform="translate(283.399963 0)"/>
      <use xlink:href="#TeXGyreHeros-Regular-6c" transform="translate(305.59996 0)"/>
      <use xlink:href="#TeXGyreHeros-Regular-75" transform="translate(327.799957 0)"/>
      <use xlink:href="#TeXGyreHeros-Regular-74" transform="translate(383.399948 0)"/>
      <use xlink:href="#TeXGyreHeros-Regular-65" transform="translate(411.199936 0)"/>
     </g>
    </g>
   </g>
  </g>
  <g id="text_13">
   <!-- $\varepsilon_\mathrm{RLJ}/\varepsilon_0$ -->
   <g transform="translate(121.35 137.206875) scale(0.1 -0.1)">
    <defs>
     <path id="TeXGyreHeros-Italic-3b5" d="M 3174 154 
Q 2368 -205 1734 -205 
Q 1062 -205 643 156 
Q 224 518 346 1094 
Q 454 1626 1094 1843 
Q 646 2067 755 2554 
Q 851 3014 1318 3289 
Q 1786 3565 2342 3565 
Q 3008 3565 3718 3200 
L 3482 2842 
Q 3002 3078 2240 3078 
Q 1888 3078 1609 2947 
Q 1331 2816 1280 2554 
Q 1242 2355 1338 2236 
Q 1434 2118 1696 2070 
Q 1958 2022 2147 2012 
Q 2336 2003 2701 2003 
L 2618 1613 
Q 2317 1613 2153 1609 
Q 1990 1606 1724 1580 
Q 1459 1555 1312 1504 
Q 1165 1453 1033 1347 
Q 902 1242 870 1094 
Q 794 723 1085 502 
Q 1376 282 1837 282 
Q 2573 282 3078 512 
L 3174 154 
z
" transform="scale(0.015625)"/>
     <path id="TeXGyreHeros-Regular-52" d="M 4346 0 
L 3622 0 
Q 3482 333 3488 762 
L 3494 1178 
Q 3501 1606 3312 1808 
Q 3123 2010 2726 2010 
L 1190 2010 
L 1190 0 
L 595 0 
L 595 4666 
L 2746 4666 
Q 3430 4666 3798 4342 
Q 4166 4019 4166 3418 
Q 4166 3021 3993 2758 
Q 3821 2496 3430 2304 
Q 3808 2144 3929 1904 
Q 4051 1664 4064 1088 
Q 4070 621 4124 441 
Q 4179 262 4346 147 
L 4346 0 
z
M 3546 3334 
Q 3546 3738 3331 3939 
Q 3117 4141 2630 4141 
L 1190 4141 
L 1190 2534 
L 2630 2534 
Q 3104 2534 3325 2726 
Q 3546 2918 3546 3334 
z
" transform="scale(0.015625)"/>
     <path id="TeXGyreHeros-Regular-4c" d="M 3411 0 
L 512 0 
L 512 4666 
L 1107 4666 
L 1107 525 
L 3411 525 
L 3411 0 
z
" transform="scale(0.015625)"/>
     <path id="TeXGyreHeros-Regular-4a" d="M 2726 1197 
Q 2726 589 2371 237 
Q 2016 -115 1408 -115 
Q 800 -115 461 217 
Q 122 550 122 1120 
L 122 1498 
L 717 1498 
L 717 1229 
Q 717 819 896 601 
Q 1075 384 1414 384 
Q 1773 384 1952 621 
Q 2131 858 2131 1414 
L 2131 4666 
L 2726 4666 
L 2726 1197 
z
" transform="scale(0.015625)"/>
     <path id="TeXGyreHeros-Regular-2f" d="M 1818 4666 
L 301 -128 
L -51 -128 
L 1466 4666 
L 1818 4666 
z
" transform="scale(0.015625)"/>
    </defs>
    <use xlink:href="#TeXGyreHeros-Italic-3b5" transform="translate(0 0.09375)"/>
    <use xlink:href="#TeXGyreHeros-Regular-52" transform="translate(60.899994 -15.628125) scale(0.7)"/>
    <use xlink:href="#TeXGyreHeros-Regular-4c" transform="translate(111.439981 -15.628125) scale(0.7)"/>
    <use xlink:href="#TeXGyreHeros-Regular-4a" transform="translate(150.359975 -15.628125) scale(0.7)"/>
    <use xlink:href="#TeXGyreHeros-Regular-2f" transform="translate(187.980276 0.09375)"/>
    <use xlink:href="#TeXGyreHeros-Italic-3b5" transform="translate(215.780264 0.09375)"/>
    <use xlink:href="#TeXGyreHeros-Regular-30" transform="translate(276.680258 -15.628125) scale(0.7)"/>
   </g>
  </g>
  <g id="text_14">
   <!-- $\psi$ -->
   <g transform="translate(11.503529 69.1) rotate(-90) scale(0.1 -0.1)">
    <defs>
     <path id="TeXGyreHeros-Italic-3c8" d="M 4102 1120 
Q 3987 595 3462 291 
Q 2938 -13 2240 -64 
L 1939 -1472 
L 1414 -1472 
L 1715 -64 
Q 1043 -13 640 291 
Q 237 595 352 1120 
L 826 3354 
L 1350 3354 
L 877 1120 
Q 806 781 1075 614 
Q 1344 448 1818 416 
L 2720 4666 
L 3245 4666 
L 2342 416 
Q 3443 493 3578 1120 
L 4051 3354 
L 4576 3354 
L 4102 1120 
z
" transform="scale(0.015625)"/>
    </defs>
    <use xlink:href="#TeXGyreHeros-Italic-3c8" transform="translate(0 0.09375)"/>
   </g>
  </g>
 </g>
 <defs>
  <clipPath id="pd0e81763a3">
   <rect x="35.369779" y="7.44" width="197.730221" height="108.9"/>
  </clipPath>
 </defs>
</svg>
