<?xml version="1.0" encoding="utf-8" standalone="no"?>
<!DOCTYPE svg PUBLIC "-//W3C//DTD SVG 1.1//EN"
  "http://www.w3.org/Graphics/SVG/1.1/DTD/svg11.dtd">
<svg xmlns:xlink="http://www.w3.org/1999/xlink" width="214.5419pt" height="136.5633pt" viewBox="0 0 214.5419 136.5633" xmlns="http://www.w3.org/2000/svg" version="1.1">
 <metadata>
  <rdf:RDF xmlns:dc="http://purl.org/dc/elements/1.1/" xmlns:cc="http://creativecommons.org/ns#" xmlns:rdf="http://www.w3.org/1999/02/22-rdf-syntax-ns#">
   <cc:Work>
    <dc:type rdf:resource="http://purl.org/dc/dcmitype/StillImage"/>
    <dc:date>2026-05-14T19:29:27.648142</dc:date>
    <dc:format>image/svg+xml</dc:format>
    <dc:creator>
     <cc:Agent>
      <dc:title>Matplotlib v3.10.8, https://matplotlib.org/</dc:title>
     </cc:Agent>
    </dc:creator>
   </cc:Work>
  </rdf:RDF>
 </metadata>
 <defs>
  <style type="text/css">*{stroke-linejoin: round; stroke-linecap: butt}</style>
 </defs>
 <g id="figure_1">
  <g id="patch_1">
   <path d="M 0 136.5633 
L 214.5419 136.5633 
L 214.5419 0 
L 0 0 
z
" style="fill: #ffffff"/>
  </g>
  <g id="axes_1">
   <g id="patch_2">
    <path d="M 46.678125 98.7208 
L 148.662218 98.7208 
L 148.662218 7.2 
L 46.678125 7.2 
z
" style="fill: #ffffff"/>
   </g>
   <g id="matplotlib.axis_1">
    <g id="xtick_1">
     <g id="line2d_1">
      <defs>
       <path id="m2a9a1b6da1" d="M 0 0 
L 0 3.5 
" style="stroke: #000000; stroke-width: 0.8"/>
      </defs>
      <g>
       <use xlink:href="#m2a9a1b6da1" x="51.313766" y="98.7208" style="stroke: #000000; stroke-width: 0.8"/>
      </g>
     </g>
     <g id="text_1">
      <!-- 0 -->
      <g transform="translate(48.768766 111.79955) scale(0.08 -0.08)">
       <defs>
        <path id="DejaVuSans-30" d="M 2034 4250 
Q 1547 4250 1301 3770 
Q 1056 3291 1056 2328 
Q 1056 1369 1301 889 
Q 1547 409 2034 409 
Q 2525 409 2770 889 
Q 3016 1369 3016 2328 
Q 3016 3291 2770 3770 
Q 2525 4250 2034 4250 
z
M 2034 4750 
Q 2819 4750 3233 4129 
Q 3647 3509 3647 2328 
Q 3647 1150 3233 529 
Q 2819 -91 2034 -91 
Q 1250 -91 836 529 
Q 422 1150 422 2328 
Q 422 3509 836 4129 
Q 1250 4750 2034 4750 
z
" transform="scale(0.015625)"/>
       </defs>
       <use xlink:href="#DejaVuSans-30"/>
      </g>
     </g>
    </g>
    <g id="xtick_2">
     <g id="line2d_2">
      <g>
       <use xlink:href="#m2a9a1b6da1" x="97.670171" y="98.7208" style="stroke: #000000; stroke-width: 0.8"/>
      </g>
     </g>
     <g id="text_2">
      <!-- 500 -->
      <g transform="translate(90.035171 111.79955) scale(0.08 -0.08)">
       <defs>
        <path id="DejaVuSans-35" d="M 691 4666 
L 3169 4666 
L 3169 4134 
L 1269 4134 
L 1269 2991 
Q 1406 3038 1543 3061 
Q 1681 3084 1819 3084 
Q 2600 3084 3056 2656 
Q 3513 2228 3513 1497 
Q 3513 744 3044 326 
Q 2575 -91 1722 -91 
Q 1428 -91 1123 -41 
Q 819 9 494 109 
L 494 744 
Q 775 591 1075 516 
Q 1375 441 1709 441 
Q 2250 441 2565 725 
Q 2881 1009 2881 1497 
Q 2881 1984 2565 2268 
Q 2250 2553 1709 2553 
Q 1456 2553 1204 2497 
Q 953 2441 691 2322 
L 691 4666 
z
" transform="scale(0.015625)"/>
       </defs>
       <use xlink:href="#DejaVuSans-35"/>
       <use xlink:href="#DejaVuSans-30" transform="translate(63.623047 0)"/>
       <use xlink:href="#DejaVuSans-30" transform="translate(127.246094 0)"/>
      </g>
     </g>
    </g>
    <g id="xtick_3">
     <g id="line2d_3">
      <g>
       <use xlink:href="#m2a9a1b6da1" x="144.026577" y="98.7208" style="stroke: #000000; stroke-width: 0.8"/>
      </g>
     </g>
     <g id="text_3">
      <!-- 1000 -->
      <g transform="translate(133.846577 111.79955) scale(0.08 -0.08)">
       <defs>
        <path id="DejaVuSans-31" d="M 794 531 
L 1825 531 
L 1825 4091 
L 703 3866 
L 703 4441 
L 1819 4666 
L 2450 4666 
L 2450 531 
L 3481 531 
L 3481 0 
L 794 0 
L 794 531 
z
" transform="scale(0.015625)"/>
       </defs>
       <use xlink:href="#DejaVuSans-31"/>
       <use xlink:href="#DejaVuSans-30" transform="translate(63.623047 0)"/>
       <use xlink:href="#DejaVuSans-30" transform="translate(127.246094 0)"/>
       <use xlink:href="#DejaVuSans-30" transform="translate(190.869141 0)"/>
      </g>
     </g>
    </g>
    <g id="text_4">
     <!-- $\tau / \tau_R^0$ -->
     <g transform="translate(87.370171 126.5633) scale(0.1 -0.1)">
      <defs>
       <path id="DejaVuSans-Oblique-3c4" d="M 2103 638 
Q 2188 488 2525 488 
L 2800 488 
L 2706 0 
L 2363 0 
Q 1800 0 1600 300 
Q 1403 606 1534 1269 
L 1856 2925 
L 541 2925 
L 653 3500 
L 3881 3500 
L 3769 2925 
L 2444 2925 
L 2113 1234 
Q 2025 781 2103 638 
z
" transform="scale(0.015625)"/>
       <path id="DejaVuSans-2f" d="M 1625 4666 
L 2156 4666 
L 531 -594 
L 0 -594 
L 1625 4666 
z
" transform="scale(0.015625)"/>
       <path id="DejaVuSans-Oblique-52" d="M 1613 4147 
L 1294 2491 
L 2106 2491 
Q 2584 2491 2879 2755 
Q 3175 3019 3175 3444 
Q 3175 3784 2976 3965 
Q 2778 4147 2406 4147 
L 1613 4147 
z
M 2772 2241 
Q 2972 2194 3105 2009 
Q 3238 1825 3413 1275 
L 3809 0 
L 3144 0 
L 2778 1197 
Q 2638 1659 2453 1815 
Q 2269 1972 1888 1972 
L 1191 1972 
L 806 0 
L 172 0 
L 1081 4666 
L 2503 4666 
Q 3150 4666 3495 4373 
Q 3841 4081 3841 3531 
Q 3841 3044 3547 2687 
Q 3253 2331 2772 2241 
z
" transform="scale(0.015625)"/>
      </defs>
      <use xlink:href="#DejaVuSans-Oblique-3c4" transform="translate(0 0.765625)"/>
      <use xlink:href="#DejaVuSans-2f" transform="translate(60.205078 0.765625)"/>
      <use xlink:href="#DejaVuSans-Oblique-3c4" transform="translate(93.896484 0.765625)"/>
      <use xlink:href="#DejaVuSans-30" transform="translate(158.567708 39.046875) scale(0.7)"/>
      <use xlink:href="#DejaVuSans-Oblique-52" transform="translate(154.101562 -26.578125) scale(0.7)"/>
     </g>
    </g>
   </g>
   <g id="matplotlib.axis_2">
    <g id="ytick_1">
     <g id="line2d_4">
      <defs>
       <path id="m9a41762599" d="M 0 0 
L -3.5 0 
" style="stroke: #000000; stroke-width: 0.8"/>
      </defs>
      <g>
       <use xlink:href="#m9a41762599" x="46.678125" y="98.174284" style="stroke: #000000; stroke-width: 0.8"/>
      </g>
     </g>
     <g id="text_5">
      <!-- $\mathdefault{10^{-1}}$ -->
      <g transform="translate(20.878125 101.213659) scale(0.08 -0.08)">
       <defs>
        <path id="DejaVuSans-2212" d="M 678 2272 
L 4684 2272 
L 4684 1741 
L 678 1741 
L 678 2272 
z
" transform="scale(0.015625)"/>
       </defs>
       <use xlink:href="#DejaVuSans-31" transform="translate(0 0.684375)"/>
       <use xlink:href="#DejaVuSans-30" transform="translate(63.623047 0.684375)"/>
       <use xlink:href="#DejaVuSans-2212" transform="translate(128.203125 38.965625) scale(0.7)"/>
       <use xlink:href="#DejaVuSans-31" transform="translate(186.855469 38.965625) scale(0.7)"/>
      </g>
     </g>
    </g>
    <g id="ytick_2">
     <g id="line2d_5">
      <g>
       <use xlink:href="#m9a41762599" x="46.678125" y="11.360036" style="stroke: #000000; stroke-width: 0.8"/>
      </g>
     </g>
     <g id="text_6">
      <!-- $\mathdefault{10^{0}}$ -->
      <g transform="translate(25.598125 14.399411) scale(0.08 -0.08)">
       <use xlink:href="#DejaVuSans-31" transform="translate(0 0.765625)"/>
       <use xlink:href="#DejaVuSans-30" transform="translate(63.623047 0.765625)"/>
       <use xlink:href="#DejaVuSans-30" transform="translate(128.203125 39.046875) scale(0.7)"/>
      </g>
     </g>
    </g>
    <g id="ytick_3">
     <g id="line2d_6">
      <defs>
       <path id="m0568bed953" d="M 0 0 
L -2 0 
" style="stroke: #000000; stroke-width: 0.6"/>
      </defs>
      <g>
       <use xlink:href="#m0568bed953" x="46.678125" y="72.040592" style="stroke: #000000; stroke-width: 0.6"/>
      </g>
     </g>
    </g>
    <g id="ytick_4">
     <g id="line2d_7">
      <g>
       <use xlink:href="#m0568bed953" x="46.678125" y="56.753361" style="stroke: #000000; stroke-width: 0.6"/>
      </g>
     </g>
    </g>
    <g id="ytick_5">
     <g id="line2d_8">
      <g>
       <use xlink:href="#m0568bed953" x="46.678125" y="45.906899" style="stroke: #000000; stroke-width: 0.6"/>
      </g>
     </g>
    </g>
    <g id="ytick_6">
     <g id="line2d_9">
      <g>
       <use xlink:href="#m0568bed953" x="46.678125" y="37.493729" style="stroke: #000000; stroke-width: 0.6"/>
      </g>
     </g>
    </g>
    <g id="ytick_7">
     <g id="line2d_10">
      <g>
       <use xlink:href="#m0568bed953" x="46.678125" y="30.619669" style="stroke: #000000; stroke-width: 0.6"/>
      </g>
     </g>
    </g>
    <g id="ytick_8">
     <g id="line2d_11">
      <g>
       <use xlink:href="#m0568bed953" x="46.678125" y="24.807734" style="stroke: #000000; stroke-width: 0.6"/>
      </g>
     </g>
    </g>
    <g id="ytick_9">
     <g id="line2d_12">
      <g>
       <use xlink:href="#m0568bed953" x="46.678125" y="19.773206" style="stroke: #000000; stroke-width: 0.6"/>
      </g>
     </g>
    </g>
    <g id="ytick_10">
     <g id="line2d_13">
      <g>
       <use xlink:href="#m0568bed953" x="46.678125" y="15.332438" style="stroke: #000000; stroke-width: 0.6"/>
      </g>
     </g>
    </g>
    <g id="text_7">
     <!-- $f(t)$ -->
     <g transform="translate(14.798438 60.6104) rotate(-90) scale(0.1 -0.1)">
      <defs>
       <path id="DejaVuSans-Oblique-66" d="M 3059 4863 
L 2969 4384 
L 2419 4384 
Q 2106 4384 1964 4261 
Q 1822 4138 1753 3809 
L 1691 3500 
L 2638 3500 
L 2553 3053 
L 1606 3053 
L 1013 0 
L 434 0 
L 1031 3053 
L 481 3053 
L 563 3500 
L 1113 3500 
L 1159 3744 
Q 1278 4363 1576 4613 
Q 1875 4863 2516 4863 
L 3059 4863 
z
" transform="scale(0.015625)"/>
       <path id="DejaVuSans-28" d="M 1984 4856 
Q 1566 4138 1362 3434 
Q 1159 2731 1159 2009 
Q 1159 1288 1364 580 
Q 1569 -128 1984 -844 
L 1484 -844 
Q 1016 -109 783 600 
Q 550 1309 550 2009 
Q 550 2706 781 3412 
Q 1013 4119 1484 4856 
L 1984 4856 
z
" transform="scale(0.015625)"/>
       <path id="DejaVuSans-Oblique-74" d="M 2706 3500 
L 2619 3053 
L 1472 3053 
L 1100 1153 
Q 1081 1047 1072 975 
Q 1063 903 1063 863 
Q 1063 663 1183 572 
Q 1303 481 1569 481 
L 2150 481 
L 2053 0 
L 1503 0 
Q 991 0 739 200 
Q 488 400 488 806 
Q 488 878 497 964 
Q 506 1050 525 1153 
L 897 3053 
L 409 3053 
L 500 3500 
L 978 3500 
L 1172 4494 
L 1747 4494 
L 1556 3500 
L 2706 3500 
z
" transform="scale(0.015625)"/>
       <path id="DejaVuSans-29" d="M 513 4856 
L 1013 4856 
Q 1481 4119 1714 3412 
Q 1947 2706 1947 2009 
Q 1947 1309 1714 600 
Q 1481 -109 1013 -844 
L 513 -844 
Q 928 -128 1133 580 
Q 1338 1288 1338 2009 
Q 1338 2731 1133 3434 
Q 928 4138 513 4856 
z
" transform="scale(0.015625)"/>
      </defs>
      <use xlink:href="#DejaVuSans-Oblique-66" transform="translate(0 0.015625)"/>
      <use xlink:href="#DejaVuSans-28" transform="translate(35.205078 0.015625)"/>
      <use xlink:href="#DejaVuSans-Oblique-74" transform="translate(74.21875 0.015625)"/>
      <use xlink:href="#DejaVuSans-29" transform="translate(113.427734 0.015625)"/>
     </g>
    </g>
   </g>
   <g id="line2d_14">
    <path d="M 51.313766 11.360036 
L 51.474367 85.730688 
L 51.657911 93.15966 
L 51.841455 94.131677 
L 52.047943 94.358948 
L 52.919778 94.427363 
L 52.965664 94.469886 
L 53.034493 94.420536 
L 53.149209 94.454477 
L 53.355696 94.424632 
L 53.562183 94.432244 
L 53.676898 94.37108 
L 53.699841 94.450685 
L 54.801107 94.432825 
L 54.892879 94.397505 
L 54.915822 94.422891 
L 55.12231 94.470946 
L 55.191139 94.452871 
L 55.214082 94.550556 
L 55.282911 94.483251 
L 55.305854 94.408456 
L 55.374683 94.446415 
L 55.420569 94.506642 
L 55.489398 94.439244 
L 55.627057 94.370466 
L 55.65 94.420604 
L 55.718829 94.398699 
L 55.741772 94.361401 
L 60.215664 94.409207 
L 60.284493 94.34532 
L 60.330379 94.398017 
L 60.49098 94.465273 
L 60.605695 94.448465 
L 60.766297 94.476004 
L 60.858069 94.429889 
L 60.972784 94.50004 
L 61.041613 94.457312 
L 61.087499 94.506129 
L 61.248101 94.459908 
L 61.339873 94.456287 
L 61.362816 94.512081 
L 61.431645 94.42156 
L 61.523417 94.434839 
L 61.54636 94.462813 
L 62.257594 94.467904 
L 62.372309 94.479217 
L 62.716455 94.464453 
L 62.899999 94.439756 
L 66.15791 94.413369 
L 66.22674 94.410674 
L 66.249683 94.433576 
L 66.295569 94.518856 
L 66.341455 94.430776 
L 66.433227 94.400678 
L 66.45617 94.437741 
L 66.731486 94.535935 
L 66.869145 94.41354 
L 67.029746 94.45656 
L 67.21329 94.383353 
L 67.763923 94.537305 
L 67.924524 94.419341 
L 67.947467 94.464829 
L 68.016296 94.391025 
L 70.287657 94.460318 
L 70.379429 94.447987 
L 70.517087 94.517043 
L 70.907119 94.401974 
L 70.998891 94.479901 
L 71.021834 94.463633 
L 71.136549 94.426168 
L 71.320094 94.471424 
L 71.457752 94.45434 
L 71.572467 94.530013 
L 71.733068 94.457551 
L 71.985442 94.429411 
L 72.1231 94.456458 
L 72.237815 94.410298 
L 72.421359 94.543194 
L 72.581961 94.404021 
L 72.696676 94.452119 
L 72.88022 94.412653 
L 72.971992 94.528884 
L 72.994935 94.559188 
L 73.063764 94.495252 
L 73.17848 94.463838 
L 73.224366 94.510815 
L 73.270252 94.439005 
L 73.430853 94.405658 
L 73.591454 94.495731 
L 73.683226 94.424052 
L 73.729113 94.479285 
L 73.843828 94.464624 
L 73.889714 94.404021 
L 73.958543 94.470809 
L 74.096201 94.408661 
L 74.279745 94.515742 
L 75.151581 94.413745 
L 75.22041 94.489439 
L 75.266296 94.463325 
L 75.426897 94.45984 
L 75.472783 94.525598 
L 75.541612 94.474705 
L 75.564555 94.521252 
L 75.656328 94.475081 
L 76.023416 94.414973 
L 76.206961 94.475696 
L 76.27579 94.412448 
L 76.321676 94.481781 
L 76.596992 94.430401 
L 76.757593 94.478568 
L 76.941138 94.399825 
L 77.216454 94.47491 
L 77.5606 94.436956 
L 77.583543 94.484926 
L 77.629429 94.391707 
L 77.675315 94.43262 
L 78.225948 94.410674 
L 78.363606 94.446211 
L 78.501264 94.471937 
L 78.615979 94.477269 
L 78.822467 94.484311 
L 78.960125 94.521594 
L 79.028954 94.474979 
L 79.051897 94.497031 
L 79.097783 94.540146 
L 79.166612 94.484345 
L 79.3731 94.430947 
L 79.510758 94.470433 
L 79.717245 94.369717 
L 79.809017 94.51783 
L 79.877846 94.452871 
L 79.969619 94.50175 
L 80.015505 94.431015 
L 80.13022 94.413984 
L 80.221992 94.483319 
L 80.244935 94.428353 
L 80.405536 94.440268 
L 80.497308 94.389763 
L 80.543194 94.416577 
L 80.634967 94.430879 
L 80.703796 94.463223 
L 80.726739 94.40617 
L 80.910283 94.423403 
L 81.093827 94.449797 
L 81.208543 94.458747 
L 81.369144 94.480721 
L 82.676897 94.446655 
L 82.814555 94.395391 
L 82.906327 94.479798 
L 83.043986 94.428865 
L 83.181644 94.38608 
L 83.296359 94.384273 
L 83.434017 94.456116 
L 83.663447 94.428455 
L 83.778163 94.412687 
L 83.915821 94.423813 
L 84.030536 94.474056 
L 84.328796 94.435146 
L 84.581169 94.456424 
L 84.718827 94.41726 
L 84.74177 94.451095 
L 84.833542 94.397573 
L 84.925315 94.450241 
L 85.177688 94.491525 
L 85.453004 94.388263 
L 85.613606 94.454647 
L 85.865979 94.45048 
L 85.888922 94.487661 
L 85.957751 94.424973 
L 86.049523 94.413404 
L 86.072466 94.429821 
L 86.233068 94.403304 
L 86.393669 94.365593 
L 86.531327 94.462198 
L 86.55427 94.443273 
L 87.265504 94.456355 
L 87.586707 94.4623 
L 87.770251 94.376636 
L 87.907909 94.441327 
L 91.395251 94.431323 
L 91.418194 94.51061 
L 91.509966 94.445425 
L 91.854112 94.463394 
L 91.968827 94.521217 
L 91.99177 94.492961 
L 92.175314 94.401121 
L 92.312972 94.466879 
L 92.358858 94.430742 
L 92.427688 94.472552 
L 92.863605 94.38308 
L 92.955377 94.461173 
L 92.97832 94.429991 
L 93.001263 94.401496 
L 93.070093 94.466606 
L 93.093036 94.533847 
L 93.184808 94.472962 
L 93.483067 94.477542 
L 93.574839 94.443512 
L 93.597782 94.413574 
L 93.666612 94.477371 
L 94.194301 94.415451 
L 94.309017 94.434634 
L 94.446675 94.420297 
L 94.584333 94.446757 
L 95.479111 94.415519 
L 95.524998 94.501921 
L 95.593827 94.413949 
L 95.685599 94.381989 
L 95.708542 94.394026 
L 95.960915 94.420946 
L 96.649206 94.43682 
L 96.786865 94.377352 
L 96.809808 94.417055 
L 96.947466 94.458679 
L 96.993352 94.363173 
L 97.062181 94.437707 
L 97.153953 94.454408 
L 97.176896 94.425451 
L 97.314554 94.437434 
L 97.42927 94.453998 
L 97.452213 94.388979 
L 97.521042 94.457483 
L 97.750472 94.475696 
L 97.911073 94.475218 
L 97.934016 94.515092 
L 98.002846 94.470775 
L 98.140504 94.429855 
L 98.301105 94.478362 
L 98.438763 94.473338 
L 98.507592 94.464931 
L 98.530535 94.380693 
L 98.553478 94.506573 
L 98.622307 94.447133 
L 98.71408 94.406716 
L 98.737023 94.42924 
L 98.897624 94.496278 
L 99.012339 94.501614 
L 99.149997 94.46066 
L 99.517086 94.448499 
L 99.562972 94.498741 
L 99.631801 94.450036 
L 100.021833 94.441737 
L 100.067719 94.403475 
L 100.113605 94.440063 
L 100.22832 94.451436 
L 100.365978 94.407023 
L 100.52658 94.468143 
L 100.641295 94.452666 
L 100.664238 94.477918 
L 101.031326 94.39945 
L 101.191928 94.45697 
L 101.237814 94.385228 
L 101.306643 94.479559 
L 101.467244 94.468588 
L 101.719617 94.429377 
L 101.903162 94.478328 
L 102.04082 94.377114 
L 102.063763 94.422345 
L 102.178478 94.520875 
L 102.224364 94.408422 
L 102.293193 94.476414 
L 102.430852 94.501374 
L 102.545567 94.433781 
L 102.706168 94.419751 
L 102.866769 94.444298 
L 103.899206 94.436068 
L 104.059807 94.460284 
L 104.472782 94.417191 
L 104.61044 94.445562 
L 104.748098 94.46189 
L 104.954586 94.441634 
L 105.046358 94.407501 
L 105.069301 94.453964 
L 105.252845 94.46828 
L 105.36756 94.422652 
L 105.390503 94.477303 
L 105.482276 94.409138 
L 105.505219 94.462403 
L 105.574048 94.418966 
L 105.711706 94.422447 
L 105.987022 94.4513 
L 106.009965 94.506676 
L 106.101737 94.463359 
L 106.331168 94.445152 
L 106.42294 94.445186 
L 106.445883 94.463359 
L 106.629427 94.468417 
L 107.111231 94.48202 
L 107.203003 94.53549 
L 107.248889 94.405181 
L 107.363605 94.432688 
L 108.99256 94.386115 
L 109.153161 94.441566 
L 109.566136 94.467699 
L 109.634965 94.392867 
L 109.680851 94.418181 
L 109.979111 94.484994 
L 110.116769 94.399859 
L 110.300313 94.467699 
L 110.57563 94.472894 
L 110.759174 94.3899 
L 110.896832 94.460728 
L 110.919775 94.422823 
L 111.080376 94.36348 
L 111.126263 94.46746 
L 111.195092 94.398426 
L 111.378636 94.439346 
L 111.470408 94.444059 
L 111.539237 94.531862 
L 111.585123 94.482362 
L 111.837497 94.421219 
L 111.952212 94.390138 
L 112.112813 94.4718 
L 112.365187 94.404805 
L 112.915819 94.451641 
L 113.053478 94.450172 
L 113.191136 94.471116 
L 113.328794 94.41801 
L 113.351737 94.469168 
L 113.397623 94.365763 
L 113.443509 94.408251 
L 113.489395 94.421458 
L 113.512338 94.452803 
L 113.558224 94.521183 
L 113.627054 94.460797 
L 113.649997 94.432244 
L 113.695883 94.529568 
L 113.718826 94.490738 
L 113.833541 94.487388 
L 113.90237 94.38308 
L 113.948256 94.444196 
L 114.062971 94.494021 
L 114.269459 94.417669 
L 114.453003 94.449216 
L 114.751262 94.462095 
L 114.843035 94.348079 
L 114.888921 94.396653 
L 114.980693 94.453418 
L 115.003636 94.433473 
L 115.026579 94.372818 
L 115.095408 94.485781 
L 115.18718 94.460318 
L 115.278952 94.419683 
L 115.301895 94.432074 
L 115.600155 94.361537 
L 115.737813 94.403611 
L 116.334332 94.429513 
L 116.426104 94.41685 
L 116.449047 94.463599 
L 116.517876 94.426612 
L 116.540819 94.371796 
L 116.609648 94.475149 
L 116.701421 94.436717 
L 116.839079 94.430264 
L 116.907908 94.506163 
L 116.953794 94.456014 
L 117.091452 94.442386 
L 117.22911 94.483114 
L 117.366769 94.449968 
L 117.573256 94.403202 
L 117.779743 94.483422 
L 117.825629 94.401223 
L 117.917401 94.458508 
L 118.51392 94.38233 
L 118.628636 94.492585 
L 118.651579 94.479832 
L 118.789237 94.462642 
L 119.248098 94.450924 
L 119.729901 94.495081 
L 119.982275 94.480379 
L 120.09699 94.38025 
L 120.211705 94.44703 
L 120.349363 94.409036 
L 120.418192 94.507258 
L 120.487022 94.451539 
L 120.693509 94.492653 
L 120.739395 94.423881 
L 120.808224 94.492414 
L 120.877053 94.444093 
L 120.922939 94.487251 
L 120.968825 94.510987 
L 120.991768 94.426509 
L 121.083541 94.468212 
L 121.129427 94.536038 
L 121.175313 94.442488 
L 122.047148 94.437502 
L 122.161863 94.384 
L 122.43718 94.502435 
L 122.528952 94.41139 
L 122.551895 94.424086 
L 122.735439 94.471868 
L 123.010756 94.460182 
L 123.171357 94.487319 
L 123.263129 94.495047 
L 123.286072 94.448396 
L 124.157907 94.47785 
L 124.272623 94.497646 
L 124.47911 94.460694 
L 124.593825 94.429479 
L 124.685597 94.42354 
L 124.70854 94.498809 
L 124.777369 94.400371 
L 125.259173 94.475457 
L 125.488604 94.429343 
L 126.383382 94.429718 
L 126.406325 94.365013 
L 126.498097 94.42255 
L 126.612812 94.394708 
L 126.704585 94.511705 
L 126.750471 94.443171 
L 127.186388 94.44867 
L 127.209331 94.513347 
L 127.27816 94.415758 
L 127.622306 94.436273 
L 127.759964 94.381 
L 127.782907 94.407159 
L 127.943509 94.481918 
L 127.966452 94.419171 
L 128.081167 94.488516 
L 128.264711 94.466742 
L 128.310597 94.36273 
L 128.379426 94.43303 
L 128.517084 94.443752 
L 128.6318 94.491217 
L 128.654743 94.453896 
L 128.838287 94.3428 
L 128.953002 94.455911 
L 128.975945 94.437093 
L 129.182433 94.435215 
L 129.205376 94.516084 
L 129.297148 94.460318 
L 129.526578 94.464624 
L 130.581958 94.452085 
L 130.604901 94.385808 
L 130.67373 94.496689 
L 130.788445 94.48496 
L 130.971989 94.393344 
L 131.109648 94.484618 
L 131.270249 94.457278 
L 131.407907 94.419341 
L 131.614394 94.422277 
L 131.706167 94.466845 
L 131.72911 94.417328 
L 131.981483 94.478841 
L 132.073255 94.481712 
L 132.210913 94.425451 
L 132.968034 94.49556 
L 133.105692 94.472313 
L 133.335122 94.406477 
L 133.495723 94.474432 
L 133.587496 94.414871 
L 133.610439 94.475423 
L 134.390502 94.50671 
L 134.52816 94.449319 
L 134.803477 94.424768 
L 134.964078 94.467631 
L 135.193508 94.480345 
L 135.308223 94.428216 
L 135.331166 94.496928 
L 135.422939 94.429718 
L 135.514711 94.513005 
L 135.560597 94.492414 
L 135.698255 94.424017 
L 135.721198 94.457517 
L 135.835913 94.476106 
L 135.858856 94.425622 
L 136.11123 94.511637 
L 136.134173 94.436581 
L 136.157116 94.382705 
L 136.225945 94.458098 
L 136.638919 94.411117 
L 136.799521 94.443137 
L 137.006008 94.463086 
L 137.143666 94.450412 
L 137.235438 94.447679 
L 137.258381 94.517145 
L 137.327211 94.436751 
L 137.533698 94.381852 
L 137.648413 94.460284 
L 137.671356 94.402793 
L 137.717242 94.498262 
L 137.740185 94.473543 
L 137.969616 94.46787 
L 138.244932 94.403407 
L 138.290818 94.480995 
L 138.359647 94.451095 
L 138.657907 94.442044 
L 138.772622 94.432757 
L 138.795565 94.375784 
L 138.864394 94.468758 
L 138.979109 94.393344 
L 139.002052 94.427226 
L 139.024995 94.488003 
L 139.093824 94.419171 
L 139.254426 94.423915 
L 139.460913 94.493748 
L 139.598571 94.432483 
L 139.6674 94.360685 
L 139.736229 94.45089 
L 139.919774 94.429343 
L 140.034489 94.469852 
L 140.057432 94.418386 
L 140.240976 94.455604 
L 140.355691 94.485781 
L 140.378634 94.463667 
L 140.837495 94.453349 
L 140.975153 94.444981 
L 141.02104 94.459054 
L 141.043983 94.42354 
L 141.089869 94.370091 
L 141.158698 94.425997 
L 141.388128 94.492414 
L 141.456957 94.452632 
L 141.502843 94.490568 
L 141.617558 94.440371 
L 141.640502 94.400234 
L 141.732274 94.460831 
L 141.915818 94.35227 
L 142.053476 94.467699 
L 142.099362 94.407603 
L 142.145248 94.367501 
L 142.191134 94.447269 
L 142.374679 94.495184 
L 142.53528 94.455433 
L 142.672938 94.545111 
L 142.879426 94.440405 
L 143.06297 94.45943 
L 143.177685 94.372989 
L 143.200628 94.396789 
L 143.338286 94.422857 
L 143.475944 94.430196 
L 143.728318 94.454716 
L 143.957748 94.461446 
L 144.003634 94.431186 
L 144.026577 94.450856 
" clip-path="url(#p4d5c3a4f51)" style="fill: none; stroke: #a62098; stroke-width: 1.3; stroke-linecap: square"/>
   </g>
   <g id="line2d_15">
    <path d="M 51.313766 11.360036 
L 51.520253 39.929113 
L 51.818512 55.674382 
L 52.185601 63.944932 
L 52.621519 69.033408 
L 53.103322 71.964226 
L 53.585126 73.664904 
L 54.181645 74.698598 
L 54.732278 75.248166 
L 55.053481 75.418233 
L 56.200632 75.672902 
L 57.049525 75.644142 
L 58.104904 75.793428 
L 59.160284 75.770362 
L 59.825632 75.721153 
L 60.330379 75.801009 
L 61.569303 75.805279 
L 62.30348 75.859938 
L 63.611233 75.767698 
L 64.804271 75.921508 
L 65.377847 75.815196 
L 65.767879 75.857559 
L 66.272626 75.764452 
L 66.708543 75.832098 
L 68.016296 75.805217 
L 68.383385 75.783475 
L 68.658701 75.791013 
L 69.438765 75.756088 
L 69.989398 75.823156 
L 70.471201 75.8018 
L 70.700632 75.8063 
L 71.228322 75.790117 
L 72.627847 75.965162 
L 73.545568 75.859416 
L 73.843828 75.841584 
L 74.050315 75.800863 
L 74.876264 75.852303 
L 77.537657 75.899511 
L 77.79003 75.880617 
L 78.248891 75.896483 
L 78.684809 75.906863 
L 79.006011 75.92947 
L 79.441929 75.873166 
L 80.244935 75.887046 
L 81.208543 75.858123 
L 81.919777 75.886879 
L 83.273416 75.825907 
L 83.525789 75.793657 
L 84.672941 75.816342 
L 85.315346 75.9422 
L 85.613606 75.887798 
L 86.393669 75.906215 
L 86.760757 75.841021 
L 86.990188 75.850614 
L 88.573257 75.902832 
L 88.963289 75.81828 
L 89.697466 75.899574 
L 90.110441 75.830806 
L 90.569302 75.779062 
L 91.624681 75.890178 
L 92.358858 75.878363 
L 93.115979 75.936973 
L 94.263131 75.831973 
L 95.249681 75.862545 
L 95.502054 75.776293 
L 99.195883 75.797822 
L 99.517086 75.777355 
L 104.013921 75.975038 
L 104.472782 75.933796 
L 105.872307 75.946611 
L 106.078794 75.980939 
L 106.790029 76.025731 
L 107.157117 76.007318 
L 108.23544 75.961376 
L 108.418984 75.940234 
L 108.648415 75.946862 
L 109.153161 75.970602 
L 109.887339 75.97803 
L 110.346199 75.952048 
L 112.08987 75.958259 
L 112.525788 75.94682 
L 112.84699 75.92274 
L 113.237022 75.92437 
L 113.627054 75.86265 
L 114.040028 75.881869 
L 114.292402 75.893351 
L 115.737813 75.871037 
L 116.036072 75.858811 
L 116.311389 75.840271 
L 116.701421 75.863588 
L 117.596199 76.010962 
L 118.05506 76.009496 
L 118.51392 76.030299 
L 118.903952 76.00581 
L 119.752844 76.073618 
L 120.601737 76.026339 
L 125.511547 75.841876 
L 125.809806 75.844566 
L 126.06218 75.848382 
L 126.475154 75.810362 
L 128.218825 75.924851 
L 128.700629 75.83362 
L 129.91661 75.929888 
L 130.168983 75.93528 
L 130.604901 75.968823 
L 131.224363 75.980855 
L 132.004426 75.996199 
L 132.48623 75.878112 
L 133.128635 75.88951 
L 133.54161 75.876547 
L 134.987021 75.899741 
L 135.28528 75.921905 
L 135.881799 76.013203 
L 136.271831 75.891848 
L 137.579584 75.910414 
L 138.061388 75.968698 
L 138.818508 75.889656 
L 139.002052 75.885752 
L 139.415027 75.968175 
L 140.631008 75.876317 
L 141.066926 75.871705 
L 141.938761 75.864903 
L 142.23702 75.890971 
L 142.672938 75.909411 
L 143.338286 75.853951 
L 144.026577 75.893101 
L 144.026577 75.893101 
" clip-path="url(#p4d5c3a4f51)" style="fill: none; stroke: #e76f5a; stroke-width: 1.3; stroke-linecap: square"/>
   </g>
   <g id="line2d_16">
    <path d="M 51.313766 11.360036 
L 51.49731 15.245115 
L 52.139715 23.309099 
L 52.873892 29.861514 
L 53.676898 35.099404 
L 54.548734 39.388122 
L 55.535284 43.146525 
L 56.544778 46.183064 
L 57.623101 48.7764 
L 58.884968 51.237791 
L 60.307436 53.481236 
L 61.706961 55.205071 
L 63.0606 56.528657 
L 64.483069 57.645826 
L 65.92848 58.631854 
L 67.603322 59.528552 
L 71.411866 60.968878 
L 74.578005 61.821484 
L 85.085916 63.613308 
L 86.646042 63.798059 
L 90.225156 64.103893 
L 96.924523 64.413215 
L 98.805852 64.602169 
L 102.407909 64.709773 
L 106.721199 64.785744 
L 111.240978 64.944862 
L 120.464079 65.505539 
L 122.253635 65.593046 
L 125.511547 65.790641 
L 127.255217 65.692686 
L 132.440344 65.511088 
L 136.799521 65.445178 
L 142.53528 65.166877 
L 144.026577 65.227691 
L 144.026577 65.227691 
" clip-path="url(#p4d5c3a4f51)" style="fill: none; stroke: #fcce25; stroke-width: 1.3; stroke-linecap: square"/>
   </g>
   <g id="patch_3">
    <path d="M 46.678125 98.7208 
L 46.678125 7.2 
" style="fill: none; stroke: #000000; stroke-width: 0.8; stroke-linejoin: miter; stroke-linecap: square"/>
   </g>
   <g id="patch_4">
    <path d="M 148.662218 98.7208 
L 148.662218 7.2 
" style="fill: none; stroke: #000000; stroke-width: 0.8; stroke-linejoin: miter; stroke-linecap: square"/>
   </g>
   <g id="patch_5">
    <path d="M 46.678125 98.7208 
L 148.662218 98.7208 
" style="fill: none; stroke: #000000; stroke-width: 0.8; stroke-linejoin: miter; stroke-linecap: square"/>
   </g>
   <g id="patch_6">
    <path d="M 46.678125 7.2 
L 148.662218 7.2 
" style="fill: none; stroke: #000000; stroke-width: 0.8; stroke-linejoin: miter; stroke-linecap: square"/>
   </g>
   <g id="legend_1">
    <g id="patch_7">
     <path d="M 156.3019 71.77415 
L 205.7419 71.77415 
Q 207.3419 71.77415 207.3419 70.17415 
L 207.3419 35.74665 
Q 207.3419 34.14665 205.7419 34.14665 
L 156.3019 34.14665 
Q 154.7019 34.14665 154.7019 35.74665 
L 154.7019 70.17415 
Q 154.7019 71.77415 156.3019 71.77415 
z
" style="fill: #ffffff; stroke: #cccccc; stroke-linejoin: miter"/>
    </g>
    <g id="line2d_17">
     <path d="M 157.9019 40.6254 
L 165.9019 40.6254 
L 173.9019 40.6254 
" style="fill: none; stroke: #a62098; stroke-width: 1.3; stroke-linecap: square"/>
    </g>
    <g id="text_8">
     <!-- 12$\mathrm{k}_\mathrm{B}T$ -->
     <g transform="translate(180.3019 43.4254) scale(0.08 -0.08)">
      <defs>
       <path id="DejaVuSans-32" d="M 1228 531 
L 3431 531 
L 3431 0 
L 469 0 
L 469 531 
Q 828 903 1448 1529 
Q 2069 2156 2228 2338 
Q 2531 2678 2651 2914 
Q 2772 3150 2772 3378 
Q 2772 3750 2511 3984 
Q 2250 4219 1831 4219 
Q 1534 4219 1204 4116 
Q 875 4013 500 3803 
L 500 4441 
Q 881 4594 1212 4672 
Q 1544 4750 1819 4750 
Q 2544 4750 2975 4387 
Q 3406 4025 3406 3419 
Q 3406 3131 3298 2873 
Q 3191 2616 2906 2266 
Q 2828 2175 2409 1742 
Q 1991 1309 1228 531 
z
" transform="scale(0.015625)"/>
       <path id="DejaVuSans-6b" d="M 581 4863 
L 1159 4863 
L 1159 1991 
L 2875 3500 
L 3609 3500 
L 1753 1863 
L 3688 0 
L 2938 0 
L 1159 1709 
L 1159 0 
L 581 0 
L 581 4863 
z
" transform="scale(0.015625)"/>
       <path id="DejaVuSans-42" d="M 1259 2228 
L 1259 519 
L 2272 519 
Q 2781 519 3026 730 
Q 3272 941 3272 1375 
Q 3272 1813 3026 2020 
Q 2781 2228 2272 2228 
L 1259 2228 
z
M 1259 4147 
L 1259 2741 
L 2194 2741 
Q 2656 2741 2882 2914 
Q 3109 3088 3109 3444 
Q 3109 3797 2882 3972 
Q 2656 4147 2194 4147 
L 1259 4147 
z
M 628 4666 
L 2241 4666 
Q 2963 4666 3353 4366 
Q 3744 4066 3744 3513 
Q 3744 3084 3544 2831 
Q 3344 2578 2956 2516 
Q 3422 2416 3680 2098 
Q 3938 1781 3938 1306 
Q 3938 681 3513 340 
Q 3088 0 2303 0 
L 628 0 
L 628 4666 
z
" transform="scale(0.015625)"/>
       <path id="DejaVuSans-Oblique-54" d="M 378 4666 
L 4325 4666 
L 4225 4134 
L 2559 4134 
L 1759 0 
L 1125 0 
L 1925 4134 
L 275 4134 
L 378 4666 
z
" transform="scale(0.015625)"/>
      </defs>
      <use xlink:href="#DejaVuSans-31" transform="translate(0 0.015625)"/>
      <use xlink:href="#DejaVuSans-32" transform="translate(63.623047 0.015625)"/>
      <use xlink:href="#DejaVuSans-6b" transform="translate(127.246094 0.015625)"/>
      <use xlink:href="#DejaVuSans-42" transform="translate(186.113281 -16.390625) scale(0.7)"/>
      <use xlink:href="#DejaVuSans-Oblique-54" transform="translate(236.870117 0.015625)"/>
     </g>
    </g>
    <g id="line2d_18">
     <path d="M 157.9019 52.3679 
L 165.9019 52.3679 
L 173.9019 52.3679 
" style="fill: none; stroke: #e76f5a; stroke-width: 1.3; stroke-linecap: square"/>
    </g>
    <g id="text_9">
     <!-- 15$\mathrm{k}_\mathrm{B}T$ -->
     <g transform="translate(180.3019 55.1679) scale(0.08 -0.08)">
      <use xlink:href="#DejaVuSans-31" transform="translate(0 0.015625)"/>
      <use xlink:href="#DejaVuSans-35" transform="translate(63.623047 0.015625)"/>
      <use xlink:href="#DejaVuSans-6b" transform="translate(127.246094 0.015625)"/>
      <use xlink:href="#DejaVuSans-42" transform="translate(186.113281 -16.390625) scale(0.7)"/>
      <use xlink:href="#DejaVuSans-Oblique-54" transform="translate(236.870117 0.015625)"/>
     </g>
    </g>
    <g id="line2d_19">
     <path d="M 157.9019 64.1104 
L 165.9019 64.1104 
L 173.9019 64.1104 
" style="fill: none; stroke: #fcce25; stroke-width: 1.3; stroke-linecap: square"/>
    </g>
    <g id="text_10">
     <!-- 18$\mathrm{k}_\mathrm{B}T$ -->
     <g transform="translate(180.3019 66.9104) scale(0.08 -0.08)">
      <defs>
       <path id="DejaVuSans-38" d="M 2034 2216 
Q 1584 2216 1326 1975 
Q 1069 1734 1069 1313 
Q 1069 891 1326 650 
Q 1584 409 2034 409 
Q 2484 409 2743 651 
Q 3003 894 3003 1313 
Q 3003 1734 2745 1975 
Q 2488 2216 2034 2216 
z
M 1403 2484 
Q 997 2584 770 2862 
Q 544 3141 544 3541 
Q 544 4100 942 4425 
Q 1341 4750 2034 4750 
Q 2731 4750 3128 4425 
Q 3525 4100 3525 3541 
Q 3525 3141 3298 2862 
Q 3072 2584 2669 2484 
Q 3125 2378 3379 2068 
Q 3634 1759 3634 1313 
Q 3634 634 3220 271 
Q 2806 -91 2034 -91 
Q 1263 -91 848 271 
Q 434 634 434 1313 
Q 434 1759 690 2068 
Q 947 2378 1403 2484 
z
M 1172 3481 
Q 1172 3119 1398 2916 
Q 1625 2713 2034 2713 
Q 2441 2713 2670 2916 
Q 2900 3119 2900 3481 
Q 2900 3844 2670 4047 
Q 2441 4250 2034 4250 
Q 1625 4250 1398 4047 
Q 1172 3844 1172 3481 
z
" transform="scale(0.015625)"/>
      </defs>
      <use xlink:href="#DejaVuSans-31" transform="translate(0 0.015625)"/>
      <use xlink:href="#DejaVuSans-38" transform="translate(63.623047 0.015625)"/>
      <use xlink:href="#DejaVuSans-6b" transform="translate(127.246094 0.015625)"/>
      <use xlink:href="#DejaVuSans-42" transform="translate(186.113281 -16.390625) scale(0.7)"/>
      <use xlink:href="#DejaVuSans-Oblique-54" transform="translate(236.870117 0.015625)"/>
     </g>
    </g>
   </g>
  </g>
 </g>
 <defs>
  <clipPath id="p4d5c3a4f51">
   <rect x="46.678125" y="7.2" width="101.984093" height="91.5208"/>
  </clipPath>
 </defs>
</svg>
