<?xml version="1.0" encoding="utf-8" standalone="no"?>
<!DOCTYPE svg PUBLIC "-//W3C//DTD SVG 1.1//EN"
  "http://www.w3.org/Graphics/SVG/1.1/DTD/svg11.dtd">
<svg xmlns:xlink="http://www.w3.org/1999/xlink" width="214.5419pt" height="136.5633pt" viewBox="0 0 214.5419 136.5633" xmlns="http://www.w3.org/2000/svg" version="1.1">
 <metadata>
  <rdf:RDF xmlns:dc="http://purl.org/dc/elements/1.1/" xmlns:cc="http://creativecommons.org/ns#" xmlns:rdf="http://www.w3.org/1999/02/22-rdf-syntax-ns#">
   <cc:Work>
    <dc:type rdf:resource="http://purl.org/dc/dcmitype/StillImage"/>
    <dc:date>2026-05-14T20:26:35.629379</dc:date>
    <dc:format>image/svg+xml</dc:format>
    <dc:creator>
     <cc:Agent>
      <dc:title>Matplotlib v3.10.8, https://matplotlib.org/</dc:title>
     </cc:Agent>
    </dc:creator>
   </cc:Work>
  </rdf:RDF>
 </metadata>
 <defs>
  <style type="text/css">*{stroke-linejoin: round; stroke-linecap: butt}</style>
 </defs>
 <g id="figure_1">
  <g id="patch_1">
   <path d="M 0 136.5633 
L 214.5419 136.5633 
L 214.5419 0 
L 0 0 
z
" style="fill: #ffffff"/>
  </g>
  <g id="axes_1">
   <g id="patch_2">
    <path d="M 46.678125 98.7208 
L 148.662218 98.7208 
L 148.662218 7.2 
L 46.678125 7.2 
z
" style="fill: #ffffff"/>
   </g>
   <g id="matplotlib.axis_1">
    <g id="xtick_1">
     <g id="line2d_1">
      <defs>
       <path id="m49137c54a5" d="M 0 0 
L 0 3.5 
" style="stroke: #000000; stroke-width: 0.8"/>
      </defs>
      <g>
       <use xlink:href="#m49137c54a5" x="51.313766" y="98.7208" style="stroke: #000000; stroke-width: 0.8"/>
      </g>
     </g>
     <g id="text_1">
      <!-- 0 -->
      <g transform="translate(48.768766 111.79955) scale(0.08 -0.08)">
       <defs>
        <path id="DejaVuSans-30" d="M 2034 4250 
Q 1547 4250 1301 3770 
Q 1056 3291 1056 2328 
Q 1056 1369 1301 889 
Q 1547 409 2034 409 
Q 2525 409 2770 889 
Q 3016 1369 3016 2328 
Q 3016 3291 2770 3770 
Q 2525 4250 2034 4250 
z
M 2034 4750 
Q 2819 4750 3233 4129 
Q 3647 3509 3647 2328 
Q 3647 1150 3233 529 
Q 2819 -91 2034 -91 
Q 1250 -91 836 529 
Q 422 1150 422 2328 
Q 422 3509 836 4129 
Q 1250 4750 2034 4750 
z
" transform="scale(0.015625)"/>
       </defs>
       <use xlink:href="#DejaVuSans-30"/>
      </g>
     </g>
    </g>
    <g id="xtick_2">
     <g id="line2d_2">
      <g>
       <use xlink:href="#m49137c54a5" x="97.670171" y="98.7208" style="stroke: #000000; stroke-width: 0.8"/>
      </g>
     </g>
     <g id="text_2">
      <!-- 500 -->
      <g transform="translate(90.035171 111.79955) scale(0.08 -0.08)">
       <defs>
        <path id="DejaVuSans-35" d="M 691 4666 
L 3169 4666 
L 3169 4134 
L 1269 4134 
L 1269 2991 
Q 1406 3038 1543 3061 
Q 1681 3084 1819 3084 
Q 2600 3084 3056 2656 
Q 3513 2228 3513 1497 
Q 3513 744 3044 326 
Q 2575 -91 1722 -91 
Q 1428 -91 1123 -41 
Q 819 9 494 109 
L 494 744 
Q 775 591 1075 516 
Q 1375 441 1709 441 
Q 2250 441 2565 725 
Q 2881 1009 2881 1497 
Q 2881 1984 2565 2268 
Q 2250 2553 1709 2553 
Q 1456 2553 1204 2497 
Q 953 2441 691 2322 
L 691 4666 
z
" transform="scale(0.015625)"/>
       </defs>
       <use xlink:href="#DejaVuSans-35"/>
       <use xlink:href="#DejaVuSans-30" transform="translate(63.623047 0)"/>
       <use xlink:href="#DejaVuSans-30" transform="translate(127.246094 0)"/>
      </g>
     </g>
    </g>
    <g id="xtick_3">
     <g id="line2d_3">
      <g>
       <use xlink:href="#m49137c54a5" x="144.026577" y="98.7208" style="stroke: #000000; stroke-width: 0.8"/>
      </g>
     </g>
     <g id="text_3">
      <!-- 1000 -->
      <g transform="translate(133.846577 111.79955) scale(0.08 -0.08)">
       <defs>
        <path id="DejaVuSans-31" d="M 794 531 
L 1825 531 
L 1825 4091 
L 703 3866 
L 703 4441 
L 1819 4666 
L 2450 4666 
L 2450 531 
L 3481 531 
L 3481 0 
L 794 0 
L 794 531 
z
" transform="scale(0.015625)"/>
       </defs>
       <use xlink:href="#DejaVuSans-31"/>
       <use xlink:href="#DejaVuSans-30" transform="translate(63.623047 0)"/>
       <use xlink:href="#DejaVuSans-30" transform="translate(127.246094 0)"/>
       <use xlink:href="#DejaVuSans-30" transform="translate(190.869141 0)"/>
      </g>
     </g>
    </g>
    <g id="text_4">
     <!-- $\tau / \tau_R^0$ -->
     <g transform="translate(87.370171 126.5633) scale(0.1 -0.1)">
      <defs>
       <path id="DejaVuSans-Oblique-3c4" d="M 2103 638 
Q 2188 488 2525 488 
L 2800 488 
L 2706 0 
L 2363 0 
Q 1800 0 1600 300 
Q 1403 606 1534 1269 
L 1856 2925 
L 541 2925 
L 653 3500 
L 3881 3500 
L 3769 2925 
L 2444 2925 
L 2113 1234 
Q 2025 781 2103 638 
z
" transform="scale(0.015625)"/>
       <path id="DejaVuSans-2f" d="M 1625 4666 
L 2156 4666 
L 531 -594 
L 0 -594 
L 1625 4666 
z
" transform="scale(0.015625)"/>
       <path id="DejaVuSans-Oblique-52" d="M 1613 4147 
L 1294 2491 
L 2106 2491 
Q 2584 2491 2879 2755 
Q 3175 3019 3175 3444 
Q 3175 3784 2976 3965 
Q 2778 4147 2406 4147 
L 1613 4147 
z
M 2772 2241 
Q 2972 2194 3105 2009 
Q 3238 1825 3413 1275 
L 3809 0 
L 3144 0 
L 2778 1197 
Q 2638 1659 2453 1815 
Q 2269 1972 1888 1972 
L 1191 1972 
L 806 0 
L 172 0 
L 1081 4666 
L 2503 4666 
Q 3150 4666 3495 4373 
Q 3841 4081 3841 3531 
Q 3841 3044 3547 2687 
Q 3253 2331 2772 2241 
z
" transform="scale(0.015625)"/>
      </defs>
      <use xlink:href="#DejaVuSans-Oblique-3c4" transform="translate(0 0.765625)"/>
      <use xlink:href="#DejaVuSans-2f" transform="translate(60.205078 0.765625)"/>
      <use xlink:href="#DejaVuSans-Oblique-3c4" transform="translate(93.896484 0.765625)"/>
      <use xlink:href="#DejaVuSans-30" transform="translate(158.567708 39.046875) scale(0.7)"/>
      <use xlink:href="#DejaVuSans-Oblique-52" transform="translate(154.101562 -26.578125) scale(0.7)"/>
     </g>
    </g>
   </g>
   <g id="matplotlib.axis_2">
    <g id="ytick_1">
     <g id="line2d_4">
      <defs>
       <path id="mea854579e5" d="M 0 0 
L -3.5 0 
" style="stroke: #000000; stroke-width: 0.8"/>
      </defs>
      <g>
       <use xlink:href="#mea854579e5" x="46.678125" y="84.200852" style="stroke: #000000; stroke-width: 0.8"/>
      </g>
     </g>
     <g id="text_5">
      <!-- $\mathdefault{10^{-1}}$ -->
      <g transform="translate(20.878125 87.240227) scale(0.08 -0.08)">
       <defs>
        <path id="DejaVuSans-2212" d="M 678 2272 
L 4684 2272 
L 4684 1741 
L 678 1741 
L 678 2272 
z
" transform="scale(0.015625)"/>
       </defs>
       <use xlink:href="#DejaVuSans-31" transform="translate(0 0.684375)"/>
       <use xlink:href="#DejaVuSans-30" transform="translate(63.623047 0.684375)"/>
       <use xlink:href="#DejaVuSans-2212" transform="translate(128.203125 38.965625) scale(0.7)"/>
       <use xlink:href="#DejaVuSans-31" transform="translate(186.855469 38.965625) scale(0.7)"/>
      </g>
     </g>
    </g>
    <g id="ytick_2">
     <g id="line2d_5">
      <g>
       <use xlink:href="#mea854579e5" x="46.678125" y="11.360036" style="stroke: #000000; stroke-width: 0.8"/>
      </g>
     </g>
     <g id="text_6">
      <!-- $\mathdefault{10^{0}}$ -->
      <g transform="translate(25.598125 14.399411) scale(0.08 -0.08)">
       <use xlink:href="#DejaVuSans-31" transform="translate(0 0.765625)"/>
       <use xlink:href="#DejaVuSans-30" transform="translate(63.623047 0.765625)"/>
       <use xlink:href="#DejaVuSans-30" transform="translate(128.203125 39.046875) scale(0.7)"/>
      </g>
     </g>
    </g>
    <g id="ytick_3">
     <g id="line2d_6">
      <defs>
       <path id="m5d663807a6" d="M 0 0 
L -2 0 
" style="stroke: #000000; stroke-width: 0.6"/>
      </defs>
      <g>
       <use xlink:href="#m5d663807a6" x="46.678125" y="95.484037" style="stroke: #000000; stroke-width: 0.6"/>
      </g>
     </g>
    </g>
    <g id="ytick_4">
     <g id="line2d_7">
      <g>
       <use xlink:href="#m5d663807a6" x="46.678125" y="91.259856" style="stroke: #000000; stroke-width: 0.6"/>
      </g>
     </g>
    </g>
    <g id="ytick_5">
     <g id="line2d_8">
      <g>
       <use xlink:href="#m5d663807a6" x="46.678125" y="87.533865" style="stroke: #000000; stroke-width: 0.6"/>
      </g>
     </g>
    </g>
    <g id="ytick_6">
     <g id="line2d_9">
      <g>
       <use xlink:href="#m5d663807a6" x="46.678125" y="62.273582" style="stroke: #000000; stroke-width: 0.6"/>
      </g>
     </g>
    </g>
    <g id="ytick_7">
     <g id="line2d_10">
      <g>
       <use xlink:href="#m5d663807a6" x="46.678125" y="49.446951" style="stroke: #000000; stroke-width: 0.6"/>
      </g>
     </g>
    </g>
    <g id="ytick_8">
     <g id="line2d_11">
      <g>
       <use xlink:href="#m5d663807a6" x="46.678125" y="40.346311" style="stroke: #000000; stroke-width: 0.6"/>
      </g>
     </g>
    </g>
    <g id="ytick_9">
     <g id="line2d_12">
      <g>
       <use xlink:href="#m5d663807a6" x="46.678125" y="33.287307" style="stroke: #000000; stroke-width: 0.6"/>
      </g>
     </g>
    </g>
    <g id="ytick_10">
     <g id="line2d_13">
      <g>
       <use xlink:href="#m5d663807a6" x="46.678125" y="27.51968" style="stroke: #000000; stroke-width: 0.6"/>
      </g>
     </g>
    </g>
    <g id="ytick_11">
     <g id="line2d_14">
      <g>
       <use xlink:href="#m5d663807a6" x="46.678125" y="22.643221" style="stroke: #000000; stroke-width: 0.6"/>
      </g>
     </g>
    </g>
    <g id="ytick_12">
     <g id="line2d_15">
      <g>
       <use xlink:href="#m5d663807a6" x="46.678125" y="18.419041" style="stroke: #000000; stroke-width: 0.6"/>
      </g>
     </g>
    </g>
    <g id="ytick_13">
     <g id="line2d_16">
      <g>
       <use xlink:href="#m5d663807a6" x="46.678125" y="14.693049" style="stroke: #000000; stroke-width: 0.6"/>
      </g>
     </g>
    </g>
    <g id="text_7">
     <!-- $C_b(t)$ -->
     <g transform="translate(14.798438 64.7104) rotate(-90) scale(0.1 -0.1)">
      <defs>
       <path id="DejaVuSans-Oblique-43" d="M 4447 4306 
L 4319 3641 
Q 4019 3944 3683 4091 
Q 3347 4238 2956 4238 
Q 2422 4238 2017 3981 
Q 1613 3725 1319 3200 
Q 1131 2863 1032 2486 
Q 934 2109 934 1728 
Q 934 1091 1264 756 
Q 1594 422 2222 422 
Q 2656 422 3056 561 
Q 3456 700 3834 978 
L 3688 231 
Q 3316 72 2936 -9 
Q 2556 -91 2175 -91 
Q 1278 -91 773 396 
Q 269 884 269 1753 
Q 269 2309 461 2846 
Q 653 3384 1013 3828 
Q 1394 4300 1883 4525 
Q 2372 4750 3022 4750 
Q 3422 4750 3780 4639 
Q 4138 4528 4447 4306 
z
" transform="scale(0.015625)"/>
       <path id="DejaVuSans-Oblique-62" d="M 3169 2138 
Q 3169 2591 2961 2847 
Q 2753 3103 2388 3103 
Q 2122 3103 1889 2973 
Q 1656 2844 1484 2597 
Q 1303 2338 1198 1995 
Q 1094 1653 1094 1313 
Q 1094 881 1298 636 
Q 1503 391 1863 391 
Q 2134 391 2365 517 
Q 2597 644 2772 891 
Q 2950 1147 3059 1487 
Q 3169 1828 3169 2138 
z
M 1381 2969 
Q 1594 3256 1914 3420 
Q 2234 3584 2584 3584 
Q 3122 3584 3439 3221 
Q 3756 2859 3756 2241 
Q 3756 1734 3570 1259 
Q 3384 784 3041 416 
Q 2816 172 2522 40 
Q 2228 -91 1906 -91 
Q 1566 -91 1316 65 
Q 1066 222 909 531 
L 806 0 
L 231 0 
L 1178 4863 
L 1753 4863 
L 1381 2969 
z
" transform="scale(0.015625)"/>
       <path id="DejaVuSans-28" d="M 1984 4856 
Q 1566 4138 1362 3434 
Q 1159 2731 1159 2009 
Q 1159 1288 1364 580 
Q 1569 -128 1984 -844 
L 1484 -844 
Q 1016 -109 783 600 
Q 550 1309 550 2009 
Q 550 2706 781 3412 
Q 1013 4119 1484 4856 
L 1984 4856 
z
" transform="scale(0.015625)"/>
       <path id="DejaVuSans-Oblique-74" d="M 2706 3500 
L 2619 3053 
L 1472 3053 
L 1100 1153 
Q 1081 1047 1072 975 
Q 1063 903 1063 863 
Q 1063 663 1183 572 
Q 1303 481 1569 481 
L 2150 481 
L 2053 0 
L 1503 0 
Q 991 0 739 200 
Q 488 400 488 806 
Q 488 878 497 964 
Q 506 1050 525 1153 
L 897 3053 
L 409 3053 
L 500 3500 
L 978 3500 
L 1172 4494 
L 1747 4494 
L 1556 3500 
L 2706 3500 
z
" transform="scale(0.015625)"/>
       <path id="DejaVuSans-29" d="M 513 4856 
L 1013 4856 
Q 1481 4119 1714 3412 
Q 1947 2706 1947 2009 
Q 1947 1309 1714 600 
Q 1481 -109 1013 -844 
L 513 -844 
Q 928 -128 1133 580 
Q 1338 1288 1338 2009 
Q 1338 2731 1133 3434 
Q 928 4138 513 4856 
z
" transform="scale(0.015625)"/>
      </defs>
      <use xlink:href="#DejaVuSans-Oblique-43" transform="translate(0 0.125)"/>
      <use xlink:href="#DejaVuSans-Oblique-62" transform="translate(69.824219 -16.28125) scale(0.7)"/>
      <use xlink:href="#DejaVuSans-28" transform="translate(116.992188 0.125)"/>
      <use xlink:href="#DejaVuSans-Oblique-74" transform="translate(156.005859 0.125)"/>
      <use xlink:href="#DejaVuSans-29" transform="translate(195.214844 0.125)"/>
     </g>
    </g>
   </g>
   <g id="line2d_17">
    <path d="M 51.313766 11.360036 
L 51.451424 11.413842 
L 144.026577 11.414238 
L 144.026577 11.414238 
" clip-path="url(#pedd543ef54)" style="fill: none; stroke: #41049d; stroke-width: 1.3; stroke-linecap: square"/>
   </g>
   <g id="line2d_18">
    <path d="M 51.313766 11.360036 
L 51.428481 13.080759 
L 75.862815 13.080512 
L 78.432435 13.081103 
L 87.517878 13.081554 
L 90.385757 13.081066 
L 96.167403 13.081243 
L 100.251263 13.0813 
L 109.887339 13.080018 
L 114.407117 13.080141 
L 137.717242 13.081504 
L 144.026577 13.080936 
L 144.026577 13.080936 
" clip-path="url(#pedd543ef54)" style="fill: none; stroke: #8f0da4; stroke-width: 1.3; stroke-linecap: square"/>
   </g>
   <g id="line2d_19">
    <path d="M 51.313766 11.360036 
L 51.451424 36.036118 
L 51.612025 36.238945 
L 52.415031 36.246857 
L 52.598576 36.254938 
L 56.246519 36.260908 
L 56.498892 36.250421 
L 57.898417 36.243648 
L 58.173734 36.250887 
L 58.97674 36.254431 
L 65.538448 36.259997 
L 65.951423 36.260609 
L 66.524999 36.263848 
L 68.635758 36.248372 
L 70.907119 36.25482 
L 71.274208 36.264592 
L 71.457752 36.241918 
L 71.641296 36.256245 
L 72.559018 36.245065 
L 73.568511 36.239918 
L 73.843828 36.264133 
L 74.187973 36.246746 
L 75.197467 36.252311 
L 76.413448 36.246392 
L 76.73465 36.259851 
L 77.101739 36.248532 
L 78.615979 36.250574 
L 78.937182 36.246197 
L 79.166612 36.254361 
L 79.3731 36.244863 
L 79.671359 36.255355 
L 80.451422 36.251901 
L 80.65791 36.244947 
L 82.286865 36.244231 
L 82.631011 36.246552 
L 83.043986 36.253812 
L 83.204587 36.234827 
L 83.365188 36.248546 
L 85.843036 36.250373 
L 86.233068 36.24544 
L 87.059017 36.245155 
L 87.380219 36.255807 
L 88.573257 36.242502 
L 88.986232 36.250137 
L 89.399207 36.244398 
L 90.110441 36.25678 
L 90.93639 36.246121 
L 91.257593 36.251255 
L 91.831169 36.249178 
L 92.152371 36.256731 
L 92.74889 36.242842 
L 93.161865 36.258531 
L 93.620725 36.253854 
L 99.585915 36.242224 
L 100.113605 36.249428 
L 100.503637 36.253305 
L 101.054269 36.241467 
L 105.734649 36.254785 
L 105.964079 36.237049 
L 106.216453 36.257447 
L 107.340661 36.24635 
L 108.441927 36.25195 
L 108.717244 36.248295 
L 109.956168 36.251186 
L 110.323256 36.231063 
L 110.483858 36.249803 
L 112.181642 36.244245 
L 117.825629 36.251082 
L 118.146832 36.248031 
L 119.271041 36.234473 
L 119.431642 36.255369 
L 119.844617 36.246517 
L 120.464079 36.257614 
L 120.716452 36.25384 
L 122.184806 36.252881 
L 122.758382 36.260199 
L 123.056642 36.248254 
L 123.309015 36.254869 
L 123.561389 36.252249 
L 123.905534 36.23891 
L 124.24968 36.255793 
L 124.662654 36.26104 
L 124.823256 36.254445 
L 125.029743 36.245384 
L 125.190344 36.256926 
L 125.718034 36.248379 
L 128.172939 36.250206 
L 128.356483 36.250359 
L 128.677686 36.242564 
L 129.067717 36.251575 
L 144.026577 36.246739 
L 144.026577 36.246739 
" clip-path="url(#pedd543ef54)" style="fill: none; stroke: #cc4778; stroke-width: 1.3; stroke-linecap: square"/>
   </g>
   <g id="line2d_20">
    <path d="M 51.313766 11.360036 
L 51.474367 54.064935 
L 51.703797 60.068356 
L 51.956171 61.441364 
L 52.460917 61.913864 
L 52.942721 62.102728 
L 53.01155 62.035074 
L 53.080379 62.081355 
L 53.30981 62.047054 
L 53.53924 62.042469 
L 53.768671 62.107259 
L 54.021044 62.083761 
L 54.365189 62.193332 
L 54.456962 62.12824 
L 54.59462 62.12624 
L 55.535284 62.150526 
L 55.672943 62.126839 
L 56.223575 62.141059 
L 56.430063 62.101344 
L 56.590664 62.146178 
L 56.843037 62.151283 
L 56.957753 62.18923 
L 57.210126 62.138979 
L 57.370727 62.121124 
L 57.531329 62.15456 
L 57.760759 62.154292 
L 57.92136 62.197924 
L 58.884968 62.159855 
L 59.114398 62.131137 
L 59.252056 62.130318 
L 59.756803 62.162456 
L 59.894461 62.169865 
L 60.078006 62.175824 
L 60.284493 62.120195 
L 60.445094 62.120919 
L 60.766297 62.167027 
L 60.995727 62.180603 
L 61.271044 62.140476 
L 61.385759 62.153032 
L 61.523417 62.164032 
L 61.752847 62.138349 
L 61.913449 62.129137 
L 62.211708 62.200953 
L 62.60174 62.07873 
L 62.762341 62.107637 
L 64.712499 62.114293 
L 64.827214 62.096562 
L 65.010759 62.172371 
L 65.309018 62.129169 
L 65.859651 62.122856 
L 65.997309 62.093935 
L 66.341455 62.178647 
L 66.479113 62.12813 
L 66.662657 62.152827 
L 66.800315 62.134979 
L 67.144461 62.171977 
L 67.350948 62.127972 
L 67.74098 62.203605 
L 67.97041 62.122981 
L 68.199841 62.119518 
L 68.360442 62.166191 
L 68.4981 62.109667 
L 69.117562 62.13416 
L 69.163448 62.086245 
L 69.232277 62.132334 
L 69.415822 62.209697 
L 69.576423 62.156467 
L 69.943511 62.151787 
L 70.104113 62.152133 
L 70.264714 62.171567 
L 70.448258 62.113522 
L 70.677689 62.173964 
L 70.907119 62.136192 
L 71.182435 62.156577 
L 71.388923 62.187511 
L 71.59541 62.150117 
L 72.260758 62.149597 
L 72.581961 62.131042 
L 72.719619 62.172545 
L 73.017878 62.1312 
L 73.201423 62.11338 
L 73.316138 62.134428 
L 73.63734 62.13331 
L 73.797942 62.145485 
L 144.026577 62.095398 
L 144.026577 62.095398 
" clip-path="url(#pedd543ef54)" style="fill: none; stroke: #f2844b; stroke-width: 1.3; stroke-linecap: square"/>
   </g>
   <g id="line2d_21">
    <path d="M 51.313766 11.360036 
L 51.474367 47.879081 
L 51.749683 65.837576 
L 52.116772 75.67572 
L 52.621519 82.945381 
L 52.988607 85.993887 
L 53.814557 89.19428 
L 53.860443 89.243452 
L 54.043987 89.618289 
L 54.59462 90.442259 
L 54.663449 90.501205 
L 55.007595 91.024434 
L 55.053481 91.011523 
L 55.099367 91.083265 
L 55.305854 91.228819 
L 55.420569 91.226946 
L 55.489398 91.184964 
L 55.535284 91.232651 
L 55.764715 91.393493 
L 55.925316 91.658595 
L 55.994145 91.685068 
L 56.085917 91.84101 
L 56.131803 91.794843 
L 56.315348 91.841135 
L 56.453006 91.994281 
L 56.475949 91.937061 
L 56.93481 91.83855 
L 56.957753 91.921568 
L 57.049525 91.887818 
L 57.347784 92.000765 
L 57.485442 91.880058 
L 57.508386 91.939934 
L 57.875474 92.271289 
L 58.013132 92.204684 
L 58.036075 92.161429 
L 58.081961 92.279007 
L 58.127848 92.203421 
L 58.380221 92.402405 
L 58.403164 92.347856 
L 58.471993 92.434444 
L 58.540822 92.514596 
L 58.724366 92.507347 
L 58.930854 92.465214 
L 59.068512 92.616122 
L 59.114398 92.561517 
L 59.320885 92.511173 
L 59.527373 92.769521 
L 59.73386 92.859228 
L 59.779746 92.892716 
L 59.802689 92.816125 
L 59.848575 92.754942 
L 59.894461 92.847139 
L 60.055063 93.047423 
L 60.100949 93.023098 
L 60.881012 92.861744 
L 61.01867 93.019728 
L 61.064556 92.911729 
L 61.156328 92.807831 
L 61.179271 92.867165 
L 61.202214 92.883486 
L 61.225157 92.836863 
L 61.31693 92.753271 
L 61.339873 92.806473 
L 61.500474 93.032326 
L 61.615189 93.053805 
L 61.798733 93.207294 
L 61.936392 93.184278 
L 62.280537 93.128806 
L 62.372309 93.142753 
L 62.60174 93.329072 
L 62.739398 93.315241 
L 62.83117 93.290919 
L 62.968828 93.40304 
L 63.175316 93.255861 
L 63.267088 93.392396 
L 63.312974 93.367174 
L 63.427689 93.40511 
L 63.450632 93.352493 
L 63.817721 93.063005 
L 64.070094 93.258317 
L 64.207752 93.361671 
L 64.41424 93.521426 
L 64.574841 93.49975 
L 64.64367 93.427728 
L 64.758385 93.306461 
L 64.918986 93.552642 
L 65.079588 93.407505 
L 65.148417 93.409007 
L 65.17136 93.361164 
L 65.286075 93.206386 
L 65.354904 93.356461 
L 65.446676 93.552306 
L 65.492562 93.455287 
L 65.607278 93.371456 
L 65.767879 93.485424 
L 65.905537 93.447511 
L 66.249683 93.473081 
L 66.341455 93.549045 
L 66.364398 93.528044 
L 66.387341 93.480843 
L 66.433227 93.531646 
L 66.524999 93.622248 
L 66.547942 93.59041 
L 66.937974 93.458979 
L 67.098575 93.703048 
L 67.259176 93.616049 
L 67.328005 93.675588 
L 67.396834 93.604093 
L 67.603322 93.588771 
L 67.74098 93.421156 
L 67.672151 93.626416 
L 67.763923 93.455338 
L 67.878638 93.487919 
L 68.176898 93.470812 
L 68.337499 93.593713 
L 68.429271 93.649274 
L 68.452214 93.66792 
L 68.4981 93.587779 
L 68.612815 93.485849 
L 68.842246 93.655923 
L 68.979904 93.586715 
L 69.094619 93.695228 
L 69.117562 93.664566 
L 69.301106 93.670459 
L 69.507594 93.897503 
L 69.599366 93.816398 
L 69.645252 93.849461 
L 69.805853 93.823795 
L 69.828796 93.880766 
L 69.920568 93.835242 
L 70.012341 93.812544 
L 70.035284 93.734436 
L 70.104113 93.853959 
L 70.195885 93.926297 
L 70.218828 93.907941 
L 70.241771 93.82765 
L 70.287657 93.937088 
L 70.333543 93.899111 
L 70.379429 93.953467 
L 70.448258 93.878099 
L 70.471201 93.957614 
L 70.54003 93.845564 
L 70.562973 93.922808 
L 70.700632 93.754296 
L 70.769461 93.817402 
L 70.861233 93.896257 
L 70.884176 93.817929 
L 71.090663 93.683716 
L 71.159492 93.627285 
L 71.205379 93.704394 
L 71.228322 93.662271 
L 71.297151 93.758973 
L 71.320094 93.716396 
L 71.549524 93.635366 
L 71.847784 93.892986 
L 71.870727 93.964798 
L 71.916613 93.861411 
L 71.939556 93.859136 
L 72.168986 93.86832 
L 72.329587 93.84462 
L 72.35253 93.920287 
L 72.444302 93.855358 
L 73.293195 93.944779 
L 73.476739 94.158169 
L 73.545568 94.209938 
L 73.614397 94.082208 
L 73.752056 94.140055 
L 73.774999 94.086869 
L 73.889714 94.012338 
L 73.912657 94.047416 
L 74.004429 94.113364 
L 74.050315 94.068873 
L 74.187973 94.001034 
L 74.348575 94.08817 
L 74.417404 94.113265 
L 74.440347 94.042195 
L 74.600948 94.067577 
L 74.92215 93.91547 
L 75.656328 94.192693 
L 75.793986 93.96488 
L 75.816929 93.994519 
L 76.000473 94.13928 
L 76.046359 94.040192 
L 76.229904 93.964018 
L 76.413448 94.058357 
L 76.459334 94.021364 
L 76.50522 94.111352 
L 76.642878 93.993726 
L 76.711707 93.930917 
L 76.757593 93.957041 
L 77.055853 94.003479 
L 77.078796 93.96208 
L 77.124682 94.052974 
L 77.147625 94.023513 
L 77.193511 93.999624 
L 77.216454 93.899257 
L 77.308226 93.995683 
L 77.652372 93.950372 
L 77.698258 93.858298 
L 77.767087 93.944633 
L 77.927688 94.041004 
L 77.950631 94.01525 
L 78.134176 93.996882 
L 78.31772 94.197687 
L 78.707752 94.27219 
L 78.799524 94.381351 
L 78.822467 94.291703 
L 79.051897 94.086536 
L 79.143669 94.026051 
L 79.464872 93.95075 
L 80.038448 93.868607 
L 80.13022 93.94354 
L 80.267878 93.980265 
L 80.451422 93.977757 
L 80.612024 94.09573 
L 80.703796 94.01066 
L 80.726739 94.075529 
L 80.818511 94.012097 
L 80.956169 94.020605 
L 80.979112 94.0639 
L 81.002055 93.990704 
L 81.024998 93.986643 
L 81.231486 93.857779 
L 81.277372 93.828589 
L 81.300315 93.899872 
L 81.460916 94.026737 
L 81.64446 94.159222 
L 81.667403 94.138418 
L 81.828005 94.047774 
L 81.965663 94.154724 
L 82.103321 94.188558 
L 82.286865 94.010285 
L 82.40158 94.068139 
L 82.424524 93.965879 
L 82.516296 94.059826 
L 82.608068 94.020346 
L 82.631011 93.973986 
L 82.69984 94.019556 
L 82.975156 94.185787 
L 83.043986 94.091396 
L 83.181644 94.036587 
L 83.250473 94.054084 
L 83.273416 93.978476 
L 83.388131 93.844131 
L 83.411074 93.907485 
L 83.594618 93.947991 
L 83.663447 94.009686 
L 83.709334 93.965745 
L 83.892878 93.806985 
L 83.938764 93.660172 
L 84.007593 93.792845 
L 84.076422 93.667442 
L 84.122308 93.756628 
L 84.21408 93.710982 
L 84.237023 93.603859 
L 84.328796 93.700669 
L 84.351739 93.682017 
L 84.374682 93.730592 
L 84.535283 93.960185 
L 84.787656 94.083349 
L 84.833542 94.088836 
L 84.856485 93.994748 
L 84.879428 93.945877 
L 84.948258 94.023233 
L 85.292403 93.931886 
L 85.315346 93.857856 
L 85.384175 93.960409 
L 85.407118 93.925462 
L 85.453004 93.963734 
L 85.475947 93.879778 
L 85.544777 93.804877 
L 85.590663 93.883464 
L 85.613606 93.981014 
L 85.705378 93.899549 
L 85.728321 93.786129 
L 85.79715 93.857959 
L 85.934808 94.00806 
L 85.957751 93.936365 
L 86.210125 93.766056 
L 86.278954 93.638026 
L 86.347783 93.68562 
L 86.577213 93.898217 
L 86.600156 93.880036 
L 86.646042 93.958083 
L 86.875473 93.994782 
L 87.013131 93.962644 
L 87.059017 94.036371 
L 87.08196 94.079515 
L 87.104903 94.002841 
L 87.150789 93.990768 
L 87.471992 94.052694 
L 87.655536 94.296887 
L 87.678479 94.238427 
L 88.206169 94.025067 
L 88.229112 93.969713 
L 88.274998 94.091154 
L 88.412656 94.137907 
L 88.481485 94.133269 
L 88.504428 94.182776 
L 88.642086 94.327784 
L 88.66503 94.298523 
L 88.802688 94.278201 
L 89.009175 93.874117 
L 89.055061 93.90632 
L 89.100947 93.84039 
L 89.12389 93.810067 
L 89.169776 93.881424 
L 89.307435 94.024234 
L 89.353321 93.99323 
L 89.513922 93.989367 
L 89.697466 94.083924 
L 89.789238 94.035413 
L 89.926897 94.164427 
L 90.202213 94.383721 
L 90.225156 94.325989 
L 90.316928 94.219038 
L 90.477529 94.020048 
L 90.844618 93.965198 
L 90.959333 93.816321 
L 91.005219 93.909046 
L 91.532909 94.155287 
L 91.601738 94.249034 
L 91.647624 94.173306 
L 91.785283 93.985704 
L 91.808226 94.000426 
L 92.106485 94.289366 
L 92.129428 94.25548 
L 92.657118 94.104719 
L 92.817719 94.339956 
L 93.001263 94.181488 
L 93.184808 94.044929 
L 93.345409 94.04685 
L 93.368352 94.004812 
L 93.391295 94.094393 
L 93.414238 94.098321 
L 93.483067 94.168129 
L 93.50601 94.124921 
L 93.574839 94.007167 
L 93.643669 94.075516 
L 93.666612 94.11764 
L 93.712498 94.013663 
L 93.80427 93.97677 
L 93.827213 93.998792 
L 94.079586 94.168394 
L 94.240187 93.953071 
L 94.286074 93.984867 
L 94.423732 93.996308 
L 94.584333 94.169074 
L 94.630219 94.17426 
L 94.653162 94.087608 
L 94.699048 93.949046 
L 94.767877 93.985622 
L 94.928479 94.019293 
L 95.524998 93.911652 
L 95.61677 93.984479 
L 95.731485 93.904832 
L 95.8462 93.921509 
L 95.983858 93.741261 
L 96.006801 93.755259 
L 96.305061 93.981967 
L 96.396833 93.972875 
L 96.419776 93.998395 
L 96.511548 93.959526 
L 96.557434 93.830596 
L 96.60332 93.995377 
L 96.649206 93.941637 
L 96.740978 94.017761 
L 96.786865 93.958647 
L 96.855694 94.015285 
L 96.970409 94.064937 
L 96.993352 94.044048 
L 97.245725 93.914146 
L 97.475156 94.001224 
L 97.521042 93.951715 
L 97.566928 94.023604 
L 97.819301 94.171845 
L 97.842244 94.131073 
L 98.255219 94.174693 
L 98.41582 94.11812 
L 98.782909 94.012714 
L 99.012339 94.291298 
L 99.035282 94.221665 
L 99.081168 94.283426 
L 99.241769 94.108626 
L 99.562972 94.214223 
L 99.677687 94.158013 
L 99.815345 94.090436 
L 99.975947 94.128441 
L 100.090662 94.167444 
L 100.136548 94.24059 
L 100.159491 94.192042 
L 100.182434 94.247613 
L 100.251263 94.125159 
L 100.618352 94.073934 
L 100.664238 94.014025 
L 100.687181 94.122466 
L 100.710124 94.08833 
L 100.801896 94.156444 
L 100.847782 94.091794 
L 101.008383 93.959793 
L 101.191928 94.073649 
L 101.214871 94.047748 
L 101.260757 94.145612 
L 101.421358 94.28303 
L 101.536073 94.217175 
L 101.559016 94.236289 
L 101.604902 94.291224 
L 101.650788 94.2386 
L 101.673731 94.164124 
L 101.719617 94.3181 
L 101.788447 94.372602 
L 101.834333 94.273077 
L 101.903162 94.173197 
L 101.949048 94.274695 
L 102.476738 94.150837 
L 102.729111 94.373758 
L 102.774997 94.283352 
L 102.958541 94.263397 
L 103.073257 94.371127 
L 103.233858 94.048293 
L 103.692719 94.208215 
L 103.922149 93.963208 
L 103.945092 93.995903 
L 104.059807 94.25355 
L 104.128636 94.223337 
L 104.220408 94.202929 
L 104.243352 94.228752 
L 104.38101 94.281908 
L 104.426896 94.131389 
L 104.495725 94.203211 
L 104.587497 94.260058 
L 104.61044 94.250151 
L 105.046358 94.279711 
L 105.13813 94.090337 
L 105.184016 94.139756 
L 105.321674 93.889381 
L 105.36756 94.035236 
L 105.459332 94.125397 
L 105.596991 94.247504 
L 105.918193 93.849285 
L 105.941136 93.886657 
L 105.987022 93.755186 
L 106.835915 94.041513 
L 106.927687 94.133459 
L 106.95063 94.092227 
L 107.340661 94.259145 
L 107.363605 94.179168 
L 107.432434 94.05846 
L 107.47832 94.108808 
L 107.501263 94.211449 
L 107.593035 94.146916 
L 107.661864 94.142021 
L 107.753636 94.020851 
L 107.776579 94.07951 
L 108.533699 93.98788 
L 108.671358 94.004251 
L 109.336706 93.960848 
L 109.451421 94.069803 
L 109.474364 94.023828 
L 109.566136 93.93992 
L 109.589079 93.991303 
L 109.634965 94.034238 
L 109.910282 93.774558 
L 109.979111 93.834954 
L 110.002054 93.774982 
L 110.070883 93.69103 
L 110.116769 93.772717 
L 110.231484 93.869552 
L 110.254427 93.828074 
L 110.323256 93.895844 
L 110.460914 94.009819 
L 110.644459 93.811511 
L 110.667402 93.830828 
L 110.759174 93.810496 
L 110.782117 93.848366 
L 110.965661 93.957459 
L 111.011547 93.873744 
L 111.080376 93.823687 
L 111.126263 93.842582 
L 111.240978 94.052102 
L 111.309807 94.170418 
L 111.355693 94.093165 
L 111.401579 94.021179 
L 111.470408 94.08926 
L 111.653952 94.003328 
L 111.676895 94.089489 
L 111.768668 94.041582 
L 111.883383 94.175075 
L 111.906326 94.227554 
L 111.975155 94.138595 
L 112.112813 94.119168 
L 112.135756 94.186116 
L 112.181642 94.092356 
L 112.204585 94.036695 
L 112.250471 94.154715 
L 112.273414 94.146921 
L 112.38813 94.233535 
L 112.411073 94.199036 
L 112.663446 94.068312 
L 112.801104 94.038625 
L 113.007592 94.233518 
L 113.053478 94.151591 
L 113.237022 93.928594 
L 113.328794 93.995364 
L 113.581167 94.3072 
L 113.604111 94.266606 
L 113.971199 94.167288 
L 114.1318 94.321655 
L 114.292402 94.229039 
L 114.453003 94.25591 
L 114.544775 94.322909 
L 114.590661 94.312887 
L 114.774205 93.987587 
L 114.843035 94.075516 
L 115.026579 94.25232 
L 115.095408 94.201379 
L 115.18718 94.08872 
L 115.210123 94.151769 
L 115.233066 94.163547 
L 115.256009 94.069841 
L 115.439553 94.037701 
L 115.577212 94.234829 
L 115.600155 94.047835 
L 115.691927 94.117073 
L 115.71487 94.159881 
L 115.760756 94.111058 
L 115.9443 93.851804 
L 116.013129 93.754022 
L 116.081959 93.796345 
L 116.104902 93.853718 
L 116.150788 93.739837 
L 116.196674 93.794057 
L 116.311389 93.788583 
L 116.357275 93.76235 
L 116.380218 93.840085 
L 116.563762 94.02309 
L 116.609648 93.936068 
L 116.678477 93.984428 
L 116.701421 93.949562 
L 116.747307 94.058689 
L 116.77025 94.010022 
L 116.953794 94.048763 
L 117.068509 94.063075 
L 117.091452 94.009651 
L 117.137338 93.962424 
L 117.160281 94.065373 
L 117.183224 94.043029 
L 117.687971 94.477636 
L 117.710914 94.351321 
L 117.802686 94.442109 
L 117.871515 94.560764 
L 117.917401 94.487181 
L 118.215661 94.233226 
L 118.28449 94.208432 
L 118.307433 94.225925 
L 118.51392 94.431345 
L 118.720408 94.21553 
L 118.835123 94.217344 
L 118.858066 94.132394 
L 118.926895 94.196229 
L 119.04161 94.321572 
L 119.202212 93.968735 
L 119.271041 94.09541 
L 119.454585 94.421083 
L 119.729901 93.979118 
L 119.752844 94.021709 
L 120.074047 94.051597 
L 120.119933 93.971574 
L 120.165819 94.017058 
L 120.234648 94.144668 
L 120.280534 94.117203 
L 120.303477 94.077012 
L 120.349363 94.123384 
L 120.372306 94.194341 
L 120.441136 94.053536 
L 120.670566 94.181059 
L 120.693509 94.135317 
L 120.831167 93.982962 
L 121.3818 94.263732 
L 121.427686 94.218304 
L 121.496515 94.239826 
L 121.519458 94.181892 
L 121.588287 94.213502 
L 121.725946 94.420642 
L 121.817718 94.294632 
L 122.047148 93.801941 
L 122.483066 94.29421 
L 122.528952 94.100051 
L 122.620724 94.156981 
L 122.712496 94.009474 
L 122.735439 93.918042 
L 122.804268 93.982734 
L 122.96487 94.278597 
L 123.148414 94.130276 
L 123.331958 93.974732 
L 123.676104 94.379797 
L 123.72199 94.322739 
L 123.744933 94.265232 
L 123.813762 94.31783 
L 123.859648 94.394814 
L 123.905534 94.314133 
L 124.066135 94.106471 
L 124.089078 94.133095 
L 124.112021 94.168593 
L 124.134964 94.086813 
L 124.180851 94.035395 
L 124.226737 94.138777 
L 124.341452 94.196159 
L 124.616768 94.181267 
L 124.70854 94.262149 
L 124.731483 94.192888 
L 124.846199 94.191985 
L 124.892085 94.12909 
L 124.937971 94.223728 
L 125.23623 94.167405 
L 125.282116 94.087435 
L 125.328002 94.20496 
L 125.350945 94.167119 
L 125.580376 93.934984 
L 125.603319 93.875101 
L 125.649205 93.97512 
L 125.832749 94.174043 
L 125.855692 94.136932 
L 126.131009 94.049403 
L 126.153952 94.112269 
L 126.222781 94.015837 
L 126.29161 94.00272 
L 126.314553 94.100285 
L 126.406325 94.01837 
L 126.475154 93.957054 
L 126.52104 93.988466 
L 126.888129 93.922946 
L 127.117559 94.232132 
L 127.163445 94.146119 
L 127.34699 93.851225 
L 127.57642 94.195053 
L 127.668192 94.152471 
L 127.80585 94.25405 
L 127.966452 94.021658 
L 127.989395 94.06393 
L 128.127053 94.069552 
L 128.540028 94.061402 
L 128.907116 94.270333 
L 129.113603 93.960146 
L 129.136546 93.98132 
L 129.343034 94.1953 
L 129.38892 94.271794 
L 129.434806 94.15868 
L 129.595407 94.029283 
L 129.687179 94.125215 
L 129.733065 94.087431 
L 129.893667 93.903285 
L 130.123097 94.196294 
L 130.14604 94.151327 
L 130.260755 94.043054 
L 130.37547 94.153086 
L 130.421357 94.047006 
L 130.513129 94.098857 
L 130.696673 94.326625 
L 130.742559 94.24793 
L 130.811388 94.309447 
L 130.971989 94.022486 
L 131.132591 94.029357 
L 131.270249 93.924202 
L 131.293192 93.936524 
L 131.499679 94.149381 
L 131.568508 94.033461 
L 131.683224 93.822019 
L 131.72911 93.874117 
L 131.820882 93.990324 
L 131.935597 94.101552 
L 131.866768 93.938138 
L 131.95854 94.059372 
L 132.027369 94.002099 
L 132.073255 94.022352 
L 132.371515 94.324046 
L 132.394458 94.306111 
L 132.830375 94.015035 
L 132.853318 94.091383 
L 132.876261 94.108743 
L 132.899204 94.02177 
L 132.990977 93.858187 
L 133.01392 93.926542 
L 133.105692 93.982501 
L 133.128635 93.931111 
L 133.289236 93.738533 
L 133.725154 93.752358 
L 133.862812 93.873207 
L 134.069299 94.051394 
L 134.229901 93.804928 
L 134.29873 93.770602 
L 134.413445 93.961275 
L 134.551103 93.856702 
L 134.574046 93.897538 
L 134.688761 94.030884 
L 134.734647 93.882171 
L 134.872306 93.918877 
L 135.009964 94.024268 
L 135.032907 93.961865 
L 135.28528 93.746882 
L 135.308223 93.797292 
L 135.399996 94.012455 
L 135.445882 93.932759 
L 135.537654 93.934924 
L 135.560597 93.958996 
L 135.721198 93.858376 
L 135.81297 93.704676 
L 135.858856 93.821432 
L 135.973571 93.836962 
L 136.11123 94.045969 
L 136.157116 93.976705 
L 136.203002 94.023435 
L 136.225945 94.062245 
L 136.271831 94.004031 
L 136.317717 93.906909 
L 136.386546 93.950096 
L 136.478318 94.130909 
L 136.524204 94.073498 
L 136.57009 94.029913 
L 136.593033 94.083194 
L 136.753635 94.203536 
L 137.028951 94.05113 
L 137.051894 94.119964 
L 137.533698 94.127042 
L 137.671356 94.023668 
L 137.786071 94.025995 
L 137.8549 93.829528 
L 137.92373 93.898801 
L 138.084331 94.064699 
L 138.130217 93.983044 
L 138.15316 93.904832 
L 138.221989 94.026495 
L 138.290818 94.116242 
L 138.336704 94.027065 
L 138.543192 94.292451 
L 138.589078 94.319076 
L 138.634964 94.232045 
L 138.772622 93.998425 
L 138.841451 94.066168 
L 138.933223 93.993575 
L 139.093824 93.877472 
L 139.254426 94.030215 
L 139.277369 93.951125 
L 139.323255 94.056685 
L 139.346198 94.05862 
L 139.6674 93.911686 
L 139.805059 93.895836 
L 139.896831 93.927097 
L 140.011546 93.807264 
L 140.080375 93.732324 
L 140.103318 93.781413 
L 140.19509 93.744264 
L 140.286862 93.836172 
L 140.309805 93.768817 
L 140.562179 93.872103 
L 140.653951 93.78675 
L 140.676894 93.830819 
L 140.72278 93.91753 
L 140.745723 94.009375 
L 140.814552 93.885677 
L 140.837495 93.938112 
L 140.929267 94.001629 
L 141.02104 93.692905 
L 141.066926 93.778977 
L 141.296356 93.895273 
L 141.319299 93.847929 
L 141.571672 93.723991 
L 141.594615 93.778835 
L 141.663445 93.724115 
L 141.709331 93.774387 
L 141.801103 93.685385 
L 142.053476 93.89722 
L 142.099362 93.796135 
L 142.168191 93.900486 
L 142.328793 93.890331 
L 142.466451 94.10253 
L 142.512337 94.025395 
L 142.879426 94.313205 
L 142.925312 94.20542 
L 142.994141 93.980855 
L 143.06297 93.995765 
L 143.108856 94.067201 
L 143.154742 93.934975 
L 143.361229 93.997546 
L 143.636546 94.277684 
L 143.659489 94.203883 
L 143.797147 94.178327 
L 143.843033 94.244114 
L 143.888919 94.151569 
L 144.003634 93.871364 
L 144.026577 93.975602 
" clip-path="url(#pedd543ef54)" style="fill: none; stroke: #fcce25; stroke-width: 1.3; stroke-linecap: square"/>
   </g>
   <g id="patch_3">
    <path d="M 46.678125 98.7208 
L 46.678125 7.2 
" style="fill: none; stroke: #000000; stroke-width: 0.8; stroke-linejoin: miter; stroke-linecap: square"/>
   </g>
   <g id="patch_4">
    <path d="M 148.662218 98.7208 
L 148.662218 7.2 
" style="fill: none; stroke: #000000; stroke-width: 0.8; stroke-linejoin: miter; stroke-linecap: square"/>
   </g>
   <g id="patch_5">
    <path d="M 46.678125 98.7208 
L 148.662218 98.7208 
" style="fill: none; stroke: #000000; stroke-width: 0.8; stroke-linejoin: miter; stroke-linecap: square"/>
   </g>
   <g id="patch_6">
    <path d="M 46.678125 7.2 
L 148.662218 7.2 
" style="fill: none; stroke: #000000; stroke-width: 0.8; stroke-linejoin: miter; stroke-linecap: square"/>
   </g>
   <g id="legend_1">
    <g id="patch_7">
     <path d="M 156.3019 83.51665 
L 205.7419 83.51665 
Q 207.3419 83.51665 207.3419 81.91665 
L 207.3419 24.00415 
Q 207.3419 22.40415 205.7419 22.40415 
L 156.3019 22.40415 
Q 154.7019 22.40415 154.7019 24.00415 
L 154.7019 81.91665 
Q 154.7019 83.51665 156.3019 83.51665 
z
" style="fill: #ffffff; stroke: #cccccc; stroke-linejoin: miter"/>
    </g>
    <g id="line2d_22">
     <path d="M 157.9019 28.8829 
L 165.9019 28.8829 
L 173.9019 28.8829 
" style="fill: none; stroke: #41049d; stroke-width: 1.3; stroke-linecap: square"/>
    </g>
    <g id="text_8">
     <!-- 0$\mathrm{k}_\mathrm{B}T$ -->
     <g transform="translate(180.3019 31.6829) scale(0.08 -0.08)">
      <defs>
       <path id="DejaVuSans-6b" d="M 581 4863 
L 1159 4863 
L 1159 1991 
L 2875 3500 
L 3609 3500 
L 1753 1863 
L 3688 0 
L 2938 0 
L 1159 1709 
L 1159 0 
L 581 0 
L 581 4863 
z
" transform="scale(0.015625)"/>
       <path id="DejaVuSans-42" d="M 1259 2228 
L 1259 519 
L 2272 519 
Q 2781 519 3026 730 
Q 3272 941 3272 1375 
Q 3272 1813 3026 2020 
Q 2781 2228 2272 2228 
L 1259 2228 
z
M 1259 4147 
L 1259 2741 
L 2194 2741 
Q 2656 2741 2882 2914 
Q 3109 3088 3109 3444 
Q 3109 3797 2882 3972 
Q 2656 4147 2194 4147 
L 1259 4147 
z
M 628 4666 
L 2241 4666 
Q 2963 4666 3353 4366 
Q 3744 4066 3744 3513 
Q 3744 3084 3544 2831 
Q 3344 2578 2956 2516 
Q 3422 2416 3680 2098 
Q 3938 1781 3938 1306 
Q 3938 681 3513 340 
Q 3088 0 2303 0 
L 628 0 
L 628 4666 
z
" transform="scale(0.015625)"/>
       <path id="DejaVuSans-Oblique-54" d="M 378 4666 
L 4325 4666 
L 4225 4134 
L 2559 4134 
L 1759 0 
L 1125 0 
L 1925 4134 
L 275 4134 
L 378 4666 
z
" transform="scale(0.015625)"/>
      </defs>
      <use xlink:href="#DejaVuSans-30" transform="translate(0 0.015625)"/>
      <use xlink:href="#DejaVuSans-6b" transform="translate(63.623047 0.015625)"/>
      <use xlink:href="#DejaVuSans-42" transform="translate(122.490234 -16.390625) scale(0.7)"/>
      <use xlink:href="#DejaVuSans-Oblique-54" transform="translate(173.24707 0.015625)"/>
     </g>
    </g>
    <g id="line2d_23">
     <path d="M 157.9019 40.6254 
L 165.9019 40.6254 
L 173.9019 40.6254 
" style="fill: none; stroke: #8f0da4; stroke-width: 1.3; stroke-linecap: square"/>
    </g>
    <g id="text_9">
     <!-- 6$\mathrm{k}_\mathrm{B}T$ -->
     <g transform="translate(180.3019 43.4254) scale(0.08 -0.08)">
      <defs>
       <path id="DejaVuSans-36" d="M 2113 2584 
Q 1688 2584 1439 2293 
Q 1191 2003 1191 1497 
Q 1191 994 1439 701 
Q 1688 409 2113 409 
Q 2538 409 2786 701 
Q 3034 994 3034 1497 
Q 3034 2003 2786 2293 
Q 2538 2584 2113 2584 
z
M 3366 4563 
L 3366 3988 
Q 3128 4100 2886 4159 
Q 2644 4219 2406 4219 
Q 1781 4219 1451 3797 
Q 1122 3375 1075 2522 
Q 1259 2794 1537 2939 
Q 1816 3084 2150 3084 
Q 2853 3084 3261 2657 
Q 3669 2231 3669 1497 
Q 3669 778 3244 343 
Q 2819 -91 2113 -91 
Q 1303 -91 875 529 
Q 447 1150 447 2328 
Q 447 3434 972 4092 
Q 1497 4750 2381 4750 
Q 2619 4750 2861 4703 
Q 3103 4656 3366 4563 
z
" transform="scale(0.015625)"/>
      </defs>
      <use xlink:href="#DejaVuSans-36" transform="translate(0 0.015625)"/>
      <use xlink:href="#DejaVuSans-6b" transform="translate(63.623047 0.015625)"/>
      <use xlink:href="#DejaVuSans-42" transform="translate(122.490234 -16.390625) scale(0.7)"/>
      <use xlink:href="#DejaVuSans-Oblique-54" transform="translate(173.24707 0.015625)"/>
     </g>
    </g>
    <g id="line2d_24">
     <path d="M 157.9019 52.3679 
L 165.9019 52.3679 
L 173.9019 52.3679 
" style="fill: none; stroke: #cc4778; stroke-width: 1.3; stroke-linecap: square"/>
    </g>
    <g id="text_10">
     <!-- 12$\mathrm{k}_\mathrm{B}T$ -->
     <g transform="translate(180.3019 55.1679) scale(0.08 -0.08)">
      <defs>
       <path id="DejaVuSans-32" d="M 1228 531 
L 3431 531 
L 3431 0 
L 469 0 
L 469 531 
Q 828 903 1448 1529 
Q 2069 2156 2228 2338 
Q 2531 2678 2651 2914 
Q 2772 3150 2772 3378 
Q 2772 3750 2511 3984 
Q 2250 4219 1831 4219 
Q 1534 4219 1204 4116 
Q 875 4013 500 3803 
L 500 4441 
Q 881 4594 1212 4672 
Q 1544 4750 1819 4750 
Q 2544 4750 2975 4387 
Q 3406 4025 3406 3419 
Q 3406 3131 3298 2873 
Q 3191 2616 2906 2266 
Q 2828 2175 2409 1742 
Q 1991 1309 1228 531 
z
" transform="scale(0.015625)"/>
      </defs>
      <use xlink:href="#DejaVuSans-31" transform="translate(0 0.015625)"/>
      <use xlink:href="#DejaVuSans-32" transform="translate(63.623047 0.015625)"/>
      <use xlink:href="#DejaVuSans-6b" transform="translate(127.246094 0.015625)"/>
      <use xlink:href="#DejaVuSans-42" transform="translate(186.113281 -16.390625) scale(0.7)"/>
      <use xlink:href="#DejaVuSans-Oblique-54" transform="translate(236.870117 0.015625)"/>
     </g>
    </g>
    <g id="line2d_25">
     <path d="M 157.9019 64.1104 
L 165.9019 64.1104 
L 173.9019 64.1104 
" style="fill: none; stroke: #f2844b; stroke-width: 1.3; stroke-linecap: square"/>
    </g>
    <g id="text_11">
     <!-- 15$\mathrm{k}_\mathrm{B}T$ -->
     <g transform="translate(180.3019 66.9104) scale(0.08 -0.08)">
      <use xlink:href="#DejaVuSans-31" transform="translate(0 0.015625)"/>
      <use xlink:href="#DejaVuSans-35" transform="translate(63.623047 0.015625)"/>
      <use xlink:href="#DejaVuSans-6b" transform="translate(127.246094 0.015625)"/>
      <use xlink:href="#DejaVuSans-42" transform="translate(186.113281 -16.390625) scale(0.7)"/>
      <use xlink:href="#DejaVuSans-Oblique-54" transform="translate(236.870117 0.015625)"/>
     </g>
    </g>
    <g id="line2d_26">
     <path d="M 157.9019 75.8529 
L 165.9019 75.8529 
L 173.9019 75.8529 
" style="fill: none; stroke: #fcce25; stroke-width: 1.3; stroke-linecap: square"/>
    </g>
    <g id="text_12">
     <!-- 18$\mathrm{k}_\mathrm{B}T$ -->
     <g transform="translate(180.3019 78.6529) scale(0.08 -0.08)">
      <defs>
       <path id="DejaVuSans-38" d="M 2034 2216 
Q 1584 2216 1326 1975 
Q 1069 1734 1069 1313 
Q 1069 891 1326 650 
Q 1584 409 2034 409 
Q 2484 409 2743 651 
Q 3003 894 3003 1313 
Q 3003 1734 2745 1975 
Q 2488 2216 2034 2216 
z
M 1403 2484 
Q 997 2584 770 2862 
Q 544 3141 544 3541 
Q 544 4100 942 4425 
Q 1341 4750 2034 4750 
Q 2731 4750 3128 4425 
Q 3525 4100 3525 3541 
Q 3525 3141 3298 2862 
Q 3072 2584 2669 2484 
Q 3125 2378 3379 2068 
Q 3634 1759 3634 1313 
Q 3634 634 3220 271 
Q 2806 -91 2034 -91 
Q 1263 -91 848 271 
Q 434 634 434 1313 
Q 434 1759 690 2068 
Q 947 2378 1403 2484 
z
M 1172 3481 
Q 1172 3119 1398 2916 
Q 1625 2713 2034 2713 
Q 2441 2713 2670 2916 
Q 2900 3119 2900 3481 
Q 2900 3844 2670 4047 
Q 2441 4250 2034 4250 
Q 1625 4250 1398 4047 
Q 1172 3844 1172 3481 
z
" transform="scale(0.015625)"/>
      </defs>
      <use xlink:href="#DejaVuSans-31" transform="translate(0 0.015625)"/>
      <use xlink:href="#DejaVuSans-38" transform="translate(63.623047 0.015625)"/>
      <use xlink:href="#DejaVuSans-6b" transform="translate(127.246094 0.015625)"/>
      <use xlink:href="#DejaVuSans-42" transform="translate(186.113281 -16.390625) scale(0.7)"/>
      <use xlink:href="#DejaVuSans-Oblique-54" transform="translate(236.870117 0.015625)"/>
     </g>
    </g>
   </g>
  </g>
 </g>
 <defs>
  <clipPath id="pedd543ef54">
   <rect x="46.678125" y="7.2" width="101.984093" height="91.5208"/>
  </clipPath>
 </defs>
</svg>
