<?xml version="1.0" encoding="utf-8" standalone="no"?>
<!DOCTYPE svg PUBLIC "-//W3C//DTD SVG 1.1//EN"
  "http://www.w3.org/Graphics/SVG/1.1/DTD/svg11.dtd">
<svg xmlns:xlink="http://www.w3.org/1999/xlink" width="237.6pt" height="144pt" viewBox="0 0 237.6 144" xmlns="http://www.w3.org/2000/svg" version="1.1">
 <metadata>
  <rdf:RDF xmlns:dc="http://purl.org/dc/elements/1.1/" xmlns:cc="http://creativecommons.org/ns#" xmlns:rdf="http://www.w3.org/1999/02/22-rdf-syntax-ns#">
   <cc:Work>
    <dc:type rdf:resource="http://purl.org/dc/dcmitype/StillImage"/>
    <dc:date>2026-05-14T19:40:40.652672</dc:date>
    <dc:format>image/svg+xml</dc:format>
    <dc:creator>
     <cc:Agent>
      <dc:title>Matplotlib v3.10.8, https://matplotlib.org/</dc:title>
     </cc:Agent>
    </dc:creator>
   </cc:Work>
  </rdf:RDF>
 </metadata>
 <defs>
  <style type="text/css">*{stroke-linejoin: round; stroke-linecap: butt}</style>
 </defs>
 <g id="figure_1">
  <g id="patch_1">
   <path d="M 0 144 
L 237.6 144 
L 237.6 0 
L 0 0 
z
" style="fill: #ffffff"/>
  </g>
  <g id="axes_1">
   <g id="patch_2">
    <path d="M 43.67 103.264 
L 226.8 103.264 
L 226.8 10.8 
L 43.67 10.8 
z
" style="fill: #ffffff"/>
   </g>
   <g id="FillBetweenPolyCollection_1">
    <defs>
     <path id="mc5c396d9e3" d="M 55.574654 -44.938909 
L 53.783909 -44.938909 
L 53.768076 -44.938975 
L 53.753433 -44.939041 
L 53.739934 -44.939106 
L 53.727511 -44.939172 
L 53.716077 -44.939238 
L 53.705523 -44.939304 
L 53.695719 -44.939369 
L 53.686517 -44.939435 
L 53.677752 -44.939501 
L 53.669242 -44.939567 
L 53.66079 -44.939632 
L 53.652189 -44.939698 
L 53.643223 -44.939764 
L 53.633667 -44.93983 
L 53.623295 -44.939895 
L 53.611879 -44.939961 
L 53.599194 -44.940027 
L 53.585022 -44.940093 
L 53.569153 -44.940158 
L 53.551389 -44.940224 
L 53.531549 -44.94029 
L 53.509469 -44.940356 
L 53.48501 -44.940421 
L 53.458053 -44.940487 
L 53.428507 -44.940553 
L 53.39631 -44.940619 
L 53.361431 -44.940684 
L 53.323869 -44.94075 
L 53.283656 -44.940816 
L 53.240858 -44.940882 
L 53.195575 -44.940947 
L 53.147938 -44.941013 
L 53.098112 -44.941079 
L 53.046293 -44.941145 
L 52.992706 -44.94121 
L 52.937604 -44.941276 
L 52.881265 -44.941342 
L 52.823991 -44.941408 
L 52.766102 -44.941473 
L 52.707935 -44.941539 
L 52.649841 -44.941605 
L 52.592177 -44.941671 
L 52.535309 -44.941736 
L 52.479602 -44.941802 
L 52.425419 -44.941868 
L 52.373118 -44.941934 
L 52.323045 -44.942 
L 52.275533 -44.942065 
L 52.230898 -44.942131 
L 52.189433 -44.942197 
L 52.151411 -44.942263 
L 52.117075 -44.942328 
L 52.086642 -44.942394 
L 52.060298 -44.94246 
L 52.038195 -44.942526 
L 52.020454 -44.942591 
L 52.007161 -44.942657 
L 51.998367 -44.942723 
L 51.994091 -44.942789 
L 51.994316 -44.942854 
L 51.998995 -44.94292 
L 52.008048 -44.942986 
L 52.021367 -44.943052 
L 52.038816 -44.943117 
L 52.060234 -44.943183 
L 52.085437 -44.943249 
L 52.114224 -44.943315 
L 52.146375 -44.94338 
L 52.181656 -44.943446 
L 52.219824 -44.943512 
L 52.260627 -44.943578 
L 52.30381 -44.943643 
L 52.349115 -44.943709 
L 52.396285 -44.943775 
L 52.445069 -44.943841 
L 52.49522 -44.943906 
L 52.5465 -44.943972 
L 52.598682 -44.944038 
L 52.65155 -44.944104 
L 52.704903 -44.944169 
L 52.758553 -44.944235 
L 52.812328 -44.944301 
L 52.866071 -44.944367 
L 52.919642 -44.944432 
L 52.972917 -44.944498 
L 53.025785 -44.944564 
L 53.078154 -44.94463 
L 53.129944 -44.944695 
L 53.181089 -44.944761 
L 53.231535 -44.944827 
L 53.281239 -44.944893 
L 53.330168 -44.944958 
L 53.3783 -44.945024 
L 53.425616 -44.94509 
L 53.472108 -44.945156 
L 53.517768 -44.945221 
L 53.562595 -44.945287 
L 53.606589 -44.945353 
L 53.649752 -44.945419 
L 55.708811 -44.945419 
L 55.708811 -44.945419 
L 55.751974 -44.945353 
L 55.795968 -44.945287 
L 55.840795 -44.945221 
L 55.886455 -44.945156 
L 55.932947 -44.94509 
L 55.980263 -44.945024 
L 56.028395 -44.944958 
L 56.077325 -44.944893 
L 56.127028 -44.944827 
L 56.177474 -44.944761 
L 56.228619 -44.944695 
L 56.280409 -44.94463 
L 56.332778 -44.944564 
L 56.385647 -44.944498 
L 56.438921 -44.944432 
L 56.492492 -44.944367 
L 56.546235 -44.944301 
L 56.60001 -44.944235 
L 56.65366 -44.944169 
L 56.707013 -44.944104 
L 56.759881 -44.944038 
L 56.812063 -44.943972 
L 56.863343 -44.943906 
L 56.913494 -44.943841 
L 56.962278 -44.943775 
L 57.009448 -44.943709 
L 57.054753 -44.943643 
L 57.097936 -44.943578 
L 57.138739 -44.943512 
L 57.176907 -44.943446 
L 57.212188 -44.94338 
L 57.244339 -44.943315 
L 57.273126 -44.943249 
L 57.298329 -44.943183 
L 57.319747 -44.943117 
L 57.337196 -44.943052 
L 57.350515 -44.942986 
L 57.359568 -44.94292 
L 57.364247 -44.942854 
L 57.364472 -44.942789 
L 57.360196 -44.942723 
L 57.351402 -44.942657 
L 57.338109 -44.942591 
L 57.320368 -44.942526 
L 57.298265 -44.94246 
L 57.271921 -44.942394 
L 57.241488 -44.942328 
L 57.207152 -44.942263 
L 57.16913 -44.942197 
L 57.127665 -44.942131 
L 57.08303 -44.942065 
L 57.035518 -44.942 
L 56.985445 -44.941934 
L 56.933144 -44.941868 
L 56.878961 -44.941802 
L 56.823254 -44.941736 
L 56.766386 -44.941671 
L 56.708722 -44.941605 
L 56.650628 -44.941539 
L 56.592461 -44.941473 
L 56.534572 -44.941408 
L 56.477298 -44.941342 
L 56.420959 -44.941276 
L 56.365857 -44.94121 
L 56.31227 -44.941145 
L 56.260451 -44.941079 
L 56.210625 -44.941013 
L 56.162988 -44.940947 
L 56.117705 -44.940882 
L 56.074907 -44.940816 
L 56.034694 -44.94075 
L 55.997132 -44.940684 
L 55.962253 -44.940619 
L 55.930056 -44.940553 
L 55.90051 -44.940487 
L 55.873553 -44.940421 
L 55.849094 -44.940356 
L 55.827015 -44.94029 
L 55.807174 -44.940224 
L 55.789411 -44.940158 
L 55.773541 -44.940093 
L 55.759369 -44.940027 
L 55.746684 -44.939961 
L 55.735268 -44.939895 
L 55.724896 -44.93983 
L 55.71534 -44.939764 
L 55.706374 -44.939698 
L 55.697773 -44.939632 
L 55.689321 -44.939567 
L 55.680811 -44.939501 
L 55.672046 -44.939435 
L 55.662844 -44.939369 
L 55.65304 -44.939304 
L 55.642486 -44.939238 
L 55.631052 -44.939172 
L 55.618629 -44.939106 
L 55.60513 -44.939041 
L 55.590487 -44.938975 
L 55.574654 -44.938909 
z
" style="stroke: #6f6f6f; stroke-opacity: 0.5"/>
    </defs>
    <g clip-path="url(#p4b14f6399c)">
     <use xlink:href="#mc5c396d9e3" x="0" y="144" style="fill: #9e9e9e; fill-opacity: 0.5; stroke: #6f6f6f; stroke-opacity: 0.5"/>
    </g>
   </g>
   <g id="FillBetweenPolyCollection_2">
    <defs>
     <path id="m10333d7f8e" d="M 109.033833 -49.555387 
L 107.732355 -49.555387 
L 107.713542 -49.555928 
L 107.694583 -49.55647 
L 107.67541 -49.557011 
L 107.655955 -49.557552 
L 107.636143 -49.558094 
L 107.615898 -49.558635 
L 107.595144 -49.559177 
L 107.573803 -49.559718 
L 107.551804 -49.56026 
L 107.529075 -49.560801 
L 107.505551 -49.561343 
L 107.481175 -49.561884 
L 107.455897 -49.562425 
L 107.429674 -49.562967 
L 107.402475 -49.563508 
L 107.374279 -49.56405 
L 107.345074 -49.564591 
L 107.314861 -49.565133 
L 107.283652 -49.565674 
L 107.251468 -49.566216 
L 107.218341 -49.566757 
L 107.184313 -49.567298 
L 107.149433 -49.56784 
L 107.113759 -49.568381 
L 107.077356 -49.568923 
L 107.040291 -49.569464 
L 107.002637 -49.570006 
L 106.96447 -49.570547 
L 106.925865 -49.571088 
L 106.886898 -49.57163 
L 106.847643 -49.572171 
L 106.808174 -49.572713 
L 106.768557 -49.573254 
L 106.728859 -49.573796 
L 106.68914 -49.574337 
L 106.649455 -49.574879 
L 106.609854 -49.57542 
L 106.570385 -49.575961 
L 106.531088 -49.576503 
L 106.492001 -49.577044 
L 106.453159 -49.577586 
L 106.414594 -49.578127 
L 106.376337 -49.578669 
L 106.33842 -49.57921 
L 106.300874 -49.579751 
L 106.263733 -49.580293 
L 106.227036 -49.580834 
L 106.190825 -49.581376 
L 106.155148 -49.581917 
L 106.12006 -49.582459 
L 106.085624 -49.583 
L 106.051912 -49.583542 
L 106.019002 -49.584083 
L 105.986984 -49.584624 
L 105.955957 -49.585166 
L 105.926028 -49.585707 
L 105.897315 -49.586249 
L 105.869942 -49.58679 
L 105.844042 -49.587332 
L 105.819755 -49.587873 
L 105.797223 -49.588414 
L 105.776597 -49.588956 
L 105.758025 -49.589497 
L 105.741661 -49.590039 
L 105.727654 -49.59058 
L 105.71615 -49.591122 
L 105.707293 -49.591663 
L 105.701217 -49.592205 
L 105.698048 -49.592746 
L 105.697903 -49.593287 
L 105.700885 -49.593829 
L 105.707082 -49.59437 
L 105.716567 -49.594912 
L 105.729399 -49.595453 
L 105.745615 -49.595995 
L 105.765234 -49.596536 
L 105.788256 -49.597077 
L 105.814663 -49.597619 
L 105.844412 -49.59816 
L 105.877443 -49.598702 
L 105.913677 -49.599243 
L 105.953014 -49.599785 
L 105.995336 -49.600326 
L 106.040508 -49.600868 
L 106.088378 -49.601409 
L 106.13878 -49.60195 
L 106.191534 -49.602492 
L 106.246451 -49.603033 
L 106.303328 -49.603575 
L 106.361957 -49.604116 
L 106.422123 -49.604658 
L 106.483607 -49.605199 
L 106.546186 -49.60574 
L 106.609639 -49.606282 
L 106.673744 -49.606823 
L 106.738283 -49.607365 
L 106.80304 -49.607906 
L 106.867808 -49.608448 
L 106.932385 -49.608989 
L 109.833803 -49.608989 
L 109.833803 -49.608989 
L 109.898379 -49.608448 
L 109.963147 -49.607906 
L 110.027905 -49.607365 
L 110.092444 -49.606823 
L 110.156549 -49.606282 
L 110.220002 -49.60574 
L 110.282581 -49.605199 
L 110.344065 -49.604658 
L 110.404231 -49.604116 
L 110.46286 -49.603575 
L 110.519737 -49.603033 
L 110.574653 -49.602492 
L 110.627408 -49.60195 
L 110.67781 -49.601409 
L 110.72568 -49.600868 
L 110.770852 -49.600326 
L 110.813173 -49.599785 
L 110.85251 -49.599243 
L 110.888744 -49.598702 
L 110.921776 -49.59816 
L 110.951525 -49.597619 
L 110.977931 -49.597077 
L 111.000954 -49.596536 
L 111.020573 -49.595995 
L 111.036789 -49.595453 
L 111.04962 -49.594912 
L 111.059106 -49.59437 
L 111.065303 -49.593829 
L 111.068284 -49.593287 
L 111.068139 -49.592746 
L 111.064971 -49.592205 
L 111.058895 -49.591663 
L 111.050038 -49.591122 
L 111.038534 -49.59058 
L 111.024527 -49.590039 
L 111.008162 -49.589497 
L 110.989591 -49.588956 
L 110.968965 -49.588414 
L 110.946433 -49.587873 
L 110.922145 -49.587332 
L 110.896245 -49.58679 
L 110.868872 -49.586249 
L 110.840159 -49.585707 
L 110.810231 -49.585166 
L 110.779204 -49.584624 
L 110.747186 -49.584083 
L 110.714276 -49.583542 
L 110.680563 -49.583 
L 110.646127 -49.582459 
L 110.61104 -49.581917 
L 110.575363 -49.581376 
L 110.539152 -49.580834 
L 110.502455 -49.580293 
L 110.465314 -49.579751 
L 110.427768 -49.57921 
L 110.389851 -49.578669 
L 110.351594 -49.578127 
L 110.313029 -49.577586 
L 110.274187 -49.577044 
L 110.2351 -49.576503 
L 110.195803 -49.575961 
L 110.156333 -49.57542 
L 110.116733 -49.574879 
L 110.077048 -49.574337 
L 110.037328 -49.573796 
L 109.99763 -49.573254 
L 109.958014 -49.572713 
L 109.918544 -49.572171 
L 109.87929 -49.57163 
L 109.840323 -49.571088 
L 109.801718 -49.570547 
L 109.763551 -49.570006 
L 109.725897 -49.569464 
L 109.688832 -49.568923 
L 109.652428 -49.568381 
L 109.616755 -49.56784 
L 109.581875 -49.567298 
L 109.547847 -49.566757 
L 109.51472 -49.566216 
L 109.482536 -49.565674 
L 109.451326 -49.565133 
L 109.421114 -49.564591 
L 109.391909 -49.56405 
L 109.363713 -49.563508 
L 109.336514 -49.562967 
L 109.310291 -49.562425 
L 109.285012 -49.561884 
L 109.260637 -49.561343 
L 109.237113 -49.560801 
L 109.214384 -49.56026 
L 109.192384 -49.559718 
L 109.171044 -49.559177 
L 109.15029 -49.558635 
L 109.130045 -49.558094 
L 109.110233 -49.557552 
L 109.090777 -49.557011 
L 109.071605 -49.55647 
L 109.052645 -49.555928 
L 109.033833 -49.555387 
z
" style="stroke: #6f6f6f; stroke-opacity: 0.5"/>
    </defs>
    <g clip-path="url(#p4b14f6399c)">
     <use xlink:href="#m10333d7f8e" x="0" y="144" style="fill: #9e9e9e; fill-opacity: 0.5; stroke: #6f6f6f; stroke-opacity: 0.5"/>
    </g>
   </g>
   <g id="FillBetweenPolyCollection_3">
    <defs>
     <path id="m147dac3c21" d="M 163.126095 -94.372714 
L 161.047718 -94.372714 
L 161.027597 -94.373529 
L 161.008399 -94.374345 
L 160.990064 -94.37516 
L 160.972513 -94.375975 
L 160.955651 -94.376791 
L 160.939368 -94.377606 
L 160.92354 -94.378421 
L 160.908031 -94.379237 
L 160.892694 -94.380052 
L 160.877372 -94.380867 
L 160.861903 -94.381683 
L 160.84612 -94.382498 
L 160.829854 -94.383314 
L 160.812937 -94.384129 
L 160.795203 -94.384944 
L 160.776494 -94.38576 
L 160.756659 -94.386575 
L 160.735555 -94.38739 
L 160.713055 -94.388206 
L 160.689047 -94.389021 
L 160.663434 -94.389837 
L 160.636139 -94.390652 
L 160.607104 -94.391467 
L 160.576294 -94.392283 
L 160.543694 -94.393098 
L 160.509314 -94.393913 
L 160.473186 -94.394729 
L 160.435366 -94.395544 
L 160.395934 -94.396359 
L 160.354991 -94.397175 
L 160.31266 -94.39799 
L 160.269087 -94.398806 
L 160.224434 -94.399621 
L 160.178884 -94.400436 
L 160.132635 -94.401252 
L 160.085899 -94.402067 
L 160.038901 -94.402882 
L 159.991877 -94.403698 
L 159.945067 -94.404513 
L 159.898722 -94.405329 
L 159.853093 -94.406144 
L 159.808431 -94.406959 
L 159.764989 -94.407775 
L 159.723012 -94.40859 
L 159.682743 -94.409405 
L 159.644414 -94.410221 
L 159.608248 -94.411036 
L 159.574455 -94.411851 
L 159.543233 -94.412667 
L 159.514761 -94.413482 
L 159.489205 -94.414298 
L 159.466711 -94.415113 
L 159.447405 -94.415928 
L 159.431395 -94.416744 
L 159.418766 -94.417559 
L 159.409584 -94.418374 
L 159.403893 -94.41919 
L 159.401716 -94.420005 
L 159.403053 -94.420821 
L 159.407885 -94.421636 
L 159.416174 -94.422451 
L 159.427862 -94.423267 
L 159.44287 -94.424082 
L 159.461106 -94.424897 
L 159.482461 -94.425713 
L 159.506809 -94.426528 
L 159.534016 -94.427343 
L 159.563931 -94.428159 
L 159.596398 -94.428974 
L 159.631252 -94.42979 
L 159.668321 -94.430605 
L 159.707429 -94.43142 
L 159.748399 -94.432236 
L 159.79105 -94.433051 
L 159.835205 -94.433866 
L 159.880687 -94.434682 
L 159.927325 -94.435497 
L 159.97495 -94.436312 
L 160.023401 -94.437128 
L 160.072525 -94.437943 
L 160.122174 -94.438759 
L 160.172212 -94.439574 
L 160.22251 -94.440389 
L 160.272949 -94.441205 
L 160.323421 -94.44202 
L 160.373826 -94.442835 
L 160.424073 -94.443651 
L 160.474083 -94.444466 
L 160.523783 -94.445282 
L 160.573112 -94.446097 
L 160.622012 -94.446912 
L 160.670436 -94.447728 
L 160.718341 -94.448543 
L 160.765692 -94.449358 
L 160.812456 -94.450174 
L 160.858607 -94.450989 
L 160.90412 -94.451804 
L 160.948974 -94.45262 
L 160.993148 -94.453435 
L 163.180664 -94.453435 
L 163.180664 -94.453435 
L 163.224838 -94.45262 
L 163.269692 -94.451804 
L 163.315205 -94.450989 
L 163.361356 -94.450174 
L 163.408121 -94.449358 
L 163.455471 -94.448543 
L 163.503377 -94.447728 
L 163.551801 -94.446912 
L 163.600701 -94.446097 
L 163.650029 -94.445282 
L 163.699729 -94.444466 
L 163.749739 -94.443651 
L 163.799987 -94.442835 
L 163.850391 -94.44202 
L 163.900863 -94.441205 
L 163.951302 -94.440389 
L 164.0016 -94.439574 
L 164.051638 -94.438759 
L 164.101288 -94.437943 
L 164.150411 -94.437128 
L 164.198863 -94.436312 
L 164.246488 -94.435497 
L 164.293125 -94.434682 
L 164.338607 -94.433866 
L 164.382762 -94.433051 
L 164.425414 -94.432236 
L 164.466383 -94.43142 
L 164.505491 -94.430605 
L 164.54256 -94.42979 
L 164.577414 -94.428974 
L 164.609881 -94.428159 
L 164.639797 -94.427343 
L 164.667003 -94.426528 
L 164.691351 -94.425713 
L 164.712706 -94.424897 
L 164.730942 -94.424082 
L 164.745951 -94.423267 
L 164.757638 -94.422451 
L 164.765927 -94.421636 
L 164.77076 -94.420821 
L 164.772097 -94.420005 
L 164.769919 -94.41919 
L 164.764228 -94.418374 
L 164.755046 -94.417559 
L 164.742418 -94.416744 
L 164.726407 -94.415928 
L 164.707102 -94.415113 
L 164.684607 -94.414298 
L 164.659051 -94.413482 
L 164.63058 -94.412667 
L 164.599357 -94.411851 
L 164.565564 -94.411036 
L 164.529398 -94.410221 
L 164.491069 -94.409405 
L 164.4508 -94.40859 
L 164.408824 -94.407775 
L 164.365381 -94.406959 
L 164.32072 -94.406144 
L 164.27509 -94.405329 
L 164.228745 -94.404513 
L 164.181936 -94.403698 
L 164.134911 -94.402882 
L 164.087913 -94.402067 
L 164.041177 -94.401252 
L 163.994928 -94.400436 
L 163.949378 -94.399621 
L 163.904726 -94.398806 
L 163.861152 -94.39799 
L 163.818822 -94.397175 
L 163.777878 -94.396359 
L 163.738446 -94.395544 
L 163.700627 -94.394729 
L 163.664499 -94.393913 
L 163.630119 -94.393098 
L 163.597519 -94.392283 
L 163.566708 -94.391467 
L 163.537673 -94.390652 
L 163.510378 -94.389837 
L 163.484765 -94.389021 
L 163.460757 -94.388206 
L 163.438257 -94.38739 
L 163.417154 -94.386575 
L 163.397318 -94.38576 
L 163.378609 -94.384944 
L 163.360876 -94.384129 
L 163.343959 -94.383314 
L 163.327693 -94.382498 
L 163.31191 -94.381683 
L 163.29644 -94.380867 
L 163.281119 -94.380052 
L 163.265781 -94.379237 
L 163.250272 -94.378421 
L 163.234445 -94.377606 
L 163.218162 -94.376791 
L 163.2013 -94.375975 
L 163.183748 -94.37516 
L 163.165413 -94.374345 
L 163.146216 -94.373529 
L 163.126095 -94.372714 
z
" style="stroke: #6f6f6f; stroke-opacity: 0.5"/>
    </defs>
    <g clip-path="url(#p4b14f6399c)">
     <use xlink:href="#m147dac3c21" x="0" y="144" style="fill: #9e9e9e; fill-opacity: 0.5; stroke: #6f6f6f; stroke-opacity: 0.5"/>
    </g>
   </g>
   <g id="FillBetweenPolyCollection_4">
    <defs>
     <path id="m1370a94209" d="M 190.727336 -117.417831 
L 187.150289 -117.417831 
L 187.074455 -117.418699 
L 186.999928 -117.419567 
L 186.92709 -117.420435 
L 186.856321 -117.421303 
L 186.787996 -117.422171 
L 186.722479 -117.42304 
L 186.660124 -117.423908 
L 186.601266 -117.424776 
L 186.546219 -117.425644 
L 186.495275 -117.426512 
L 186.448697 -117.42738 
L 186.406721 -117.428249 
L 186.369549 -117.429117 
L 186.337351 -117.429985 
L 186.310261 -117.430853 
L 186.288379 -117.431721 
L 186.271765 -117.432589 
L 186.260446 -117.433457 
L 186.254413 -117.434326 
L 186.253622 -117.435194 
L 186.257994 -117.436062 
L 186.267423 -117.43693 
L 186.281771 -117.437798 
L 186.300874 -117.438666 
L 186.324545 -117.439534 
L 186.352576 -117.440403 
L 186.384742 -117.441271 
L 186.420802 -117.442139 
L 186.460506 -117.443007 
L 186.503594 -117.443875 
L 186.549798 -117.444743 
L 186.598853 -117.445611 
L 186.650487 -117.44648 
L 186.704435 -117.447348 
L 186.760433 -117.448216 
L 186.818222 -117.449084 
L 186.87755 -117.449952 
L 186.938175 -117.45082 
L 186.999861 -117.451688 
L 187.062381 -117.452557 
L 187.125517 -117.453425 
L 187.189063 -117.454293 
L 187.252819 -117.455161 
L 187.316596 -117.456029 
L 187.380211 -117.456897 
L 187.443491 -117.457766 
L 187.50627 -117.458634 
L 187.568389 -117.459502 
L 187.629695 -117.46037 
L 187.690043 -117.461238 
L 187.749291 -117.462106 
L 187.807305 -117.462974 
L 187.863956 -117.463843 
L 187.919119 -117.464711 
L 187.972676 -117.465579 
L 188.024514 -117.466447 
L 188.074528 -117.467315 
L 188.122618 -117.468183 
L 188.16869 -117.469051 
L 188.212661 -117.46992 
L 188.254452 -117.470788 
L 188.293997 -117.471656 
L 188.331238 -117.472524 
L 188.366126 -117.473392 
L 188.398624 -117.47426 
L 188.428708 -117.475128 
L 188.456363 -117.475997 
L 188.481587 -117.476865 
L 188.504394 -117.477733 
L 188.524807 -117.478601 
L 188.542864 -117.479469 
L 188.558616 -117.480337 
L 188.572126 -117.481205 
L 188.583471 -117.482074 
L 188.592741 -117.482942 
L 188.600035 -117.48381 
L 188.605466 -117.484678 
L 188.609156 -117.485546 
L 188.611237 -117.486414 
L 188.611848 -117.487283 
L 188.611138 -117.488151 
L 188.609261 -117.489019 
L 188.606373 -117.489887 
L 188.602639 -117.490755 
L 188.598219 -117.491623 
L 188.59328 -117.492491 
L 188.587983 -117.49336 
L 188.582488 -117.494228 
L 188.576951 -117.495096 
L 188.571523 -117.495964 
L 188.566345 -117.496832 
L 188.561553 -117.4977 
L 188.557271 -117.498568 
L 188.553612 -117.499437 
L 188.550678 -117.500305 
L 188.548558 -117.501173 
L 188.547327 -117.502041 
L 188.547047 -117.502909 
L 188.547765 -117.503777 
L 189.32986 -117.503777 
L 189.32986 -117.503777 
L 189.330577 -117.502909 
L 189.330297 -117.502041 
L 189.329066 -117.501173 
L 189.326946 -117.500305 
L 189.324013 -117.499437 
L 189.320354 -117.498568 
L 189.316072 -117.4977 
L 189.311279 -117.496832 
L 189.306102 -117.495964 
L 189.300674 -117.495096 
L 189.295137 -117.494228 
L 189.289642 -117.49336 
L 189.284345 -117.492491 
L 189.279405 -117.491623 
L 189.274986 -117.490755 
L 189.271251 -117.489887 
L 189.268364 -117.489019 
L 189.266486 -117.488151 
L 189.265776 -117.487283 
L 189.266388 -117.486414 
L 189.268469 -117.485546 
L 189.272159 -117.484678 
L 189.27759 -117.48381 
L 189.284884 -117.482942 
L 189.294153 -117.482074 
L 189.305499 -117.481205 
L 189.319009 -117.480337 
L 189.334761 -117.479469 
L 189.352818 -117.478601 
L 189.373231 -117.477733 
L 189.396037 -117.476865 
L 189.421262 -117.475997 
L 189.448917 -117.475128 
L 189.479 -117.47426 
L 189.511499 -117.473392 
L 189.546387 -117.472524 
L 189.583627 -117.471656 
L 189.623172 -117.470788 
L 189.664964 -117.46992 
L 189.708935 -117.469051 
L 189.755007 -117.468183 
L 189.803097 -117.467315 
L 189.85311 -117.466447 
L 189.904949 -117.465579 
L 189.958506 -117.464711 
L 190.013669 -117.463843 
L 190.070319 -117.462974 
L 190.128333 -117.462106 
L 190.187582 -117.461238 
L 190.247929 -117.46037 
L 190.309236 -117.459502 
L 190.371355 -117.458634 
L 190.434134 -117.457766 
L 190.497414 -117.456897 
L 190.561029 -117.456029 
L 190.624805 -117.455161 
L 190.688561 -117.454293 
L 190.752107 -117.453425 
L 190.815244 -117.452557 
L 190.877764 -117.451688 
L 190.939449 -117.45082 
L 191.000074 -117.449952 
L 191.059403 -117.449084 
L 191.117192 -117.448216 
L 191.173189 -117.447348 
L 191.227137 -117.44648 
L 191.278772 -117.445611 
L 191.327826 -117.444743 
L 191.374031 -117.443875 
L 191.417118 -117.443007 
L 191.456822 -117.442139 
L 191.492883 -117.441271 
L 191.525049 -117.440403 
L 191.55308 -117.439534 
L 191.576751 -117.438666 
L 191.595854 -117.437798 
L 191.610201 -117.43693 
L 191.61963 -117.436062 
L 191.624003 -117.435194 
L 191.623211 -117.434326 
L 191.617178 -117.433457 
L 191.60586 -117.432589 
L 191.589246 -117.431721 
L 191.567363 -117.430853 
L 191.540274 -117.429985 
L 191.508076 -117.429117 
L 191.470904 -117.428249 
L 191.428928 -117.42738 
L 191.38235 -117.426512 
L 191.331406 -117.425644 
L 191.276359 -117.424776 
L 191.2175 -117.423908 
L 191.155145 -117.42304 
L 191.089629 -117.422171 
L 191.021304 -117.421303 
L 190.950535 -117.420435 
L 190.877697 -117.419567 
L 190.80317 -117.418699 
L 190.727336 -117.417831 
z
" style="stroke: #6f6f6f; stroke-opacity: 0.5"/>
    </defs>
    <g clip-path="url(#p4b14f6399c)">
     <use xlink:href="#m1370a94209" x="0" y="144" style="fill: #9e9e9e; fill-opacity: 0.5; stroke: #6f6f6f; stroke-opacity: 0.5"/>
    </g>
   </g>
   <g id="FillBetweenPolyCollection_5">
    <defs>
     <path id="mde262f6e21" d="M 217.834787 -128.725106 
L 213.74665 -128.725106 
L 213.694842 -128.727853 
L 213.644869 -128.7306 
L 213.596851 -128.733348 
L 213.550893 -128.736095 
L 213.507088 -128.738842 
L 213.465512 -128.74159 
L 213.426231 -128.744337 
L 213.389293 -128.747084 
L 213.354733 -128.749832 
L 213.322571 -128.752579 
L 213.292812 -128.755326 
L 213.265451 -128.758074 
L 213.240467 -128.760821 
L 213.217829 -128.763568 
L 213.197493 -128.766316 
L 213.179407 -128.769063 
L 213.163508 -128.77181 
L 213.149727 -128.774558 
L 213.137986 -128.777305 
L 213.128204 -128.780052 
L 213.120293 -128.7828 
L 213.114163 -128.785547 
L 213.109722 -128.788294 
L 213.106875 -128.791041 
L 213.105528 -128.793789 
L 213.105588 -128.796536 
L 213.106963 -128.799283 
L 213.109564 -128.802031 
L 213.113303 -128.804778 
L 213.118097 -128.807525 
L 213.123866 -128.810273 
L 213.130536 -128.81302 
L 213.138036 -128.815767 
L 213.146299 -128.818515 
L 213.155265 -128.821262 
L 213.164876 -128.824009 
L 213.175083 -128.826757 
L 213.185837 -128.829504 
L 213.197096 -128.832251 
L 213.208824 -128.834999 
L 213.220987 -128.837746 
L 213.233554 -128.840493 
L 213.246502 -128.843241 
L 213.259808 -128.845988 
L 213.273454 -128.848735 
L 213.287425 -128.851483 
L 213.30171 -128.85423 
L 213.316298 -128.856977 
L 213.331185 -128.859725 
L 213.346367 -128.862472 
L 213.361842 -128.865219 
L 213.377612 -128.867967 
L 213.39368 -128.870714 
L 213.410053 -128.873461 
L 213.426738 -128.876209 
L 213.443745 -128.878956 
L 213.461087 -128.881703 
L 213.478775 -128.884451 
L 213.496827 -128.887198 
L 213.515258 -128.889945 
L 213.534087 -128.892693 
L 213.553332 -128.89544 
L 213.573015 -128.898187 
L 213.593155 -128.900935 
L 213.613775 -128.903682 
L 213.634896 -128.906429 
L 213.656539 -128.909176 
L 213.678726 -128.911924 
L 213.701478 -128.914671 
L 213.724814 -128.917418 
L 213.748753 -128.920166 
L 213.773312 -128.922913 
L 213.798505 -128.92566 
L 213.824347 -128.928408 
L 213.850847 -128.931155 
L 213.878015 -128.933902 
L 213.905855 -128.93665 
L 213.934369 -128.939397 
L 213.963558 -128.942144 
L 213.993417 -128.944892 
L 214.023938 -128.947639 
L 214.055112 -128.950386 
L 214.086925 -128.953134 
L 214.119358 -128.955881 
L 214.152391 -128.958628 
L 214.186 -128.961376 
L 214.220158 -128.964123 
L 214.254834 -128.96687 
L 214.289996 -128.969618 
L 214.325606 -128.972365 
L 214.361628 -128.975112 
L 214.398018 -128.97786 
L 214.434735 -128.980607 
L 214.471732 -128.983354 
L 214.508963 -128.986102 
L 214.546378 -128.988849 
L 214.583927 -128.991596 
L 214.621558 -128.994344 
L 214.65922 -128.997091 
L 216.922217 -128.997091 
L 216.922217 -128.997091 
L 216.959879 -128.994344 
L 216.99751 -128.991596 
L 217.035059 -128.988849 
L 217.072474 -128.986102 
L 217.109705 -128.983354 
L 217.146702 -128.980607 
L 217.183419 -128.97786 
L 217.219809 -128.975112 
L 217.255831 -128.972365 
L 217.291441 -128.969618 
L 217.326603 -128.96687 
L 217.361279 -128.964123 
L 217.395437 -128.961376 
L 217.429046 -128.958628 
L 217.462079 -128.955881 
L 217.494512 -128.953134 
L 217.526325 -128.950386 
L 217.557499 -128.947639 
L 217.58802 -128.944892 
L 217.617879 -128.942144 
L 217.647068 -128.939397 
L 217.675582 -128.93665 
L 217.703422 -128.933902 
L 217.73059 -128.931155 
L 217.75709 -128.928408 
L 217.782932 -128.92566 
L 217.808125 -128.922913 
L 217.832684 -128.920166 
L 217.856623 -128.917418 
L 217.879959 -128.914671 
L 217.902711 -128.911924 
L 217.924898 -128.909176 
L 217.946541 -128.906429 
L 217.967662 -128.903682 
L 217.988282 -128.900935 
L 218.008422 -128.898187 
L 218.028105 -128.89544 
L 218.04735 -128.892693 
L 218.066179 -128.889945 
L 218.08461 -128.887198 
L 218.102662 -128.884451 
L 218.12035 -128.881703 
L 218.137692 -128.878956 
L 218.154699 -128.876209 
L 218.171384 -128.873461 
L 218.187757 -128.870714 
L 218.203825 -128.867967 
L 218.219595 -128.865219 
L 218.23507 -128.862472 
L 218.250252 -128.859725 
L 218.265138 -128.856977 
L 218.279727 -128.85423 
L 218.294012 -128.851483 
L 218.307983 -128.848735 
L 218.321629 -128.845988 
L 218.334935 -128.843241 
L 218.347883 -128.840493 
L 218.36045 -128.837746 
L 218.372613 -128.834999 
L 218.38434 -128.832251 
L 218.3956 -128.829504 
L 218.406354 -128.826757 
L 218.41656 -128.824009 
L 218.426172 -128.821262 
L 218.435138 -128.818515 
L 218.443401 -128.815767 
L 218.450901 -128.81302 
L 218.457571 -128.810273 
L 218.46334 -128.807525 
L 218.468134 -128.804778 
L 218.471873 -128.802031 
L 218.474474 -128.799283 
L 218.475849 -128.796536 
L 218.475909 -128.793789 
L 218.474562 -128.791041 
L 218.471715 -128.788294 
L 218.467274 -128.785547 
L 218.461144 -128.7828 
L 218.453233 -128.780052 
L 218.443451 -128.777305 
L 218.43171 -128.774558 
L 218.417929 -128.77181 
L 218.40203 -128.769063 
L 218.383944 -128.766316 
L 218.363608 -128.763568 
L 218.34097 -128.760821 
L 218.315986 -128.758074 
L 218.288625 -128.755326 
L 218.258866 -128.752579 
L 218.226704 -128.749832 
L 218.192144 -128.747084 
L 218.155206 -128.744337 
L 218.115925 -128.74159 
L 218.074349 -128.738842 
L 218.030544 -128.736095 
L 217.984586 -128.733348 
L 217.936568 -128.7306 
L 217.886595 -128.727853 
L 217.834787 -128.725106 
z
" style="stroke: #6f6f6f; stroke-opacity: 0.5"/>
    </defs>
    <g clip-path="url(#p4b14f6399c)">
     <use xlink:href="#mde262f6e21" x="0" y="144" style="fill: #9e9e9e; fill-opacity: 0.5; stroke: #6f6f6f; stroke-opacity: 0.5"/>
    </g>
   </g>
   <g id="matplotlib.axis_1">
    <g id="xtick_1">
     <g id="line2d_1">
      <path d="M 54.679282 103.264 
L 54.679282 10.8 
" clip-path="url(#p4b14f6399c)" style="fill: none; stroke: #b0b0b0; stroke-opacity: 0.2; stroke-width: 0.8; stroke-linecap: square"/>
     </g>
     <g id="line2d_2">
      <defs>
       <path id="m0098af75b2" d="M 0 0 
L 0 3.5 
" style="stroke: #000000; stroke-width: 0.8"/>
      </defs>
      <g>
       <use xlink:href="#m0098af75b2" x="54.679282" y="103.264" style="stroke: #000000; stroke-width: 0.8"/>
      </g>
     </g>
     <g id="text_1">
      <!-- 0 -->
      <g transform="translate(52.134282 116.34275) scale(0.08 -0.08)">
       <defs>
        <path id="DejaVuSans-30" d="M 2034 4250 
Q 1547 4250 1301 3770 
Q 1056 3291 1056 2328 
Q 1056 1369 1301 889 
Q 1547 409 2034 409 
Q 2525 409 2770 889 
Q 3016 1369 3016 2328 
Q 3016 3291 2770 3770 
Q 2525 4250 2034 4250 
z
M 2034 4750 
Q 2819 4750 3233 4129 
Q 3647 3509 3647 2328 
Q 3647 1150 3233 529 
Q 2819 -91 2034 -91 
Q 1250 -91 836 529 
Q 422 1150 422 2328 
Q 422 3509 836 4129 
Q 1250 4750 2034 4750 
z
" transform="scale(0.015625)"/>
       </defs>
       <use xlink:href="#DejaVuSans-30"/>
      </g>
     </g>
    </g>
    <g id="xtick_2">
     <g id="line2d_3">
      <path d="M 108.383094 103.264 
L 108.383094 10.8 
" clip-path="url(#p4b14f6399c)" style="fill: none; stroke: #b0b0b0; stroke-opacity: 0.2; stroke-width: 0.8; stroke-linecap: square"/>
     </g>
     <g id="line2d_4">
      <g>
       <use xlink:href="#m0098af75b2" x="108.383094" y="103.264" style="stroke: #000000; stroke-width: 0.8"/>
      </g>
     </g>
     <g id="text_2">
      <!-- 6 -->
      <g transform="translate(105.838094 116.34275) scale(0.08 -0.08)">
       <defs>
        <path id="DejaVuSans-36" d="M 2113 2584 
Q 1688 2584 1439 2293 
Q 1191 2003 1191 1497 
Q 1191 994 1439 701 
Q 1688 409 2113 409 
Q 2538 409 2786 701 
Q 3034 994 3034 1497 
Q 3034 2003 2786 2293 
Q 2538 2584 2113 2584 
z
M 3366 4563 
L 3366 3988 
Q 3128 4100 2886 4159 
Q 2644 4219 2406 4219 
Q 1781 4219 1451 3797 
Q 1122 3375 1075 2522 
Q 1259 2794 1537 2939 
Q 1816 3084 2150 3084 
Q 2853 3084 3261 2657 
Q 3669 2231 3669 1497 
Q 3669 778 3244 343 
Q 2819 -91 2113 -91 
Q 1303 -91 875 529 
Q 447 1150 447 2328 
Q 447 3434 972 4092 
Q 1497 4750 2381 4750 
Q 2619 4750 2861 4703 
Q 3103 4656 3366 4563 
z
" transform="scale(0.015625)"/>
       </defs>
       <use xlink:href="#DejaVuSans-36"/>
      </g>
     </g>
    </g>
    <g id="xtick_3">
     <g id="line2d_5">
      <path d="M 162.086906 103.264 
L 162.086906 10.8 
" clip-path="url(#p4b14f6399c)" style="fill: none; stroke: #b0b0b0; stroke-opacity: 0.2; stroke-width: 0.8; stroke-linecap: square"/>
     </g>
     <g id="line2d_6">
      <g>
       <use xlink:href="#m0098af75b2" x="162.086906" y="103.264" style="stroke: #000000; stroke-width: 0.8"/>
      </g>
     </g>
     <g id="text_3">
      <!-- 12 -->
      <g transform="translate(156.996906 116.34275) scale(0.08 -0.08)">
       <defs>
        <path id="DejaVuSans-31" d="M 794 531 
L 1825 531 
L 1825 4091 
L 703 3866 
L 703 4441 
L 1819 4666 
L 2450 4666 
L 2450 531 
L 3481 531 
L 3481 0 
L 794 0 
L 794 531 
z
" transform="scale(0.015625)"/>
        <path id="DejaVuSans-32" d="M 1228 531 
L 3431 531 
L 3431 0 
L 469 0 
L 469 531 
Q 828 903 1448 1529 
Q 2069 2156 2228 2338 
Q 2531 2678 2651 2914 
Q 2772 3150 2772 3378 
Q 2772 3750 2511 3984 
Q 2250 4219 1831 4219 
Q 1534 4219 1204 4116 
Q 875 4013 500 3803 
L 500 4441 
Q 881 4594 1212 4672 
Q 1544 4750 1819 4750 
Q 2544 4750 2975 4387 
Q 3406 4025 3406 3419 
Q 3406 3131 3298 2873 
Q 3191 2616 2906 2266 
Q 2828 2175 2409 1742 
Q 1991 1309 1228 531 
z
" transform="scale(0.015625)"/>
       </defs>
       <use xlink:href="#DejaVuSans-31"/>
       <use xlink:href="#DejaVuSans-32" transform="translate(63.623047 0)"/>
      </g>
     </g>
    </g>
    <g id="xtick_4">
     <g id="line2d_7">
      <path d="M 188.938812 103.264 
L 188.938812 10.8 
" clip-path="url(#p4b14f6399c)" style="fill: none; stroke: #b0b0b0; stroke-opacity: 0.2; stroke-width: 0.8; stroke-linecap: square"/>
     </g>
     <g id="line2d_8">
      <g>
       <use xlink:href="#m0098af75b2" x="188.938812" y="103.264" style="stroke: #000000; stroke-width: 0.8"/>
      </g>
     </g>
     <g id="text_4">
      <!-- 15 -->
      <g transform="translate(183.848812 116.34275) scale(0.08 -0.08)">
       <defs>
        <path id="DejaVuSans-35" d="M 691 4666 
L 3169 4666 
L 3169 4134 
L 1269 4134 
L 1269 2991 
Q 1406 3038 1543 3061 
Q 1681 3084 1819 3084 
Q 2600 3084 3056 2656 
Q 3513 2228 3513 1497 
Q 3513 744 3044 326 
Q 2575 -91 1722 -91 
Q 1428 -91 1123 -41 
Q 819 9 494 109 
L 494 744 
Q 775 591 1075 516 
Q 1375 441 1709 441 
Q 2250 441 2565 725 
Q 2881 1009 2881 1497 
Q 2881 1984 2565 2268 
Q 2250 2553 1709 2553 
Q 1456 2553 1204 2497 
Q 953 2441 691 2322 
L 691 4666 
z
" transform="scale(0.015625)"/>
       </defs>
       <use xlink:href="#DejaVuSans-31"/>
       <use xlink:href="#DejaVuSans-35" transform="translate(63.623047 0)"/>
      </g>
     </g>
    </g>
    <g id="xtick_5">
     <g id="line2d_9">
      <path d="M 215.790718 103.264 
L 215.790718 10.8 
" clip-path="url(#p4b14f6399c)" style="fill: none; stroke: #b0b0b0; stroke-opacity: 0.2; stroke-width: 0.8; stroke-linecap: square"/>
     </g>
     <g id="line2d_10">
      <g>
       <use xlink:href="#m0098af75b2" x="215.790718" y="103.264" style="stroke: #000000; stroke-width: 0.8"/>
      </g>
     </g>
     <g id="text_5">
      <!-- 18 -->
      <g transform="translate(210.700718 116.34275) scale(0.08 -0.08)">
       <defs>
        <path id="DejaVuSans-38" d="M 2034 2216 
Q 1584 2216 1326 1975 
Q 1069 1734 1069 1313 
Q 1069 891 1326 650 
Q 1584 409 2034 409 
Q 2484 409 2743 651 
Q 3003 894 3003 1313 
Q 3003 1734 2745 1975 
Q 2488 2216 2034 2216 
z
M 1403 2484 
Q 997 2584 770 2862 
Q 544 3141 544 3541 
Q 544 4100 942 4425 
Q 1341 4750 2034 4750 
Q 2731 4750 3128 4425 
Q 3525 4100 3525 3541 
Q 3525 3141 3298 2862 
Q 3072 2584 2669 2484 
Q 3125 2378 3379 2068 
Q 3634 1759 3634 1313 
Q 3634 634 3220 271 
Q 2806 -91 2034 -91 
Q 1263 -91 848 271 
Q 434 634 434 1313 
Q 434 1759 690 2068 
Q 947 2378 1403 2484 
z
M 1172 3481 
Q 1172 3119 1398 2916 
Q 1625 2713 2034 2713 
Q 2441 2713 2670 2916 
Q 2900 3119 2900 3481 
Q 2900 3844 2670 4047 
Q 2441 4250 2034 4250 
Q 1625 4250 1398 4047 
Q 1172 3844 1172 3481 
z
" transform="scale(0.015625)"/>
       </defs>
       <use xlink:href="#DejaVuSans-31"/>
       <use xlink:href="#DejaVuSans-38" transform="translate(63.623047 0)"/>
      </g>
     </g>
    </g>
    <g id="text_6">
     <!-- $\varepsilon_\mathrm{reactiveLJ}$ -->
     <g transform="translate(115.135 128.584625) scale(0.1 -0.1)">
      <defs>
       <path id="DejaVuSans-Oblique-3b5" d="M 1263 1888 
Q 925 1963 778 2166 
Q 669 2309 669 2503 
Q 669 3034 1175 3344 
Q 1575 3588 2188 3588 
Q 2425 3588 2684 3550 
Q 2944 3513 3234 3438 
L 3134 2916 
Q 2847 3006 2606 3047 
Q 2359 3088 2138 3088 
Q 1766 3088 1522 2944 
Q 1228 2772 1228 2522 
Q 1228 2356 1381 2241 
Q 1563 2103 1925 2103 
L 2409 2103 
L 2319 1628 
L 1856 1628 
Q 1425 1628 1172 1469 
Q 828 1253 828 916 
Q 828 703 1013 563 
Q 1244 388 1716 388 
Q 2006 388 2284 444 
Q 2563 503 2806 619 
L 2700 84 
Q 2403 -3 2131 -47 
Q 1859 -91 1609 -91 
Q 866 -91 516 194 
Q 250 413 250 781 
Q 250 1278 600 1584 
Q 859 1813 1263 1888 
z
" transform="scale(0.015625)"/>
       <path id="DejaVuSans-72" d="M 2631 2963 
Q 2534 3019 2420 3045 
Q 2306 3072 2169 3072 
Q 1681 3072 1420 2755 
Q 1159 2438 1159 1844 
L 1159 0 
L 581 0 
L 581 3500 
L 1159 3500 
L 1159 2956 
Q 1341 3275 1631 3429 
Q 1922 3584 2338 3584 
Q 2397 3584 2469 3576 
Q 2541 3569 2628 3553 
L 2631 2963 
z
" transform="scale(0.015625)"/>
       <path id="DejaVuSans-65" d="M 3597 1894 
L 3597 1613 
L 953 1613 
Q 991 1019 1311 708 
Q 1631 397 2203 397 
Q 2534 397 2845 478 
Q 3156 559 3463 722 
L 3463 178 
Q 3153 47 2828 -22 
Q 2503 -91 2169 -91 
Q 1331 -91 842 396 
Q 353 884 353 1716 
Q 353 2575 817 3079 
Q 1281 3584 2069 3584 
Q 2775 3584 3186 3129 
Q 3597 2675 3597 1894 
z
M 3022 2063 
Q 3016 2534 2758 2815 
Q 2500 3097 2075 3097 
Q 1594 3097 1305 2825 
Q 1016 2553 972 2059 
L 3022 2063 
z
" transform="scale(0.015625)"/>
       <path id="DejaVuSans-61" d="M 2194 1759 
Q 1497 1759 1228 1600 
Q 959 1441 959 1056 
Q 959 750 1161 570 
Q 1363 391 1709 391 
Q 2188 391 2477 730 
Q 2766 1069 2766 1631 
L 2766 1759 
L 2194 1759 
z
M 3341 1997 
L 3341 0 
L 2766 0 
L 2766 531 
Q 2569 213 2275 61 
Q 1981 -91 1556 -91 
Q 1019 -91 701 211 
Q 384 513 384 1019 
Q 384 1609 779 1909 
Q 1175 2209 1959 2209 
L 2766 2209 
L 2766 2266 
Q 2766 2663 2505 2880 
Q 2244 3097 1772 3097 
Q 1472 3097 1187 3025 
Q 903 2953 641 2809 
L 641 3341 
Q 956 3463 1253 3523 
Q 1550 3584 1831 3584 
Q 2591 3584 2966 3190 
Q 3341 2797 3341 1997 
z
" transform="scale(0.015625)"/>
       <path id="DejaVuSans-63" d="M 3122 3366 
L 3122 2828 
Q 2878 2963 2633 3030 
Q 2388 3097 2138 3097 
Q 1578 3097 1268 2742 
Q 959 2388 959 1747 
Q 959 1106 1268 751 
Q 1578 397 2138 397 
Q 2388 397 2633 464 
Q 2878 531 3122 666 
L 3122 134 
Q 2881 22 2623 -34 
Q 2366 -91 2075 -91 
Q 1284 -91 818 406 
Q 353 903 353 1747 
Q 353 2603 823 3093 
Q 1294 3584 2113 3584 
Q 2378 3584 2631 3529 
Q 2884 3475 3122 3366 
z
" transform="scale(0.015625)"/>
       <path id="DejaVuSans-74" d="M 1172 4494 
L 1172 3500 
L 2356 3500 
L 2356 3053 
L 1172 3053 
L 1172 1153 
Q 1172 725 1289 603 
Q 1406 481 1766 481 
L 2356 481 
L 2356 0 
L 1766 0 
Q 1100 0 847 248 
Q 594 497 594 1153 
L 594 3053 
L 172 3053 
L 172 3500 
L 594 3500 
L 594 4494 
L 1172 4494 
z
" transform="scale(0.015625)"/>
       <path id="DejaVuSans-69" d="M 603 3500 
L 1178 3500 
L 1178 0 
L 603 0 
L 603 3500 
z
M 603 4863 
L 1178 4863 
L 1178 4134 
L 603 4134 
L 603 4863 
z
" transform="scale(0.015625)"/>
       <path id="DejaVuSans-76" d="M 191 3500 
L 800 3500 
L 1894 563 
L 2988 3500 
L 3597 3500 
L 2284 0 
L 1503 0 
L 191 3500 
z
" transform="scale(0.015625)"/>
       <path id="DejaVuSans-4c" d="M 628 4666 
L 1259 4666 
L 1259 531 
L 3531 531 
L 3531 0 
L 628 0 
L 628 4666 
z
" transform="scale(0.015625)"/>
       <path id="DejaVuSans-4a" d="M 628 4666 
L 1259 4666 
L 1259 325 
Q 1259 -519 939 -900 
Q 619 -1281 -91 -1281 
L -331 -1281 
L -331 -750 
L -134 -750 
Q 284 -750 456 -515 
Q 628 -281 628 325 
L 628 4666 
z
" transform="scale(0.015625)"/>
      </defs>
      <use xlink:href="#DejaVuSans-Oblique-3b5" transform="translate(0 0.9375)"/>
      <use xlink:href="#DejaVuSans-72" transform="translate(54.052734 -15.46875) scale(0.7)"/>
      <use xlink:href="#DejaVuSans-65" transform="translate(82.832031 -15.46875) scale(0.7)"/>
      <use xlink:href="#DejaVuSans-61" transform="translate(125.898438 -15.46875) scale(0.7)"/>
      <use xlink:href="#DejaVuSans-63" transform="translate(168.793945 -15.46875) scale(0.7)"/>
      <use xlink:href="#DejaVuSans-74" transform="translate(207.280273 -15.46875) scale(0.7)"/>
      <use xlink:href="#DejaVuSans-69" transform="translate(234.726562 -15.46875) scale(0.7)"/>
      <use xlink:href="#DejaVuSans-76" transform="translate(254.174805 -15.46875) scale(0.7)"/>
      <use xlink:href="#DejaVuSans-65" transform="translate(295.600586 -15.46875) scale(0.7)"/>
      <use xlink:href="#DejaVuSans-4c" transform="translate(338.666992 -15.46875) scale(0.7)"/>
      <use xlink:href="#DejaVuSans-4a" transform="translate(377.666016 -15.46875) scale(0.7)"/>
     </g>
    </g>
   </g>
   <g id="matplotlib.axis_2">
    <g id="ytick_1">
     <g id="line2d_11">
      <path d="M 43.67 99.211527 
L 226.8 99.211527 
" clip-path="url(#p4b14f6399c)" style="fill: none; stroke: #b0b0b0; stroke-opacity: 0.2; stroke-width: 0.8; stroke-linecap: square"/>
     </g>
     <g id="line2d_12">
      <defs>
       <path id="md177854aa3" d="M 0 0 
L -3.5 0 
" style="stroke: #000000; stroke-width: 0.8"/>
      </defs>
      <g>
       <use xlink:href="#md177854aa3" x="43.67" y="99.211527" style="stroke: #000000; stroke-width: 0.8"/>
      </g>
     </g>
     <g id="text_7">
      <!-- −1 -->
      <g transform="translate(24.87625 102.250902) scale(0.08 -0.08)">
       <defs>
        <path id="DejaVuSans-2212" d="M 678 2272 
L 4684 2272 
L 4684 1741 
L 678 1741 
L 678 2272 
z
" transform="scale(0.015625)"/>
       </defs>
       <use xlink:href="#DejaVuSans-2212"/>
       <use xlink:href="#DejaVuSans-31" transform="translate(83.789062 0)"/>
      </g>
     </g>
    </g>
    <g id="ytick_2">
     <g id="line2d_13">
      <path d="M 43.67 69.024622 
L 226.8 69.024622 
" clip-path="url(#p4b14f6399c)" style="fill: none; stroke: #b0b0b0; stroke-opacity: 0.2; stroke-width: 0.8; stroke-linecap: square"/>
     </g>
     <g id="line2d_14">
      <g>
       <use xlink:href="#md177854aa3" x="43.67" y="69.024622" style="stroke: #000000; stroke-width: 0.8"/>
      </g>
     </g>
     <g id="text_8">
      <!-- 0 -->
      <g transform="translate(31.58 72.063997) scale(0.08 -0.08)">
       <use xlink:href="#DejaVuSans-30"/>
      </g>
     </g>
    </g>
    <g id="ytick_3">
     <g id="line2d_15">
      <path d="M 43.67 38.837717 
L 226.8 38.837717 
" clip-path="url(#p4b14f6399c)" style="fill: none; stroke: #b0b0b0; stroke-opacity: 0.2; stroke-width: 0.8; stroke-linecap: square"/>
     </g>
     <g id="line2d_16">
      <g>
       <use xlink:href="#md177854aa3" x="43.67" y="38.837717" style="stroke: #000000; stroke-width: 0.8"/>
      </g>
     </g>
     <g id="text_9">
      <!-- 1 -->
      <g transform="translate(31.58 41.877092) scale(0.08 -0.08)">
       <use xlink:href="#DejaVuSans-31"/>
      </g>
     </g>
    </g>
    <g id="text_10">
     <!-- gelation epsilon -->
     <g transform="translate(18.796562 96.764031) rotate(-90) scale(0.1 -0.1)">
      <defs>
       <path id="DejaVuSans-67" d="M 2906 1791 
Q 2906 2416 2648 2759 
Q 2391 3103 1925 3103 
Q 1463 3103 1205 2759 
Q 947 2416 947 1791 
Q 947 1169 1205 825 
Q 1463 481 1925 481 
Q 2391 481 2648 825 
Q 2906 1169 2906 1791 
z
M 3481 434 
Q 3481 -459 3084 -895 
Q 2688 -1331 1869 -1331 
Q 1566 -1331 1297 -1286 
Q 1028 -1241 775 -1147 
L 775 -588 
Q 1028 -725 1275 -790 
Q 1522 -856 1778 -856 
Q 2344 -856 2625 -561 
Q 2906 -266 2906 331 
L 2906 616 
Q 2728 306 2450 153 
Q 2172 0 1784 0 
Q 1141 0 747 490 
Q 353 981 353 1791 
Q 353 2603 747 3093 
Q 1141 3584 1784 3584 
Q 2172 3584 2450 3431 
Q 2728 3278 2906 2969 
L 2906 3500 
L 3481 3500 
L 3481 434 
z
" transform="scale(0.015625)"/>
       <path id="DejaVuSans-6c" d="M 603 4863 
L 1178 4863 
L 1178 0 
L 603 0 
L 603 4863 
z
" transform="scale(0.015625)"/>
       <path id="DejaVuSans-6f" d="M 1959 3097 
Q 1497 3097 1228 2736 
Q 959 2375 959 1747 
Q 959 1119 1226 758 
Q 1494 397 1959 397 
Q 2419 397 2687 759 
Q 2956 1122 2956 1747 
Q 2956 2369 2687 2733 
Q 2419 3097 1959 3097 
z
M 1959 3584 
Q 2709 3584 3137 3096 
Q 3566 2609 3566 1747 
Q 3566 888 3137 398 
Q 2709 -91 1959 -91 
Q 1206 -91 779 398 
Q 353 888 353 1747 
Q 353 2609 779 3096 
Q 1206 3584 1959 3584 
z
" transform="scale(0.015625)"/>
       <path id="DejaVuSans-6e" d="M 3513 2113 
L 3513 0 
L 2938 0 
L 2938 2094 
Q 2938 2591 2744 2837 
Q 2550 3084 2163 3084 
Q 1697 3084 1428 2787 
Q 1159 2491 1159 1978 
L 1159 0 
L 581 0 
L 581 3500 
L 1159 3500 
L 1159 2956 
Q 1366 3272 1645 3428 
Q 1925 3584 2291 3584 
Q 2894 3584 3203 3211 
Q 3513 2838 3513 2113 
z
" transform="scale(0.015625)"/>
       <path id="DejaVuSans-20" transform="scale(0.015625)"/>
       <path id="DejaVuSans-70" d="M 1159 525 
L 1159 -1331 
L 581 -1331 
L 581 3500 
L 1159 3500 
L 1159 2969 
Q 1341 3281 1617 3432 
Q 1894 3584 2278 3584 
Q 2916 3584 3314 3078 
Q 3713 2572 3713 1747 
Q 3713 922 3314 415 
Q 2916 -91 2278 -91 
Q 1894 -91 1617 61 
Q 1341 213 1159 525 
z
M 3116 1747 
Q 3116 2381 2855 2742 
Q 2594 3103 2138 3103 
Q 1681 3103 1420 2742 
Q 1159 2381 1159 1747 
Q 1159 1113 1420 752 
Q 1681 391 2138 391 
Q 2594 391 2855 752 
Q 3116 1113 3116 1747 
z
" transform="scale(0.015625)"/>
       <path id="DejaVuSans-73" d="M 2834 3397 
L 2834 2853 
Q 2591 2978 2328 3040 
Q 2066 3103 1784 3103 
Q 1356 3103 1142 2972 
Q 928 2841 928 2578 
Q 928 2378 1081 2264 
Q 1234 2150 1697 2047 
L 1894 2003 
Q 2506 1872 2764 1633 
Q 3022 1394 3022 966 
Q 3022 478 2636 193 
Q 2250 -91 1575 -91 
Q 1294 -91 989 -36 
Q 684 19 347 128 
L 347 722 
Q 666 556 975 473 
Q 1284 391 1588 391 
Q 1994 391 2212 530 
Q 2431 669 2431 922 
Q 2431 1156 2273 1281 
Q 2116 1406 1581 1522 
L 1381 1569 
Q 847 1681 609 1914 
Q 372 2147 372 2553 
Q 372 3047 722 3315 
Q 1072 3584 1716 3584 
Q 2034 3584 2315 3537 
Q 2597 3491 2834 3397 
z
" transform="scale(0.015625)"/>
      </defs>
      <use xlink:href="#DejaVuSans-67"/>
      <use xlink:href="#DejaVuSans-65" transform="translate(63.476562 0)"/>
      <use xlink:href="#DejaVuSans-6c" transform="translate(125 0)"/>
      <use xlink:href="#DejaVuSans-61" transform="translate(152.783203 0)"/>
      <use xlink:href="#DejaVuSans-74" transform="translate(214.0625 0)"/>
      <use xlink:href="#DejaVuSans-69" transform="translate(253.271484 0)"/>
      <use xlink:href="#DejaVuSans-6f" transform="translate(281.054688 0)"/>
      <use xlink:href="#DejaVuSans-6e" transform="translate(342.236328 0)"/>
      <use xlink:href="#DejaVuSans-20" transform="translate(405.615234 0)"/>
      <use xlink:href="#DejaVuSans-65" transform="translate(437.402344 0)"/>
      <use xlink:href="#DejaVuSans-70" transform="translate(498.925781 0)"/>
      <use xlink:href="#DejaVuSans-73" transform="translate(562.402344 0)"/>
      <use xlink:href="#DejaVuSans-69" transform="translate(614.501953 0)"/>
      <use xlink:href="#DejaVuSans-6c" transform="translate(642.285156 0)"/>
      <use xlink:href="#DejaVuSans-6f" transform="translate(670.068359 0)"/>
      <use xlink:href="#DejaVuSans-6e" transform="translate(731.25 0)"/>
     </g>
    </g>
   </g>
   <g id="LineCollection_1">
    <path d="M 54.679282 99.058008 
L 54.679282 99.05676 
" clip-path="url(#p4b14f6399c)" style="fill: none; stroke: #2b2b2b; stroke-width: 2"/>
   </g>
   <g id="LineCollection_2">
    <path d="M 108.383094 94.423405 
L 108.383094 94.401948 
" clip-path="url(#p4b14f6399c)" style="fill: none; stroke: #2b2b2b; stroke-width: 2"/>
   </g>
   <g id="LineCollection_3">
    <path d="M 162.086906 49.594843 
L 162.086906 49.573763 
" clip-path="url(#p4b14f6399c)" style="fill: none; stroke: #2b2b2b; stroke-width: 2"/>
   </g>
   <g id="LineCollection_4">
    <path d="M 188.938812 26.570552 
L 188.938812 26.549368 
" clip-path="url(#p4b14f6399c)" style="fill: none; stroke: #2b2b2b; stroke-width: 2"/>
   </g>
   <g id="LineCollection_5">
    <path d="M 215.790718 15.240553 
L 215.790718 15.087495 
" clip-path="url(#p4b14f6399c)" style="fill: none; stroke: #2b2b2b; stroke-width: 2"/>
   </g>
   <g id="line2d_17">
    <path d="M 54.679282 99.05732 
L 108.383094 94.410471 
L 162.086906 49.580926 
L 188.938812 26.564249 
L 215.790718 15.165504 
" clip-path="url(#p4b14f6399c)" style="fill: none; stroke: #2b2b2b; stroke-opacity: 0.9; stroke-width: 1.8; stroke-linecap: square"/>
   </g>
   <g id="patch_3">
    <path d="M 43.67 103.264 
L 43.67 10.8 
" style="fill: none; stroke: #000000; stroke-width: 0.8; stroke-linejoin: miter; stroke-linecap: square"/>
   </g>
   <g id="patch_4">
    <path d="M 226.8 103.264 
L 226.8 10.8 
" style="fill: none; stroke: #000000; stroke-width: 0.8; stroke-linejoin: miter; stroke-linecap: square"/>
   </g>
   <g id="patch_5">
    <path d="M 43.67 103.264 
L 226.8 103.264 
" style="fill: none; stroke: #000000; stroke-width: 0.8; stroke-linejoin: miter; stroke-linecap: square"/>
   </g>
   <g id="patch_6">
    <path d="M 43.67 10.8 
L 226.8 10.8 
" style="fill: none; stroke: #000000; stroke-width: 0.8; stroke-linejoin: miter; stroke-linecap: square"/>
   </g>
   <g id="PathCollection_1">
    <defs>
     <path id="m7548aa0aac" d="M 0 2.12132 
C 0.562581 2.12132 1.102195 1.897805 1.5 1.5 
C 1.897805 1.102195 2.12132 0.562581 2.12132 0 
C 2.12132 -0.562581 1.897805 -1.102195 1.5 -1.5 
C 1.102195 -1.897805 0.562581 -2.12132 0 -2.12132 
C -0.562581 -2.12132 -1.102195 -1.897805 -1.5 -1.5 
C -1.897805 -1.102195 -2.12132 -0.562581 -2.12132 0 
C -2.12132 0.562581 -1.897805 1.102195 -1.5 1.5 
C -1.102195 1.897805 -0.562581 2.12132 0 2.12132 
z
" style="stroke: #2b2b2b"/>
    </defs>
    <g clip-path="url(#p4b14f6399c)">
     <use xlink:href="#m7548aa0aac" x="54.679282" y="99.05732" style="fill: #2b2b2b; stroke: #2b2b2b"/>
    </g>
   </g>
   <g id="PathCollection_2">
    <g clip-path="url(#p4b14f6399c)">
     <use xlink:href="#m7548aa0aac" x="108.383094" y="94.410471" style="fill: #2b2b2b; stroke: #2b2b2b"/>
    </g>
   </g>
   <g id="PathCollection_3">
    <g clip-path="url(#p4b14f6399c)">
     <use xlink:href="#m7548aa0aac" x="162.086906" y="49.580926" style="fill: #2b2b2b; stroke: #2b2b2b"/>
    </g>
   </g>
   <g id="PathCollection_4">
    <g clip-path="url(#p4b14f6399c)">
     <use xlink:href="#m7548aa0aac" x="188.938812" y="26.564249" style="fill: #2b2b2b; stroke: #2b2b2b"/>
    </g>
   </g>
   <g id="PathCollection_5">
    <g clip-path="url(#p4b14f6399c)">
     <use xlink:href="#m7548aa0aac" x="215.790718" y="15.165504" style="fill: #2b2b2b; stroke: #2b2b2b"/>
    </g>
   </g>
  </g>
 </g>
 <defs>
  <clipPath id="p4b14f6399c">
   <rect x="43.67" y="10.8" width="183.13" height="92.464"/>
  </clipPath>
 </defs>
</svg>
