<?xml version="1.0" encoding="utf-8" standalone="no"?>
<!DOCTYPE svg PUBLIC "-//W3C//DTD SVG 1.1//EN"
  "http://www.w3.org/Graphics/SVG/1.1/DTD/svg11.dtd">
<svg xmlns:xlink="http://www.w3.org/1999/xlink" width="237.6pt" height="144pt" viewBox="0 0 237.6 144" xmlns="http://www.w3.org/2000/svg" version="1.1">
 <metadata>
  <rdf:RDF xmlns:dc="http://purl.org/dc/elements/1.1/" xmlns:cc="http://creativecommons.org/ns#" xmlns:rdf="http://www.w3.org/1999/02/22-rdf-syntax-ns#">
   <cc:Work>
    <dc:type rdf:resource="http://purl.org/dc/dcmitype/StillImage"/>
    <dc:date>2026-06-06T13:48:20.085423</dc:date>
    <dc:format>image/svg+xml</dc:format>
    <dc:creator>
     <cc:Agent>
      <dc:title>Matplotlib v3.10.8, https://matplotlib.org/</dc:title>
     </cc:Agent>
    </dc:creator>
   </cc:Work>
  </rdf:RDF>
 </metadata>
 <defs>
  <style type="text/css">*{stroke-linejoin: round; stroke-linecap: butt}</style>
 </defs>
 <g id="figure_1">
  <g id="patch_1">
   <path d="M 0 144 
L 237.6 144 
L 237.6 0 
L 0 0 
z
" style="fill: #ffffff"/>
  </g>
  <g id="axes_1">
   <g id="patch_2">
    <path d="M 33.66 116.46 
L 181.66 116.46 
L 181.66 17.372 
L 33.66 17.372 
z
" style="fill: #ffffff"/>
   </g>
   <g id="matplotlib.axis_1">
    <g id="xtick_1">
     <g id="line2d_1">
      <defs>
       <path id="m7ca0f31716" d="M 0 0 
L 0 -4 
" style="stroke: #000000; stroke-width: 0.6"/>
      </defs>
      <g>
       <use xlink:href="#m7ca0f31716" x="47.114545" y="116.46" style="stroke: #000000; stroke-width: 0.6"/>
      </g>
     </g>
     <g id="line2d_2">
      <defs>
       <path id="mb2d8ff6097" d="M 0 0 
L 0 4 
" style="stroke: #000000; stroke-width: 0.6"/>
      </defs>
      <g>
       <use xlink:href="#mb2d8ff6097" x="47.114545" y="17.372" style="stroke: #000000; stroke-width: 0.6"/>
      </g>
     </g>
     <g id="text_1">
      <!-- 1 -->
      <g transform="translate(44.890795 124.2925) scale(0.08 -0.08)">
       <defs>
        <path id="TeXGyreHeros-Regular-31" d="M 2221 0 
L 1658 0 
L 1658 3232 
L 653 3232 
L 653 3635 
Q 1306 3718 1504 3865 
Q 1702 4013 1850 4538 
L 2221 4538 
L 2221 0 
z
" transform="scale(0.015625)"/>
       </defs>
       <use xlink:href="#TeXGyreHeros-Regular-31"/>
      </g>
     </g>
    </g>
    <g id="xtick_2">
     <g id="line2d_3">
      <g>
       <use xlink:href="#m7ca0f31716" x="74.023636" y="116.46" style="stroke: #000000; stroke-width: 0.6"/>
      </g>
     </g>
     <g id="line2d_4">
      <g>
       <use xlink:href="#mb2d8ff6097" x="74.023636" y="17.372" style="stroke: #000000; stroke-width: 0.6"/>
      </g>
     </g>
     <g id="text_2">
      <!-- 1.1 -->
      <g transform="translate(68.464261 124.2925) scale(0.08 -0.08)">
       <defs>
        <path id="TeXGyreHeros-Regular-2e" d="M 1222 0 
L 557 0 
L 557 666 
L 1222 666 
L 1222 0 
z
" transform="scale(0.015625)"/>
       </defs>
       <use xlink:href="#TeXGyreHeros-Regular-31"/>
       <use xlink:href="#TeXGyreHeros-Regular-2e" transform="translate(55.599991 0)"/>
       <use xlink:href="#TeXGyreHeros-Regular-31" transform="translate(83.399979 0)"/>
      </g>
     </g>
    </g>
    <g id="xtick_3">
     <g id="line2d_5">
      <g>
       <use xlink:href="#m7ca0f31716" x="100.932727" y="116.46" style="stroke: #000000; stroke-width: 0.6"/>
      </g>
     </g>
     <g id="line2d_6">
      <g>
       <use xlink:href="#mb2d8ff6097" x="100.932727" y="17.372" style="stroke: #000000; stroke-width: 0.6"/>
      </g>
     </g>
     <g id="text_3">
      <!-- 1.2 -->
      <g transform="translate(95.373352 124.2925) scale(0.08 -0.08)">
       <defs>
        <path id="TeXGyreHeros-Regular-32" d="M 3270 3206 
Q 3270 2349 2310 1837 
L 1670 1491 
Q 1254 1248 1075 1043 
Q 896 838 851 557 
L 3238 557 
L 3238 0 
L 218 0 
Q 256 749 518 1155 
Q 781 1562 1491 1965 
L 2080 2298 
Q 2694 2650 2694 3194 
Q 2694 3558 2438 3801 
Q 2182 4045 1798 4045 
Q 1370 4045 1142 3785 
Q 915 3526 883 2963 
L 320 2963 
Q 365 4538 1818 4538 
Q 2458 4538 2864 4160 
Q 3270 3782 3270 3206 
z
" transform="scale(0.015625)"/>
       </defs>
       <use xlink:href="#TeXGyreHeros-Regular-31"/>
       <use xlink:href="#TeXGyreHeros-Regular-2e" transform="translate(55.599991 0)"/>
       <use xlink:href="#TeXGyreHeros-Regular-32" transform="translate(83.399979 0)"/>
      </g>
     </g>
    </g>
    <g id="xtick_4">
     <g id="line2d_7">
      <g>
       <use xlink:href="#m7ca0f31716" x="127.841818" y="116.46" style="stroke: #000000; stroke-width: 0.6"/>
      </g>
     </g>
     <g id="line2d_8">
      <g>
       <use xlink:href="#mb2d8ff6097" x="127.841818" y="17.372" style="stroke: #000000; stroke-width: 0.6"/>
      </g>
     </g>
     <g id="text_4">
      <!-- 1.3 -->
      <g transform="translate(122.282443 124.2925) scale(0.08 -0.08)">
       <defs>
        <path id="TeXGyreHeros-Regular-33" d="M 3238 1318 
Q 3238 672 2819 288 
Q 2400 -96 1702 -96 
Q 998 -96 627 262 
Q 256 621 205 1370 
L 768 1370 
Q 800 877 1030 640 
Q 1261 403 1722 403 
Q 2163 403 2412 643 
Q 2662 883 2662 1312 
Q 2662 1696 2422 1904 
Q 2182 2112 1722 2112 
L 1414 2112 
L 1414 2586 
Q 2067 2586 2297 2739 
Q 2528 2893 2528 3270 
Q 2528 3629 2313 3837 
Q 2099 4045 1728 4045 
Q 1293 4045 1081 3808 
Q 870 3571 864 3072 
L 301 3072 
Q 333 4538 1722 4538 
Q 2368 4538 2736 4205 
Q 3104 3872 3104 3290 
Q 3104 2624 2470 2374 
Q 2874 2234 3056 1984 
Q 3238 1734 3238 1318 
z
" transform="scale(0.015625)"/>
       </defs>
       <use xlink:href="#TeXGyreHeros-Regular-31"/>
       <use xlink:href="#TeXGyreHeros-Regular-2e" transform="translate(55.599991 0)"/>
       <use xlink:href="#TeXGyreHeros-Regular-33" transform="translate(83.399979 0)"/>
      </g>
     </g>
    </g>
    <g id="xtick_5">
     <g id="line2d_9">
      <g>
       <use xlink:href="#m7ca0f31716" x="154.750909" y="116.46" style="stroke: #000000; stroke-width: 0.6"/>
      </g>
     </g>
     <g id="line2d_10">
      <g>
       <use xlink:href="#mb2d8ff6097" x="154.750909" y="17.372" style="stroke: #000000; stroke-width: 0.6"/>
      </g>
     </g>
     <g id="text_5">
      <!-- 1.4 -->
      <g transform="translate(149.191534 124.2925) scale(0.08 -0.08)">
       <defs>
        <path id="TeXGyreHeros-Regular-34" d="M 3328 1088 
L 2656 1088 
L 2656 0 
L 2093 0 
L 2093 1088 
L 179 1088 
L 179 1683 
L 2240 4538 
L 2656 4538 
L 2656 1594 
L 3328 1594 
L 3328 1088 
z
M 2093 1594 
L 2093 3578 
L 672 1594 
L 2093 1594 
z
" transform="scale(0.015625)"/>
       </defs>
       <use xlink:href="#TeXGyreHeros-Regular-31"/>
       <use xlink:href="#TeXGyreHeros-Regular-2e" transform="translate(55.599991 0)"/>
       <use xlink:href="#TeXGyreHeros-Regular-34" transform="translate(83.399979 0)"/>
      </g>
     </g>
    </g>
    <g id="xtick_6">
     <g id="line2d_11">
      <g>
       <use xlink:href="#m7ca0f31716" x="181.66" y="116.46" style="stroke: #000000; stroke-width: 0.6"/>
      </g>
     </g>
     <g id="line2d_12">
      <g>
       <use xlink:href="#mb2d8ff6097" x="181.66" y="17.372" style="stroke: #000000; stroke-width: 0.6"/>
      </g>
     </g>
     <g id="text_6">
      <!-- 1.5 -->
      <g transform="translate(176.100625 124.2925) scale(0.08 -0.08)">
       <defs>
        <path id="TeXGyreHeros-Regular-35" d="M 3283 1504 
Q 3283 787 2851 345 
Q 2419 -96 1728 -96 
Q 1107 -96 732 205 
Q 358 506 224 1165 
L 787 1165 
Q 986 403 1715 403 
Q 2182 403 2444 672 
Q 2707 941 2707 1427 
Q 2707 1926 2441 2208 
Q 2176 2490 1715 2490 
Q 1453 2490 1267 2397 
Q 1082 2304 883 2067 
L 365 2067 
L 704 4442 
L 3046 4442 
L 3046 3885 
L 1158 3885 
L 979 2714 
Q 1357 2989 1818 2989 
Q 2470 2989 2876 2582 
Q 3283 2176 3283 1504 
z
" transform="scale(0.015625)"/>
       </defs>
       <use xlink:href="#TeXGyreHeros-Regular-31"/>
       <use xlink:href="#TeXGyreHeros-Regular-2e" transform="translate(55.599991 0)"/>
       <use xlink:href="#TeXGyreHeros-Regular-35" transform="translate(83.399979 0)"/>
      </g>
     </g>
    </g>
    <g id="xtick_7">
     <g id="line2d_13">
      <defs>
       <path id="m7c3b870d3c" d="M 0 0 
L 0 -2 
" style="stroke: #000000; stroke-width: 0.48"/>
      </defs>
      <g>
       <use xlink:href="#m7c3b870d3c" x="36.350909" y="116.46" style="stroke: #000000; stroke-width: 0.48"/>
      </g>
     </g>
     <g id="line2d_14">
      <defs>
       <path id="m28894123d6" d="M 0 0 
L 0 2 
" style="stroke: #000000; stroke-width: 0.48"/>
      </defs>
      <g>
       <use xlink:href="#m28894123d6" x="36.350909" y="17.372" style="stroke: #000000; stroke-width: 0.48"/>
      </g>
     </g>
    </g>
    <g id="xtick_8">
     <g id="line2d_15">
      <g>
       <use xlink:href="#m7c3b870d3c" x="41.732727" y="116.46" style="stroke: #000000; stroke-width: 0.48"/>
      </g>
     </g>
     <g id="line2d_16">
      <g>
       <use xlink:href="#m28894123d6" x="41.732727" y="17.372" style="stroke: #000000; stroke-width: 0.48"/>
      </g>
     </g>
    </g>
    <g id="xtick_9">
     <g id="line2d_17">
      <g>
       <use xlink:href="#m7c3b870d3c" x="52.496364" y="116.46" style="stroke: #000000; stroke-width: 0.48"/>
      </g>
     </g>
     <g id="line2d_18">
      <g>
       <use xlink:href="#m28894123d6" x="52.496364" y="17.372" style="stroke: #000000; stroke-width: 0.48"/>
      </g>
     </g>
    </g>
    <g id="xtick_10">
     <g id="line2d_19">
      <g>
       <use xlink:href="#m7c3b870d3c" x="57.878182" y="116.46" style="stroke: #000000; stroke-width: 0.48"/>
      </g>
     </g>
     <g id="line2d_20">
      <g>
       <use xlink:href="#m28894123d6" x="57.878182" y="17.372" style="stroke: #000000; stroke-width: 0.48"/>
      </g>
     </g>
    </g>
    <g id="xtick_11">
     <g id="line2d_21">
      <g>
       <use xlink:href="#m7c3b870d3c" x="63.26" y="116.46" style="stroke: #000000; stroke-width: 0.48"/>
      </g>
     </g>
     <g id="line2d_22">
      <g>
       <use xlink:href="#m28894123d6" x="63.26" y="17.372" style="stroke: #000000; stroke-width: 0.48"/>
      </g>
     </g>
    </g>
    <g id="xtick_12">
     <g id="line2d_23">
      <g>
       <use xlink:href="#m7c3b870d3c" x="68.641818" y="116.46" style="stroke: #000000; stroke-width: 0.48"/>
      </g>
     </g>
     <g id="line2d_24">
      <g>
       <use xlink:href="#m28894123d6" x="68.641818" y="17.372" style="stroke: #000000; stroke-width: 0.48"/>
      </g>
     </g>
    </g>
    <g id="xtick_13">
     <g id="line2d_25">
      <g>
       <use xlink:href="#m7c3b870d3c" x="79.405455" y="116.46" style="stroke: #000000; stroke-width: 0.48"/>
      </g>
     </g>
     <g id="line2d_26">
      <g>
       <use xlink:href="#m28894123d6" x="79.405455" y="17.372" style="stroke: #000000; stroke-width: 0.48"/>
      </g>
     </g>
    </g>
    <g id="xtick_14">
     <g id="line2d_27">
      <g>
       <use xlink:href="#m7c3b870d3c" x="84.787273" y="116.46" style="stroke: #000000; stroke-width: 0.48"/>
      </g>
     </g>
     <g id="line2d_28">
      <g>
       <use xlink:href="#m28894123d6" x="84.787273" y="17.372" style="stroke: #000000; stroke-width: 0.48"/>
      </g>
     </g>
    </g>
    <g id="xtick_15">
     <g id="line2d_29">
      <g>
       <use xlink:href="#m7c3b870d3c" x="90.169091" y="116.46" style="stroke: #000000; stroke-width: 0.48"/>
      </g>
     </g>
     <g id="line2d_30">
      <g>
       <use xlink:href="#m28894123d6" x="90.169091" y="17.372" style="stroke: #000000; stroke-width: 0.48"/>
      </g>
     </g>
    </g>
    <g id="xtick_16">
     <g id="line2d_31">
      <g>
       <use xlink:href="#m7c3b870d3c" x="95.550909" y="116.46" style="stroke: #000000; stroke-width: 0.48"/>
      </g>
     </g>
     <g id="line2d_32">
      <g>
       <use xlink:href="#m28894123d6" x="95.550909" y="17.372" style="stroke: #000000; stroke-width: 0.48"/>
      </g>
     </g>
    </g>
    <g id="xtick_17">
     <g id="line2d_33">
      <g>
       <use xlink:href="#m7c3b870d3c" x="106.314545" y="116.46" style="stroke: #000000; stroke-width: 0.48"/>
      </g>
     </g>
     <g id="line2d_34">
      <g>
       <use xlink:href="#m28894123d6" x="106.314545" y="17.372" style="stroke: #000000; stroke-width: 0.48"/>
      </g>
     </g>
    </g>
    <g id="xtick_18">
     <g id="line2d_35">
      <g>
       <use xlink:href="#m7c3b870d3c" x="111.696364" y="116.46" style="stroke: #000000; stroke-width: 0.48"/>
      </g>
     </g>
     <g id="line2d_36">
      <g>
       <use xlink:href="#m28894123d6" x="111.696364" y="17.372" style="stroke: #000000; stroke-width: 0.48"/>
      </g>
     </g>
    </g>
    <g id="xtick_19">
     <g id="line2d_37">
      <g>
       <use xlink:href="#m7c3b870d3c" x="117.078182" y="116.46" style="stroke: #000000; stroke-width: 0.48"/>
      </g>
     </g>
     <g id="line2d_38">
      <g>
       <use xlink:href="#m28894123d6" x="117.078182" y="17.372" style="stroke: #000000; stroke-width: 0.48"/>
      </g>
     </g>
    </g>
    <g id="xtick_20">
     <g id="line2d_39">
      <g>
       <use xlink:href="#m7c3b870d3c" x="122.46" y="116.46" style="stroke: #000000; stroke-width: 0.48"/>
      </g>
     </g>
     <g id="line2d_40">
      <g>
       <use xlink:href="#m28894123d6" x="122.46" y="17.372" style="stroke: #000000; stroke-width: 0.48"/>
      </g>
     </g>
    </g>
    <g id="xtick_21">
     <g id="line2d_41">
      <g>
       <use xlink:href="#m7c3b870d3c" x="133.223636" y="116.46" style="stroke: #000000; stroke-width: 0.48"/>
      </g>
     </g>
     <g id="line2d_42">
      <g>
       <use xlink:href="#m28894123d6" x="133.223636" y="17.372" style="stroke: #000000; stroke-width: 0.48"/>
      </g>
     </g>
    </g>
    <g id="xtick_22">
     <g id="line2d_43">
      <g>
       <use xlink:href="#m7c3b870d3c" x="138.605455" y="116.46" style="stroke: #000000; stroke-width: 0.48"/>
      </g>
     </g>
     <g id="line2d_44">
      <g>
       <use xlink:href="#m28894123d6" x="138.605455" y="17.372" style="stroke: #000000; stroke-width: 0.48"/>
      </g>
     </g>
    </g>
    <g id="xtick_23">
     <g id="line2d_45">
      <g>
       <use xlink:href="#m7c3b870d3c" x="143.987273" y="116.46" style="stroke: #000000; stroke-width: 0.48"/>
      </g>
     </g>
     <g id="line2d_46">
      <g>
       <use xlink:href="#m28894123d6" x="143.987273" y="17.372" style="stroke: #000000; stroke-width: 0.48"/>
      </g>
     </g>
    </g>
    <g id="xtick_24">
     <g id="line2d_47">
      <g>
       <use xlink:href="#m7c3b870d3c" x="149.369091" y="116.46" style="stroke: #000000; stroke-width: 0.48"/>
      </g>
     </g>
     <g id="line2d_48">
      <g>
       <use xlink:href="#m28894123d6" x="149.369091" y="17.372" style="stroke: #000000; stroke-width: 0.48"/>
      </g>
     </g>
    </g>
    <g id="xtick_25">
     <g id="line2d_49">
      <g>
       <use xlink:href="#m7c3b870d3c" x="160.132727" y="116.46" style="stroke: #000000; stroke-width: 0.48"/>
      </g>
     </g>
     <g id="line2d_50">
      <g>
       <use xlink:href="#m28894123d6" x="160.132727" y="17.372" style="stroke: #000000; stroke-width: 0.48"/>
      </g>
     </g>
    </g>
    <g id="xtick_26">
     <g id="line2d_51">
      <g>
       <use xlink:href="#m7c3b870d3c" x="165.514545" y="116.46" style="stroke: #000000; stroke-width: 0.48"/>
      </g>
     </g>
     <g id="line2d_52">
      <g>
       <use xlink:href="#m28894123d6" x="165.514545" y="17.372" style="stroke: #000000; stroke-width: 0.48"/>
      </g>
     </g>
    </g>
    <g id="xtick_27">
     <g id="line2d_53">
      <g>
       <use xlink:href="#m7c3b870d3c" x="170.896364" y="116.46" style="stroke: #000000; stroke-width: 0.48"/>
      </g>
     </g>
     <g id="line2d_54">
      <g>
       <use xlink:href="#m28894123d6" x="170.896364" y="17.372" style="stroke: #000000; stroke-width: 0.48"/>
      </g>
     </g>
    </g>
    <g id="xtick_28">
     <g id="line2d_55">
      <g>
       <use xlink:href="#m7c3b870d3c" x="176.278182" y="116.46" style="stroke: #000000; stroke-width: 0.48"/>
      </g>
     </g>
     <g id="line2d_56">
      <g>
       <use xlink:href="#m28894123d6" x="176.278182" y="17.372" style="stroke: #000000; stroke-width: 0.48"/>
      </g>
     </g>
    </g>
    <g id="text_7">
     <!--   -->
     <g transform="translate(106.270156 137.326875) scale(0.1 -0.1)">
      <defs>
       <path id="TeXGyreHeros-Regular-20" transform="scale(0.015625)"/>
      </defs>
      <use xlink:href="#TeXGyreHeros-Regular-20"/>
     </g>
    </g>
   </g>
   <g id="matplotlib.axis_2">
    <g id="ytick_1">
     <g id="line2d_57">
      <defs>
       <path id="me9d8d99f1d" d="M 0 0 
L 4 0 
" style="stroke: #000000; stroke-width: 0.6"/>
      </defs>
      <g>
       <use xlink:href="#me9d8d99f1d" x="33.66" y="102.304571" style="stroke: #000000; stroke-width: 0.6"/>
      </g>
     </g>
     <g id="line2d_58">
      <defs>
       <path id="m8412d4a04e" d="M 0 0 
L -4 0 
" style="stroke: #000000; stroke-width: 0.6"/>
      </defs>
      <g>
       <use xlink:href="#m8412d4a04e" x="181.66" y="102.304571" style="stroke: #000000; stroke-width: 0.6"/>
      </g>
     </g>
     <g id="text_8">
      <!-- −10 -->
      <g transform="translate(18.0925 105.220821) scale(0.08 -0.08)">
       <defs>
        <path id="TeXGyreHeros-Regular-2212" d="M 3302 1382 
L 435 1382 
L 435 1818 
L 3302 1818 
L 3302 1382 
z
" transform="scale(0.015625)"/>
        <path id="TeXGyreHeros-Regular-30" d="M 3245 2182 
Q 3245 1069 2864 486 
Q 2483 -96 1760 -96 
Q 1030 -96 652 489 
Q 275 1075 275 2220 
Q 275 3366 649 3952 
Q 1024 4538 1760 4538 
Q 3245 4538 3245 2182 
z
M 2669 2234 
Q 2669 4038 1760 4038 
Q 851 4038 851 2214 
Q 851 371 1747 371 
Q 2221 371 2445 822 
Q 2669 1274 2669 2234 
z
" transform="scale(0.015625)"/>
       </defs>
       <use xlink:href="#TeXGyreHeros-Regular-2212"/>
       <use xlink:href="#TeXGyreHeros-Regular-31" transform="translate(58.399994 0)"/>
       <use xlink:href="#TeXGyreHeros-Regular-30" transform="translate(113.999985 0)"/>
      </g>
     </g>
    </g>
    <g id="ytick_2">
     <g id="line2d_59">
      <g>
       <use xlink:href="#me9d8d99f1d" x="33.66" y="84.610286" style="stroke: #000000; stroke-width: 0.6"/>
      </g>
     </g>
     <g id="line2d_60">
      <g>
       <use xlink:href="#m8412d4a04e" x="181.66" y="84.610286" style="stroke: #000000; stroke-width: 0.6"/>
      </g>
     </g>
     <g id="text_9">
      <!-- −5 -->
      <g transform="translate(22.54 87.526536) scale(0.08 -0.08)">
       <use xlink:href="#TeXGyreHeros-Regular-2212"/>
       <use xlink:href="#TeXGyreHeros-Regular-35" transform="translate(58.399994 0)"/>
      </g>
     </g>
    </g>
    <g id="ytick_3">
     <g id="line2d_61">
      <g>
       <use xlink:href="#me9d8d99f1d" x="33.66" y="66.916" style="stroke: #000000; stroke-width: 0.6"/>
      </g>
     </g>
     <g id="line2d_62">
      <g>
       <use xlink:href="#m8412d4a04e" x="181.66" y="66.916" style="stroke: #000000; stroke-width: 0.6"/>
      </g>
     </g>
     <g id="text_10">
      <!-- 0 -->
      <g transform="translate(27.2125 69.83225) scale(0.08 -0.08)">
       <use xlink:href="#TeXGyreHeros-Regular-30"/>
      </g>
     </g>
    </g>
    <g id="ytick_4">
     <g id="line2d_63">
      <g>
       <use xlink:href="#me9d8d99f1d" x="33.66" y="49.221714" style="stroke: #000000; stroke-width: 0.6"/>
      </g>
     </g>
     <g id="line2d_64">
      <g>
       <use xlink:href="#m8412d4a04e" x="181.66" y="49.221714" style="stroke: #000000; stroke-width: 0.6"/>
      </g>
     </g>
     <g id="text_11">
      <!-- 5 -->
      <g transform="translate(27.2125 52.137964) scale(0.08 -0.08)">
       <use xlink:href="#TeXGyreHeros-Regular-35"/>
      </g>
     </g>
    </g>
    <g id="ytick_5">
     <g id="line2d_65">
      <g>
       <use xlink:href="#me9d8d99f1d" x="33.66" y="31.527429" style="stroke: #000000; stroke-width: 0.6"/>
      </g>
     </g>
     <g id="line2d_66">
      <g>
       <use xlink:href="#m8412d4a04e" x="181.66" y="31.527429" style="stroke: #000000; stroke-width: 0.6"/>
      </g>
     </g>
     <g id="text_12">
      <!-- 10 -->
      <g transform="translate(22.765 34.443679) scale(0.08 -0.08)">
       <use xlink:href="#TeXGyreHeros-Regular-31"/>
       <use xlink:href="#TeXGyreHeros-Regular-30" transform="translate(55.599991 0)"/>
      </g>
     </g>
    </g>
    <g id="ytick_6">
     <g id="line2d_67">
      <defs>
       <path id="m7f6c5c6dd4" d="M 0 0 
L 2 0 
" style="stroke: #000000; stroke-width: 0.48"/>
      </defs>
      <g>
       <use xlink:href="#m7f6c5c6dd4" x="33.66" y="116.46" style="stroke: #000000; stroke-width: 0.48"/>
      </g>
     </g>
     <g id="line2d_68">
      <defs>
       <path id="me66358d229" d="M 0 0 
L -2 0 
" style="stroke: #000000; stroke-width: 0.48"/>
      </defs>
      <g>
       <use xlink:href="#me66358d229" x="181.66" y="116.46" style="stroke: #000000; stroke-width: 0.48"/>
      </g>
     </g>
    </g>
    <g id="ytick_7">
     <g id="line2d_69">
      <g>
       <use xlink:href="#m7f6c5c6dd4" x="33.66" y="112.921143" style="stroke: #000000; stroke-width: 0.48"/>
      </g>
     </g>
     <g id="line2d_70">
      <g>
       <use xlink:href="#me66358d229" x="181.66" y="112.921143" style="stroke: #000000; stroke-width: 0.48"/>
      </g>
     </g>
    </g>
    <g id="ytick_8">
     <g id="line2d_71">
      <g>
       <use xlink:href="#m7f6c5c6dd4" x="33.66" y="109.382286" style="stroke: #000000; stroke-width: 0.48"/>
      </g>
     </g>
     <g id="line2d_72">
      <g>
       <use xlink:href="#me66358d229" x="181.66" y="109.382286" style="stroke: #000000; stroke-width: 0.48"/>
      </g>
     </g>
    </g>
    <g id="ytick_9">
     <g id="line2d_73">
      <g>
       <use xlink:href="#m7f6c5c6dd4" x="33.66" y="105.843429" style="stroke: #000000; stroke-width: 0.48"/>
      </g>
     </g>
     <g id="line2d_74">
      <g>
       <use xlink:href="#me66358d229" x="181.66" y="105.843429" style="stroke: #000000; stroke-width: 0.48"/>
      </g>
     </g>
    </g>
    <g id="ytick_10">
     <g id="line2d_75">
      <g>
       <use xlink:href="#m7f6c5c6dd4" x="33.66" y="98.765714" style="stroke: #000000; stroke-width: 0.48"/>
      </g>
     </g>
     <g id="line2d_76">
      <g>
       <use xlink:href="#me66358d229" x="181.66" y="98.765714" style="stroke: #000000; stroke-width: 0.48"/>
      </g>
     </g>
    </g>
    <g id="ytick_11">
     <g id="line2d_77">
      <g>
       <use xlink:href="#m7f6c5c6dd4" x="33.66" y="95.226857" style="stroke: #000000; stroke-width: 0.48"/>
      </g>
     </g>
     <g id="line2d_78">
      <g>
       <use xlink:href="#me66358d229" x="181.66" y="95.226857" style="stroke: #000000; stroke-width: 0.48"/>
      </g>
     </g>
    </g>
    <g id="ytick_12">
     <g id="line2d_79">
      <g>
       <use xlink:href="#m7f6c5c6dd4" x="33.66" y="91.688" style="stroke: #000000; stroke-width: 0.48"/>
      </g>
     </g>
     <g id="line2d_80">
      <g>
       <use xlink:href="#me66358d229" x="181.66" y="91.688" style="stroke: #000000; stroke-width: 0.48"/>
      </g>
     </g>
    </g>
    <g id="ytick_13">
     <g id="line2d_81">
      <g>
       <use xlink:href="#m7f6c5c6dd4" x="33.66" y="88.149143" style="stroke: #000000; stroke-width: 0.48"/>
      </g>
     </g>
     <g id="line2d_82">
      <g>
       <use xlink:href="#me66358d229" x="181.66" y="88.149143" style="stroke: #000000; stroke-width: 0.48"/>
      </g>
     </g>
    </g>
    <g id="ytick_14">
     <g id="line2d_83">
      <g>
       <use xlink:href="#m7f6c5c6dd4" x="33.66" y="81.071429" style="stroke: #000000; stroke-width: 0.48"/>
      </g>
     </g>
     <g id="line2d_84">
      <g>
       <use xlink:href="#me66358d229" x="181.66" y="81.071429" style="stroke: #000000; stroke-width: 0.48"/>
      </g>
     </g>
    </g>
    <g id="ytick_15">
     <g id="line2d_85">
      <g>
       <use xlink:href="#m7f6c5c6dd4" x="33.66" y="77.532571" style="stroke: #000000; stroke-width: 0.48"/>
      </g>
     </g>
     <g id="line2d_86">
      <g>
       <use xlink:href="#me66358d229" x="181.66" y="77.532571" style="stroke: #000000; stroke-width: 0.48"/>
      </g>
     </g>
    </g>
    <g id="ytick_16">
     <g id="line2d_87">
      <g>
       <use xlink:href="#m7f6c5c6dd4" x="33.66" y="73.993714" style="stroke: #000000; stroke-width: 0.48"/>
      </g>
     </g>
     <g id="line2d_88">
      <g>
       <use xlink:href="#me66358d229" x="181.66" y="73.993714" style="stroke: #000000; stroke-width: 0.48"/>
      </g>
     </g>
    </g>
    <g id="ytick_17">
     <g id="line2d_89">
      <g>
       <use xlink:href="#m7f6c5c6dd4" x="33.66" y="70.454857" style="stroke: #000000; stroke-width: 0.48"/>
      </g>
     </g>
     <g id="line2d_90">
      <g>
       <use xlink:href="#me66358d229" x="181.66" y="70.454857" style="stroke: #000000; stroke-width: 0.48"/>
      </g>
     </g>
    </g>
    <g id="ytick_18">
     <g id="line2d_91">
      <g>
       <use xlink:href="#m7f6c5c6dd4" x="33.66" y="63.377143" style="stroke: #000000; stroke-width: 0.48"/>
      </g>
     </g>
     <g id="line2d_92">
      <g>
       <use xlink:href="#me66358d229" x="181.66" y="63.377143" style="stroke: #000000; stroke-width: 0.48"/>
      </g>
     </g>
    </g>
    <g id="ytick_19">
     <g id="line2d_93">
      <g>
       <use xlink:href="#m7f6c5c6dd4" x="33.66" y="59.838286" style="stroke: #000000; stroke-width: 0.48"/>
      </g>
     </g>
     <g id="line2d_94">
      <g>
       <use xlink:href="#me66358d229" x="181.66" y="59.838286" style="stroke: #000000; stroke-width: 0.48"/>
      </g>
     </g>
    </g>
    <g id="ytick_20">
     <g id="line2d_95">
      <g>
       <use xlink:href="#m7f6c5c6dd4" x="33.66" y="56.299429" style="stroke: #000000; stroke-width: 0.48"/>
      </g>
     </g>
     <g id="line2d_96">
      <g>
       <use xlink:href="#me66358d229" x="181.66" y="56.299429" style="stroke: #000000; stroke-width: 0.48"/>
      </g>
     </g>
    </g>
    <g id="ytick_21">
     <g id="line2d_97">
      <g>
       <use xlink:href="#m7f6c5c6dd4" x="33.66" y="52.760571" style="stroke: #000000; stroke-width: 0.48"/>
      </g>
     </g>
     <g id="line2d_98">
      <g>
       <use xlink:href="#me66358d229" x="181.66" y="52.760571" style="stroke: #000000; stroke-width: 0.48"/>
      </g>
     </g>
    </g>
    <g id="ytick_22">
     <g id="line2d_99">
      <g>
       <use xlink:href="#m7f6c5c6dd4" x="33.66" y="45.682857" style="stroke: #000000; stroke-width: 0.48"/>
      </g>
     </g>
     <g id="line2d_100">
      <g>
       <use xlink:href="#me66358d229" x="181.66" y="45.682857" style="stroke: #000000; stroke-width: 0.48"/>
      </g>
     </g>
    </g>
    <g id="ytick_23">
     <g id="line2d_101">
      <g>
       <use xlink:href="#m7f6c5c6dd4" x="33.66" y="42.144" style="stroke: #000000; stroke-width: 0.48"/>
      </g>
     </g>
     <g id="line2d_102">
      <g>
       <use xlink:href="#me66358d229" x="181.66" y="42.144" style="stroke: #000000; stroke-width: 0.48"/>
      </g>
     </g>
    </g>
    <g id="ytick_24">
     <g id="line2d_103">
      <g>
       <use xlink:href="#m7f6c5c6dd4" x="33.66" y="38.605143" style="stroke: #000000; stroke-width: 0.48"/>
      </g>
     </g>
     <g id="line2d_104">
      <g>
       <use xlink:href="#me66358d229" x="181.66" y="38.605143" style="stroke: #000000; stroke-width: 0.48"/>
      </g>
     </g>
    </g>
    <g id="ytick_25">
     <g id="line2d_105">
      <g>
       <use xlink:href="#m7f6c5c6dd4" x="33.66" y="35.066286" style="stroke: #000000; stroke-width: 0.48"/>
      </g>
     </g>
     <g id="line2d_106">
      <g>
       <use xlink:href="#me66358d229" x="181.66" y="35.066286" style="stroke: #000000; stroke-width: 0.48"/>
      </g>
     </g>
    </g>
    <g id="ytick_26">
     <g id="line2d_107">
      <g>
       <use xlink:href="#m7f6c5c6dd4" x="33.66" y="27.988571" style="stroke: #000000; stroke-width: 0.48"/>
      </g>
     </g>
     <g id="line2d_108">
      <g>
       <use xlink:href="#me66358d229" x="181.66" y="27.988571" style="stroke: #000000; stroke-width: 0.48"/>
      </g>
     </g>
    </g>
    <g id="ytick_27">
     <g id="line2d_109">
      <g>
       <use xlink:href="#m7f6c5c6dd4" x="33.66" y="24.449714" style="stroke: #000000; stroke-width: 0.48"/>
      </g>
     </g>
     <g id="line2d_110">
      <g>
       <use xlink:href="#me66358d229" x="181.66" y="24.449714" style="stroke: #000000; stroke-width: 0.48"/>
      </g>
     </g>
    </g>
    <g id="ytick_28">
     <g id="line2d_111">
      <g>
       <use xlink:href="#m7f6c5c6dd4" x="33.66" y="20.910857" style="stroke: #000000; stroke-width: 0.48"/>
      </g>
     </g>
     <g id="line2d_112">
      <g>
       <use xlink:href="#me66358d229" x="181.66" y="20.910857" style="stroke: #000000; stroke-width: 0.48"/>
      </g>
     </g>
    </g>
    <g id="ytick_29">
     <g id="line2d_113">
      <g>
       <use xlink:href="#m7f6c5c6dd4" x="33.66" y="17.372" style="stroke: #000000; stroke-width: 0.48"/>
      </g>
     </g>
     <g id="line2d_114">
      <g>
       <use xlink:href="#me66358d229" x="181.66" y="17.372" style="stroke: #000000; stroke-width: 0.48"/>
      </g>
     </g>
    </g>
    <g id="text_13">
     <!--   -->
     <g transform="translate(11.912813 68.305844) rotate(-90) scale(0.1 -0.1)">
      <use xlink:href="#TeXGyreHeros-Regular-20"/>
     </g>
    </g>
   </g>
   <g id="line2d_115">
    <path d="M 34.353209 -1 
L 36.130785 10.239522 
L 38.107412 21.297091 
L 40.08404 31.004944 
L 42.060668 39.5147 
L 44.037295 46.960833 
L 46.013923 53.462675 
L 47.990551 59.126174 
L 49.967179 64.045443 
L 51.943806 68.304115 
L 53.920434 71.976544 
L 55.897062 75.128871 
L 57.873689 77.819935 
L 59.850317 80.102106 
L 61.826945 82.022011 
L 63.803573 83.621168 
L 65.7802 84.936563 
L 67.756828 86.001144 
L 69.980534 86.935426 
L 72.20424 87.626341 
L 74.675025 88.147993 
L 77.14581 88.448135 
L 79.863673 88.562515 
L 82.828614 88.473148 
L 86.287713 88.140985 
L 90.240968 87.52826 
L 94.935459 86.565071 
L 100.865342 85.107955 
L 109.760167 82.666474 
L 129.526444 77.195533 
L 139.409583 74.726144 
L 148.798564 72.609458 
L 158.187546 70.720884 
L 167.823606 69.009322 
L 177.953823 67.437539 
L 181.66 66.916 
L 181.66 66.916 
" clip-path="url(#pf65f7a50a9)" style="fill: none; stroke: #0d0887; stroke-width: 1.3; stroke-linecap: square"/>
   </g>
   <g id="line2d_116">
    <path d="M 34.353209 -1 
L 36.130785 10.239522 
L 38.107412 21.297091 
L 40.08404 31.004944 
L 42.060668 39.5147 
L 44.037295 46.960833 
L 46.013923 53.462675 
L 47.990551 59.126174 
L 49.967179 64.045443 
L 51.449649 67.236193 
L 52.93212 69.947057 
L 54.908748 73.080544 
L 56.885376 75.76321 
L 58.862003 78.046143 
L 60.838631 79.974823 
L 62.815259 81.589741 
L 64.791886 82.926965 
L 66.768514 84.018622 
L 68.99222 84.988724 
L 71.215927 85.720246 
L 73.686711 86.291643 
L 76.404574 86.670179 
L 79.369516 86.833598 
L 82.581536 86.770356 
L 86.040634 86.47915 
L 90.240968 85.886948 
L 95.182538 84.948753 
L 101.606578 83.479936 
L 111.736795 80.897378 
L 129.032287 76.496178 
L 139.409583 74.104238 
L 149.292721 72.059421 
L 159.17586 70.246857 
L 169.306077 68.618031 
L 179.930451 67.136878 
L 181.66 66.916 
L 181.66 66.916 
" clip-path="url(#pf65f7a50a9)" style="fill: none; stroke: #3e049c; stroke-width: 1.3; stroke-linecap: square"/>
   </g>
   <g id="line2d_117">
    <path d="M 34.353209 -1 
L 36.130785 10.239522 
L 38.107412 21.297091 
L 40.08404 31.004944 
L 42.060668 39.5147 
L 44.037295 46.960833 
L 46.013923 53.462675 
L 47.743472 58.458544 
L 49.225943 62.163717 
L 50.708414 65.317716 
L 52.190885 67.975843 
L 53.673356 70.193397 
L 55.155826 72.026244 
L 57.132454 74.086523 
L 59.109082 75.838348 
L 61.08571 77.316831 
L 63.309416 78.692187 
L 65.533122 79.800451 
L 67.756828 80.676201 
L 70.227613 81.413368 
L 72.945476 81.979144 
L 75.910417 82.350621 
L 79.122437 82.515023 
L 82.581536 82.46927 
L 86.534791 82.196156 
L 91.229282 81.644321 
L 97.159165 80.706773 
L 105.312755 79.168572 
L 137.432955 72.889264 
L 148.551486 71.058967 
L 159.670017 69.45894 
L 171.035626 68.048536 
L 181.66 66.916 
L 181.66 66.916 
" clip-path="url(#pf65f7a50a9)" style="fill: none; stroke: #6600a7; stroke-width: 1.3; stroke-linecap: square"/>
   </g>
   <g id="line2d_118">
    <path d="M 34.353209 -1 
L 36.130785 10.239522 
L 38.107412 21.297091 
L 40.08404 31.004944 
L 42.060668 39.5147 
L 44.037295 46.960833 
L 45.766845 52.631218 
L 47.249316 56.791251 
L 48.731786 60.35435 
L 50.214257 63.373426 
L 51.696728 65.901389 
L 53.179199 67.99115 
L 54.661669 69.69562 
L 56.14414 71.06771 
L 57.626611 72.160329 
L 59.603239 73.319601 
L 62.074023 74.509525 
L 64.544808 75.454684 
L 67.262671 76.253059 
L 70.227613 76.88082 
L 73.439633 77.323654 
L 76.898731 77.576365 
L 80.851987 77.639979 
L 85.546477 77.478747 
L 90.982204 77.062915 
L 98.147479 76.275084 
L 109.018932 74.825172 
L 134.220935 71.414364 
L 147.563172 69.869057 
L 160.905409 68.551186 
L 174.741803 67.409641 
L 181.66 66.916 
L 181.66 66.916 
" clip-path="url(#pf65f7a50a9)" style="fill: none; stroke: #8b0aa5; stroke-width: 1.3; stroke-linecap: square"/>
   </g>
   <g id="line2d_119">
    <path d="M 34.353209 -1 
L 36.130785 10.239522 
L 38.107412 21.297091 
L 40.08404 31.004944 
L 42.060668 39.514693 
L 43.790217 45.970359 
L 45.272688 50.740357 
L 46.755159 54.8599 
L 48.237629 58.380382 
L 49.7201 61.353197 
L 51.202571 63.829739 
L 52.685042 65.861401 
L 54.167513 67.499578 
L 55.649983 68.795663 
L 57.132454 69.80105 
L 58.862003 70.675157 
L 60.838631 71.381611 
L 63.803573 72.173644 
L 67.015593 72.805692 
L 70.72177 73.297208 
L 74.922104 73.610775 
L 79.616594 73.728193 
L 85.299399 73.632931 
L 92.217596 73.283955 
L 101.853656 72.55962 
L 150.775192 68.576866 
L 167.576528 67.587788 
L 181.66 66.916 
L 181.66 66.916 
" clip-path="url(#pf65f7a50a9)" style="fill: none; stroke: #ae2892; stroke-width: 1.3; stroke-linecap: square"/>
   </g>
   <g id="line2d_120">
    <path d="M 34.353209 -1 
L 36.130785 10.239522 
L 38.107412 21.297091 
L 40.08404 31.004944 
L 41.813589 38.447414 
L 43.543139 44.858578 
L 45.025609 49.590395 
L 46.50808 53.670864 
L 47.990551 57.150565 
L 49.473022 60.080079 
L 50.955492 62.509984 
L 52.437963 64.490861 
L 53.920434 66.073289 
L 55.402905 67.30785 
L 56.885376 68.245122 
L 58.367846 68.935686 
L 60.097396 69.497012 
L 62.321102 69.956112 
L 66.274357 70.499121 
L 70.72177 70.883884 
L 75.910417 71.105508 
L 82.087379 71.142806 
L 89.99389 70.958546 
L 101.359499 70.450824 
L 155.469683 67.763102 
L 177.212588 67.039128 
L 181.66 66.916 
L 181.66 66.916 
" clip-path="url(#pf65f7a50a9)" style="fill: none; stroke: #cc4778; stroke-width: 1.3; stroke-linecap: square"/>
   </g>
   <g id="line2d_121">
    <path d="M 34.353209 -1 
L 36.130785 10.239522 
L 38.107412 21.297091 
L 40.08404 30.994279 
L 41.813589 38.338081 
L 43.543139 44.651706 
L 45.025609 49.303836 
L 46.50808 53.307798 
L 47.990551 56.71376 
L 49.473022 59.571889 
L 50.955492 61.932354 
L 52.437963 63.845321 
L 53.920434 65.360958 
L 55.402905 66.529434 
L 56.885376 67.400915 
L 58.367846 68.025569 
L 60.097396 68.509299 
L 62.321102 68.866127 
L 66.521436 69.235305 
L 72.20424 69.519797 
L 79.122437 69.636119 
L 88.017262 69.554152 
L 101.359499 69.186865 
L 159.917095 67.353675 
L 181.66 66.916 
L 181.66 66.916 
" clip-path="url(#pf65f7a50a9)" style="fill: none; stroke: #e4695e; stroke-width: 1.3; stroke-linecap: square"/>
   </g>
   <g id="line2d_122">
    <path d="M 34.353209 -1 
L 36.130785 10.239522 
L 38.107412 21.297091 
L 39.836962 29.837999 
L 41.566511 37.283117 
L 43.29606 43.689142 
L 44.778531 48.413127 
L 46.261002 52.481948 
L 47.743472 55.945567 
L 49.225943 58.853947 
L 50.708414 61.257049 
L 52.190885 63.204835 
L 53.673356 64.747268 
L 55.155826 65.93431 
L 56.638297 66.815923 
L 58.120768 67.442069 
L 59.850317 67.916345 
L 61.826945 68.217642 
L 65.286043 68.464106 
L 71.957162 68.719969 
L 80.35783 68.807478 
L 91.970518 68.688346 
L 113.466344 68.200565 
L 152.257663 67.350416 
L 181.66 66.916 
L 181.66 66.916 
" clip-path="url(#pf65f7a50a9)" style="fill: none; stroke: #f79044; stroke-width: 1.3; stroke-linecap: square"/>
   </g>
   <g id="line2d_123">
    <path d="M 34.353209 -1 
L 36.130785 10.239522 
L 38.107412 21.297091 
L 39.836962 29.823501 
L 41.566511 37.24385 
L 43.29606 43.626165 
L 44.778531 48.330553 
L 46.261002 52.380346 
L 47.743472 55.825408 
L 49.225943 58.715607 
L 50.708414 61.100807 
L 52.190885 63.030873 
L 53.673356 64.555673 
L 55.155826 65.72507 
L 56.638297 66.588931 
L 58.120768 67.197121 
L 59.850317 67.650063 
L 61.826945 67.92628 
L 65.286043 68.127394 
L 72.945476 68.344548 
L 82.828614 68.390008 
L 97.900401 68.211494 
L 180.177529 66.930041 
L 181.66 66.916 
L 181.66 66.916 
" clip-path="url(#pf65f7a50a9)" style="fill: none; stroke: #fec029; stroke-width: 1.3; stroke-linecap: square"/>
   </g>
   <g id="line2d_124">
    <path d="M 34.353209 -1 
L 36.130785 10.239522 
L 38.107412 21.297091 
L 39.836962 29.81835 
L 41.566511 37.231197 
L 43.29606 43.606316 
L 44.778531 48.304745 
L 46.261002 52.348739 
L 47.743472 55.788136 
L 49.225943 58.672771 
L 50.708414 61.052482 
L 52.190885 62.977104 
L 53.673356 64.496474 
L 55.155826 65.660429 
L 56.638297 66.518805 
L 58.120768 67.121438 
L 59.850317 67.567767 
L 61.826945 67.836199 
L 65.286043 68.02328 
L 73.192554 68.225249 
L 83.816928 68.258812 
L 100.371185 68.061043 
L 172.518097 66.999585 
L 181.66 66.916 
L 181.66 66.916 
" clip-path="url(#pf65f7a50a9)" style="fill: none; stroke: #f0f921; stroke-width: 1.3; stroke-linecap: square"/>
   </g>
   <g id="patch_3">
    <path d="M 33.66 116.46 
L 33.66 17.372 
" style="fill: none; stroke: #000000; stroke-width: 0.6; stroke-linejoin: miter; stroke-linecap: square"/>
   </g>
   <g id="patch_4">
    <path d="M 181.66 116.46 
L 181.66 17.372 
" style="fill: none; stroke: #000000; stroke-width: 0.6; stroke-linejoin: miter; stroke-linecap: square"/>
   </g>
   <g id="patch_5">
    <path d="M 33.66 116.46 
L 181.66 116.46 
" style="fill: none; stroke: #000000; stroke-width: 0.6; stroke-linejoin: miter; stroke-linecap: square"/>
   </g>
   <g id="patch_6">
    <path d="M 33.66 17.372 
L 181.66 17.372 
" style="fill: none; stroke: #000000; stroke-width: 0.6; stroke-linejoin: miter; stroke-linecap: square"/>
   </g>
  </g>
  <g id="axes_2">
   <g id="patch_7">
    <path d="M 197.16 116.46 
L 211.56 116.46 
L 211.56 17.372 
L 197.16 17.372 
L 197.16 116.46 
z
" style="fill: none"/>
   </g>
   <g id="axes_3">
    <g id="patch_8">
     <path d="M 197.16 116.46 
L 211.56 116.46 
L 211.56 17.372 
L 197.16 17.372 
L 197.16 116.46 
z
" style="fill: none"/>
    </g>
    <g id="QuadMesh_1">
     <path d="M 197.16 116.46 
L 211.56 116.46 
L 211.56 116.072938 
L 197.16 116.072938 
L 197.16 116.46 
" clip-path="url(#p6794577106)" style="fill: #f0f921; stroke: #f0f921; stroke-width: 0.3"/>
     <path d="M 197.16 116.072938 
L 211.56 116.072938 
L 211.56 115.685875 
L 197.16 115.685875 
L 197.16 116.072938 
" clip-path="url(#p6794577106)" style="fill: #f0f724; stroke: #f0f724; stroke-width: 0.3"/>
     <path d="M 197.16 115.685875 
L 211.56 115.685875 
L 211.56 115.298812 
L 197.16 115.298812 
L 197.16 115.685875 
" clip-path="url(#p6794577106)" style="fill: #f1f525; stroke: #f1f525; stroke-width: 0.3"/>
     <path d="M 197.16 115.298812 
L 211.56 115.298812 
L 211.56 114.91175 
L 197.16 114.91175 
L 197.16 115.298812 
" clip-path="url(#p6794577106)" style="fill: #f1f426; stroke: #f1f426; stroke-width: 0.3"/>
     <path d="M 197.16 114.91175 
L 211.56 114.91175 
L 211.56 114.524688 
L 197.16 114.524688 
L 197.16 114.91175 
" clip-path="url(#p6794577106)" style="fill: #f2f227; stroke: #f2f227; stroke-width: 0.3"/>
     <path d="M 197.16 114.524688 
L 211.56 114.524688 
L 211.56 114.137625 
L 197.16 114.137625 
L 197.16 114.524688 
" clip-path="url(#p6794577106)" style="fill: #f3f027; stroke: #f3f027; stroke-width: 0.3"/>
     <path d="M 197.16 114.137625 
L 211.56 114.137625 
L 211.56 113.750563 
L 197.16 113.750563 
L 197.16 114.137625 
" clip-path="url(#p6794577106)" style="fill: #f3ee27; stroke: #f3ee27; stroke-width: 0.3"/>
     <path d="M 197.16 113.750563 
L 211.56 113.750563 
L 211.56 113.3635 
L 197.16 113.3635 
L 197.16 113.750563 
" clip-path="url(#p6794577106)" style="fill: #f4ed27; stroke: #f4ed27; stroke-width: 0.3"/>
     <path d="M 197.16 113.3635 
L 211.56 113.3635 
L 211.56 112.976437 
L 197.16 112.976437 
L 197.16 113.3635 
" clip-path="url(#p6794577106)" style="fill: #f5eb27; stroke: #f5eb27; stroke-width: 0.3"/>
     <path d="M 197.16 112.976437 
L 211.56 112.976437 
L 211.56 112.589375 
L 197.16 112.589375 
L 197.16 112.976437 
" clip-path="url(#p6794577106)" style="fill: #f5e926; stroke: #f5e926; stroke-width: 0.3"/>
     <path d="M 197.16 112.589375 
L 211.56 112.589375 
L 211.56 112.202313 
L 197.16 112.202313 
L 197.16 112.589375 
" clip-path="url(#p6794577106)" style="fill: #f6e826; stroke: #f6e826; stroke-width: 0.3"/>
     <path d="M 197.16 112.202313 
L 211.56 112.202313 
L 211.56 111.81525 
L 197.16 111.81525 
L 197.16 112.202313 
" clip-path="url(#p6794577106)" style="fill: #f6e626; stroke: #f6e626; stroke-width: 0.3"/>
     <path d="M 197.16 111.81525 
L 211.56 111.81525 
L 211.56 111.428187 
L 197.16 111.428187 
L 197.16 111.81525 
" clip-path="url(#p6794577106)" style="fill: #f7e425; stroke: #f7e425; stroke-width: 0.3"/>
     <path d="M 197.16 111.428187 
L 211.56 111.428187 
L 211.56 111.041125 
L 197.16 111.041125 
L 197.16 111.428187 
" clip-path="url(#p6794577106)" style="fill: #f7e225; stroke: #f7e225; stroke-width: 0.3"/>
     <path d="M 197.16 111.041125 
L 211.56 111.041125 
L 211.56 110.654063 
L 197.16 110.654063 
L 197.16 111.041125 
" clip-path="url(#p6794577106)" style="fill: #f8e125; stroke: #f8e125; stroke-width: 0.3"/>
     <path d="M 197.16 110.654063 
L 211.56 110.654063 
L 211.56 110.267 
L 197.16 110.267 
L 197.16 110.654063 
" clip-path="url(#p6794577106)" style="fill: #f8df25; stroke: #f8df25; stroke-width: 0.3"/>
     <path d="M 197.16 110.267 
L 211.56 110.267 
L 211.56 109.879938 
L 197.16 109.879938 
L 197.16 110.267 
" clip-path="url(#p6794577106)" style="fill: #f9dd25; stroke: #f9dd25; stroke-width: 0.3"/>
     <path d="M 197.16 109.879938 
L 211.56 109.879938 
L 211.56 109.492875 
L 197.16 109.492875 
L 197.16 109.879938 
" clip-path="url(#p6794577106)" style="fill: #f9dc24; stroke: #f9dc24; stroke-width: 0.3"/>
     <path d="M 197.16 109.492875 
L 211.56 109.492875 
L 211.56 109.105812 
L 197.16 109.105812 
L 197.16 109.492875 
" clip-path="url(#p6794577106)" style="fill: #fada24; stroke: #fada24; stroke-width: 0.3"/>
     <path d="M 197.16 109.105812 
L 211.56 109.105812 
L 211.56 108.71875 
L 197.16 108.71875 
L 197.16 109.105812 
" clip-path="url(#p6794577106)" style="fill: #fad824; stroke: #fad824; stroke-width: 0.3"/>
     <path d="M 197.16 108.71875 
L 211.56 108.71875 
L 211.56 108.331688 
L 197.16 108.331688 
L 197.16 108.71875 
" clip-path="url(#p6794577106)" style="fill: #fbd724; stroke: #fbd724; stroke-width: 0.3"/>
     <path d="M 197.16 108.331688 
L 211.56 108.331688 
L 211.56 107.944625 
L 197.16 107.944625 
L 197.16 108.331688 
" clip-path="url(#p6794577106)" style="fill: #fbd524; stroke: #fbd524; stroke-width: 0.3"/>
     <path d="M 197.16 107.944625 
L 211.56 107.944625 
L 211.56 107.557563 
L 197.16 107.557563 
L 197.16 107.944625 
" clip-path="url(#p6794577106)" style="fill: #fbd324; stroke: #fbd324; stroke-width: 0.3"/>
     <path d="M 197.16 107.557563 
L 211.56 107.557563 
L 211.56 107.1705 
L 197.16 107.1705 
L 197.16 107.557563 
" clip-path="url(#p6794577106)" style="fill: #fcd225; stroke: #fcd225; stroke-width: 0.3"/>
     <path d="M 197.16 107.1705 
L 211.56 107.1705 
L 211.56 106.783437 
L 197.16 106.783437 
L 197.16 107.1705 
" clip-path="url(#p6794577106)" style="fill: #fcd025; stroke: #fcd025; stroke-width: 0.3"/>
     <path d="M 197.16 106.783437 
L 211.56 106.783437 
L 211.56 106.396375 
L 197.16 106.396375 
L 197.16 106.783437 
" clip-path="url(#p6794577106)" style="fill: #fcce25; stroke: #fcce25; stroke-width: 0.3"/>
     <path d="M 197.16 106.396375 
L 211.56 106.396375 
L 211.56 106.009313 
L 197.16 106.009313 
L 197.16 106.396375 
" clip-path="url(#p6794577106)" style="fill: #fccd25; stroke: #fccd25; stroke-width: 0.3"/>
     <path d="M 197.16 106.009313 
L 211.56 106.009313 
L 211.56 105.62225 
L 197.16 105.62225 
L 197.16 106.009313 
" clip-path="url(#p6794577106)" style="fill: #fdcb26; stroke: #fdcb26; stroke-width: 0.3"/>
     <path d="M 197.16 105.62225 
L 211.56 105.62225 
L 211.56 105.235188 
L 197.16 105.235188 
L 197.16 105.62225 
" clip-path="url(#p6794577106)" style="fill: #fdca26; stroke: #fdca26; stroke-width: 0.3"/>
     <path d="M 197.16 105.235188 
L 211.56 105.235188 
L 211.56 104.848125 
L 197.16 104.848125 
L 197.16 105.235188 
" clip-path="url(#p6794577106)" style="fill: #fdc827; stroke: #fdc827; stroke-width: 0.3"/>
     <path d="M 197.16 104.848125 
L 211.56 104.848125 
L 211.56 104.461063 
L 197.16 104.461063 
L 197.16 104.848125 
" clip-path="url(#p6794577106)" style="fill: #fdc627; stroke: #fdc627; stroke-width: 0.3"/>
     <path d="M 197.16 104.461063 
L 211.56 104.461063 
L 211.56 104.074 
L 197.16 104.074 
L 197.16 104.461063 
" clip-path="url(#p6794577106)" style="fill: #fdc527; stroke: #fdc527; stroke-width: 0.3"/>
     <path d="M 197.16 104.074 
L 211.56 104.074 
L 211.56 103.686937 
L 197.16 103.686937 
L 197.16 104.074 
" clip-path="url(#p6794577106)" style="fill: #fdc328; stroke: #fdc328; stroke-width: 0.3"/>
     <path d="M 197.16 103.686937 
L 211.56 103.686937 
L 211.56 103.299875 
L 197.16 103.299875 
L 197.16 103.686937 
" clip-path="url(#p6794577106)" style="fill: #fdc229; stroke: #fdc229; stroke-width: 0.3"/>
     <path d="M 197.16 103.299875 
L 211.56 103.299875 
L 211.56 102.912812 
L 197.16 102.912812 
L 197.16 103.299875 
" clip-path="url(#p6794577106)" style="fill: #fec029; stroke: #fec029; stroke-width: 0.3"/>
     <path d="M 197.16 102.912812 
L 211.56 102.912812 
L 211.56 102.52575 
L 197.16 102.52575 
L 197.16 102.912812 
" clip-path="url(#p6794577106)" style="fill: #febe2a; stroke: #febe2a; stroke-width: 0.3"/>
     <path d="M 197.16 102.52575 
L 211.56 102.52575 
L 211.56 102.138688 
L 197.16 102.138688 
L 197.16 102.52575 
" clip-path="url(#p6794577106)" style="fill: #febd2a; stroke: #febd2a; stroke-width: 0.3"/>
     <path d="M 197.16 102.138688 
L 211.56 102.138688 
L 211.56 101.751625 
L 197.16 101.751625 
L 197.16 102.138688 
" clip-path="url(#p6794577106)" style="fill: #febb2b; stroke: #febb2b; stroke-width: 0.3"/>
     <path d="M 197.16 101.751625 
L 211.56 101.751625 
L 211.56 101.364563 
L 197.16 101.364563 
L 197.16 101.751625 
" clip-path="url(#p6794577106)" style="fill: #feba2c; stroke: #feba2c; stroke-width: 0.3"/>
     <path d="M 197.16 101.364563 
L 211.56 101.364563 
L 211.56 100.9775 
L 197.16 100.9775 
L 197.16 101.364563 
" clip-path="url(#p6794577106)" style="fill: #feb82c; stroke: #feb82c; stroke-width: 0.3"/>
     <path d="M 197.16 100.9775 
L 211.56 100.9775 
L 211.56 100.590438 
L 197.16 100.590438 
L 197.16 100.9775 
" clip-path="url(#p6794577106)" style="fill: #feb72d; stroke: #feb72d; stroke-width: 0.3"/>
     <path d="M 197.16 100.590438 
L 211.56 100.590438 
L 211.56 100.203375 
L 197.16 100.203375 
L 197.16 100.590438 
" clip-path="url(#p6794577106)" style="fill: #fdb52e; stroke: #fdb52e; stroke-width: 0.3"/>
     <path d="M 197.16 100.203375 
L 211.56 100.203375 
L 211.56 99.816312 
L 197.16 99.816312 
L 197.16 100.203375 
" clip-path="url(#p6794577106)" style="fill: #fdb42f; stroke: #fdb42f; stroke-width: 0.3"/>
     <path d="M 197.16 99.816312 
L 211.56 99.816312 
L 211.56 99.42925 
L 197.16 99.42925 
L 197.16 99.816312 
" clip-path="url(#p6794577106)" style="fill: #fdb22f; stroke: #fdb22f; stroke-width: 0.3"/>
     <path d="M 197.16 99.42925 
L 211.56 99.42925 
L 211.56 99.042188 
L 197.16 99.042188 
L 197.16 99.42925 
" clip-path="url(#p6794577106)" style="fill: #fdb130; stroke: #fdb130; stroke-width: 0.3"/>
     <path d="M 197.16 99.042188 
L 211.56 99.042188 
L 211.56 98.655125 
L 197.16 98.655125 
L 197.16 99.042188 
" clip-path="url(#p6794577106)" style="fill: #fdaf31; stroke: #fdaf31; stroke-width: 0.3"/>
     <path d="M 197.16 98.655125 
L 211.56 98.655125 
L 211.56 98.268063 
L 197.16 98.268063 
L 197.16 98.655125 
" clip-path="url(#p6794577106)" style="fill: #fdae32; stroke: #fdae32; stroke-width: 0.3"/>
     <path d="M 197.16 98.268063 
L 211.56 98.268063 
L 211.56 97.881 
L 197.16 97.881 
L 197.16 98.268063 
" clip-path="url(#p6794577106)" style="fill: #fdac33; stroke: #fdac33; stroke-width: 0.3"/>
     <path d="M 197.16 97.881 
L 211.56 97.881 
L 211.56 97.493938 
L 197.16 97.493938 
L 197.16 97.881 
" clip-path="url(#p6794577106)" style="fill: #fdab33; stroke: #fdab33; stroke-width: 0.3"/>
     <path d="M 197.16 97.493938 
L 211.56 97.493938 
L 211.56 97.106875 
L 197.16 97.106875 
L 197.16 97.493938 
" clip-path="url(#p6794577106)" style="fill: #fca934; stroke: #fca934; stroke-width: 0.3"/>
     <path d="M 197.16 97.106875 
L 211.56 97.106875 
L 211.56 96.719812 
L 197.16 96.719812 
L 197.16 97.106875 
" clip-path="url(#p6794577106)" style="fill: #fca835; stroke: #fca835; stroke-width: 0.3"/>
     <path d="M 197.16 96.719812 
L 211.56 96.719812 
L 211.56 96.33275 
L 197.16 96.33275 
L 197.16 96.719812 
" clip-path="url(#p6794577106)" style="fill: #fca636; stroke: #fca636; stroke-width: 0.3"/>
     <path d="M 197.16 96.33275 
L 211.56 96.33275 
L 211.56 95.945687 
L 197.16 95.945687 
L 197.16 96.33275 
" clip-path="url(#p6794577106)" style="fill: #fca537; stroke: #fca537; stroke-width: 0.3"/>
     <path d="M 197.16 95.945687 
L 211.56 95.945687 
L 211.56 95.558625 
L 197.16 95.558625 
L 197.16 95.945687 
" clip-path="url(#p6794577106)" style="fill: #fca338; stroke: #fca338; stroke-width: 0.3"/>
     <path d="M 197.16 95.558625 
L 211.56 95.558625 
L 211.56 95.171563 
L 197.16 95.171563 
L 197.16 95.558625 
" clip-path="url(#p6794577106)" style="fill: #fba238; stroke: #fba238; stroke-width: 0.3"/>
     <path d="M 197.16 95.171563 
L 211.56 95.171563 
L 211.56 94.7845 
L 197.16 94.7845 
L 197.16 95.171563 
" clip-path="url(#p6794577106)" style="fill: #fba139; stroke: #fba139; stroke-width: 0.3"/>
     <path d="M 197.16 94.7845 
L 211.56 94.7845 
L 211.56 94.397438 
L 197.16 94.397438 
L 197.16 94.7845 
" clip-path="url(#p6794577106)" style="fill: #fb9f3a; stroke: #fb9f3a; stroke-width: 0.3"/>
     <path d="M 197.16 94.397438 
L 211.56 94.397438 
L 211.56 94.010375 
L 197.16 94.010375 
L 197.16 94.397438 
" clip-path="url(#p6794577106)" style="fill: #fa9e3b; stroke: #fa9e3b; stroke-width: 0.3"/>
     <path d="M 197.16 94.010375 
L 211.56 94.010375 
L 211.56 93.623312 
L 197.16 93.623312 
L 197.16 94.010375 
" clip-path="url(#p6794577106)" style="fill: #fa9c3c; stroke: #fa9c3c; stroke-width: 0.3"/>
     <path d="M 197.16 93.623312 
L 211.56 93.623312 
L 211.56 93.23625 
L 197.16 93.23625 
L 197.16 93.623312 
" clip-path="url(#p6794577106)" style="fill: #fa9b3d; stroke: #fa9b3d; stroke-width: 0.3"/>
     <path d="M 197.16 93.23625 
L 211.56 93.23625 
L 211.56 92.849188 
L 197.16 92.849188 
L 197.16 93.23625 
" clip-path="url(#p6794577106)" style="fill: #f99a3e; stroke: #f99a3e; stroke-width: 0.3"/>
     <path d="M 197.16 92.849188 
L 211.56 92.849188 
L 211.56 92.462125 
L 197.16 92.462125 
L 197.16 92.849188 
" clip-path="url(#p6794577106)" style="fill: #f9983e; stroke: #f9983e; stroke-width: 0.3"/>
     <path d="M 197.16 92.462125 
L 211.56 92.462125 
L 211.56 92.075062 
L 197.16 92.075062 
L 197.16 92.462125 
" clip-path="url(#p6794577106)" style="fill: #f9973f; stroke: #f9973f; stroke-width: 0.3"/>
     <path d="M 197.16 92.075062 
L 211.56 92.075062 
L 211.56 91.688 
L 197.16 91.688 
L 197.16 92.075062 
" clip-path="url(#p6794577106)" style="fill: #f89540; stroke: #f89540; stroke-width: 0.3"/>
     <path d="M 197.16 91.688 
L 211.56 91.688 
L 211.56 91.300938 
L 197.16 91.300938 
L 197.16 91.688 
" clip-path="url(#p6794577106)" style="fill: #f89441; stroke: #f89441; stroke-width: 0.3"/>
     <path d="M 197.16 91.300938 
L 211.56 91.300938 
L 211.56 90.913875 
L 197.16 90.913875 
L 197.16 91.300938 
" clip-path="url(#p6794577106)" style="fill: #f79342; stroke: #f79342; stroke-width: 0.3"/>
     <path d="M 197.16 90.913875 
L 211.56 90.913875 
L 211.56 90.526813 
L 197.16 90.526813 
L 197.16 90.913875 
" clip-path="url(#p6794577106)" style="fill: #f79143; stroke: #f79143; stroke-width: 0.3"/>
     <path d="M 197.16 90.526813 
L 211.56 90.526813 
L 211.56 90.13975 
L 197.16 90.13975 
L 197.16 90.526813 
" clip-path="url(#p6794577106)" style="fill: #f79044; stroke: #f79044; stroke-width: 0.3"/>
     <path d="M 197.16 90.13975 
L 211.56 90.13975 
L 211.56 89.752687 
L 197.16 89.752687 
L 197.16 90.13975 
" clip-path="url(#p6794577106)" style="fill: #f68f44; stroke: #f68f44; stroke-width: 0.3"/>
     <path d="M 197.16 89.752687 
L 211.56 89.752687 
L 211.56 89.365625 
L 197.16 89.365625 
L 197.16 89.752687 
" clip-path="url(#p6794577106)" style="fill: #f68d45; stroke: #f68d45; stroke-width: 0.3"/>
     <path d="M 197.16 89.365625 
L 211.56 89.365625 
L 211.56 88.978563 
L 197.16 88.978563 
L 197.16 89.365625 
" clip-path="url(#p6794577106)" style="fill: #f58c46; stroke: #f58c46; stroke-width: 0.3"/>
     <path d="M 197.16 88.978563 
L 211.56 88.978563 
L 211.56 88.5915 
L 197.16 88.5915 
L 197.16 88.978563 
" clip-path="url(#p6794577106)" style="fill: #f58b47; stroke: #f58b47; stroke-width: 0.3"/>
     <path d="M 197.16 88.5915 
L 211.56 88.5915 
L 211.56 88.204437 
L 197.16 88.204437 
L 197.16 88.5915 
" clip-path="url(#p6794577106)" style="fill: #f48948; stroke: #f48948; stroke-width: 0.3"/>
     <path d="M 197.16 88.204437 
L 211.56 88.204437 
L 211.56 87.817375 
L 197.16 87.817375 
L 197.16 88.204437 
" clip-path="url(#p6794577106)" style="fill: #f48849; stroke: #f48849; stroke-width: 0.3"/>
     <path d="M 197.16 87.817375 
L 211.56 87.817375 
L 211.56 87.430313 
L 197.16 87.430313 
L 197.16 87.817375 
" clip-path="url(#p6794577106)" style="fill: #f3874a; stroke: #f3874a; stroke-width: 0.3"/>
     <path d="M 197.16 87.430313 
L 211.56 87.430313 
L 211.56 87.04325 
L 197.16 87.04325 
L 197.16 87.430313 
" clip-path="url(#p6794577106)" style="fill: #f3854b; stroke: #f3854b; stroke-width: 0.3"/>
     <path d="M 197.16 87.04325 
L 211.56 87.04325 
L 211.56 86.656188 
L 197.16 86.656188 
L 197.16 87.04325 
" clip-path="url(#p6794577106)" style="fill: #f2844b; stroke: #f2844b; stroke-width: 0.3"/>
     <path d="M 197.16 86.656188 
L 211.56 86.656188 
L 211.56 86.269125 
L 197.16 86.269125 
L 197.16 86.656188 
" clip-path="url(#p6794577106)" style="fill: #f1834c; stroke: #f1834c; stroke-width: 0.3"/>
     <path d="M 197.16 86.269125 
L 211.56 86.269125 
L 211.56 85.882062 
L 197.16 85.882062 
L 197.16 86.269125 
" clip-path="url(#p6794577106)" style="fill: #f1814d; stroke: #f1814d; stroke-width: 0.3"/>
     <path d="M 197.16 85.882062 
L 211.56 85.882062 
L 211.56 85.495 
L 197.16 85.495 
L 197.16 85.882062 
" clip-path="url(#p6794577106)" style="fill: #f0804e; stroke: #f0804e; stroke-width: 0.3"/>
     <path d="M 197.16 85.495 
L 211.56 85.495 
L 211.56 85.107938 
L 197.16 85.107938 
L 197.16 85.495 
" clip-path="url(#p6794577106)" style="fill: #f07f4f; stroke: #f07f4f; stroke-width: 0.3"/>
     <path d="M 197.16 85.107938 
L 211.56 85.107938 
L 211.56 84.720875 
L 197.16 84.720875 
L 197.16 85.107938 
" clip-path="url(#p6794577106)" style="fill: #ef7e50; stroke: #ef7e50; stroke-width: 0.3"/>
     <path d="M 197.16 84.720875 
L 211.56 84.720875 
L 211.56 84.333813 
L 197.16 84.333813 
L 197.16 84.720875 
" clip-path="url(#p6794577106)" style="fill: #ef7c51; stroke: #ef7c51; stroke-width: 0.3"/>
     <path d="M 197.16 84.333813 
L 211.56 84.333813 
L 211.56 83.94675 
L 197.16 83.94675 
L 197.16 84.333813 
" clip-path="url(#p6794577106)" style="fill: #ee7b51; stroke: #ee7b51; stroke-width: 0.3"/>
     <path d="M 197.16 83.94675 
L 211.56 83.94675 
L 211.56 83.559687 
L 197.16 83.559687 
L 197.16 83.94675 
" clip-path="url(#p6794577106)" style="fill: #ed7a52; stroke: #ed7a52; stroke-width: 0.3"/>
     <path d="M 197.16 83.559687 
L 211.56 83.559687 
L 211.56 83.172625 
L 197.16 83.172625 
L 197.16 83.559687 
" clip-path="url(#p6794577106)" style="fill: #ed7953; stroke: #ed7953; stroke-width: 0.3"/>
     <path d="M 197.16 83.172625 
L 211.56 83.172625 
L 211.56 82.785563 
L 197.16 82.785563 
L 197.16 83.172625 
" clip-path="url(#p6794577106)" style="fill: #ec7754; stroke: #ec7754; stroke-width: 0.3"/>
     <path d="M 197.16 82.785563 
L 211.56 82.785563 
L 211.56 82.3985 
L 197.16 82.3985 
L 197.16 82.785563 
" clip-path="url(#p6794577106)" style="fill: #eb7655; stroke: #eb7655; stroke-width: 0.3"/>
     <path d="M 197.16 82.3985 
L 211.56 82.3985 
L 211.56 82.011437 
L 197.16 82.011437 
L 197.16 82.3985 
" clip-path="url(#p6794577106)" style="fill: #eb7556; stroke: #eb7556; stroke-width: 0.3"/>
     <path d="M 197.16 82.011437 
L 211.56 82.011437 
L 211.56 81.624375 
L 197.16 81.624375 
L 197.16 82.011437 
" clip-path="url(#p6794577106)" style="fill: #ea7457; stroke: #ea7457; stroke-width: 0.3"/>
     <path d="M 197.16 81.624375 
L 211.56 81.624375 
L 211.56 81.237313 
L 197.16 81.237313 
L 197.16 81.624375 
" clip-path="url(#p6794577106)" style="fill: #e97257; stroke: #e97257; stroke-width: 0.3"/>
     <path d="M 197.16 81.237313 
L 211.56 81.237313 
L 211.56 80.85025 
L 197.16 80.85025 
L 197.16 81.237313 
" clip-path="url(#p6794577106)" style="fill: #e97158; stroke: #e97158; stroke-width: 0.3"/>
     <path d="M 197.16 80.85025 
L 211.56 80.85025 
L 211.56 80.463188 
L 197.16 80.463188 
L 197.16 80.85025 
" clip-path="url(#p6794577106)" style="fill: #e87059; stroke: #e87059; stroke-width: 0.3"/>
     <path d="M 197.16 80.463188 
L 211.56 80.463188 
L 211.56 80.076125 
L 197.16 80.076125 
L 197.16 80.463188 
" clip-path="url(#p6794577106)" style="fill: #e76f5a; stroke: #e76f5a; stroke-width: 0.3"/>
     <path d="M 197.16 80.076125 
L 211.56 80.076125 
L 211.56 79.689062 
L 197.16 79.689062 
L 197.16 80.076125 
" clip-path="url(#p6794577106)" style="fill: #e76e5b; stroke: #e76e5b; stroke-width: 0.3"/>
     <path d="M 197.16 79.689062 
L 211.56 79.689062 
L 211.56 79.302 
L 197.16 79.302 
L 197.16 79.689062 
" clip-path="url(#p6794577106)" style="fill: #e66c5c; stroke: #e66c5c; stroke-width: 0.3"/>
     <path d="M 197.16 79.302 
L 211.56 79.302 
L 211.56 78.914938 
L 197.16 78.914938 
L 197.16 79.302 
" clip-path="url(#p6794577106)" style="fill: #e56b5d; stroke: #e56b5d; stroke-width: 0.3"/>
     <path d="M 197.16 78.914938 
L 211.56 78.914938 
L 211.56 78.527875 
L 197.16 78.527875 
L 197.16 78.914938 
" clip-path="url(#p6794577106)" style="fill: #e56a5d; stroke: #e56a5d; stroke-width: 0.3"/>
     <path d="M 197.16 78.527875 
L 211.56 78.527875 
L 211.56 78.140813 
L 197.16 78.140813 
L 197.16 78.527875 
" clip-path="url(#p6794577106)" style="fill: #e4695e; stroke: #e4695e; stroke-width: 0.3"/>
     <path d="M 197.16 78.140813 
L 211.56 78.140813 
L 211.56 77.75375 
L 197.16 77.75375 
L 197.16 78.140813 
" clip-path="url(#p6794577106)" style="fill: #e3685f; stroke: #e3685f; stroke-width: 0.3"/>
     <path d="M 197.16 77.75375 
L 211.56 77.75375 
L 211.56 77.366688 
L 197.16 77.366688 
L 197.16 77.75375 
" clip-path="url(#p6794577106)" style="fill: #e26660; stroke: #e26660; stroke-width: 0.3"/>
     <path d="M 197.16 77.366688 
L 211.56 77.366688 
L 211.56 76.979625 
L 197.16 76.979625 
L 197.16 77.366688 
" clip-path="url(#p6794577106)" style="fill: #e26561; stroke: #e26561; stroke-width: 0.3"/>
     <path d="M 197.16 76.979625 
L 211.56 76.979625 
L 211.56 76.592563 
L 197.16 76.592563 
L 197.16 76.979625 
" clip-path="url(#p6794577106)" style="fill: #e16462; stroke: #e16462; stroke-width: 0.3"/>
     <path d="M 197.16 76.592563 
L 211.56 76.592563 
L 211.56 76.2055 
L 197.16 76.2055 
L 197.16 76.592563 
" clip-path="url(#p6794577106)" style="fill: #e06363; stroke: #e06363; stroke-width: 0.3"/>
     <path d="M 197.16 76.2055 
L 211.56 76.2055 
L 211.56 75.818438 
L 197.16 75.818438 
L 197.16 76.2055 
" clip-path="url(#p6794577106)" style="fill: #df6263; stroke: #df6263; stroke-width: 0.3"/>
     <path d="M 197.16 75.818438 
L 211.56 75.818438 
L 211.56 75.431375 
L 197.16 75.431375 
L 197.16 75.818438 
" clip-path="url(#p6794577106)" style="fill: #de6164; stroke: #de6164; stroke-width: 0.3"/>
     <path d="M 197.16 75.431375 
L 211.56 75.431375 
L 211.56 75.044313 
L 197.16 75.044313 
L 197.16 75.431375 
" clip-path="url(#p6794577106)" style="fill: #de5f65; stroke: #de5f65; stroke-width: 0.3"/>
     <path d="M 197.16 75.044313 
L 211.56 75.044313 
L 211.56 74.65725 
L 197.16 74.65725 
L 197.16 75.044313 
" clip-path="url(#p6794577106)" style="fill: #dd5e66; stroke: #dd5e66; stroke-width: 0.3"/>
     <path d="M 197.16 74.65725 
L 211.56 74.65725 
L 211.56 74.270188 
L 197.16 74.270188 
L 197.16 74.65725 
" clip-path="url(#p6794577106)" style="fill: #dc5d67; stroke: #dc5d67; stroke-width: 0.3"/>
     <path d="M 197.16 74.270188 
L 211.56 74.270188 
L 211.56 73.883125 
L 197.16 73.883125 
L 197.16 74.270188 
" clip-path="url(#p6794577106)" style="fill: #db5c68; stroke: #db5c68; stroke-width: 0.3"/>
     <path d="M 197.16 73.883125 
L 211.56 73.883125 
L 211.56 73.496062 
L 197.16 73.496062 
L 197.16 73.883125 
" clip-path="url(#p6794577106)" style="fill: #da5b69; stroke: #da5b69; stroke-width: 0.3"/>
     <path d="M 197.16 73.496062 
L 211.56 73.496062 
L 211.56 73.109 
L 197.16 73.109 
L 197.16 73.496062 
" clip-path="url(#p6794577106)" style="fill: #da5a6a; stroke: #da5a6a; stroke-width: 0.3"/>
     <path d="M 197.16 73.109 
L 211.56 73.109 
L 211.56 72.721938 
L 197.16 72.721938 
L 197.16 73.109 
" clip-path="url(#p6794577106)" style="fill: #d9586a; stroke: #d9586a; stroke-width: 0.3"/>
     <path d="M 197.16 72.721938 
L 211.56 72.721938 
L 211.56 72.334875 
L 197.16 72.334875 
L 197.16 72.721938 
" clip-path="url(#p6794577106)" style="fill: #d8576b; stroke: #d8576b; stroke-width: 0.3"/>
     <path d="M 197.16 72.334875 
L 211.56 72.334875 
L 211.56 71.947813 
L 197.16 71.947813 
L 197.16 72.334875 
" clip-path="url(#p6794577106)" style="fill: #d7566c; stroke: #d7566c; stroke-width: 0.3"/>
     <path d="M 197.16 71.947813 
L 211.56 71.947813 
L 211.56 71.56075 
L 197.16 71.56075 
L 197.16 71.947813 
" clip-path="url(#p6794577106)" style="fill: #d6556d; stroke: #d6556d; stroke-width: 0.3"/>
     <path d="M 197.16 71.56075 
L 211.56 71.56075 
L 211.56 71.173688 
L 197.16 71.173688 
L 197.16 71.56075 
" clip-path="url(#p6794577106)" style="fill: #d5546e; stroke: #d5546e; stroke-width: 0.3"/>
     <path d="M 197.16 71.173688 
L 211.56 71.173688 
L 211.56 70.786625 
L 197.16 70.786625 
L 197.16 71.173688 
" clip-path="url(#p6794577106)" style="fill: #d5536f; stroke: #d5536f; stroke-width: 0.3"/>
     <path d="M 197.16 70.786625 
L 211.56 70.786625 
L 211.56 70.399563 
L 197.16 70.399563 
L 197.16 70.786625 
" clip-path="url(#p6794577106)" style="fill: #d45270; stroke: #d45270; stroke-width: 0.3"/>
     <path d="M 197.16 70.399563 
L 211.56 70.399563 
L 211.56 70.0125 
L 197.16 70.0125 
L 197.16 70.399563 
" clip-path="url(#p6794577106)" style="fill: #d35171; stroke: #d35171; stroke-width: 0.3"/>
     <path d="M 197.16 70.0125 
L 211.56 70.0125 
L 211.56 69.625438 
L 197.16 69.625438 
L 197.16 70.0125 
" clip-path="url(#p6794577106)" style="fill: #d24f71; stroke: #d24f71; stroke-width: 0.3"/>
     <path d="M 197.16 69.625438 
L 211.56 69.625438 
L 211.56 69.238375 
L 197.16 69.238375 
L 197.16 69.625438 
" clip-path="url(#p6794577106)" style="fill: #d14e72; stroke: #d14e72; stroke-width: 0.3"/>
     <path d="M 197.16 69.238375 
L 211.56 69.238375 
L 211.56 68.851313 
L 197.16 68.851313 
L 197.16 69.238375 
" clip-path="url(#p6794577106)" style="fill: #d04d73; stroke: #d04d73; stroke-width: 0.3"/>
     <path d="M 197.16 68.851313 
L 211.56 68.851313 
L 211.56 68.46425 
L 197.16 68.46425 
L 197.16 68.851313 
" clip-path="url(#p6794577106)" style="fill: #cf4c74; stroke: #cf4c74; stroke-width: 0.3"/>
     <path d="M 197.16 68.46425 
L 211.56 68.46425 
L 211.56 68.077188 
L 197.16 68.077188 
L 197.16 68.46425 
" clip-path="url(#p6794577106)" style="fill: #ce4b75; stroke: #ce4b75; stroke-width: 0.3"/>
     <path d="M 197.16 68.077188 
L 211.56 68.077188 
L 211.56 67.690125 
L 197.16 67.690125 
L 197.16 68.077188 
" clip-path="url(#p6794577106)" style="fill: #cd4a76; stroke: #cd4a76; stroke-width: 0.3"/>
     <path d="M 197.16 67.690125 
L 211.56 67.690125 
L 211.56 67.303063 
L 197.16 67.303063 
L 197.16 67.690125 
" clip-path="url(#p6794577106)" style="fill: #cc4977; stroke: #cc4977; stroke-width: 0.3"/>
     <path d="M 197.16 67.303063 
L 211.56 67.303063 
L 211.56 66.916 
L 197.16 66.916 
L 197.16 67.303063 
" clip-path="url(#p6794577106)" style="fill: #cc4778; stroke: #cc4778; stroke-width: 0.3"/>
     <path d="M 197.16 66.916 
L 211.56 66.916 
L 211.56 66.528937 
L 197.16 66.528937 
L 197.16 66.916 
" clip-path="url(#p6794577106)" style="fill: #cb4679; stroke: #cb4679; stroke-width: 0.3"/>
     <path d="M 197.16 66.528937 
L 211.56 66.528937 
L 211.56 66.141875 
L 197.16 66.141875 
L 197.16 66.528937 
" clip-path="url(#p6794577106)" style="fill: #ca457a; stroke: #ca457a; stroke-width: 0.3"/>
     <path d="M 197.16 66.141875 
L 211.56 66.141875 
L 211.56 65.754813 
L 197.16 65.754813 
L 197.16 66.141875 
" clip-path="url(#p6794577106)" style="fill: #c9447a; stroke: #c9447a; stroke-width: 0.3"/>
     <path d="M 197.16 65.754813 
L 211.56 65.754813 
L 211.56 65.36775 
L 197.16 65.36775 
L 197.16 65.754813 
" clip-path="url(#p6794577106)" style="fill: #c8437b; stroke: #c8437b; stroke-width: 0.3"/>
     <path d="M 197.16 65.36775 
L 211.56 65.36775 
L 211.56 64.980688 
L 197.16 64.980688 
L 197.16 65.36775 
" clip-path="url(#p6794577106)" style="fill: #c7427c; stroke: #c7427c; stroke-width: 0.3"/>
     <path d="M 197.16 64.980688 
L 211.56 64.980688 
L 211.56 64.593625 
L 197.16 64.593625 
L 197.16 64.980688 
" clip-path="url(#p6794577106)" style="fill: #c6417d; stroke: #c6417d; stroke-width: 0.3"/>
     <path d="M 197.16 64.593625 
L 211.56 64.593625 
L 211.56 64.206563 
L 197.16 64.206563 
L 197.16 64.593625 
" clip-path="url(#p6794577106)" style="fill: #c5407e; stroke: #c5407e; stroke-width: 0.3"/>
     <path d="M 197.16 64.206563 
L 211.56 64.206563 
L 211.56 63.8195 
L 197.16 63.8195 
L 197.16 64.206563 
" clip-path="url(#p6794577106)" style="fill: #c43e7f; stroke: #c43e7f; stroke-width: 0.3"/>
     <path d="M 197.16 63.8195 
L 211.56 63.8195 
L 211.56 63.432438 
L 197.16 63.432438 
L 197.16 63.8195 
" clip-path="url(#p6794577106)" style="fill: #c33d80; stroke: #c33d80; stroke-width: 0.3"/>
     <path d="M 197.16 63.432438 
L 211.56 63.432438 
L 211.56 63.045375 
L 197.16 63.045375 
L 197.16 63.432438 
" clip-path="url(#p6794577106)" style="fill: #c23c81; stroke: #c23c81; stroke-width: 0.3"/>
     <path d="M 197.16 63.045375 
L 211.56 63.045375 
L 211.56 62.658312 
L 197.16 62.658312 
L 197.16 63.045375 
" clip-path="url(#p6794577106)" style="fill: #c13b82; stroke: #c13b82; stroke-width: 0.3"/>
     <path d="M 197.16 62.658312 
L 211.56 62.658312 
L 211.56 62.27125 
L 197.16 62.27125 
L 197.16 62.658312 
" clip-path="url(#p6794577106)" style="fill: #c03a83; stroke: #c03a83; stroke-width: 0.3"/>
     <path d="M 197.16 62.27125 
L 211.56 62.27125 
L 211.56 61.884188 
L 197.16 61.884188 
L 197.16 62.27125 
" clip-path="url(#p6794577106)" style="fill: #bf3984; stroke: #bf3984; stroke-width: 0.3"/>
     <path d="M 197.16 61.884188 
L 211.56 61.884188 
L 211.56 61.497125 
L 197.16 61.497125 
L 197.16 61.884188 
" clip-path="url(#p6794577106)" style="fill: #be3885; stroke: #be3885; stroke-width: 0.3"/>
     <path d="M 197.16 61.497125 
L 211.56 61.497125 
L 211.56 61.110063 
L 197.16 61.110063 
L 197.16 61.497125 
" clip-path="url(#p6794577106)" style="fill: #bd3786; stroke: #bd3786; stroke-width: 0.3"/>
     <path d="M 197.16 61.110063 
L 211.56 61.110063 
L 211.56 60.723 
L 197.16 60.723 
L 197.16 61.110063 
" clip-path="url(#p6794577106)" style="fill: #bc3587; stroke: #bc3587; stroke-width: 0.3"/>
     <path d="M 197.16 60.723 
L 211.56 60.723 
L 211.56 60.335938 
L 197.16 60.335938 
L 197.16 60.723 
" clip-path="url(#p6794577106)" style="fill: #bb3488; stroke: #bb3488; stroke-width: 0.3"/>
     <path d="M 197.16 60.335938 
L 211.56 60.335938 
L 211.56 59.948875 
L 197.16 59.948875 
L 197.16 60.335938 
" clip-path="url(#p6794577106)" style="fill: #ba3388; stroke: #ba3388; stroke-width: 0.3"/>
     <path d="M 197.16 59.948875 
L 211.56 59.948875 
L 211.56 59.561813 
L 197.16 59.561813 
L 197.16 59.948875 
" clip-path="url(#p6794577106)" style="fill: #b83289; stroke: #b83289; stroke-width: 0.3"/>
     <path d="M 197.16 59.561813 
L 211.56 59.561813 
L 211.56 59.17475 
L 197.16 59.17475 
L 197.16 59.561813 
" clip-path="url(#p6794577106)" style="fill: #b7318a; stroke: #b7318a; stroke-width: 0.3"/>
     <path d="M 197.16 59.17475 
L 211.56 59.17475 
L 211.56 58.787687 
L 197.16 58.787687 
L 197.16 59.17475 
" clip-path="url(#p6794577106)" style="fill: #b6308b; stroke: #b6308b; stroke-width: 0.3"/>
     <path d="M 197.16 58.787687 
L 211.56 58.787687 
L 211.56 58.400625 
L 197.16 58.400625 
L 197.16 58.787687 
" clip-path="url(#p6794577106)" style="fill: #b52f8c; stroke: #b52f8c; stroke-width: 0.3"/>
     <path d="M 197.16 58.400625 
L 211.56 58.400625 
L 211.56 58.013563 
L 197.16 58.013563 
L 197.16 58.400625 
" clip-path="url(#p6794577106)" style="fill: #b42e8d; stroke: #b42e8d; stroke-width: 0.3"/>
     <path d="M 197.16 58.013563 
L 211.56 58.013563 
L 211.56 57.6265 
L 197.16 57.6265 
L 197.16 58.013563 
" clip-path="url(#p6794577106)" style="fill: #b32c8e; stroke: #b32c8e; stroke-width: 0.3"/>
     <path d="M 197.16 57.6265 
L 211.56 57.6265 
L 211.56 57.239438 
L 197.16 57.239438 
L 197.16 57.6265 
" clip-path="url(#p6794577106)" style="fill: #b22b8f; stroke: #b22b8f; stroke-width: 0.3"/>
     <path d="M 197.16 57.239438 
L 211.56 57.239438 
L 211.56 56.852375 
L 197.16 56.852375 
L 197.16 57.239438 
" clip-path="url(#p6794577106)" style="fill: #b12a90; stroke: #b12a90; stroke-width: 0.3"/>
     <path d="M 197.16 56.852375 
L 211.56 56.852375 
L 211.56 56.465312 
L 197.16 56.465312 
L 197.16 56.852375 
" clip-path="url(#p6794577106)" style="fill: #b02991; stroke: #b02991; stroke-width: 0.3"/>
     <path d="M 197.16 56.465312 
L 211.56 56.465312 
L 211.56 56.07825 
L 197.16 56.07825 
L 197.16 56.465312 
" clip-path="url(#p6794577106)" style="fill: #ae2892; stroke: #ae2892; stroke-width: 0.3"/>
     <path d="M 197.16 56.07825 
L 211.56 56.07825 
L 211.56 55.691188 
L 197.16 55.691188 
L 197.16 56.07825 
" clip-path="url(#p6794577106)" style="fill: #ad2793; stroke: #ad2793; stroke-width: 0.3"/>
     <path d="M 197.16 55.691188 
L 211.56 55.691188 
L 211.56 55.304125 
L 197.16 55.304125 
L 197.16 55.691188 
" clip-path="url(#p6794577106)" style="fill: #ac2694; stroke: #ac2694; stroke-width: 0.3"/>
     <path d="M 197.16 55.304125 
L 211.56 55.304125 
L 211.56 54.917063 
L 197.16 54.917063 
L 197.16 55.304125 
" clip-path="url(#p6794577106)" style="fill: #ab2494; stroke: #ab2494; stroke-width: 0.3"/>
     <path d="M 197.16 54.917063 
L 211.56 54.917063 
L 211.56 54.53 
L 197.16 54.53 
L 197.16 54.917063 
" clip-path="url(#p6794577106)" style="fill: #aa2395; stroke: #aa2395; stroke-width: 0.3"/>
     <path d="M 197.16 54.53 
L 211.56 54.53 
L 211.56 54.142938 
L 197.16 54.142938 
L 197.16 54.53 
" clip-path="url(#p6794577106)" style="fill: #a82296; stroke: #a82296; stroke-width: 0.3"/>
     <path d="M 197.16 54.142938 
L 211.56 54.142938 
L 211.56 53.755875 
L 197.16 53.755875 
L 197.16 54.142938 
" clip-path="url(#p6794577106)" style="fill: #a72197; stroke: #a72197; stroke-width: 0.3"/>
     <path d="M 197.16 53.755875 
L 211.56 53.755875 
L 211.56 53.368813 
L 197.16 53.368813 
L 197.16 53.755875 
" clip-path="url(#p6794577106)" style="fill: #a62098; stroke: #a62098; stroke-width: 0.3"/>
     <path d="M 197.16 53.368813 
L 211.56 53.368813 
L 211.56 52.98175 
L 197.16 52.98175 
L 197.16 53.368813 
" clip-path="url(#p6794577106)" style="fill: #a51f99; stroke: #a51f99; stroke-width: 0.3"/>
     <path d="M 197.16 52.98175 
L 211.56 52.98175 
L 211.56 52.594687 
L 197.16 52.594687 
L 197.16 52.98175 
" clip-path="url(#p6794577106)" style="fill: #a31e9a; stroke: #a31e9a; stroke-width: 0.3"/>
     <path d="M 197.16 52.594687 
L 211.56 52.594687 
L 211.56 52.207625 
L 197.16 52.207625 
L 197.16 52.594687 
" clip-path="url(#p6794577106)" style="fill: #a21d9a; stroke: #a21d9a; stroke-width: 0.3"/>
     <path d="M 197.16 52.207625 
L 211.56 52.207625 
L 211.56 51.820563 
L 197.16 51.820563 
L 197.16 52.207625 
" clip-path="url(#p6794577106)" style="fill: #a11b9b; stroke: #a11b9b; stroke-width: 0.3"/>
     <path d="M 197.16 51.820563 
L 211.56 51.820563 
L 211.56 51.4335 
L 197.16 51.4335 
L 197.16 51.820563 
" clip-path="url(#p6794577106)" style="fill: #a01a9c; stroke: #a01a9c; stroke-width: 0.3"/>
     <path d="M 197.16 51.4335 
L 211.56 51.4335 
L 211.56 51.046438 
L 197.16 51.046438 
L 197.16 51.4335 
" clip-path="url(#p6794577106)" style="fill: #9e199d; stroke: #9e199d; stroke-width: 0.3"/>
     <path d="M 197.16 51.046438 
L 211.56 51.046438 
L 211.56 50.659375 
L 197.16 50.659375 
L 197.16 51.046438 
" clip-path="url(#p6794577106)" style="fill: #9d189d; stroke: #9d189d; stroke-width: 0.3"/>
     <path d="M 197.16 50.659375 
L 211.56 50.659375 
L 211.56 50.272312 
L 197.16 50.272312 
L 197.16 50.659375 
" clip-path="url(#p6794577106)" style="fill: #9c179e; stroke: #9c179e; stroke-width: 0.3"/>
     <path d="M 197.16 50.272312 
L 211.56 50.272312 
L 211.56 49.88525 
L 197.16 49.88525 
L 197.16 50.272312 
" clip-path="url(#p6794577106)" style="fill: #9a169f; stroke: #9a169f; stroke-width: 0.3"/>
     <path d="M 197.16 49.88525 
L 211.56 49.88525 
L 211.56 49.498188 
L 197.16 49.498188 
L 197.16 49.88525 
" clip-path="url(#p6794577106)" style="fill: #99159f; stroke: #99159f; stroke-width: 0.3"/>
     <path d="M 197.16 49.498188 
L 211.56 49.498188 
L 211.56 49.111125 
L 197.16 49.111125 
L 197.16 49.498188 
" clip-path="url(#p6794577106)" style="fill: #9814a0; stroke: #9814a0; stroke-width: 0.3"/>
     <path d="M 197.16 49.111125 
L 211.56 49.111125 
L 211.56 48.724063 
L 197.16 48.724063 
L 197.16 49.111125 
" clip-path="url(#p6794577106)" style="fill: #9613a1; stroke: #9613a1; stroke-width: 0.3"/>
     <path d="M 197.16 48.724063 
L 211.56 48.724063 
L 211.56 48.337 
L 197.16 48.337 
L 197.16 48.724063 
" clip-path="url(#p6794577106)" style="fill: #9511a1; stroke: #9511a1; stroke-width: 0.3"/>
     <path d="M 197.16 48.337 
L 211.56 48.337 
L 211.56 47.949938 
L 197.16 47.949938 
L 197.16 48.337 
" clip-path="url(#p6794577106)" style="fill: #9410a2; stroke: #9410a2; stroke-width: 0.3"/>
     <path d="M 197.16 47.949938 
L 211.56 47.949938 
L 211.56 47.562875 
L 197.16 47.562875 
L 197.16 47.949938 
" clip-path="url(#p6794577106)" style="fill: #920fa3; stroke: #920fa3; stroke-width: 0.3"/>
     <path d="M 197.16 47.562875 
L 211.56 47.562875 
L 211.56 47.175813 
L 197.16 47.175813 
L 197.16 47.562875 
" clip-path="url(#p6794577106)" style="fill: #910ea3; stroke: #910ea3; stroke-width: 0.3"/>
     <path d="M 197.16 47.175813 
L 211.56 47.175813 
L 211.56 46.78875 
L 197.16 46.78875 
L 197.16 47.175813 
" clip-path="url(#p6794577106)" style="fill: #8f0da4; stroke: #8f0da4; stroke-width: 0.3"/>
     <path d="M 197.16 46.78875 
L 211.56 46.78875 
L 211.56 46.401688 
L 197.16 46.401688 
L 197.16 46.78875 
" clip-path="url(#p6794577106)" style="fill: #8e0ca4; stroke: #8e0ca4; stroke-width: 0.3"/>
     <path d="M 197.16 46.401688 
L 211.56 46.401688 
L 211.56 46.014625 
L 197.16 46.014625 
L 197.16 46.401688 
" clip-path="url(#p6794577106)" style="fill: #8d0ba5; stroke: #8d0ba5; stroke-width: 0.3"/>
     <path d="M 197.16 46.014625 
L 211.56 46.014625 
L 211.56 45.627563 
L 197.16 45.627563 
L 197.16 46.014625 
" clip-path="url(#p6794577106)" style="fill: #8b0aa5; stroke: #8b0aa5; stroke-width: 0.3"/>
     <path d="M 197.16 45.627563 
L 211.56 45.627563 
L 211.56 45.2405 
L 197.16 45.2405 
L 197.16 45.627563 
" clip-path="url(#p6794577106)" style="fill: #8a09a5; stroke: #8a09a5; stroke-width: 0.3"/>
     <path d="M 197.16 45.2405 
L 211.56 45.2405 
L 211.56 44.853438 
L 197.16 44.853438 
L 197.16 45.2405 
" clip-path="url(#p6794577106)" style="fill: #8808a6; stroke: #8808a6; stroke-width: 0.3"/>
     <path d="M 197.16 44.853438 
L 211.56 44.853438 
L 211.56 44.466375 
L 197.16 44.466375 
L 197.16 44.853438 
" clip-path="url(#p6794577106)" style="fill: #8707a6; stroke: #8707a6; stroke-width: 0.3"/>
     <path d="M 197.16 44.466375 
L 211.56 44.466375 
L 211.56 44.079313 
L 197.16 44.079313 
L 197.16 44.466375 
" clip-path="url(#p6794577106)" style="fill: #8606a6; stroke: #8606a6; stroke-width: 0.3"/>
     <path d="M 197.16 44.079313 
L 211.56 44.079313 
L 211.56 43.69225 
L 197.16 43.69225 
L 197.16 44.079313 
" clip-path="url(#p6794577106)" style="fill: #8405a7; stroke: #8405a7; stroke-width: 0.3"/>
     <path d="M 197.16 43.69225 
L 211.56 43.69225 
L 211.56 43.305187 
L 197.16 43.305187 
L 197.16 43.69225 
" clip-path="url(#p6794577106)" style="fill: #8305a7; stroke: #8305a7; stroke-width: 0.3"/>
     <path d="M 197.16 43.305187 
L 211.56 43.305187 
L 211.56 42.918125 
L 197.16 42.918125 
L 197.16 43.305187 
" clip-path="url(#p6794577106)" style="fill: #8104a7; stroke: #8104a7; stroke-width: 0.3"/>
     <path d="M 197.16 42.918125 
L 211.56 42.918125 
L 211.56 42.531063 
L 197.16 42.531063 
L 197.16 42.918125 
" clip-path="url(#p6794577106)" style="fill: #8004a8; stroke: #8004a8; stroke-width: 0.3"/>
     <path d="M 197.16 42.531063 
L 211.56 42.531063 
L 211.56 42.144 
L 197.16 42.144 
L 197.16 42.531063 
" clip-path="url(#p6794577106)" style="fill: #7e03a8; stroke: #7e03a8; stroke-width: 0.3"/>
     <path d="M 197.16 42.144 
L 211.56 42.144 
L 211.56 41.756938 
L 197.16 41.756938 
L 197.16 42.144 
" clip-path="url(#p6794577106)" style="fill: #7d03a8; stroke: #7d03a8; stroke-width: 0.3"/>
     <path d="M 197.16 41.756938 
L 211.56 41.756938 
L 211.56 41.369875 
L 197.16 41.369875 
L 197.16 41.756938 
" clip-path="url(#p6794577106)" style="fill: #7b02a8; stroke: #7b02a8; stroke-width: 0.3"/>
     <path d="M 197.16 41.369875 
L 211.56 41.369875 
L 211.56 40.982813 
L 197.16 40.982813 
L 197.16 41.369875 
" clip-path="url(#p6794577106)" style="fill: #7a02a8; stroke: #7a02a8; stroke-width: 0.3"/>
     <path d="M 197.16 40.982813 
L 211.56 40.982813 
L 211.56 40.59575 
L 197.16 40.59575 
L 197.16 40.982813 
" clip-path="url(#p6794577106)" style="fill: #7801a8; stroke: #7801a8; stroke-width: 0.3"/>
     <path d="M 197.16 40.59575 
L 211.56 40.59575 
L 211.56 40.208688 
L 197.16 40.208688 
L 197.16 40.59575 
" clip-path="url(#p6794577106)" style="fill: #7701a8; stroke: #7701a8; stroke-width: 0.3"/>
     <path d="M 197.16 40.208688 
L 211.56 40.208688 
L 211.56 39.821625 
L 197.16 39.821625 
L 197.16 40.208688 
" clip-path="url(#p6794577106)" style="fill: #7501a8; stroke: #7501a8; stroke-width: 0.3"/>
     <path d="M 197.16 39.821625 
L 211.56 39.821625 
L 211.56 39.434562 
L 197.16 39.434562 
L 197.16 39.821625 
" clip-path="url(#p6794577106)" style="fill: #7401a8; stroke: #7401a8; stroke-width: 0.3"/>
     <path d="M 197.16 39.434562 
L 211.56 39.434562 
L 211.56 39.0475 
L 197.16 39.0475 
L 197.16 39.434562 
" clip-path="url(#p6794577106)" style="fill: #7201a8; stroke: #7201a8; stroke-width: 0.3"/>
     <path d="M 197.16 39.0475 
L 211.56 39.0475 
L 211.56 38.660438 
L 197.16 38.660438 
L 197.16 39.0475 
" clip-path="url(#p6794577106)" style="fill: #7100a8; stroke: #7100a8; stroke-width: 0.3"/>
     <path d="M 197.16 38.660438 
L 211.56 38.660438 
L 211.56 38.273375 
L 197.16 38.273375 
L 197.16 38.660438 
" clip-path="url(#p6794577106)" style="fill: #6f00a8; stroke: #6f00a8; stroke-width: 0.3"/>
     <path d="M 197.16 38.273375 
L 211.56 38.273375 
L 211.56 37.886313 
L 197.16 37.886313 
L 197.16 38.273375 
" clip-path="url(#p6794577106)" style="fill: #6e00a8; stroke: #6e00a8; stroke-width: 0.3"/>
     <path d="M 197.16 37.886313 
L 211.56 37.886313 
L 211.56 37.49925 
L 197.16 37.49925 
L 197.16 37.886313 
" clip-path="url(#p6794577106)" style="fill: #6c00a8; stroke: #6c00a8; stroke-width: 0.3"/>
     <path d="M 197.16 37.49925 
L 211.56 37.49925 
L 211.56 37.112188 
L 197.16 37.112188 
L 197.16 37.49925 
" clip-path="url(#p6794577106)" style="fill: #6a00a8; stroke: #6a00a8; stroke-width: 0.3"/>
     <path d="M 197.16 37.112188 
L 211.56 37.112188 
L 211.56 36.725125 
L 197.16 36.725125 
L 197.16 37.112188 
" clip-path="url(#p6794577106)" style="fill: #6900a8; stroke: #6900a8; stroke-width: 0.3"/>
     <path d="M 197.16 36.725125 
L 211.56 36.725125 
L 211.56 36.338063 
L 197.16 36.338063 
L 197.16 36.725125 
" clip-path="url(#p6794577106)" style="fill: #6700a8; stroke: #6700a8; stroke-width: 0.3"/>
     <path d="M 197.16 36.338063 
L 211.56 36.338063 
L 211.56 35.951 
L 197.16 35.951 
L 197.16 36.338063 
" clip-path="url(#p6794577106)" style="fill: #6600a7; stroke: #6600a7; stroke-width: 0.3"/>
     <path d="M 197.16 35.951 
L 211.56 35.951 
L 211.56 35.563937 
L 197.16 35.563937 
L 197.16 35.951 
" clip-path="url(#p6794577106)" style="fill: #6400a7; stroke: #6400a7; stroke-width: 0.3"/>
     <path d="M 197.16 35.563937 
L 211.56 35.563937 
L 211.56 35.176875 
L 197.16 35.176875 
L 197.16 35.563937 
" clip-path="url(#p6794577106)" style="fill: #6300a7; stroke: #6300a7; stroke-width: 0.3"/>
     <path d="M 197.16 35.176875 
L 211.56 35.176875 
L 211.56 34.789813 
L 197.16 34.789813 
L 197.16 35.176875 
" clip-path="url(#p6794577106)" style="fill: #6100a7; stroke: #6100a7; stroke-width: 0.3"/>
     <path d="M 197.16 34.789813 
L 211.56 34.789813 
L 211.56 34.40275 
L 197.16 34.40275 
L 197.16 34.789813 
" clip-path="url(#p6794577106)" style="fill: #6001a6; stroke: #6001a6; stroke-width: 0.3"/>
     <path d="M 197.16 34.40275 
L 211.56 34.40275 
L 211.56 34.015688 
L 197.16 34.015688 
L 197.16 34.40275 
" clip-path="url(#p6794577106)" style="fill: #5e01a6; stroke: #5e01a6; stroke-width: 0.3"/>
     <path d="M 197.16 34.015688 
L 211.56 34.015688 
L 211.56 33.628625 
L 197.16 33.628625 
L 197.16 34.015688 
" clip-path="url(#p6794577106)" style="fill: #5c01a6; stroke: #5c01a6; stroke-width: 0.3"/>
     <path d="M 197.16 33.628625 
L 211.56 33.628625 
L 211.56 33.241562 
L 197.16 33.241562 
L 197.16 33.628625 
" clip-path="url(#p6794577106)" style="fill: #5b01a5; stroke: #5b01a5; stroke-width: 0.3"/>
     <path d="M 197.16 33.241562 
L 211.56 33.241562 
L 211.56 32.8545 
L 197.16 32.8545 
L 197.16 33.241562 
" clip-path="url(#p6794577106)" style="fill: #5901a5; stroke: #5901a5; stroke-width: 0.3"/>
     <path d="M 197.16 32.8545 
L 211.56 32.8545 
L 211.56 32.467438 
L 197.16 32.467438 
L 197.16 32.8545 
" clip-path="url(#p6794577106)" style="fill: #5801a4; stroke: #5801a4; stroke-width: 0.3"/>
     <path d="M 197.16 32.467438 
L 211.56 32.467438 
L 211.56 32.080375 
L 197.16 32.080375 
L 197.16 32.467438 
" clip-path="url(#p6794577106)" style="fill: #5601a4; stroke: #5601a4; stroke-width: 0.3"/>
     <path d="M 197.16 32.080375 
L 211.56 32.080375 
L 211.56 31.693313 
L 197.16 31.693313 
L 197.16 32.080375 
" clip-path="url(#p6794577106)" style="fill: #5502a4; stroke: #5502a4; stroke-width: 0.3"/>
     <path d="M 197.16 31.693313 
L 211.56 31.693313 
L 211.56 31.30625 
L 197.16 31.30625 
L 197.16 31.693313 
" clip-path="url(#p6794577106)" style="fill: #5302a3; stroke: #5302a3; stroke-width: 0.3"/>
     <path d="M 197.16 31.30625 
L 211.56 31.30625 
L 211.56 30.919188 
L 197.16 30.919188 
L 197.16 31.30625 
" clip-path="url(#p6794577106)" style="fill: #5102a3; stroke: #5102a3; stroke-width: 0.3"/>
     <path d="M 197.16 30.919188 
L 211.56 30.919188 
L 211.56 30.532125 
L 197.16 30.532125 
L 197.16 30.919188 
" clip-path="url(#p6794577106)" style="fill: #5002a2; stroke: #5002a2; stroke-width: 0.3"/>
     <path d="M 197.16 30.532125 
L 211.56 30.532125 
L 211.56 30.145063 
L 197.16 30.145063 
L 197.16 30.532125 
" clip-path="url(#p6794577106)" style="fill: #4e02a2; stroke: #4e02a2; stroke-width: 0.3"/>
     <path d="M 197.16 30.145063 
L 211.56 30.145063 
L 211.56 29.758 
L 197.16 29.758 
L 197.16 30.145063 
" clip-path="url(#p6794577106)" style="fill: #4c02a1; stroke: #4c02a1; stroke-width: 0.3"/>
     <path d="M 197.16 29.758 
L 211.56 29.758 
L 211.56 29.370937 
L 197.16 29.370937 
L 197.16 29.758 
" clip-path="url(#p6794577106)" style="fill: #4b03a1; stroke: #4b03a1; stroke-width: 0.3"/>
     <path d="M 197.16 29.370937 
L 211.56 29.370937 
L 211.56 28.983875 
L 197.16 28.983875 
L 197.16 29.370937 
" clip-path="url(#p6794577106)" style="fill: #4903a0; stroke: #4903a0; stroke-width: 0.3"/>
     <path d="M 197.16 28.983875 
L 211.56 28.983875 
L 211.56 28.596813 
L 197.16 28.596813 
L 197.16 28.983875 
" clip-path="url(#p6794577106)" style="fill: #48039f; stroke: #48039f; stroke-width: 0.3"/>
     <path d="M 197.16 28.596813 
L 211.56 28.596813 
L 211.56 28.20975 
L 197.16 28.20975 
L 197.16 28.596813 
" clip-path="url(#p6794577106)" style="fill: #46039f; stroke: #46039f; stroke-width: 0.3"/>
     <path d="M 197.16 28.20975 
L 211.56 28.20975 
L 211.56 27.822688 
L 197.16 27.822688 
L 197.16 28.20975 
" clip-path="url(#p6794577106)" style="fill: #44039e; stroke: #44039e; stroke-width: 0.3"/>
     <path d="M 197.16 27.822688 
L 211.56 27.822688 
L 211.56 27.435625 
L 197.16 27.435625 
L 197.16 27.822688 
" clip-path="url(#p6794577106)" style="fill: #43039e; stroke: #43039e; stroke-width: 0.3"/>
     <path d="M 197.16 27.435625 
L 211.56 27.435625 
L 211.56 27.048563 
L 197.16 27.048563 
L 197.16 27.435625 
" clip-path="url(#p6794577106)" style="fill: #41049d; stroke: #41049d; stroke-width: 0.3"/>
     <path d="M 197.16 27.048563 
L 211.56 27.048563 
L 211.56 26.6615 
L 197.16 26.6615 
L 197.16 27.048563 
" clip-path="url(#p6794577106)" style="fill: #3f049c; stroke: #3f049c; stroke-width: 0.3"/>
     <path d="M 197.16 26.6615 
L 211.56 26.6615 
L 211.56 26.274438 
L 197.16 26.274438 
L 197.16 26.6615 
" clip-path="url(#p6794577106)" style="fill: #3e049c; stroke: #3e049c; stroke-width: 0.3"/>
     <path d="M 197.16 26.274438 
L 211.56 26.274438 
L 211.56 25.887375 
L 197.16 25.887375 
L 197.16 26.274438 
" clip-path="url(#p6794577106)" style="fill: #3c049b; stroke: #3c049b; stroke-width: 0.3"/>
     <path d="M 197.16 25.887375 
L 211.56 25.887375 
L 211.56 25.500313 
L 197.16 25.500313 
L 197.16 25.887375 
" clip-path="url(#p6794577106)" style="fill: #3a049a; stroke: #3a049a; stroke-width: 0.3"/>
     <path d="M 197.16 25.500313 
L 211.56 25.500313 
L 211.56 25.11325 
L 197.16 25.11325 
L 197.16 25.500313 
" clip-path="url(#p6794577106)" style="fill: #38049a; stroke: #38049a; stroke-width: 0.3"/>
     <path d="M 197.16 25.11325 
L 211.56 25.11325 
L 211.56 24.726188 
L 197.16 24.726188 
L 197.16 25.11325 
" clip-path="url(#p6794577106)" style="fill: #370499; stroke: #370499; stroke-width: 0.3"/>
     <path d="M 197.16 24.726188 
L 211.56 24.726188 
L 211.56 24.339125 
L 197.16 24.339125 
L 197.16 24.726188 
" clip-path="url(#p6794577106)" style="fill: #350498; stroke: #350498; stroke-width: 0.3"/>
     <path d="M 197.16 24.339125 
L 211.56 24.339125 
L 211.56 23.952063 
L 197.16 23.952063 
L 197.16 24.339125 
" clip-path="url(#p6794577106)" style="fill: #330597; stroke: #330597; stroke-width: 0.3"/>
     <path d="M 197.16 23.952063 
L 211.56 23.952063 
L 211.56 23.565 
L 197.16 23.565 
L 197.16 23.952063 
" clip-path="url(#p6794577106)" style="fill: #310597; stroke: #310597; stroke-width: 0.3"/>
     <path d="M 197.16 23.565 
L 211.56 23.565 
L 211.56 23.177938 
L 197.16 23.177938 
L 197.16 23.565 
" clip-path="url(#p6794577106)" style="fill: #2f0596; stroke: #2f0596; stroke-width: 0.3"/>
     <path d="M 197.16 23.177938 
L 211.56 23.177938 
L 211.56 22.790875 
L 197.16 22.790875 
L 197.16 23.177938 
" clip-path="url(#p6794577106)" style="fill: #2e0595; stroke: #2e0595; stroke-width: 0.3"/>
     <path d="M 197.16 22.790875 
L 211.56 22.790875 
L 211.56 22.403813 
L 197.16 22.403813 
L 197.16 22.790875 
" clip-path="url(#p6794577106)" style="fill: #2c0594; stroke: #2c0594; stroke-width: 0.3"/>
     <path d="M 197.16 22.403813 
L 211.56 22.403813 
L 211.56 22.01675 
L 197.16 22.01675 
L 197.16 22.403813 
" clip-path="url(#p6794577106)" style="fill: #2a0593; stroke: #2a0593; stroke-width: 0.3"/>
     <path d="M 197.16 22.01675 
L 211.56 22.01675 
L 211.56 21.629688 
L 197.16 21.629688 
L 197.16 22.01675 
" clip-path="url(#p6794577106)" style="fill: #280592; stroke: #280592; stroke-width: 0.3"/>
     <path d="M 197.16 21.629688 
L 211.56 21.629688 
L 211.56 21.242625 
L 197.16 21.242625 
L 197.16 21.629688 
" clip-path="url(#p6794577106)" style="fill: #260591; stroke: #260591; stroke-width: 0.3"/>
     <path d="M 197.16 21.242625 
L 211.56 21.242625 
L 211.56 20.855563 
L 197.16 20.855563 
L 197.16 21.242625 
" clip-path="url(#p6794577106)" style="fill: #240691; stroke: #240691; stroke-width: 0.3"/>
     <path d="M 197.16 20.855563 
L 211.56 20.855563 
L 211.56 20.4685 
L 197.16 20.4685 
L 197.16 20.855563 
" clip-path="url(#p6794577106)" style="fill: #220690; stroke: #220690; stroke-width: 0.3"/>
     <path d="M 197.16 20.4685 
L 211.56 20.4685 
L 211.56 20.081437 
L 197.16 20.081437 
L 197.16 20.4685 
" clip-path="url(#p6794577106)" style="fill: #20068f; stroke: #20068f; stroke-width: 0.3"/>
     <path d="M 197.16 20.081437 
L 211.56 20.081437 
L 211.56 19.694375 
L 197.16 19.694375 
L 197.16 20.081437 
" clip-path="url(#p6794577106)" style="fill: #1d068e; stroke: #1d068e; stroke-width: 0.3"/>
     <path d="M 197.16 19.694375 
L 211.56 19.694375 
L 211.56 19.307313 
L 197.16 19.307313 
L 197.16 19.694375 
" clip-path="url(#p6794577106)" style="fill: #1b068d; stroke: #1b068d; stroke-width: 0.3"/>
     <path d="M 197.16 19.307313 
L 211.56 19.307313 
L 211.56 18.92025 
L 197.16 18.92025 
L 197.16 19.307313 
" clip-path="url(#p6794577106)" style="fill: #19068c; stroke: #19068c; stroke-width: 0.3"/>
     <path d="M 197.16 18.92025 
L 211.56 18.92025 
L 211.56 18.533188 
L 197.16 18.533188 
L 197.16 18.92025 
" clip-path="url(#p6794577106)" style="fill: #16078a; stroke: #16078a; stroke-width: 0.3"/>
     <path d="M 197.16 18.533188 
L 211.56 18.533188 
L 211.56 18.146125 
L 197.16 18.146125 
L 197.16 18.533188 
" clip-path="url(#p6794577106)" style="fill: #130789; stroke: #130789; stroke-width: 0.3"/>
     <path d="M 197.16 18.146125 
L 211.56 18.146125 
L 211.56 17.759063 
L 197.16 17.759063 
L 197.16 18.146125 
" clip-path="url(#p6794577106)" style="fill: #100788; stroke: #100788; stroke-width: 0.3"/>
     <path d="M 197.16 17.759063 
L 211.56 17.759063 
L 211.56 17.372 
L 197.16 17.372 
L 197.16 17.759063 
" clip-path="url(#p6794577106)" style="fill: #0d0887; stroke: #0d0887; stroke-width: 0.3"/>
    </g>
    <g id="matplotlib.axis_3"/>
    <g id="matplotlib.axis_4">
     <g id="ytick_30">
      <g id="line2d_125">
       <g>
        <use xlink:href="#me9d8d99f1d" x="211.56" y="116.46" style="stroke: #000000; stroke-width: 0.6"/>
       </g>
      </g>
      <g id="text_14">
       <!-- 1.3 -->
       <g transform="translate(217.56 119.37625) scale(0.08 -0.08)">
        <use xlink:href="#TeXGyreHeros-Regular-31"/>
        <use xlink:href="#TeXGyreHeros-Regular-2e" transform="translate(55.599991 0)"/>
        <use xlink:href="#TeXGyreHeros-Regular-33" transform="translate(83.399979 0)"/>
       </g>
      </g>
     </g>
     <g id="ytick_31">
      <g id="line2d_126">
       <g>
        <use xlink:href="#me9d8d99f1d" x="211.56" y="91.688" style="stroke: #000000; stroke-width: 0.6"/>
       </g>
      </g>
      <g id="text_15">
       <!-- 1.35 -->
       <g transform="translate(217.56 94.60425) scale(0.08 -0.08)">
        <use xlink:href="#TeXGyreHeros-Regular-31"/>
        <use xlink:href="#TeXGyreHeros-Regular-2e" transform="translate(55.599991 0)"/>
        <use xlink:href="#TeXGyreHeros-Regular-33" transform="translate(83.399979 0)"/>
        <use xlink:href="#TeXGyreHeros-Regular-35" transform="translate(138.999969 0)"/>
       </g>
      </g>
     </g>
     <g id="ytick_32">
      <g id="line2d_127">
       <g>
        <use xlink:href="#me9d8d99f1d" x="211.56" y="66.916" style="stroke: #000000; stroke-width: 0.6"/>
       </g>
      </g>
      <g id="text_16">
       <!-- 1.4 -->
       <g transform="translate(217.56 69.83225) scale(0.08 -0.08)">
        <use xlink:href="#TeXGyreHeros-Regular-31"/>
        <use xlink:href="#TeXGyreHeros-Regular-2e" transform="translate(55.599991 0)"/>
        <use xlink:href="#TeXGyreHeros-Regular-34" transform="translate(83.399979 0)"/>
       </g>
      </g>
     </g>
     <g id="ytick_33">
      <g id="line2d_128">
       <g>
        <use xlink:href="#me9d8d99f1d" x="211.56" y="42.144" style="stroke: #000000; stroke-width: 0.6"/>
       </g>
      </g>
      <g id="text_17">
       <!-- 1.45 -->
       <g transform="translate(217.56 45.06025) scale(0.08 -0.08)">
        <use xlink:href="#TeXGyreHeros-Regular-31"/>
        <use xlink:href="#TeXGyreHeros-Regular-2e" transform="translate(55.599991 0)"/>
        <use xlink:href="#TeXGyreHeros-Regular-34" transform="translate(83.399979 0)"/>
        <use xlink:href="#TeXGyreHeros-Regular-35" transform="translate(138.999969 0)"/>
       </g>
      </g>
     </g>
     <g id="ytick_34">
      <g id="line2d_129">
       <g>
        <use xlink:href="#me9d8d99f1d" x="211.56" y="17.372" style="stroke: #000000; stroke-width: 0.6"/>
       </g>
      </g>
      <g id="text_18">
       <!-- 1.5 -->
       <g transform="translate(217.56 20.28825) scale(0.08 -0.08)">
        <use xlink:href="#TeXGyreHeros-Regular-31"/>
        <use xlink:href="#TeXGyreHeros-Regular-2e" transform="translate(55.599991 0)"/>
        <use xlink:href="#TeXGyreHeros-Regular-35" transform="translate(83.399979 0)"/>
       </g>
      </g>
     </g>
    </g>
    <g id="LineCollection_1"/>
    <g id="patch_9">
     <path d="M 197.16 116.46 
L 204.36 116.46 
L 211.56 116.46 
L 211.56 17.372 
L 204.36 17.372 
L 197.16 17.372 
L 197.16 116.46 
z
" style="fill: none; stroke: #000000; stroke-width: 0.6; stroke-linejoin: miter; stroke-linecap: square"/>
    </g>
    <g id="text_19">
     <!-- $r_\mathrm{AC}/\sigma$ -->
     <g transform="translate(193.06 12.372) scale(0.1 -0.1)">
      <defs>
       <path id="TeXGyreHeros-Italic-72" d="M 2355 2886 
L 2291 2886 
Q 1274 2886 1030 1741 
L 659 0 
L 122 0 
L 832 3354 
L 1318 3354 
L 1210 2829 
Q 1504 3168 1744 3309 
Q 1984 3450 2266 3450 
Q 2342 3450 2470 3430 
L 2355 2886 
z
" transform="scale(0.015625)"/>
       <path id="TeXGyreHeros-Regular-41" d="M 4179 0 
L 3514 0 
L 3034 1402 
L 1235 1402 
L 742 0 
L 109 0 
L 1773 4666 
L 2541 4666 
L 4179 0 
z
M 2867 1901 
L 2150 4026 
L 1382 1901 
L 2867 1901 
z
" transform="scale(0.015625)"/>
       <path id="TeXGyreHeros-Regular-43" d="M 4333 1702 
Q 4122 -115 2413 -115 
Q 1414 -115 860 553 
Q 307 1222 307 2278 
Q 307 3354 864 4067 
Q 1421 4781 2438 4781 
Q 3955 4781 4237 3219 
L 3629 3219 
Q 3520 3757 3216 4006 
Q 2912 4256 2368 4256 
Q 1696 4256 1299 3721 
Q 902 3187 902 2285 
Q 902 1414 1312 912 
Q 1722 410 2419 410 
Q 3002 410 3306 720 
Q 3610 1030 3718 1702 
L 4333 1702 
z
" transform="scale(0.015625)"/>
       <path id="TeXGyreHeros-Regular-2f" d="M 1818 4666 
L 301 -128 
L -51 -128 
L 1466 4666 
L 1818 4666 
z
" transform="scale(0.015625)"/>
       <path id="TeXGyreHeros-Italic-3c3" d="M 4301 3213 
Q 3814 3091 3315 3040 
Q 3584 2714 3584 2253 
Q 3584 1242 3040 573 
Q 2496 -96 1632 -96 
Q 1088 -96 752 224 
Q 416 544 416 1075 
Q 416 1715 646 2252 
Q 877 2790 1325 3120 
Q 1773 3450 2355 3450 
Q 2560 3450 2752 3398 
Q 3360 3443 4269 3686 
L 4301 3213 
z
M 3021 2131 
Q 3021 2522 2822 2739 
Q 2624 2957 2272 2957 
Q 1715 2957 1347 2435 
Q 979 1914 979 1203 
Q 979 826 1177 611 
Q 1376 397 1722 397 
Q 2285 397 2653 902 
Q 3021 1408 3021 2131 
z
" transform="scale(0.015625)"/>
      </defs>
      <use xlink:href="#TeXGyreHeros-Italic-72" transform="translate(0 0.09375)"/>
      <use xlink:href="#TeXGyreHeros-Regular-41" transform="translate(33.299988 -15.628125) scale(0.7)"/>
      <use xlink:href="#TeXGyreHeros-Regular-43" transform="translate(79.989986 -15.628125) scale(0.7)"/>
      <use xlink:href="#TeXGyreHeros-Regular-2f" transform="translate(133.150285 0.09375)"/>
      <use xlink:href="#TeXGyreHeros-Italic-3c3" transform="translate(160.950273 0.09375)"/>
     </g>
    </g>
   </g>
  </g>
  <g id="text_20">
   <!-- $r_\mathrm{AB}/\sigma$ -->
   <g transform="translate(96.51 137.326875) scale(0.1 -0.1)">
    <defs>
     <path id="TeXGyreHeros-Regular-42" d="M 3987 1331 
Q 3987 749 3609 374 
Q 3232 0 2611 0 
L 506 0 
L 506 4666 
L 2400 4666 
Q 3046 4666 3414 4336 
Q 3782 4006 3782 3482 
Q 3782 2765 3136 2464 
Q 3584 2291 3785 2022 
Q 3987 1754 3987 1331 
z
M 2253 2656 
Q 3187 2656 3187 3398 
Q 3187 4141 2253 4141 
L 1101 4141 
L 1101 2656 
L 2253 2656 
z
M 3392 1325 
Q 3392 1683 3177 1907 
Q 2963 2131 2554 2131 
L 1101 2131 
L 1101 525 
L 2554 525 
Q 2957 525 3174 749 
Q 3392 973 3392 1325 
z
" transform="scale(0.015625)"/>
    </defs>
    <use xlink:href="#TeXGyreHeros-Italic-72" transform="translate(0 0.09375)"/>
    <use xlink:href="#TeXGyreHeros-Regular-41" transform="translate(33.299988 -15.628125) scale(0.7)"/>
    <use xlink:href="#TeXGyreHeros-Regular-42" transform="translate(79.989986 -15.628125) scale(0.7)"/>
    <use xlink:href="#TeXGyreHeros-Regular-2f" transform="translate(129.300296 0.09375)"/>
    <use xlink:href="#TeXGyreHeros-Italic-3c3" transform="translate(157.100284 0.09375)"/>
   </g>
  </g>
  <g id="text_21">
   <!-- $U(r_\mathrm{AB})$ -->
   <g transform="translate(11.8925 80.366) rotate(-90) scale(0.1 -0.1)">
    <defs>
     <path id="TeXGyreHeros-Italic-55" d="M 4800 4666 
L 4109 1421 
Q 3962 723 3389 304 
Q 2816 -115 2010 -115 
Q 1325 -115 902 205 
Q 480 525 480 1024 
Q 480 1216 570 1638 
L 1216 4666 
L 1818 4666 
L 1126 1421 
Q 1094 1293 1094 1139 
Q 1094 806 1379 604 
Q 1664 403 2125 403 
Q 2669 403 3037 675 
Q 3405 947 3507 1421 
L 4198 4666 
L 4800 4666 
z
" transform="scale(0.015625)"/>
     <path id="TeXGyreHeros-Regular-28" d="M 1862 -1357 
L 1510 -1357 
Q 1030 -730 748 86 
Q 467 902 467 1657 
Q 467 2413 748 3225 
Q 1030 4038 1510 4666 
L 1862 4666 
Q 986 3251 986 1658 
Q 986 70 1862 -1357 
z
" transform="scale(0.015625)"/>
     <path id="TeXGyreHeros-Regular-29" d="M 1356 3222 
Q 1638 2406 1638 1651 
Q 1638 896 1356 83 
Q 1075 -730 595 -1357 
L 243 -1357 
Q 1120 58 1120 1651 
Q 1120 3238 243 4666 
L 595 4666 
Q 1075 4038 1356 3222 
z
" transform="scale(0.015625)"/>
    </defs>
    <use xlink:href="#TeXGyreHeros-Italic-55" transform="translate(0 0.09375)"/>
    <use xlink:href="#TeXGyreHeros-Regular-28" transform="translate(72.199982 0.09375)"/>
    <use xlink:href="#TeXGyreHeros-Italic-72" transform="translate(105.499969 0.09375)"/>
    <use xlink:href="#TeXGyreHeros-Regular-41" transform="translate(138.799957 -15.628125) scale(0.7)"/>
    <use xlink:href="#TeXGyreHeros-Regular-42" transform="translate(185.489955 -15.628125) scale(0.7)"/>
    <use xlink:href="#TeXGyreHeros-Regular-29" transform="translate(234.800266 0.09375)"/>
   </g>
  </g>
 </g>
 <defs>
  <clipPath id="pf65f7a50a9">
   <rect x="33.66" y="17.372" width="148" height="99.088"/>
  </clipPath>
  <clipPath id="p6794577106">
   <rect x="197.16" y="17.372" width="14.4" height="99.088"/>
  </clipPath>
 </defs>
</svg>
