<?xml version="1.0" encoding="utf-8" standalone="no"?>
<!DOCTYPE svg PUBLIC "-//W3C//DTD SVG 1.1//EN"
  "http://www.w3.org/Graphics/SVG/1.1/DTD/svg11.dtd">
<svg xmlns:xlink="http://www.w3.org/1999/xlink" width="237.6pt" height="144pt" viewBox="0 0 237.6 144" xmlns="http://www.w3.org/2000/svg" version="1.1">
 <metadata>
  <rdf:RDF xmlns:dc="http://purl.org/dc/elements/1.1/" xmlns:cc="http://creativecommons.org/ns#" xmlns:rdf="http://www.w3.org/1999/02/22-rdf-syntax-ns#">
   <cc:Work>
    <dc:type rdf:resource="http://purl.org/dc/dcmitype/StillImage"/>
    <dc:date>2026-04-30T19:12:38.737854</dc:date>
    <dc:format>image/svg+xml</dc:format>
    <dc:creator>
     <cc:Agent>
      <dc:title>Matplotlib v3.10.8, https://matplotlib.org/</dc:title>
     </cc:Agent>
    </dc:creator>
   </cc:Work>
  </rdf:RDF>
 </metadata>
 <defs>
  <style type="text/css">*{stroke-linejoin: round; stroke-linecap: butt}</style>
 </defs>
 <g id="figure_1">
  <g id="patch_1">
   <path d="M 0 144 
L 237.6 144 
L 237.6 0 
L 0 0 
z
" style="fill: #ffffff"/>
  </g>
  <g id="axes_1">
   <g id="patch_2">
    <path d="M 44.66 103.264 
L 226.8 103.264 
L 226.8 10.8 
L 44.66 10.8 
z
" style="fill: #ffffff"/>
   </g>
   <g id="FillBetweenPolyCollection_1">
    <defs>
     <path id="m8a4c79921e" d="M 57.565659 -44.938909 
L 53.653872 -44.938909 
L 53.601182 -44.93911 
L 53.550025 -44.939311 
L 53.500526 -44.939512 
L 53.452804 -44.939712 
L 53.406966 -44.939913 
L 53.363107 -44.940114 
L 53.321313 -44.940315 
L 53.281655 -44.940516 
L 53.244193 -44.940716 
L 53.208974 -44.940917 
L 53.176033 -44.941118 
L 53.14539 -44.941319 
L 53.117055 -44.94152 
L 53.091021 -44.94172 
L 53.067272 -44.941921 
L 53.045778 -44.942122 
L 53.026498 -44.942323 
L 53.009379 -44.942524 
L 52.994359 -44.942724 
L 52.981365 -44.942925 
L 52.970313 -44.943126 
L 52.961116 -44.943327 
L 52.953676 -44.943528 
L 52.94789 -44.943729 
L 52.943651 -44.943929 
L 52.940847 -44.94413 
L 52.939365 -44.944331 
L 52.939091 -44.944532 
L 52.93991 -44.944733 
L 52.94171 -44.944933 
L 52.94438 -44.945134 
L 52.947815 -44.945335 
L 52.951915 -44.945536 
L 52.956585 -44.945737 
L 52.961738 -44.945937 
L 52.967297 -44.946138 
L 52.973194 -44.946339 
L 52.97937 -44.94654 
L 52.985777 -44.946741 
L 52.99238 -44.946942 
L 52.999154 -44.947142 
L 53.006088 -44.947343 
L 53.013179 -44.947544 
L 53.02044 -44.947745 
L 53.027892 -44.947946 
L 53.035569 -44.948146 
L 53.043514 -44.948347 
L 53.05178 -44.948548 
L 53.060427 -44.948749 
L 53.069524 -44.94895 
L 53.079144 -44.94915 
L 53.089365 -44.949351 
L 53.100271 -44.949552 
L 53.111943 -44.949753 
L 53.124465 -44.949954 
L 53.13792 -44.950154 
L 53.152386 -44.950355 
L 53.167941 -44.950556 
L 53.184652 -44.950757 
L 53.202584 -44.950958 
L 53.221792 -44.951159 
L 53.242321 -44.951359 
L 53.264209 -44.95156 
L 53.287481 -44.951761 
L 53.312154 -44.951962 
L 53.33823 -44.952163 
L 53.365703 -44.952363 
L 53.394554 -44.952564 
L 53.424753 -44.952765 
L 53.456261 -44.952966 
L 53.489027 -44.953167 
L 53.522991 -44.953367 
L 53.558085 -44.953568 
L 53.594234 -44.953769 
L 53.631356 -44.95397 
L 53.669364 -44.954171 
L 53.708166 -44.954371 
L 53.747669 -44.954572 
L 53.787776 -44.954773 
L 53.828391 -44.954974 
L 53.869419 -44.955175 
L 53.910766 -44.955376 
L 53.95234 -44.955576 
L 53.994054 -44.955777 
L 54.035824 -44.955978 
L 54.077573 -44.956179 
L 54.119227 -44.95638 
L 54.160719 -44.95658 
L 54.201989 -44.956781 
L 54.242981 -44.956982 
L 54.283647 -44.957183 
L 54.323945 -44.957384 
L 54.363838 -44.957584 
L 54.403294 -44.957785 
L 54.442288 -44.957986 
L 54.480798 -44.958187 
L 54.518805 -44.958388 
L 54.556297 -44.958589 
L 54.59326 -44.958789 
L 56.626271 -44.958789 
L 56.626271 -44.958789 
L 56.663234 -44.958589 
L 56.700725 -44.958388 
L 56.738733 -44.958187 
L 56.777243 -44.957986 
L 56.816237 -44.957785 
L 56.855693 -44.957584 
L 56.895586 -44.957384 
L 56.935884 -44.957183 
L 56.97655 -44.956982 
L 57.017542 -44.956781 
L 57.058812 -44.95658 
L 57.100304 -44.95638 
L 57.141958 -44.956179 
L 57.183707 -44.955978 
L 57.225477 -44.955777 
L 57.267191 -44.955576 
L 57.308765 -44.955376 
L 57.350112 -44.955175 
L 57.39114 -44.954974 
L 57.431755 -44.954773 
L 57.471862 -44.954572 
L 57.511365 -44.954371 
L 57.550167 -44.954171 
L 57.588175 -44.95397 
L 57.625297 -44.953769 
L 57.661446 -44.953568 
L 57.69654 -44.953367 
L 57.730504 -44.953167 
L 57.76327 -44.952966 
L 57.794777 -44.952765 
L 57.824977 -44.952564 
L 57.853828 -44.952363 
L 57.881301 -44.952163 
L 57.907377 -44.951962 
L 57.932049 -44.951761 
L 57.955322 -44.95156 
L 57.97721 -44.951359 
L 57.997739 -44.951159 
L 58.016947 -44.950958 
L 58.034878 -44.950757 
L 58.05159 -44.950556 
L 58.067144 -44.950355 
L 58.081611 -44.950154 
L 58.095066 -44.949954 
L 58.107588 -44.949753 
L 58.11926 -44.949552 
L 58.130165 -44.949351 
L 58.140387 -44.94915 
L 58.150007 -44.94895 
L 58.159104 -44.948749 
L 58.167751 -44.948548 
L 58.176017 -44.948347 
L 58.183962 -44.948146 
L 58.191639 -44.947946 
L 58.199091 -44.947745 
L 58.206352 -44.947544 
L 58.213443 -44.947343 
L 58.220376 -44.947142 
L 58.227151 -44.946942 
L 58.233754 -44.946741 
L 58.240161 -44.94654 
L 58.246337 -44.946339 
L 58.252233 -44.946138 
L 58.257793 -44.945937 
L 58.262946 -44.945737 
L 58.267616 -44.945536 
L 58.271715 -44.945335 
L 58.275151 -44.945134 
L 58.277821 -44.944933 
L 58.279621 -44.944733 
L 58.28044 -44.944532 
L 58.280166 -44.944331 
L 58.278684 -44.94413 
L 58.27588 -44.943929 
L 58.271641 -44.943729 
L 58.265855 -44.943528 
L 58.258415 -44.943327 
L 58.249217 -44.943126 
L 58.238166 -44.942925 
L 58.225172 -44.942724 
L 58.210151 -44.942524 
L 58.193033 -44.942323 
L 58.173753 -44.942122 
L 58.152259 -44.941921 
L 58.12851 -44.94172 
L 58.102476 -44.94152 
L 58.07414 -44.941319 
L 58.043498 -44.941118 
L 58.010557 -44.940917 
L 57.975338 -44.940716 
L 57.937876 -44.940516 
L 57.898218 -44.940315 
L 57.856424 -44.940114 
L 57.812565 -44.939913 
L 57.766727 -44.939712 
L 57.719005 -44.939512 
L 57.669506 -44.939311 
L 57.618349 -44.93911 
L 57.565659 -44.938909 
z
" style="stroke: #6f6f6f; stroke-opacity: 0.5"/>
    </defs>
    <g clip-path="url(#pb66143ff08)">
     <use xlink:href="#m8a4c79921e" x="0" y="144" style="fill: #9e9e9e; fill-opacity: 0.5; stroke: #6f6f6f; stroke-opacity: 0.5"/>
    </g>
   </g>
   <g id="FillBetweenPolyCollection_2">
    <defs>
     <path id="md446ff3eb5" d="M 110.165657 -94.725528 
L 107.880853 -94.725528 
L 107.840669 -94.725643 
L 107.800352 -94.725759 
L 107.759943 -94.725874 
L 107.71948 -94.72599 
L 107.678999 -94.726106 
L 107.638539 -94.726221 
L 107.598133 -94.726337 
L 107.557815 -94.726452 
L 107.517619 -94.726568 
L 107.477576 -94.726683 
L 107.437719 -94.726799 
L 107.398079 -94.726915 
L 107.358688 -94.72703 
L 107.319575 -94.727146 
L 107.280773 -94.727261 
L 107.242313 -94.727377 
L 107.204227 -94.727492 
L 107.166547 -94.727608 
L 107.129309 -94.727723 
L 107.092545 -94.727839 
L 107.056291 -94.727955 
L 107.020583 -94.72807 
L 106.985459 -94.728186 
L 106.950957 -94.728301 
L 106.917116 -94.728417 
L 106.883977 -94.728532 
L 106.851578 -94.728648 
L 106.819962 -94.728764 
L 106.78917 -94.728879 
L 106.759241 -94.728995 
L 106.730216 -94.72911 
L 106.702135 -94.729226 
L 106.675035 -94.729341 
L 106.648952 -94.729457 
L 106.62392 -94.729573 
L 106.59997 -94.729688 
L 106.577128 -94.729804 
L 106.555421 -94.729919 
L 106.534866 -94.730035 
L 106.515479 -94.73015 
L 106.497271 -94.730266 
L 106.480246 -94.730382 
L 106.464404 -94.730497 
L 106.44974 -94.730613 
L 106.43624 -94.730728 
L 106.423889 -94.730844 
L 106.412664 -94.730959 
L 106.402537 -94.731075 
L 106.393476 -94.731191 
L 106.385446 -94.731306 
L 106.378407 -94.731422 
L 106.372316 -94.731537 
L 106.36713 -94.731653 
L 106.362804 -94.731768 
L 106.359294 -94.731884 
L 106.356556 -94.731999 
L 106.354551 -94.732115 
L 106.353241 -94.732231 
L 106.352593 -94.732346 
L 106.352581 -94.732462 
L 106.353184 -94.732577 
L 106.35439 -94.732693 
L 106.356195 -94.732808 
L 106.358603 -94.732924 
L 106.36163 -94.73304 
L 106.365298 -94.733155 
L 106.369643 -94.733271 
L 106.374707 -94.733386 
L 106.380546 -94.733502 
L 106.387221 -94.733617 
L 106.394804 -94.733733 
L 106.403374 -94.733849 
L 106.413017 -94.733964 
L 106.423823 -94.73408 
L 106.435888 -94.734195 
L 106.449309 -94.734311 
L 106.464186 -94.734426 
L 106.480615 -94.734542 
L 106.498692 -94.734658 
L 106.51851 -94.734773 
L 106.540153 -94.734889 
L 106.563701 -94.735004 
L 106.589222 -94.73512 
L 106.616775 -94.735235 
L 106.646407 -94.735351 
L 106.678153 -94.735467 
L 106.712033 -94.735582 
L 106.748052 -94.735698 
L 106.7862 -94.735813 
L 106.826451 -94.735929 
L 106.868763 -94.736044 
L 106.913079 -94.73616 
L 106.959325 -94.736276 
L 107.007412 -94.736391 
L 107.057237 -94.736507 
L 107.108684 -94.736622 
L 107.161622 -94.736738 
L 107.215911 -94.736853 
L 107.271398 -94.736969 
L 110.775112 -94.736969 
L 110.775112 -94.736969 
L 110.8306 -94.736853 
L 110.884888 -94.736738 
L 110.937826 -94.736622 
L 110.989273 -94.736507 
L 111.039098 -94.736391 
L 111.087186 -94.736276 
L 111.133431 -94.73616 
L 111.177747 -94.736044 
L 111.22006 -94.735929 
L 111.260311 -94.735813 
L 111.298458 -94.735698 
L 111.334477 -94.735582 
L 111.368357 -94.735467 
L 111.400103 -94.735351 
L 111.429735 -94.735235 
L 111.457289 -94.73512 
L 111.482809 -94.735004 
L 111.506357 -94.734889 
L 111.528 -94.734773 
L 111.547818 -94.734658 
L 111.565895 -94.734542 
L 111.582325 -94.734426 
L 111.597201 -94.734311 
L 111.610622 -94.734195 
L 111.622687 -94.73408 
L 111.633493 -94.733964 
L 111.643136 -94.733849 
L 111.651706 -94.733733 
L 111.659289 -94.733617 
L 111.665965 -94.733502 
L 111.671803 -94.733386 
L 111.676868 -94.733271 
L 111.681212 -94.733155 
L 111.684881 -94.73304 
L 111.687907 -94.732924 
L 111.690315 -94.732808 
L 111.69212 -94.732693 
L 111.693326 -94.732577 
L 111.69393 -94.732462 
L 111.693917 -94.732346 
L 111.693269 -94.732231 
L 111.691959 -94.732115 
L 111.689954 -94.731999 
L 111.687217 -94.731884 
L 111.683706 -94.731768 
L 111.679381 -94.731653 
L 111.674195 -94.731537 
L 111.668104 -94.731422 
L 111.661064 -94.731306 
L 111.653034 -94.731191 
L 111.643973 -94.731075 
L 111.633847 -94.730959 
L 111.622621 -94.730844 
L 111.61027 -94.730728 
L 111.596771 -94.730613 
L 111.582106 -94.730497 
L 111.566264 -94.730382 
L 111.549239 -94.730266 
L 111.531031 -94.73015 
L 111.511644 -94.730035 
L 111.49109 -94.729919 
L 111.469382 -94.729804 
L 111.446541 -94.729688 
L 111.42259 -94.729573 
L 111.397558 -94.729457 
L 111.371475 -94.729341 
L 111.344375 -94.729226 
L 111.316294 -94.72911 
L 111.287269 -94.728995 
L 111.257341 -94.728879 
L 111.226548 -94.728764 
L 111.194932 -94.728648 
L 111.162534 -94.728532 
L 111.129394 -94.728417 
L 111.095553 -94.728301 
L 111.061051 -94.728186 
L 111.025927 -94.72807 
L 110.99022 -94.727955 
L 110.953966 -94.727839 
L 110.917202 -94.727723 
L 110.879963 -94.727608 
L 110.842284 -94.727492 
L 110.804198 -94.727377 
L 110.765737 -94.727261 
L 110.726935 -94.727146 
L 110.687823 -94.72703 
L 110.648431 -94.726915 
L 110.608791 -94.726799 
L 110.568934 -94.726683 
L 110.528892 -94.726568 
L 110.488696 -94.726452 
L 110.448378 -94.726337 
L 110.407972 -94.726221 
L 110.367511 -94.726106 
L 110.327031 -94.72599 
L 110.286567 -94.725874 
L 110.246158 -94.725759 
L 110.205841 -94.725643 
L 110.165657 -94.725528 
z
" style="stroke: #6f6f6f; stroke-opacity: 0.5"/>
    </defs>
    <g clip-path="url(#pb66143ff08)">
     <use xlink:href="#md446ff3eb5" x="0" y="144" style="fill: #9e9e9e; fill-opacity: 0.5; stroke: #6f6f6f; stroke-opacity: 0.5"/>
    </g>
   </g>
   <g id="FillBetweenPolyCollection_3">
    <defs>
     <path id="mce65844104" d="M 164.466573 -123.249175 
L 160.406916 -123.249175 
L 160.35887 -123.249245 
L 160.312054 -123.249315 
L 160.266584 -123.249385 
L 160.222574 -123.249455 
L 160.180131 -123.249525 
L 160.13936 -123.249595 
L 160.100359 -123.249666 
L 160.063219 -123.249736 
L 160.028025 -123.249806 
L 159.994856 -123.249876 
L 159.963781 -123.249946 
L 159.934863 -123.250016 
L 159.908156 -123.250086 
L 159.883704 -123.250156 
L 159.861541 -123.250226 
L 159.841695 -123.250297 
L 159.82418 -123.250367 
L 159.809002 -123.250437 
L 159.796158 -123.250507 
L 159.785632 -123.250577 
L 159.777401 -123.250647 
L 159.771428 -123.250717 
L 159.76767 -123.250787 
L 159.76607 -123.250857 
L 159.766566 -123.250927 
L 159.769082 -123.250998 
L 159.773536 -123.251068 
L 159.779835 -123.251138 
L 159.787881 -123.251208 
L 159.797564 -123.251278 
L 159.808769 -123.251348 
L 159.821376 -123.251418 
L 159.835256 -123.251488 
L 159.850276 -123.251558 
L 159.866299 -123.251628 
L 159.883182 -123.251699 
L 159.900782 -123.251769 
L 159.918952 -123.251839 
L 159.937543 -123.251909 
L 159.956406 -123.251979 
L 159.975395 -123.252049 
L 159.994361 -123.252119 
L 160.01316 -123.252189 
L 160.031649 -123.252259 
L 160.049692 -123.252329 
L 160.067155 -123.2524 
L 160.083912 -123.25247 
L 160.09984 -123.25254 
L 160.114828 -123.25261 
L 160.128771 -123.25268 
L 160.141571 -123.25275 
L 160.153143 -123.25282 
L 160.16341 -123.25289 
L 160.172306 -123.25296 
L 160.179779 -123.25303 
L 160.185785 -123.253101 
L 160.190294 -123.253171 
L 160.19329 -123.253241 
L 160.194766 -123.253311 
L 160.194732 -123.253381 
L 160.193207 -123.253451 
L 160.190227 -123.253521 
L 160.185838 -123.253591 
L 160.180099 -123.253661 
L 160.173082 -123.253732 
L 160.164869 -123.253802 
L 160.155557 -123.253872 
L 160.145249 -123.253942 
L 160.134063 -123.254012 
L 160.122123 -123.254082 
L 160.109563 -123.254152 
L 160.096524 -123.254222 
L 160.083154 -123.254292 
L 160.069607 -123.254362 
L 160.056042 -123.254433 
L 160.042622 -123.254503 
L 160.029509 -123.254573 
L 160.016871 -123.254643 
L 160.004873 -123.254713 
L 159.993681 -123.254783 
L 159.983456 -123.254853 
L 159.974358 -123.254923 
L 159.966542 -123.254993 
L 159.960156 -123.255063 
L 159.955343 -123.255134 
L 159.952237 -123.255204 
L 159.950963 -123.255274 
L 159.951638 -123.255344 
L 159.954367 -123.255414 
L 159.959244 -123.255484 
L 159.966352 -123.255554 
L 159.975761 -123.255624 
L 159.987527 -123.255694 
L 160.001695 -123.255764 
L 160.018295 -123.255835 
L 160.037344 -123.255905 
L 160.058845 -123.255975 
L 160.082787 -123.256045 
L 160.109147 -123.256115 
L 164.764343 -123.256115 
L 164.764343 -123.256115 
L 164.790703 -123.256045 
L 164.814645 -123.255975 
L 164.836146 -123.255905 
L 164.855195 -123.255835 
L 164.871795 -123.255764 
L 164.885963 -123.255694 
L 164.897729 -123.255624 
L 164.907138 -123.255554 
L 164.914246 -123.255484 
L 164.919123 -123.255414 
L 164.921852 -123.255344 
L 164.922527 -123.255274 
L 164.921253 -123.255204 
L 164.918147 -123.255134 
L 164.913334 -123.255063 
L 164.906948 -123.254993 
L 164.899132 -123.254923 
L 164.890034 -123.254853 
L 164.879809 -123.254783 
L 164.868617 -123.254713 
L 164.856619 -123.254643 
L 164.843981 -123.254573 
L 164.830868 -123.254503 
L 164.817447 -123.254433 
L 164.803883 -123.254362 
L 164.790336 -123.254292 
L 164.776966 -123.254222 
L 164.763927 -123.254152 
L 164.751367 -123.254082 
L 164.739427 -123.254012 
L 164.72824 -123.253942 
L 164.717933 -123.253872 
L 164.70862 -123.253802 
L 164.700408 -123.253732 
L 164.693391 -123.253661 
L 164.687652 -123.253591 
L 164.683262 -123.253521 
L 164.680282 -123.253451 
L 164.678758 -123.253381 
L 164.678724 -123.253311 
L 164.6802 -123.253241 
L 164.683195 -123.253171 
L 164.687705 -123.253101 
L 164.693711 -123.25303 
L 164.701183 -123.25296 
L 164.71008 -123.25289 
L 164.720347 -123.25282 
L 164.731919 -123.25275 
L 164.744719 -123.25268 
L 164.758661 -123.25261 
L 164.773649 -123.25254 
L 164.789578 -123.25247 
L 164.806334 -123.2524 
L 164.823798 -123.252329 
L 164.84184 -123.252259 
L 164.86033 -123.252189 
L 164.879129 -123.252119 
L 164.898095 -123.252049 
L 164.917083 -123.251979 
L 164.935947 -123.251909 
L 164.954538 -123.251839 
L 164.972708 -123.251769 
L 164.990308 -123.251699 
L 165.007191 -123.251628 
L 165.023214 -123.251558 
L 165.038234 -123.251488 
L 165.052114 -123.251418 
L 165.06472 -123.251348 
L 165.075926 -123.251278 
L 165.085609 -123.251208 
L 165.093654 -123.251138 
L 165.099954 -123.251068 
L 165.104408 -123.250998 
L 165.106924 -123.250927 
L 165.107419 -123.250857 
L 165.10582 -123.250787 
L 165.102062 -123.250717 
L 165.096089 -123.250647 
L 165.087857 -123.250577 
L 165.077332 -123.250507 
L 165.064487 -123.250437 
L 165.04931 -123.250367 
L 165.031795 -123.250297 
L 165.011948 -123.250226 
L 164.989786 -123.250156 
L 164.965334 -123.250086 
L 164.938626 -123.250016 
L 164.909709 -123.249946 
L 164.878634 -123.249876 
L 164.845465 -123.249806 
L 164.810271 -123.249736 
L 164.773131 -123.249666 
L 164.734129 -123.249595 
L 164.693358 -123.249525 
L 164.650916 -123.249455 
L 164.606906 -123.249385 
L 164.561436 -123.249315 
L 164.51462 -123.249245 
L 164.466573 -123.249175 
z
" style="stroke: #6f6f6f; stroke-opacity: 0.5"/>
    </defs>
    <g clip-path="url(#pb66143ff08)">
     <use xlink:href="#mce65844104" x="0" y="144" style="fill: #9e9e9e; fill-opacity: 0.5; stroke: #6f6f6f; stroke-opacity: 0.5"/>
    </g>
   </g>
   <g id="FillBetweenPolyCollection_4">
    <defs>
     <path id="mefd44001a4" d="M 190.43138 -127.265139 
L 187.855599 -127.265139 
L 187.798921 -127.26522 
L 187.741437 -127.2653 
L 187.683266 -127.26538 
L 187.624535 -127.26546 
L 187.565385 -127.26554 
L 187.505963 -127.26562 
L 187.44643 -127.2657 
L 187.386955 -127.26578 
L 187.327716 -127.26586 
L 187.2689 -127.26594 
L 187.2107 -127.26602 
L 187.153316 -127.2661 
L 187.096953 -127.26618 
L 187.041818 -127.26626 
L 186.988122 -127.26634 
L 186.936075 -127.26642 
L 186.885886 -127.2665 
L 186.83776 -127.26658 
L 186.791899 -127.26666 
L 186.748495 -127.26674 
L 186.707734 -127.266821 
L 186.669789 -127.266901 
L 186.634824 -127.266981 
L 186.602985 -127.267061 
L 186.574404 -127.267141 
L 186.549198 -127.267221 
L 186.527462 -127.267301 
L 186.509274 -127.267381 
L 186.494692 -127.267461 
L 186.483751 -127.267541 
L 186.476466 -127.267621 
L 186.47283 -127.267701 
L 186.472815 -127.267781 
L 186.47637 -127.267861 
L 186.483425 -127.267941 
L 186.493887 -127.268021 
L 186.507645 -127.268101 
L 186.524571 -127.268181 
L 186.544518 -127.268261 
L 186.567324 -127.268341 
L 186.592813 -127.268422 
L 186.620796 -127.268502 
L 186.651073 -127.268582 
L 186.683436 -127.268662 
L 186.71767 -127.268742 
L 186.753554 -127.268822 
L 186.790864 -127.268902 
L 186.829376 -127.268982 
L 186.868863 -127.269062 
L 186.909105 -127.269142 
L 186.949881 -127.269222 
L 186.990978 -127.269302 
L 187.032189 -127.269382 
L 187.073317 -127.269462 
L 187.114172 -127.269542 
L 187.154576 -127.269622 
L 187.194363 -127.269702 
L 187.233377 -127.269782 
L 187.271479 -127.269862 
L 187.30854 -127.269942 
L 187.344448 -127.270023 
L 187.379105 -127.270103 
L 187.412428 -127.270183 
L 187.444348 -127.270263 
L 187.474813 -127.270343 
L 187.503785 -127.270423 
L 187.531242 -127.270503 
L 187.557175 -127.270583 
L 187.581591 -127.270663 
L 187.604511 -127.270743 
L 187.625969 -127.270823 
L 187.646011 -127.270903 
L 187.664698 -127.270983 
L 187.6821 -127.271063 
L 187.6983 -127.271143 
L 187.713389 -127.271223 
L 187.727468 -127.271303 
L 187.740647 -127.271383 
L 187.75304 -127.271463 
L 187.76477 -127.271544 
L 187.775963 -127.271624 
L 187.786749 -127.271704 
L 187.797259 -127.271784 
L 187.807627 -127.271864 
L 187.817984 -127.271944 
L 187.828461 -127.272024 
L 187.839185 -127.272104 
L 187.85028 -127.272184 
L 187.861864 -127.272264 
L 187.874046 -127.272344 
L 187.88693 -127.272424 
L 187.90061 -127.272504 
L 187.915169 -127.272584 
L 187.930681 -127.272664 
L 187.947208 -127.272744 
L 187.9648 -127.272824 
L 187.983492 -127.272904 
L 188.003311 -127.272984 
L 188.024267 -127.273064 
L 190.262712 -127.273064 
L 190.262712 -127.273064 
L 190.283668 -127.272984 
L 190.303487 -127.272904 
L 190.32218 -127.272824 
L 190.339771 -127.272744 
L 190.356298 -127.272664 
L 190.37181 -127.272584 
L 190.38637 -127.272504 
L 190.400049 -127.272424 
L 190.412933 -127.272344 
L 190.425116 -127.272264 
L 190.436699 -127.272184 
L 190.447794 -127.272104 
L 190.458519 -127.272024 
L 190.468996 -127.271944 
L 190.479353 -127.271864 
L 190.48972 -127.271784 
L 190.500231 -127.271704 
L 190.511016 -127.271624 
L 190.522209 -127.271544 
L 190.533939 -127.271463 
L 190.546333 -127.271383 
L 190.559511 -127.271303 
L 190.57359 -127.271223 
L 190.588679 -127.271143 
L 190.604879 -127.271063 
L 190.622281 -127.270983 
L 190.640968 -127.270903 
L 190.661011 -127.270823 
L 190.682468 -127.270743 
L 190.705388 -127.270663 
L 190.729804 -127.270583 
L 190.755738 -127.270503 
L 190.783194 -127.270423 
L 190.812166 -127.270343 
L 190.842631 -127.270263 
L 190.874552 -127.270183 
L 190.907874 -127.270103 
L 190.942532 -127.270023 
L 190.97844 -127.269942 
L 191.015501 -127.269862 
L 191.053602 -127.269782 
L 191.092617 -127.269702 
L 191.132403 -127.269622 
L 191.172807 -127.269542 
L 191.213662 -127.269462 
L 191.25479 -127.269382 
L 191.296002 -127.269302 
L 191.337099 -127.269222 
L 191.377875 -127.269142 
L 191.418116 -127.269062 
L 191.457604 -127.268982 
L 191.496115 -127.268902 
L 191.533426 -127.268822 
L 191.56931 -127.268742 
L 191.603544 -127.268662 
L 191.635907 -127.268582 
L 191.666184 -127.268502 
L 191.694166 -127.268422 
L 191.719655 -127.268341 
L 191.742461 -127.268261 
L 191.762408 -127.268181 
L 191.779334 -127.268101 
L 191.793093 -127.268021 
L 191.803555 -127.267941 
L 191.810609 -127.267861 
L 191.814164 -127.267781 
L 191.814149 -127.267701 
L 191.810513 -127.267621 
L 191.803229 -127.267541 
L 191.792288 -127.267461 
L 191.777705 -127.267381 
L 191.759518 -127.267301 
L 191.737782 -127.267221 
L 191.712575 -127.267141 
L 191.683995 -127.267061 
L 191.652156 -127.266981 
L 191.61719 -127.266901 
L 191.579246 -127.266821 
L 191.538484 -127.26674 
L 191.495081 -127.26666 
L 191.449219 -127.26658 
L 191.401094 -127.2665 
L 191.350905 -127.26642 
L 191.298858 -127.26634 
L 191.245162 -127.26626 
L 191.190027 -127.26618 
L 191.133663 -127.2661 
L 191.076279 -127.26602 
L 191.018079 -127.26594 
L 190.959263 -127.26586 
L 190.900024 -127.26578 
L 190.840549 -127.2657 
L 190.781016 -127.26562 
L 190.721595 -127.26554 
L 190.662444 -127.26546 
L 190.603714 -127.26538 
L 190.545543 -127.2653 
L 190.488059 -127.26522 
L 190.43138 -127.265139 
z
" style="stroke: #6f6f6f; stroke-opacity: 0.5"/>
    </defs>
    <g clip-path="url(#pb66143ff08)">
     <use xlink:href="#mefd44001a4" x="0" y="144" style="fill: #9e9e9e; fill-opacity: 0.5; stroke: #6f6f6f; stroke-opacity: 0.5"/>
    </g>
   </g>
   <g id="FillBetweenPolyCollection_5">
    <defs>
     <path id="m8ffd37db79" d="M 217.01565 -128.986781 
L 214.68482 -128.986781 
L 214.646679 -128.986885 
L 214.608358 -128.986989 
L 214.569867 -128.987094 
L 214.531215 -128.987198 
L 214.492408 -128.987302 
L 214.453452 -128.987406 
L 214.414352 -128.98751 
L 214.37511 -128.987614 
L 214.335733 -128.987718 
L 214.296225 -128.987823 
L 214.256595 -128.987927 
L 214.216851 -128.988031 
L 214.177007 -128.988135 
L 214.13708 -128.988239 
L 214.097092 -128.988343 
L 214.057068 -128.988447 
L 214.017043 -128.988552 
L 213.977053 -128.988656 
L 213.937146 -128.98876 
L 213.897373 -128.988864 
L 213.857793 -128.988968 
L 213.818473 -128.989072 
L 213.779487 -128.989176 
L 213.740914 -128.989281 
L 213.702841 -128.989385 
L 213.66536 -128.989489 
L 213.628569 -128.989593 
L 213.592568 -128.989697 
L 213.557462 -128.989801 
L 213.523359 -128.989905 
L 213.490365 -128.990009 
L 213.458588 -128.990114 
L 213.428134 -128.990218 
L 213.399105 -128.990322 
L 213.371599 -128.990426 
L 213.345708 -128.99053 
L 213.321517 -128.990634 
L 213.299101 -128.990738 
L 213.278526 -128.990843 
L 213.259848 -128.990947 
L 213.243108 -128.991051 
L 213.228336 -128.991155 
L 213.215549 -128.991259 
L 213.204747 -128.991363 
L 213.195918 -128.991467 
L 213.189034 -128.991572 
L 213.184053 -128.991676 
L 213.180918 -128.99178 
L 213.17956 -128.991884 
L 213.179895 -128.991988 
L 213.18183 -128.992092 
L 213.185259 -128.992196 
L 213.190067 -128.992301 
L 213.196134 -128.992405 
L 213.203332 -128.992509 
L 213.211528 -128.992613 
L 213.22059 -128.992717 
L 213.230383 -128.992821 
L 213.240775 -128.992925 
L 213.251638 -128.99303 
L 213.26285 -128.993134 
L 213.274295 -128.993238 
L 213.285868 -128.993342 
L 213.297475 -128.993446 
L 213.309032 -128.99355 
L 213.320471 -128.993654 
L 213.331738 -128.993758 
L 213.342794 -128.993863 
L 213.353618 -128.993967 
L 213.364203 -128.994071 
L 213.374559 -128.994175 
L 213.384715 -128.994279 
L 213.394712 -128.994383 
L 213.404609 -128.994487 
L 213.414479 -128.994592 
L 213.424407 -128.994696 
L 213.434491 -128.9948 
L 213.44484 -128.994904 
L 213.455571 -128.995008 
L 213.466808 -128.995112 
L 213.47868 -128.995216 
L 213.49132 -128.995321 
L 213.504862 -128.995425 
L 213.519439 -128.995529 
L 213.535182 -128.995633 
L 213.552215 -128.995737 
L 213.57066 -128.995841 
L 213.590626 -128.995945 
L 213.612214 -128.99605 
L 213.635514 -128.996154 
L 213.660603 -128.996258 
L 213.687543 -128.996362 
L 213.716383 -128.996466 
L 213.747154 -128.99657 
L 213.779874 -128.996674 
L 213.81454 -128.996778 
L 213.851137 -128.996883 
L 213.889631 -128.996987 
L 213.929971 -128.997091 
L 217.770498 -128.997091 
L 217.770498 -128.997091 
L 217.810838 -128.996987 
L 217.849332 -128.996883 
L 217.885929 -128.996778 
L 217.920596 -128.996674 
L 217.953315 -128.99657 
L 217.984086 -128.996466 
L 218.012926 -128.996362 
L 218.039867 -128.996258 
L 218.064955 -128.996154 
L 218.088255 -128.99605 
L 218.109844 -128.995945 
L 218.129809 -128.995841 
L 218.148254 -128.995737 
L 218.165288 -128.995633 
L 218.18103 -128.995529 
L 218.195607 -128.995425 
L 218.20915 -128.995321 
L 218.22179 -128.995216 
L 218.233662 -128.995112 
L 218.244898 -128.995008 
L 218.255629 -128.994904 
L 218.265978 -128.9948 
L 218.276062 -128.994696 
L 218.28599 -128.994592 
L 218.29586 -128.994487 
L 218.305757 -128.994383 
L 218.315754 -128.994279 
L 218.32591 -128.994175 
L 218.336267 -128.994071 
L 218.346851 -128.993967 
L 218.357675 -128.993863 
L 218.368732 -128.993758 
L 218.379999 -128.993654 
L 218.391438 -128.99355 
L 218.402995 -128.993446 
L 218.414601 -128.993342 
L 218.426174 -128.993238 
L 218.437619 -128.993134 
L 218.448831 -128.99303 
L 218.459694 -128.992925 
L 218.470087 -128.992821 
L 218.47988 -128.992717 
L 218.488941 -128.992613 
L 218.497138 -128.992509 
L 218.504335 -128.992405 
L 218.510402 -128.992301 
L 218.515211 -128.992196 
L 218.518639 -128.992092 
L 218.520574 -128.991988 
L 218.520909 -128.991884 
L 218.519551 -128.99178 
L 218.516416 -128.991676 
L 218.511435 -128.991572 
L 218.504551 -128.991467 
L 218.495722 -128.991363 
L 218.48492 -128.991259 
L 218.472133 -128.991155 
L 218.457361 -128.991051 
L 218.440622 -128.990947 
L 218.421943 -128.990843 
L 218.401368 -128.990738 
L 218.378952 -128.990634 
L 218.354761 -128.99053 
L 218.32887 -128.990426 
L 218.301364 -128.990322 
L 218.272335 -128.990218 
L 218.241881 -128.990114 
L 218.210104 -128.990009 
L 218.17711 -128.989905 
L 218.143007 -128.989801 
L 218.107901 -128.989697 
L 218.071901 -128.989593 
L 218.035109 -128.989489 
L 217.997628 -128.989385 
L 217.959555 -128.989281 
L 217.920982 -128.989176 
L 217.881996 -128.989072 
L 217.842676 -128.988968 
L 217.803096 -128.988864 
L 217.763323 -128.98876 
L 217.723416 -128.988656 
L 217.683426 -128.988552 
L 217.643401 -128.988447 
L 217.603377 -128.988343 
L 217.563389 -128.988239 
L 217.523462 -128.988135 
L 217.483618 -128.988031 
L 217.443874 -128.987927 
L 217.404244 -128.987823 
L 217.364736 -128.987718 
L 217.325359 -128.987614 
L 217.286118 -128.98751 
L 217.247017 -128.987406 
L 217.208061 -128.987302 
L 217.169254 -128.987198 
L 217.130602 -128.987094 
L 217.092111 -128.986989 
L 217.05379 -128.986885 
L 217.01565 -128.986781 
z
" style="stroke: #6f6f6f; stroke-opacity: 0.5"/>
    </defs>
    <g clip-path="url(#pb66143ff08)">
     <use xlink:href="#m8ffd37db79" x="0" y="144" style="fill: #9e9e9e; fill-opacity: 0.5; stroke: #6f6f6f; stroke-opacity: 0.5"/>
    </g>
   </g>
   <g id="matplotlib.axis_1">
    <g id="xtick_1">
     <g id="line2d_1">
      <path d="M 55.609765 103.264 
L 55.609765 10.8 
" clip-path="url(#pb66143ff08)" style="fill: none; stroke: #b0b0b0; stroke-opacity: 0.2; stroke-width: 0.8; stroke-linecap: square"/>
     </g>
     <g id="line2d_2">
      <defs>
       <path id="m358a85f418" d="M 0 0 
L 0 3.5 
" style="stroke: #000000; stroke-width: 0.8"/>
      </defs>
      <g>
       <use xlink:href="#m358a85f418" x="55.609765" y="103.264" style="stroke: #000000; stroke-width: 0.8"/>
      </g>
     </g>
     <g id="text_1">
      <!-- 0 -->
      <g transform="translate(53.064765 116.34275) scale(0.08 -0.08)">
       <defs>
        <path id="DejaVuSans-30" d="M 2034 4250 
Q 1547 4250 1301 3770 
Q 1056 3291 1056 2328 
Q 1056 1369 1301 889 
Q 1547 409 2034 409 
Q 2525 409 2770 889 
Q 3016 1369 3016 2328 
Q 3016 3291 2770 3770 
Q 2525 4250 2034 4250 
z
M 2034 4750 
Q 2819 4750 3233 4129 
Q 3647 3509 3647 2328 
Q 3647 1150 3233 529 
Q 2819 -91 2034 -91 
Q 1250 -91 836 529 
Q 422 1150 422 2328 
Q 422 3509 836 4129 
Q 1250 4750 2034 4750 
z
" transform="scale(0.015625)"/>
       </defs>
       <use xlink:href="#DejaVuSans-30"/>
      </g>
     </g>
    </g>
    <g id="xtick_2">
     <g id="line2d_3">
      <path d="M 109.023255 103.264 
L 109.023255 10.8 
" clip-path="url(#pb66143ff08)" style="fill: none; stroke: #b0b0b0; stroke-opacity: 0.2; stroke-width: 0.8; stroke-linecap: square"/>
     </g>
     <g id="line2d_4">
      <g>
       <use xlink:href="#m358a85f418" x="109.023255" y="103.264" style="stroke: #000000; stroke-width: 0.8"/>
      </g>
     </g>
     <g id="text_2">
      <!-- 6 -->
      <g transform="translate(106.478255 116.34275) scale(0.08 -0.08)">
       <defs>
        <path id="DejaVuSans-36" d="M 2113 2584 
Q 1688 2584 1439 2293 
Q 1191 2003 1191 1497 
Q 1191 994 1439 701 
Q 1688 409 2113 409 
Q 2538 409 2786 701 
Q 3034 994 3034 1497 
Q 3034 2003 2786 2293 
Q 2538 2584 2113 2584 
z
M 3366 4563 
L 3366 3988 
Q 3128 4100 2886 4159 
Q 2644 4219 2406 4219 
Q 1781 4219 1451 3797 
Q 1122 3375 1075 2522 
Q 1259 2794 1537 2939 
Q 1816 3084 2150 3084 
Q 2853 3084 3261 2657 
Q 3669 2231 3669 1497 
Q 3669 778 3244 343 
Q 2819 -91 2113 -91 
Q 1303 -91 875 529 
Q 447 1150 447 2328 
Q 447 3434 972 4092 
Q 1497 4750 2381 4750 
Q 2619 4750 2861 4703 
Q 3103 4656 3366 4563 
z
" transform="scale(0.015625)"/>
       </defs>
       <use xlink:href="#DejaVuSans-36"/>
      </g>
     </g>
    </g>
    <g id="xtick_3">
     <g id="line2d_5">
      <path d="M 162.436745 103.264 
L 162.436745 10.8 
" clip-path="url(#pb66143ff08)" style="fill: none; stroke: #b0b0b0; stroke-opacity: 0.2; stroke-width: 0.8; stroke-linecap: square"/>
     </g>
     <g id="line2d_6">
      <g>
       <use xlink:href="#m358a85f418" x="162.436745" y="103.264" style="stroke: #000000; stroke-width: 0.8"/>
      </g>
     </g>
     <g id="text_3">
      <!-- 12 -->
      <g transform="translate(157.346745 116.34275) scale(0.08 -0.08)">
       <defs>
        <path id="DejaVuSans-31" d="M 794 531 
L 1825 531 
L 1825 4091 
L 703 3866 
L 703 4441 
L 1819 4666 
L 2450 4666 
L 2450 531 
L 3481 531 
L 3481 0 
L 794 0 
L 794 531 
z
" transform="scale(0.015625)"/>
        <path id="DejaVuSans-32" d="M 1228 531 
L 3431 531 
L 3431 0 
L 469 0 
L 469 531 
Q 828 903 1448 1529 
Q 2069 2156 2228 2338 
Q 2531 2678 2651 2914 
Q 2772 3150 2772 3378 
Q 2772 3750 2511 3984 
Q 2250 4219 1831 4219 
Q 1534 4219 1204 4116 
Q 875 4013 500 3803 
L 500 4441 
Q 881 4594 1212 4672 
Q 1544 4750 1819 4750 
Q 2544 4750 2975 4387 
Q 3406 4025 3406 3419 
Q 3406 3131 3298 2873 
Q 3191 2616 2906 2266 
Q 2828 2175 2409 1742 
Q 1991 1309 1228 531 
z
" transform="scale(0.015625)"/>
       </defs>
       <use xlink:href="#DejaVuSans-31"/>
       <use xlink:href="#DejaVuSans-32" transform="translate(63.623047 0)"/>
      </g>
     </g>
    </g>
    <g id="xtick_4">
     <g id="line2d_7">
      <path d="M 189.14349 103.264 
L 189.14349 10.8 
" clip-path="url(#pb66143ff08)" style="fill: none; stroke: #b0b0b0; stroke-opacity: 0.2; stroke-width: 0.8; stroke-linecap: square"/>
     </g>
     <g id="line2d_8">
      <g>
       <use xlink:href="#m358a85f418" x="189.14349" y="103.264" style="stroke: #000000; stroke-width: 0.8"/>
      </g>
     </g>
     <g id="text_4">
      <!-- 15 -->
      <g transform="translate(184.05349 116.34275) scale(0.08 -0.08)">
       <defs>
        <path id="DejaVuSans-35" d="M 691 4666 
L 3169 4666 
L 3169 4134 
L 1269 4134 
L 1269 2991 
Q 1406 3038 1543 3061 
Q 1681 3084 1819 3084 
Q 2600 3084 3056 2656 
Q 3513 2228 3513 1497 
Q 3513 744 3044 326 
Q 2575 -91 1722 -91 
Q 1428 -91 1123 -41 
Q 819 9 494 109 
L 494 744 
Q 775 591 1075 516 
Q 1375 441 1709 441 
Q 2250 441 2565 725 
Q 2881 1009 2881 1497 
Q 2881 1984 2565 2268 
Q 2250 2553 1709 2553 
Q 1456 2553 1204 2497 
Q 953 2441 691 2322 
L 691 4666 
z
" transform="scale(0.015625)"/>
       </defs>
       <use xlink:href="#DejaVuSans-31"/>
       <use xlink:href="#DejaVuSans-35" transform="translate(63.623047 0)"/>
      </g>
     </g>
    </g>
    <g id="xtick_5">
     <g id="line2d_9">
      <path d="M 215.850235 103.264 
L 215.850235 10.8 
" clip-path="url(#pb66143ff08)" style="fill: none; stroke: #b0b0b0; stroke-opacity: 0.2; stroke-width: 0.8; stroke-linecap: square"/>
     </g>
     <g id="line2d_10">
      <g>
       <use xlink:href="#m358a85f418" x="215.850235" y="103.264" style="stroke: #000000; stroke-width: 0.8"/>
      </g>
     </g>
     <g id="text_5">
      <!-- 18 -->
      <g transform="translate(210.760235 116.34275) scale(0.08 -0.08)">
       <defs>
        <path id="DejaVuSans-38" d="M 2034 2216 
Q 1584 2216 1326 1975 
Q 1069 1734 1069 1313 
Q 1069 891 1326 650 
Q 1584 409 2034 409 
Q 2484 409 2743 651 
Q 3003 894 3003 1313 
Q 3003 1734 2745 1975 
Q 2488 2216 2034 2216 
z
M 1403 2484 
Q 997 2584 770 2862 
Q 544 3141 544 3541 
Q 544 4100 942 4425 
Q 1341 4750 2034 4750 
Q 2731 4750 3128 4425 
Q 3525 4100 3525 3541 
Q 3525 3141 3298 2862 
Q 3072 2584 2669 2484 
Q 3125 2378 3379 2068 
Q 3634 1759 3634 1313 
Q 3634 634 3220 271 
Q 2806 -91 2034 -91 
Q 1263 -91 848 271 
Q 434 634 434 1313 
Q 434 1759 690 2068 
Q 947 2378 1403 2484 
z
M 1172 3481 
Q 1172 3119 1398 2916 
Q 1625 2713 2034 2713 
Q 2441 2713 2670 2916 
Q 2900 3119 2900 3481 
Q 2900 3844 2670 4047 
Q 2441 4250 2034 4250 
Q 1625 4250 1398 4047 
Q 1172 3844 1172 3481 
z
" transform="scale(0.015625)"/>
       </defs>
       <use xlink:href="#DejaVuSans-31"/>
       <use xlink:href="#DejaVuSans-38" transform="translate(63.623047 0)"/>
      </g>
     </g>
    </g>
    <g id="text_6">
     <!-- $\varepsilon_\mathrm{reactiveLJ}$ -->
     <g transform="translate(115.63 128.584625) scale(0.1 -0.1)">
      <defs>
       <path id="DejaVuSans-Oblique-3b5" d="M 1263 1888 
Q 925 1963 778 2166 
Q 669 2309 669 2503 
Q 669 3034 1175 3344 
Q 1575 3588 2188 3588 
Q 2425 3588 2684 3550 
Q 2944 3513 3234 3438 
L 3134 2916 
Q 2847 3006 2606 3047 
Q 2359 3088 2138 3088 
Q 1766 3088 1522 2944 
Q 1228 2772 1228 2522 
Q 1228 2356 1381 2241 
Q 1563 2103 1925 2103 
L 2409 2103 
L 2319 1628 
L 1856 1628 
Q 1425 1628 1172 1469 
Q 828 1253 828 916 
Q 828 703 1013 563 
Q 1244 388 1716 388 
Q 2006 388 2284 444 
Q 2563 503 2806 619 
L 2700 84 
Q 2403 -3 2131 -47 
Q 1859 -91 1609 -91 
Q 866 -91 516 194 
Q 250 413 250 781 
Q 250 1278 600 1584 
Q 859 1813 1263 1888 
z
" transform="scale(0.015625)"/>
       <path id="DejaVuSans-72" d="M 2631 2963 
Q 2534 3019 2420 3045 
Q 2306 3072 2169 3072 
Q 1681 3072 1420 2755 
Q 1159 2438 1159 1844 
L 1159 0 
L 581 0 
L 581 3500 
L 1159 3500 
L 1159 2956 
Q 1341 3275 1631 3429 
Q 1922 3584 2338 3584 
Q 2397 3584 2469 3576 
Q 2541 3569 2628 3553 
L 2631 2963 
z
" transform="scale(0.015625)"/>
       <path id="DejaVuSans-65" d="M 3597 1894 
L 3597 1613 
L 953 1613 
Q 991 1019 1311 708 
Q 1631 397 2203 397 
Q 2534 397 2845 478 
Q 3156 559 3463 722 
L 3463 178 
Q 3153 47 2828 -22 
Q 2503 -91 2169 -91 
Q 1331 -91 842 396 
Q 353 884 353 1716 
Q 353 2575 817 3079 
Q 1281 3584 2069 3584 
Q 2775 3584 3186 3129 
Q 3597 2675 3597 1894 
z
M 3022 2063 
Q 3016 2534 2758 2815 
Q 2500 3097 2075 3097 
Q 1594 3097 1305 2825 
Q 1016 2553 972 2059 
L 3022 2063 
z
" transform="scale(0.015625)"/>
       <path id="DejaVuSans-61" d="M 2194 1759 
Q 1497 1759 1228 1600 
Q 959 1441 959 1056 
Q 959 750 1161 570 
Q 1363 391 1709 391 
Q 2188 391 2477 730 
Q 2766 1069 2766 1631 
L 2766 1759 
L 2194 1759 
z
M 3341 1997 
L 3341 0 
L 2766 0 
L 2766 531 
Q 2569 213 2275 61 
Q 1981 -91 1556 -91 
Q 1019 -91 701 211 
Q 384 513 384 1019 
Q 384 1609 779 1909 
Q 1175 2209 1959 2209 
L 2766 2209 
L 2766 2266 
Q 2766 2663 2505 2880 
Q 2244 3097 1772 3097 
Q 1472 3097 1187 3025 
Q 903 2953 641 2809 
L 641 3341 
Q 956 3463 1253 3523 
Q 1550 3584 1831 3584 
Q 2591 3584 2966 3190 
Q 3341 2797 3341 1997 
z
" transform="scale(0.015625)"/>
       <path id="DejaVuSans-63" d="M 3122 3366 
L 3122 2828 
Q 2878 2963 2633 3030 
Q 2388 3097 2138 3097 
Q 1578 3097 1268 2742 
Q 959 2388 959 1747 
Q 959 1106 1268 751 
Q 1578 397 2138 397 
Q 2388 397 2633 464 
Q 2878 531 3122 666 
L 3122 134 
Q 2881 22 2623 -34 
Q 2366 -91 2075 -91 
Q 1284 -91 818 406 
Q 353 903 353 1747 
Q 353 2603 823 3093 
Q 1294 3584 2113 3584 
Q 2378 3584 2631 3529 
Q 2884 3475 3122 3366 
z
" transform="scale(0.015625)"/>
       <path id="DejaVuSans-74" d="M 1172 4494 
L 1172 3500 
L 2356 3500 
L 2356 3053 
L 1172 3053 
L 1172 1153 
Q 1172 725 1289 603 
Q 1406 481 1766 481 
L 2356 481 
L 2356 0 
L 1766 0 
Q 1100 0 847 248 
Q 594 497 594 1153 
L 594 3053 
L 172 3053 
L 172 3500 
L 594 3500 
L 594 4494 
L 1172 4494 
z
" transform="scale(0.015625)"/>
       <path id="DejaVuSans-69" d="M 603 3500 
L 1178 3500 
L 1178 0 
L 603 0 
L 603 3500 
z
M 603 4863 
L 1178 4863 
L 1178 4134 
L 603 4134 
L 603 4863 
z
" transform="scale(0.015625)"/>
       <path id="DejaVuSans-76" d="M 191 3500 
L 800 3500 
L 1894 563 
L 2988 3500 
L 3597 3500 
L 2284 0 
L 1503 0 
L 191 3500 
z
" transform="scale(0.015625)"/>
       <path id="DejaVuSans-4c" d="M 628 4666 
L 1259 4666 
L 1259 531 
L 3531 531 
L 3531 0 
L 628 0 
L 628 4666 
z
" transform="scale(0.015625)"/>
       <path id="DejaVuSans-4a" d="M 628 4666 
L 1259 4666 
L 1259 325 
Q 1259 -519 939 -900 
Q 619 -1281 -91 -1281 
L -331 -1281 
L -331 -750 
L -134 -750 
Q 284 -750 456 -515 
Q 628 -281 628 325 
L 628 4666 
z
" transform="scale(0.015625)"/>
      </defs>
      <use xlink:href="#DejaVuSans-Oblique-3b5" transform="translate(0 0.9375)"/>
      <use xlink:href="#DejaVuSans-72" transform="translate(54.052734 -15.46875) scale(0.7)"/>
      <use xlink:href="#DejaVuSans-65" transform="translate(82.832031 -15.46875) scale(0.7)"/>
      <use xlink:href="#DejaVuSans-61" transform="translate(125.898438 -15.46875) scale(0.7)"/>
      <use xlink:href="#DejaVuSans-63" transform="translate(168.793945 -15.46875) scale(0.7)"/>
      <use xlink:href="#DejaVuSans-74" transform="translate(207.280273 -15.46875) scale(0.7)"/>
      <use xlink:href="#DejaVuSans-69" transform="translate(234.726562 -15.46875) scale(0.7)"/>
      <use xlink:href="#DejaVuSans-76" transform="translate(254.174805 -15.46875) scale(0.7)"/>
      <use xlink:href="#DejaVuSans-65" transform="translate(295.600586 -15.46875) scale(0.7)"/>
      <use xlink:href="#DejaVuSans-4c" transform="translate(338.666992 -15.46875) scale(0.7)"/>
      <use xlink:href="#DejaVuSans-4a" transform="translate(377.666016 -15.46875) scale(0.7)"/>
     </g>
    </g>
   </g>
   <g id="matplotlib.axis_2">
    <g id="ytick_1">
     <g id="line2d_11">
      <path d="M 44.66 81.083028 
L 226.8 81.083028 
" clip-path="url(#pb66143ff08)" style="fill: none; stroke: #b0b0b0; stroke-opacity: 0.2; stroke-width: 0.8; stroke-linecap: square"/>
     </g>
     <g id="line2d_12">
      <defs>
       <path id="m23eb89ef79" d="M 0 0 
L -3.5 0 
" style="stroke: #000000; stroke-width: 0.8"/>
      </defs>
      <g>
       <use xlink:href="#m23eb89ef79" x="44.66" y="81.083028" style="stroke: #000000; stroke-width: 0.8"/>
      </g>
     </g>
     <g id="text_7">
      <!-- 0.5 -->
      <g transform="translate(24.9375 84.122403) scale(0.08 -0.08)">
       <defs>
        <path id="DejaVuSans-2e" d="M 684 794 
L 1344 794 
L 1344 0 
L 684 0 
L 684 794 
z
" transform="scale(0.015625)"/>
       </defs>
       <use xlink:href="#DejaVuSans-30"/>
       <use xlink:href="#DejaVuSans-2e" transform="translate(63.623047 0)"/>
       <use xlink:href="#DejaVuSans-35" transform="translate(95.410156 0)"/>
      </g>
     </g>
    </g>
    <g id="ytick_2">
     <g id="line2d_13">
      <path d="M 44.66 58.609312 
L 226.8 58.609312 
" clip-path="url(#pb66143ff08)" style="fill: none; stroke: #b0b0b0; stroke-opacity: 0.2; stroke-width: 0.8; stroke-linecap: square"/>
     </g>
     <g id="line2d_14">
      <g>
       <use xlink:href="#m23eb89ef79" x="44.66" y="58.609312" style="stroke: #000000; stroke-width: 0.8"/>
      </g>
     </g>
     <g id="text_8">
      <!-- 1.0 -->
      <g transform="translate(24.9375 61.648687) scale(0.08 -0.08)">
       <use xlink:href="#DejaVuSans-31"/>
       <use xlink:href="#DejaVuSans-2e" transform="translate(63.623047 0)"/>
       <use xlink:href="#DejaVuSans-30" transform="translate(95.410156 0)"/>
      </g>
     </g>
    </g>
    <g id="ytick_3">
     <g id="line2d_15">
      <path d="M 44.66 36.135596 
L 226.8 36.135596 
" clip-path="url(#pb66143ff08)" style="fill: none; stroke: #b0b0b0; stroke-opacity: 0.2; stroke-width: 0.8; stroke-linecap: square"/>
     </g>
     <g id="line2d_16">
      <g>
       <use xlink:href="#m23eb89ef79" x="44.66" y="36.135596" style="stroke: #000000; stroke-width: 0.8"/>
      </g>
     </g>
     <g id="text_9">
      <!-- 1.5 -->
      <g transform="translate(24.9375 39.174971) scale(0.08 -0.08)">
       <use xlink:href="#DejaVuSans-31"/>
       <use xlink:href="#DejaVuSans-2e" transform="translate(63.623047 0)"/>
       <use xlink:href="#DejaVuSans-35" transform="translate(95.410156 0)"/>
      </g>
     </g>
    </g>
    <g id="ytick_4">
     <g id="line2d_17">
      <path d="M 44.66 13.66188 
L 226.8 13.66188 
" clip-path="url(#pb66143ff08)" style="fill: none; stroke: #b0b0b0; stroke-opacity: 0.2; stroke-width: 0.8; stroke-linecap: square"/>
     </g>
     <g id="line2d_18">
      <g>
       <use xlink:href="#m23eb89ef79" x="44.66" y="13.66188" style="stroke: #000000; stroke-width: 0.8"/>
      </g>
     </g>
     <g id="text_10">
      <!-- 2.0 -->
      <g transform="translate(24.9375 16.701255) scale(0.08 -0.08)">
       <use xlink:href="#DejaVuSans-32"/>
       <use xlink:href="#DejaVuSans-2e" transform="translate(63.623047 0)"/>
       <use xlink:href="#DejaVuSans-30" transform="translate(95.410156 0)"/>
      </g>
     </g>
    </g>
    <g id="text_11">
     <!-- gelation epsilon -->
     <g transform="translate(18.857813 96.764031) rotate(-90) scale(0.1 -0.1)">
      <defs>
       <path id="DejaVuSans-67" d="M 2906 1791 
Q 2906 2416 2648 2759 
Q 2391 3103 1925 3103 
Q 1463 3103 1205 2759 
Q 947 2416 947 1791 
Q 947 1169 1205 825 
Q 1463 481 1925 481 
Q 2391 481 2648 825 
Q 2906 1169 2906 1791 
z
M 3481 434 
Q 3481 -459 3084 -895 
Q 2688 -1331 1869 -1331 
Q 1566 -1331 1297 -1286 
Q 1028 -1241 775 -1147 
L 775 -588 
Q 1028 -725 1275 -790 
Q 1522 -856 1778 -856 
Q 2344 -856 2625 -561 
Q 2906 -266 2906 331 
L 2906 616 
Q 2728 306 2450 153 
Q 2172 0 1784 0 
Q 1141 0 747 490 
Q 353 981 353 1791 
Q 353 2603 747 3093 
Q 1141 3584 1784 3584 
Q 2172 3584 2450 3431 
Q 2728 3278 2906 2969 
L 2906 3500 
L 3481 3500 
L 3481 434 
z
" transform="scale(0.015625)"/>
       <path id="DejaVuSans-6c" d="M 603 4863 
L 1178 4863 
L 1178 0 
L 603 0 
L 603 4863 
z
" transform="scale(0.015625)"/>
       <path id="DejaVuSans-6f" d="M 1959 3097 
Q 1497 3097 1228 2736 
Q 959 2375 959 1747 
Q 959 1119 1226 758 
Q 1494 397 1959 397 
Q 2419 397 2687 759 
Q 2956 1122 2956 1747 
Q 2956 2369 2687 2733 
Q 2419 3097 1959 3097 
z
M 1959 3584 
Q 2709 3584 3137 3096 
Q 3566 2609 3566 1747 
Q 3566 888 3137 398 
Q 2709 -91 1959 -91 
Q 1206 -91 779 398 
Q 353 888 353 1747 
Q 353 2609 779 3096 
Q 1206 3584 1959 3584 
z
" transform="scale(0.015625)"/>
       <path id="DejaVuSans-6e" d="M 3513 2113 
L 3513 0 
L 2938 0 
L 2938 2094 
Q 2938 2591 2744 2837 
Q 2550 3084 2163 3084 
Q 1697 3084 1428 2787 
Q 1159 2491 1159 1978 
L 1159 0 
L 581 0 
L 581 3500 
L 1159 3500 
L 1159 2956 
Q 1366 3272 1645 3428 
Q 1925 3584 2291 3584 
Q 2894 3584 3203 3211 
Q 3513 2838 3513 2113 
z
" transform="scale(0.015625)"/>
       <path id="DejaVuSans-20" transform="scale(0.015625)"/>
       <path id="DejaVuSans-70" d="M 1159 525 
L 1159 -1331 
L 581 -1331 
L 581 3500 
L 1159 3500 
L 1159 2969 
Q 1341 3281 1617 3432 
Q 1894 3584 2278 3584 
Q 2916 3584 3314 3078 
Q 3713 2572 3713 1747 
Q 3713 922 3314 415 
Q 2916 -91 2278 -91 
Q 1894 -91 1617 61 
Q 1341 213 1159 525 
z
M 3116 1747 
Q 3116 2381 2855 2742 
Q 2594 3103 2138 3103 
Q 1681 3103 1420 2742 
Q 1159 2381 1159 1747 
Q 1159 1113 1420 752 
Q 1681 391 2138 391 
Q 2594 391 2855 752 
Q 3116 1113 3116 1747 
z
" transform="scale(0.015625)"/>
       <path id="DejaVuSans-73" d="M 2834 3397 
L 2834 2853 
Q 2591 2978 2328 3040 
Q 2066 3103 1784 3103 
Q 1356 3103 1142 2972 
Q 928 2841 928 2578 
Q 928 2378 1081 2264 
Q 1234 2150 1697 2047 
L 1894 2003 
Q 2506 1872 2764 1633 
Q 3022 1394 3022 966 
Q 3022 478 2636 193 
Q 2250 -91 1575 -91 
Q 1294 -91 989 -36 
Q 684 19 347 128 
L 347 722 
Q 666 556 975 473 
Q 1284 391 1588 391 
Q 1994 391 2212 530 
Q 2431 669 2431 922 
Q 2431 1156 2273 1281 
Q 2116 1406 1581 1522 
L 1381 1569 
Q 847 1681 609 1914 
Q 372 2147 372 2553 
Q 372 3047 722 3315 
Q 1072 3584 1716 3584 
Q 2034 3584 2315 3537 
Q 2597 3491 2834 3397 
z
" transform="scale(0.015625)"/>
      </defs>
      <use xlink:href="#DejaVuSans-67"/>
      <use xlink:href="#DejaVuSans-65" transform="translate(63.476562 0)"/>
      <use xlink:href="#DejaVuSans-6c" transform="translate(125 0)"/>
      <use xlink:href="#DejaVuSans-61" transform="translate(152.783203 0)"/>
      <use xlink:href="#DejaVuSans-74" transform="translate(214.0625 0)"/>
      <use xlink:href="#DejaVuSans-69" transform="translate(253.271484 0)"/>
      <use xlink:href="#DejaVuSans-6f" transform="translate(281.054688 0)"/>
      <use xlink:href="#DejaVuSans-6e" transform="translate(342.236328 0)"/>
      <use xlink:href="#DejaVuSans-20" transform="translate(405.615234 0)"/>
      <use xlink:href="#DejaVuSans-65" transform="translate(437.402344 0)"/>
      <use xlink:href="#DejaVuSans-70" transform="translate(498.925781 0)"/>
      <use xlink:href="#DejaVuSans-73" transform="translate(562.402344 0)"/>
      <use xlink:href="#DejaVuSans-69" transform="translate(614.501953 0)"/>
      <use xlink:href="#DejaVuSans-6c" transform="translate(642.285156 0)"/>
      <use xlink:href="#DejaVuSans-6f" transform="translate(670.068359 0)"/>
      <use xlink:href="#DejaVuSans-6e" transform="translate(731.25 0)"/>
     </g>
    </g>
   </g>
   <g id="LineCollection_1">
    <path d="M 55.609765 99.057222 
L 55.609765 99.048397 
" clip-path="url(#pb66143ff08)" style="fill: none; stroke: #2b2b2b; stroke-width: 2"/>
   </g>
   <g id="LineCollection_2">
    <path d="M 109.023255 49.270725 
L 109.023255 49.265193 
" clip-path="url(#pb66143ff08)" style="fill: none; stroke: #2b2b2b; stroke-width: 2"/>
   </g>
   <g id="LineCollection_3">
    <path d="M 162.436745 20.749675 
L 162.436745 20.744307 
" clip-path="url(#pb66143ff08)" style="fill: none; stroke: #2b2b2b; stroke-width: 2"/>
   </g>
   <g id="LineCollection_4">
    <path d="M 189.14349 16.73269 
L 189.14349 16.729609 
" clip-path="url(#pb66143ff08)" style="fill: none; stroke: #2b2b2b; stroke-width: 2"/>
   </g>
   <g id="LineCollection_5">
    <path d="M 215.850235 15.009212 
L 215.850235 15.004593 
" clip-path="url(#pb66143ff08)" style="fill: none; stroke: #2b2b2b; stroke-width: 2"/>
   </g>
   <g id="line2d_19">
    <path d="M 55.609765 99.053354 
L 109.023255 49.268371 
L 162.436745 20.74776 
L 189.14349 16.731959 
L 215.850235 15.008118 
" clip-path="url(#pb66143ff08)" style="fill: none; stroke: #2b2b2b; stroke-opacity: 0.9; stroke-width: 1.8; stroke-linecap: square"/>
   </g>
   <g id="patch_3">
    <path d="M 44.66 103.264 
L 44.66 10.8 
" style="fill: none; stroke: #000000; stroke-width: 0.8; stroke-linejoin: miter; stroke-linecap: square"/>
   </g>
   <g id="patch_4">
    <path d="M 226.8 103.264 
L 226.8 10.8 
" style="fill: none; stroke: #000000; stroke-width: 0.8; stroke-linejoin: miter; stroke-linecap: square"/>
   </g>
   <g id="patch_5">
    <path d="M 44.66 103.264 
L 226.8 103.264 
" style="fill: none; stroke: #000000; stroke-width: 0.8; stroke-linejoin: miter; stroke-linecap: square"/>
   </g>
   <g id="patch_6">
    <path d="M 44.66 10.8 
L 226.8 10.8 
" style="fill: none; stroke: #000000; stroke-width: 0.8; stroke-linejoin: miter; stroke-linecap: square"/>
   </g>
   <g id="PathCollection_1">
    <defs>
     <path id="m85f0cc8e74" d="M 0 2.12132 
C 0.562581 2.12132 1.102195 1.897805 1.5 1.5 
C 1.897805 1.102195 2.12132 0.562581 2.12132 0 
C 2.12132 -0.562581 1.897805 -1.102195 1.5 -1.5 
C 1.102195 -1.897805 0.562581 -2.12132 0 -2.12132 
C -0.562581 -2.12132 -1.102195 -1.897805 -1.5 -1.5 
C -1.897805 -1.102195 -2.12132 -0.562581 -2.12132 0 
C -2.12132 0.562581 -1.897805 1.102195 -1.5 1.5 
C -1.102195 1.897805 -0.562581 2.12132 0 2.12132 
z
" style="stroke: #2b2b2b"/>
    </defs>
    <g clip-path="url(#pb66143ff08)">
     <use xlink:href="#m85f0cc8e74" x="55.609765" y="99.053354" style="fill: #2b2b2b; stroke: #2b2b2b"/>
    </g>
   </g>
   <g id="PathCollection_2">
    <g clip-path="url(#pb66143ff08)">
     <use xlink:href="#m85f0cc8e74" x="109.023255" y="49.268371" style="fill: #2b2b2b; stroke: #2b2b2b"/>
    </g>
   </g>
   <g id="PathCollection_3">
    <g clip-path="url(#pb66143ff08)">
     <use xlink:href="#m85f0cc8e74" x="162.436745" y="20.74776" style="fill: #2b2b2b; stroke: #2b2b2b"/>
    </g>
   </g>
   <g id="PathCollection_4">
    <g clip-path="url(#pb66143ff08)">
     <use xlink:href="#m85f0cc8e74" x="189.14349" y="16.731959" style="fill: #2b2b2b; stroke: #2b2b2b"/>
    </g>
   </g>
   <g id="PathCollection_5">
    <g clip-path="url(#pb66143ff08)">
     <use xlink:href="#m85f0cc8e74" x="215.850235" y="15.008118" style="fill: #2b2b2b; stroke: #2b2b2b"/>
    </g>
   </g>
  </g>
 </g>
 <defs>
  <clipPath id="pb66143ff08">
   <rect x="44.66" y="10.8" width="182.14" height="92.464"/>
  </clipPath>
 </defs>
</svg>
